# This file uses meters as units for non-parametric coordinates.

mtllib key.mtl
g default
v -3585.636105 115.513837 52.242391
v -3581.827683 109.814126 52.242391
v -3576.127975 106.005698 52.242391
v -3569.404709 104.668354 52.242391
v -3562.681442 106.005690 52.242391
v -3556.981730 109.814112 52.242391
v -3553.173303 115.513821 52.242391
v -3551.835960 122.237087 52.242391
v -3553.173299 128.960354 52.242391
v -3556.981722 134.660066 52.242391
v -3562.681431 138.468492 52.242391
v -3569.404698 139.805834 52.242391
v -3576.127964 138.468494 52.242391
v -3581.827675 134.660070 52.242391
v -3585.636099 128.960360 52.242391
v -3586.973441 122.237093 52.242391
v -3585.636105 115.513837 66.768607
v -3581.827683 109.814126 66.768607
v -3576.127975 106.005698 66.768607
v -3569.404709 104.668354 66.768607
v -3562.681442 106.005690 66.768607
v -3556.981730 109.814112 66.768607
v -3553.173303 115.513821 66.768607
v -3551.835960 122.237087 66.768607
v -3553.173299 128.960354 66.768607
v -3556.981722 134.660066 66.768607
v -3562.681431 138.468492 66.768607
v -3569.404698 139.805834 66.768607
v -3576.127964 138.468494 66.768607
v -3581.827675 134.660070 66.768607
v -3585.636099 128.960360 66.768607
v -3586.973441 122.237093 66.768607
v -3569.404700 122.237093 52.242391
v -3569.404700 122.237093 66.768607
vt 0.945281 0.343634
vt 0.846214 0.195370
vt 0.697950 0.096303
vt 0.523061 0.061516
vt 0.348172 0.096303
vt 0.199907 0.195370
vt 0.100841 0.343634
vt 0.066053 0.518523
vt 0.100840 0.693413
vt 0.199907 0.841677
vt 0.348171 0.940743
vt 0.523060 0.975531
vt 0.697950 0.940743
vt 0.846214 0.841677
vt 0.945281 0.693413
vt 0.980068 0.518523
vt 0.201598 0.052398
vt 0.238899 0.052398
vt 0.276199 0.052398
vt 0.313499 0.052398
vt 0.350799 0.052398
vt 0.388099 0.052398
vt 0.425400 0.052398
vt 0.462700 0.052398
vt 0.500000 0.052398
vt 0.537300 0.052398
vt 0.574600 0.052398
vt 0.611901 0.052398
vt 0.649201 0.052398
vt 0.686501 0.052398
vt 0.723801 0.052398
vt 0.761101 0.052398
vt 0.798402 0.052398
vt 0.201598 0.947602
vt 0.238899 0.947602
vt 0.276199 0.947602
vt 0.313499 0.947602
vt 0.350799 0.947602
vt 0.388099 0.947602
vt 0.425400 0.947602
vt 0.462700 0.947602
vt 0.500000 0.947602
vt 0.537300 0.947602
vt 0.574600 0.947602
vt 0.611901 0.947602
vt 0.649201 0.947602
vt 0.686501 0.947602
vt 0.723801 0.947602
vt 0.761101 0.947602
vt 0.798402 0.947602
vt 0.935593 0.329773
vt 0.836526 0.181509
vt 0.688262 0.082442
vt 0.513373 0.047654
vt 0.338484 0.082442
vt 0.190220 0.181508
vt 0.091153 0.329773
vt 0.056365 0.504662
vt 0.091153 0.679551
vt 0.190220 0.827815
vt 0.338484 0.926882
vt 0.513373 0.961670
vt 0.688262 0.926882
vt 0.836526 0.827815
vt 0.935593 0.679551
vt 0.970381 0.504662
vt 0.523061 0.518523
vt 0.513373 0.504662
vn -0.923880 -0.382683 0.000000
vn -0.707107 -0.707106 0.000000
vn -0.707107 -0.707106 0.000000
vn -0.923880 -0.382683 0.000000
vn -0.382684 -0.923879 0.000000
vn -0.382684 -0.923879 0.000000
vn -0.000001 -1.000000 0.000000
vn -0.000001 -1.000000 0.000000
vn 0.382683 -0.923880 0.000000
vn 0.382683 -0.923880 0.000000
vn 0.707106 -0.707107 0.000000
vn 0.707106 -0.707107 0.000000
vn 0.923879 -0.382684 0.000000
vn 0.923879 -0.382684 0.000000
vn 1.000000 -0.000000 0.000000
vn 1.000000 -0.000000 0.000000
vn 0.923880 0.382683 -0.000000
vn 0.923880 0.382683 -0.000000
vn 0.707107 0.707107 -0.000000
vn 0.707107 0.707107 -0.000000
vn 0.382684 0.923879 -0.000000
vn 0.382684 0.923879 -0.000000
vn 0.000000 1.000000 -0.000000
vn 0.000000 1.000000 -0.000000
vn -0.382683 0.923880 -0.000000
vn -0.382683 0.923880 -0.000000
vn -0.707107 0.707107 -0.000000
vn -0.707107 0.707107 -0.000000
vn -0.923880 0.382683 -0.000000
vn -0.923880 0.382683 -0.000000
vn -1.000000 0.000000 -0.000000
vn -1.000000 0.000000 -0.000000
vn 0.000000 -0.000000 -1.000000
vn 0.000000 -0.000000 -1.000000
vn 0.000000 -0.000000 -1.000000
vn 0.000000 -0.000000 -1.000000
vn 0.000000 -0.000000 -1.000000
vn 0.000000 -0.000000 -1.000000
vn 0.000000 -0.000000 -1.000000
vn 0.000000 -0.000000 -1.000000
vn 0.000000 -0.000000 -1.000000
vn 0.000000 -0.000000 -1.000000
vn 0.000000 -0.000000 -1.000000
vn 0.000000 -0.000000 -1.000000
vn 0.000000 -0.000000 -1.000000
vn 0.000000 -0.000000 -1.000000
vn 0.000000 -0.000000 -1.000000
vn 0.000000 -0.000000 -1.000000
vn 0.000000 -0.000000 -1.000000
vn -0.000000 0.000000 1.000000
vn -0.000000 0.000000 1.000000
vn -0.000000 0.000000 1.000000
vn -0.000000 0.000000 1.000000
vn -0.000000 0.000000 1.000000
vn 0.000000 -0.000000 1.000000
vn -0.000000 0.000000 1.000000
vn -0.000000 0.000000 1.000000
vn -0.000000 0.000000 1.000000
vn -0.000000 0.000000 1.000000
vn -0.000000 0.000000 1.000000
vn -0.000000 0.000000 1.000000
vn -0.000000 0.000000 1.000000
vn 0.000000 -0.000000 1.000000
vn -0.000000 0.000000 1.000000
vn -0.000000 0.000000 1.000000
vn -0.000000 0.000000 1.000000
s 1
g pCylinder82
usemtl lambert8SG
f 1/17/1 2/18/2 18/35/3 17/34/4
f 2/18/2 3/19/5 19/36/6 18/35/3
f 3/19/5 4/20/7 20/37/8 19/36/6
f 4/20/7 5/21/9 21/38/10 20/37/8
f 5/21/9 6/22/11 22/39/12 21/38/10
f 6/22/11 7/23/13 23/40/14 22/39/12
f 7/23/13 8/24/15 24/41/16 23/40/14
f 8/24/15 9/25/17 25/42/18 24/41/16
f 9/25/17 10/26/19 26/43/20 25/42/18
f 10/26/19 11/27/21 27/44/22 26/43/20
f 11/27/21 12/28/23 28/45/24 27/44/22
f 12/28/23 13/29/25 29/46/26 28/45/24
f 13/29/25 14/30/27 30/47/28 29/46/26
f 14/30/27 15/31/29 31/48/30 30/47/28
f 15/31/29 16/32/31 32/49/32 31/48/30
f 16/32/31 1/33/1 17/50/4 32/49/32
s 2
f 2/2/33 1/1/34 33/67/35
f 3/3/36 2/2/33 33/67/35
f 4/4/37 3/3/36 33/67/35
f 5/5/38 4/4/37 33/67/35
f 6/6/39 5/5/38 33/67/35
f 7/7/40 6/6/39 33/67/35
f 8/8/41 7/7/40 33/67/35
f 9/9/42 8/8/41 33/67/35
f 10/10/43 9/9/42 33/67/35
f 11/11/44 10/10/43 33/67/35
f 12/12/45 11/11/44 33/67/35
f 13/13/46 12/12/45 33/67/35
f 14/14/47 13/13/46 33/67/35
f 15/15/48 14/14/47 33/67/35
f 16/16/49 15/15/48 33/67/35
f 1/1/34 16/16/49 33/67/35
s 3
f 17/65/50 18/64/51 34/68/52
f 18/64/51 19/63/53 34/68/52
f 19/63/53 20/62/54 34/68/52
f 20/62/54 21/61/55 34/68/52
f 21/61/55 22/60/56 34/68/52
f 22/60/56 23/59/57 34/68/52
f 23/59/57 24/58/58 34/68/52
f 24/58/58 25/57/59 34/68/52
f 25/57/59 26/56/60 34/68/52
f 26/56/60 27/55/61 34/68/52
f 27/55/61 28/54/62 34/68/52
f 28/54/62 29/53/63 34/68/52
f 29/53/63 30/52/64 34/68/52
f 30/52/64 31/51/65 34/68/52
f 31/51/65 32/66/66 34/68/52
f 32/66/66 17/65/50 34/68/52
g default
v -3585.636105 115.513837 -13.968176
v -3581.827683 109.814126 -13.968176
v -3576.127975 106.005698 -13.968176
v -3569.404709 104.668354 -13.968176
v -3562.681442 106.005690 -13.968176
v -3556.981730 109.814112 -13.968176
v -3553.173303 115.513821 -13.968176
v -3551.835960 122.237087 -13.968176
v -3553.173299 128.960354 -13.968176
v -3556.981722 134.660066 -13.968176
v -3562.681431 138.468492 -13.968176
v -3569.404698 139.805834 -13.968176
v -3576.127964 138.468494 -13.968176
v -3581.827675 134.660070 -13.968176
v -3585.636099 128.960360 -13.968176
v -3586.973441 122.237093 -13.968176
v -3585.636105 115.513837 0.558040
v -3581.827683 109.814126 0.558040
v -3576.127975 106.005698 0.558040
v -3569.404709 104.668354 0.558040
v -3562.681442 106.005690 0.558040
v -3556.981730 109.814112 0.558040
v -3553.173303 115.513821 0.558040
v -3551.835960 122.237087 0.558040
v -3553.173299 128.960354 0.558040
v -3556.981722 134.660066 0.558040
v -3562.681431 138.468492 0.558040
v -3569.404698 139.805834 0.558040
v -3576.127964 138.468494 0.558040
v -3581.827675 134.660070 0.558040
v -3585.636099 128.960360 0.558040
v -3586.973441 122.237093 0.558040
v -3569.404700 122.237093 -13.968176
v -3569.404700 122.237093 0.558040
vt 0.911776 0.372140
vt 0.818268 0.232196
vt 0.678324 0.138688
vt 0.513249 0.105852
vt 0.348173 0.138688
vt 0.208229 0.232195
vt 0.114722 0.372139
vt 0.081886 0.537215
vt 0.114722 0.702290
vt 0.208229 0.842234
vt 0.348173 0.935742
vt 0.513248 0.968577
vt 0.678324 0.935742
vt 0.818268 0.842234
vt 0.911776 0.702290
vt 0.944611 0.537215
vt 0.230238 0.095357
vt 0.263958 0.095357
vt 0.297678 0.095357
vt 0.331399 0.095357
vt 0.365119 0.095357
vt 0.398839 0.095357
vt 0.432559 0.095357
vt 0.466280 0.095357
vt 0.500000 0.095357
vt 0.533720 0.095357
vt 0.567441 0.095357
vt 0.601161 0.095357
vt 0.634881 0.095357
vt 0.668601 0.095357
vt 0.702322 0.095357
vt 0.736042 0.095357
vt 0.769762 0.095357
vt 0.230238 0.904643
vt 0.263958 0.904643
vt 0.297678 0.904643
vt 0.331399 0.904643
vt 0.365119 0.904643
vt 0.398839 0.904643
vt 0.432559 0.904643
vt 0.466280 0.904643
vt 0.500000 0.904643
vt 0.533720 0.904643
vt 0.567441 0.904643
vt 0.601161 0.904643
vt 0.634881 0.904643
vt 0.668601 0.904643
vt 0.702322 0.904643
vt 0.736042 0.904643
vt 0.769762 0.904643
vt 0.911776 0.340768
vt 0.818268 0.200824
vt 0.678324 0.107316
vt 0.513249 0.074481
vt 0.348173 0.107316
vt 0.208229 0.200824
vt 0.114722 0.340768
vt 0.081886 0.505843
vt 0.114722 0.670919
vt 0.208229 0.810862
vt 0.348173 0.904370
vt 0.513248 0.937206
vt 0.678324 0.904370
vt 0.818268 0.810862
vt 0.911776 0.670919
vt 0.944611 0.505843
vt 0.513249 0.537215
vt 0.513249 0.505843
vn -0.923880 -0.382683 0.000000
vn -0.707107 -0.707106 0.000000
vn -0.707107 -0.707106 0.000000
vn -0.923880 -0.382683 0.000000
vn -0.382684 -0.923879 0.000000
vn -0.382684 -0.923879 0.000000
vn -0.000001 -1.000000 0.000000
vn -0.000001 -1.000000 0.000000
vn 0.382683 -0.923880 0.000000
vn 0.382683 -0.923880 0.000000
vn 0.707106 -0.707107 0.000000
vn 0.707106 -0.707107 0.000000
vn 0.923879 -0.382684 0.000000
vn 0.923879 -0.382684 0.000000
vn 1.000000 -0.000000 0.000000
vn 1.000000 -0.000000 0.000000
vn 0.923880 0.382683 -0.000000
vn 0.923880 0.382683 -0.000000
vn 0.707107 0.707107 -0.000000
vn 0.707107 0.707107 -0.000000
vn 0.382684 0.923879 -0.000000
vn 0.382684 0.923879 -0.000000
vn 0.000000 1.000000 -0.000000
vn 0.000000 1.000000 -0.000000
vn -0.382683 0.923880 -0.000000
vn -0.382683 0.923880 -0.000000
vn -0.707107 0.707107 -0.000000
vn -0.707107 0.707107 -0.000000
vn -0.923880 0.382683 -0.000000
vn -0.923880 0.382683 -0.000000
vn -1.000000 0.000000 -0.000000
vn -1.000000 0.000000 -0.000000
vn 0.000000 -0.000000 -1.000000
vn 0.000000 -0.000000 -1.000000
vn 0.000000 -0.000000 -1.000000
vn 0.000000 -0.000000 -1.000000
vn 0.000000 -0.000000 -1.000000
vn 0.000000 -0.000000 -1.000000
vn 0.000000 -0.000000 -1.000000
vn 0.000000 -0.000000 -1.000000
vn 0.000000 -0.000000 -1.000000
vn 0.000000 -0.000000 -1.000000
vn 0.000000 -0.000000 -1.000000
vn 0.000000 -0.000000 -1.000000
vn 0.000000 -0.000000 -1.000000
vn 0.000000 -0.000000 -1.000000
vn 0.000000 -0.000000 -1.000000
vn 0.000000 -0.000000 -1.000000
vn 0.000000 -0.000000 -1.000000
vn -0.000000 0.000000 1.000000
vn -0.000000 0.000000 1.000000
vn -0.000000 0.000000 1.000000
vn -0.000000 0.000000 1.000000
vn -0.000000 0.000000 1.000000
vn 0.000000 -0.000000 1.000000
vn -0.000000 0.000000 1.000000
vn -0.000000 0.000000 1.000000
vn -0.000000 0.000000 1.000000
vn -0.000000 0.000000 1.000000
vn -0.000000 0.000000 1.000000
vn -0.000000 0.000000 1.000000
vn -0.000000 0.000000 1.000000
vn 0.000000 -0.000000 1.000000
vn -0.000000 0.000000 1.000000
vn -0.000000 0.000000 1.000000
vn -0.000000 0.000000 1.000000
s 1
g pCylinder81
usemtl lambert8SG
f 35/85/67 36/86/68 52/103/69 51/102/70
f 36/86/68 37/87/71 53/104/72 52/103/69
f 37/87/71 38/88/73 54/105/74 53/104/72
f 38/88/73 39/89/75 55/106/76 54/105/74
f 39/89/75 40/90/77 56/107/78 55/106/76
f 40/90/77 41/91/79 57/108/80 56/107/78
f 41/91/79 42/92/81 58/109/82 57/108/80
f 42/92/81 43/93/83 59/110/84 58/109/82
f 43/93/83 44/94/85 60/111/86 59/110/84
f 44/94/85 45/95/87 61/112/88 60/111/86
f 45/95/87 46/96/89 62/113/90 61/112/88
f 46/96/89 47/97/91 63/114/92 62/113/90
f 47/97/91 48/98/93 64/115/94 63/114/92
f 48/98/93 49/99/95 65/116/96 64/115/94
f 49/99/95 50/100/97 66/117/98 65/116/96
f 50/100/97 35/101/67 51/118/70 66/117/98
s 2
f 36/70/99 35/69/100 67/135/101
f 37/71/102 36/70/99 67/135/101
f 38/72/103 37/71/102 67/135/101
f 39/73/104 38/72/103 67/135/101
f 40/74/105 39/73/104 67/135/101
f 41/75/106 40/74/105 67/135/101
f 42/76/107 41/75/106 67/135/101
f 43/77/108 42/76/107 67/135/101
f 44/78/109 43/77/108 67/135/101
f 45/79/110 44/78/109 67/135/101
f 46/80/111 45/79/110 67/135/101
f 47/81/112 46/80/111 67/135/101
f 48/82/113 47/81/112 67/135/101
f 49/83/114 48/82/113 67/135/101
f 50/84/115 49/83/114 67/135/101
f 35/69/100 50/84/115 67/135/101
s 3
f 51/133/116 52/132/117 68/136/118
f 52/132/117 53/131/119 68/136/118
f 53/131/119 54/130/120 68/136/118
f 54/130/120 55/129/121 68/136/118
f 55/129/121 56/128/122 68/136/118
f 56/128/122 57/127/123 68/136/118
f 57/127/123 58/126/124 68/136/118
f 58/126/124 59/125/125 68/136/118
f 59/125/125 60/124/126 68/136/118
f 60/124/126 61/123/127 68/136/118
f 61/123/127 62/122/128 68/136/118
f 62/122/128 63/121/129 68/136/118
f 63/121/129 64/120/130 68/136/118
f 64/120/130 65/119/131 68/136/118
f 65/119/131 66/134/132 68/136/118
f 66/134/132 51/133/116 68/136/118
g default
v -3598.088355 133.631058 -56.664336
v -3591.250220 133.631058 -66.899038
v -3581.014584 133.631058 -73.737650
v -3568.941869 133.631058 -76.139053
v -3556.868846 133.631058 -73.737664
v -3546.634749 133.631058 -66.899072
v -3539.795999 133.631058 -56.664370
v -3537.395750 133.631058 -44.591727
v -3539.795999 133.631058 -32.519072
v -3546.634749 133.631058 -22.284369
v -3556.868846 133.631058 -15.445760
v -3568.941869 133.631058 -13.044362
v -3581.014584 133.631058 -15.445760
v -3591.250220 133.631058 -22.284359
v -3598.088355 133.631058 -32.519062
v -3600.489219 133.631058 -44.591707
v -3598.088355 110.060450 -56.664336
v -3591.250220 110.060450 -66.899038
v -3581.014584 110.060450 -73.737650
v -3568.941869 110.060450 -76.139053
v -3556.868846 110.060450 -73.737664
v -3546.634749 110.060450 -66.899072
v -3539.795999 110.060450 -56.664370
v -3537.395750 110.060450 -44.591727
v -3539.795999 110.060450 -32.519072
v -3546.634749 110.060450 -22.284369
v -3556.868846 110.060450 -15.445760
v -3568.941869 110.060450 -13.044362
v -3581.014584 110.060450 -15.445760
v -3591.250220 110.060450 -22.284359
v -3598.088355 110.060450 -32.519062
v -3600.489219 110.060450 -44.591707
v -3588.747998 135.692622 -52.966601
v -3590.685819 135.692622 -44.591707
v -3588.747998 135.692622 -36.216804
v -3583.232141 135.692622 -29.116901
v -3574.978380 135.692622 -24.372901
v -3568.941869 135.692622 -23.643017
v -3562.907514 135.692622 -24.372906
v -3554.652521 135.692622 -29.116905
v -3549.137896 135.692622 -36.216814
v -3547.199151 135.692622 -44.591717
v -3549.137896 135.692622 -52.966620
v -3554.652521 135.692622 -60.066526
v -3562.907514 135.692622 -64.810524
v -3568.941869 135.692622 -65.540398
v -3574.978380 135.692622 -64.810509
v -3583.232141 135.692622 -60.066507
v -3588.747998 107.998885 -52.966601
v -3590.685819 107.998885 -44.591707
v -3588.747998 107.998885 -36.216804
v -3583.232141 107.998885 -29.116901
v -3574.978380 107.998885 -24.372901
v -3568.941869 107.998885 -23.643017
v -3562.907514 107.998885 -24.372906
v -3554.652521 107.998885 -29.116905
v -3549.137896 107.998885 -36.216814
v -3547.199151 107.998885 -44.591717
v -3549.137896 107.998885 -52.966620
v -3554.652521 107.998885 -60.066526
v -3562.907514 107.998885 -64.810524
v -3568.941869 107.998885 -65.540398
v -3574.978380 107.998885 -64.810509
v -3583.232141 107.998885 -60.066507
vt 0.693080 0.231810
vt 0.743223 0.186079
vt 0.838817 0.288515
vt 0.789527 0.334942
vt 0.793343 0.137798
vt 0.890609 0.243360
vt 0.842048 0.082455
vt 0.155240 0.940900
vt 0.106670 0.779997
vt 0.203941 0.885552
vt 0.158453 0.734843
vt 0.254053 0.837274
vt 0.207743 0.688413
vt 0.304194 0.791538
vt 0.256396 0.642467
vt 0.353414 0.746081
vt 0.304601 0.596642
vt 0.402429 0.700675
vt 0.353215 0.551312
vt 0.450859 0.654615
vt 0.401674 0.505878
vt 0.499159 0.608669
vt 0.450031 0.460649
vt 0.547228 0.562698
vt 0.498099 0.414677
vt 0.595584 0.517473
vt 0.546407 0.368728
vt 0.644049 0.472034
vt 0.594837 0.322670
vt 0.692663 0.426709
vt 0.643856 0.277266
vt 0.740870 0.380884
vt 0.867178 0.257109
vt 0.803321 0.260945
vt 0.934794 0.253047
vt 0.035141 0.307097
vt 0.078313 0.304503
vt 0.145937 0.300440
vt 0.209789 0.296604
vt 0.270846 0.292936
vt 0.331902 0.289268
vt 0.395754 0.285431
vt 0.463378 0.281369
vt 0.506550 0.278775
vt 0.549737 0.276180
vt 0.617353 0.272118
vt 0.681211 0.268282
vt 0.742266 0.264613
vt 0.754083 0.461310
vt 0.815138 0.457642
vt 0.693028 0.464978
vt 0.629171 0.468815
vt 0.561554 0.472877
vt 0.518367 0.475472
vt 0.475195 0.478066
vt 0.407571 0.482128
vt 0.343719 0.485964
vt 0.282663 0.489633
vt 0.221606 0.493301
vt 0.157754 0.497137
vt 0.090130 0.501200
vt 0.989799 0.447149
vt 0.946612 0.449743
vt 0.878995 0.453806
vt 0.702171 0.139527
vt 0.651734 0.187382
vt 0.751642 0.090344
vt 0.772963 0.057926
vt 0.063569 0.733571
vt 0.115764 0.689638
vt 0.166620 0.643659
vt 0.214182 0.595598
vt 0.264793 0.549921
vt 0.315931 0.500017
vt 0.372066 0.448540
vt 0.408540 0.416399
vt 0.442772 0.381698
vt 0.497618 0.328358
vt 0.550860 0.279971
vt 0.600044 0.231941
vt 0.881506 0.333721
vt 0.830640 0.379695
vt 0.933694 0.289793
vt 0.224328 0.965423
vt 0.245640 0.933016
vt 0.295110 0.883821
vt 0.345544 0.835972
vt 0.397229 0.791405
vt 0.446415 0.743376
vt 0.499644 0.694987
vt 0.554497 0.641643
vt 0.588715 0.606952
vt 0.625198 0.574801
vt 0.681329 0.523335
vt 0.732467 0.473424
vt 0.783081 0.427756
vt 0.029884 0.751282
vt 0.046959 0.503793
vt 0.967393 0.272078
vt 0.977982 0.250452
vt 0.049498 0.820657
vt 0.947782 0.202704
vn -0.923894 -0.000000 -0.382648
vn -0.707097 -0.000000 -0.707116
vn -0.707097 -0.000000 -0.707116
vn -0.923894 -0.000000 -0.382648
vn -0.382669 -0.000000 -0.923885
vn -0.382669 -0.000000 -0.923885
vn -0.000001 -0.000000 -1.000000
vn -0.000001 -0.000000 -1.000000
vn 0.382686 0.000000 -0.923878
vn 0.382686 0.000000 -0.923878
vn 0.707116 0.000000 -0.707097
vn 0.707116 0.000000 -0.707097
vn 0.923894 0.000000 -0.382648
vn 0.923894 0.000000 -0.382648
vn 1.000000 0.000000 0.000000
vn 1.000000 0.000000 0.000000
vn 0.923894 0.000000 0.382648
vn 0.923894 0.000000 0.382648
vn 0.707116 0.000000 0.707097
vn 0.707116 0.000000 0.707097
vn 0.382687 0.000000 0.923878
vn 0.382687 0.000000 0.923878
vn 0.000000 0.000000 1.000000
vn 0.000000 0.000000 1.000000
vn -0.382669 -0.000000 0.923886
vn -0.382669 -0.000000 0.923886
vn -0.707097 -0.000000 0.707116
vn -0.707097 -0.000000 0.707116
vn -0.923894 -0.000000 0.382648
vn -0.923894 -0.000000 0.382648
vn -1.000000 -0.000000 0.000000
vn -1.000000 -0.000000 0.000000
vn -0.182267 -0.979982 -0.080085
vn -0.133653 -0.981128 -0.139732
vn -0.129924 -0.981187 -0.142799
vn -0.181410 -0.980012 -0.081649
vn -0.076335 -0.981226 -0.177114
vn -0.067201 -0.981126 -0.181316
vn -0.000000 -0.980496 -0.196536
vn 0.000000 -0.980497 -0.196537
vn 0.076338 -0.981227 -0.177103
vn 0.067198 -0.981128 -0.181309
vn 0.133647 -0.981130 -0.139723
vn 0.129920 -0.981189 -0.142789
vn 0.182258 -0.979984 -0.080078
vn 0.181400 -0.980015 -0.081644
vn 0.202591 -0.979263 -0.000000
vn 0.202591 -0.979263 0.000000
vn 0.182258 -0.979984 0.080078
vn 0.181400 -0.980014 0.081644
vn 0.133647 -0.981130 0.139723
vn 0.129920 -0.981189 0.142789
vn 0.076338 -0.981227 0.177103
vn 0.067198 -0.981128 0.181309
vn 0.000000 -0.980497 0.196536
vn 0.000000 -0.980497 0.196536
vn -0.076334 -0.981226 0.177114
vn -0.067201 -0.981126 0.181316
vn -0.133653 -0.981128 0.139732
vn -0.129924 -0.981187 0.142799
vn -0.182267 -0.979982 0.080085
vn -0.181410 -0.980012 0.081649
vn -0.202606 -0.979260 0.000000
vn -0.202606 -0.979260 -0.000000
vn -0.182268 0.979982 -0.080085
vn -0.202606 0.979260 0.000000
vn -0.202606 0.979260 -0.000000
vn -0.181410 0.980012 -0.081649
vn -0.182267 0.979982 0.080085
vn -0.181410 0.980012 0.081649
vn -0.133653 0.981128 0.139732
vn -0.129924 0.981187 0.142799
vn -0.076334 0.981226 0.177114
vn -0.067201 0.981126 0.181316
vn 0.000000 0.980497 0.196536
vn 0.000000 0.980497 0.196536
vn 0.076338 0.981227 0.177103
vn 0.067198 0.981128 0.181309
vn 0.133647 0.981130 0.139723
vn 0.129920 0.981189 0.142789
vn 0.182258 0.979984 0.080078
vn 0.181400 0.980014 0.081644
vn 0.202591 0.979263 -0.000000
vn 0.202591 0.979263 0.000000
vn 0.182258 0.979984 -0.080078
vn 0.181400 0.980015 -0.081644
vn 0.133647 0.981130 -0.139723
vn 0.129920 0.981189 -0.142789
vn 0.076338 0.981227 -0.177103
vn 0.067198 0.981128 -0.181309
vn -0.000000 0.980496 -0.196536
vn 0.000000 0.980497 -0.196537
vn -0.076335 0.981226 -0.177114
vn -0.067201 0.981126 -0.181316
vn -0.133653 0.981128 -0.139732
vn -0.129924 0.981187 -0.142799
vn 0.498320 0.000000 -0.866993
vn 0.498320 0.000000 -0.866993
vn 0.498320 0.000000 -0.866993
vn 0.498320 0.000000 -0.866993
vn -0.498264 -0.000000 -0.867025
vn -0.498264 -0.000000 -0.867025
vn -0.498264 -0.000000 -0.867025
vn -0.498264 -0.000000 -0.867025
vn 0.120037 0.000000 -0.992769
vn 0.120037 0.000000 -0.992769
vn 0.120037 0.000000 -0.992769
vn 0.120037 0.000000 -0.992769
vn -0.120080 -0.000000 -0.992764
vn -0.120080 -0.000000 -0.992764
vn -0.120080 -0.000000 -0.992764
vn -0.120080 -0.000000 -0.992764
vn 0.789691 0.000000 -0.613505
vn 0.789691 0.000000 -0.613505
vn 0.789691 0.000000 -0.613505
vn 0.789691 0.000000 -0.613505
vn -0.789758 -0.000000 -0.613419
vn -0.789758 -0.000000 -0.613419
vn -0.789758 -0.000000 -0.613419
vn -0.789758 -0.000000 -0.613419
vn 0.974260 0.000000 -0.225428
vn 0.974260 0.000000 -0.225428
vn 0.974260 0.000000 -0.225428
vn 0.974260 0.000000 -0.225428
vn -0.974236 -0.000000 -0.225530
vn -0.974236 -0.000000 -0.225530
vn -0.974236 -0.000000 -0.225530
vn -0.974236 -0.000000 -0.225530
vn 0.974260 0.000000 0.225429
vn 0.974260 0.000000 0.225429
vn 0.974260 0.000000 0.225429
vn 0.974260 0.000000 0.225429
vn -0.974236 -0.000000 0.225530
vn -0.974236 -0.000000 0.225530
vn -0.974236 -0.000000 0.225530
vn -0.974236 -0.000000 0.225530
vn 0.789691 0.000000 0.613504
vn 0.789691 0.000000 0.613504
vn 0.789691 0.000000 0.613504
vn 0.789691 0.000000 0.613504
vn -0.789758 -0.000000 0.613419
vn -0.789758 -0.000000 0.613419
vn -0.789758 -0.000000 0.613419
vn -0.789758 -0.000000 0.613419
vn 0.498320 0.000000 0.866993
vn 0.498320 0.000000 0.866993
vn 0.498320 0.000000 0.866993
vn 0.498320 0.000000 0.866993
vn -0.498264 -0.000000 0.867025
vn -0.498264 -0.000000 0.867025
vn -0.498264 -0.000000 0.867025
vn -0.498264 -0.000000 0.867025
vn 0.120038 0.000000 0.992769
vn 0.120038 0.000000 0.992769
vn 0.120038 0.000000 0.992769
vn 0.120038 0.000000 0.992769
vn -0.120078 -0.000000 0.992765
vn -0.120078 -0.000000 0.992765
vn -0.120078 -0.000000 0.992765
vn -0.120078 -0.000000 0.992765
s 1
g pCylinder80
usemtl lambert8SG
f 69/137/133 70/138/134 86/139/135 85/140/136
f 70/138/134 71/141/137 87/142/138 86/139/135
f 71/141/137 72/143/139 88/238/140 87/142/138
f 72/237/139 73/145/141 89/146/142 88/144/140
f 73/145/141 74/147/143 90/148/144 89/146/142
f 74/147/143 75/149/145 91/150/146 90/148/144
f 75/149/145 76/151/147 92/152/148 91/150/146
f 76/151/147 77/153/149 93/154/150 92/152/148
f 77/153/149 78/155/151 94/156/152 93/154/150
f 78/155/151 79/157/153 95/158/154 94/156/152
f 79/157/153 80/159/155 96/160/156 95/158/154
f 80/159/155 81/161/157 97/162/158 96/160/156
f 81/161/157 82/163/159 98/164/160 97/162/158
f 82/163/159 83/165/161 99/166/162 98/164/160
f 83/165/161 84/167/163 100/168/164 99/166/162
f 84/167/163 69/137/133 85/140/136 100/168/164
s 2
f 85/140/165 86/139/166 132/217/167 117/218/168
f 86/139/166 87/142/169 131/219/170 132/217/167
f 87/142/169 88/238/171 130/235/172 131/219/170
f 88/144/171 89/146/173 129/221/174 130/220/172
f 89/146/173 90/148/175 128/222/176 129/221/174
f 90/148/175 91/150/177 127/223/178 128/222/176
f 91/150/177 92/152/179 126/224/180 127/223/178
f 92/152/179 93/154/181 125/225/182 126/224/180
f 93/154/181 94/156/183 124/226/184 125/225/182
f 94/156/183 95/158/185 123/227/186 124/226/184
f 95/158/185 96/160/187 122/228/188 123/227/186
f 96/160/187 97/162/189 121/229/190 122/228/188
f 97/162/189 98/164/191 120/230/192 121/229/190
f 98/164/191 99/166/193 119/231/194 120/230/192
f 99/166/193 100/168/195 118/232/196 119/231/194
f 100/168/195 85/140/165 117/218/168 118/232/196
s 3
f 69/137/197 84/167/198 102/216/199 101/202/200
f 84/167/198 83/165/201 103/215/202 102/216/199
f 83/165/201 82/163/203 104/214/204 103/215/202
f 82/163/203 81/161/205 105/213/206 104/214/204
f 81/161/205 80/159/207 106/212/208 105/213/206
f 80/159/207 79/157/209 107/211/210 106/212/208
f 79/157/209 78/155/211 108/210/212 107/211/210
f 78/155/211 77/153/213 109/209/214 108/210/212
f 77/153/213 76/151/215 110/208/216 109/209/214
f 76/151/215 75/149/217 111/207/218 110/208/216
f 75/149/217 74/147/219 112/206/220 111/207/218
f 74/147/219 73/145/221 113/205/222 112/206/220
f 73/145/221 72/237/223 114/233/224 113/205/222
f 72/143/223 71/141/225 115/203/226 114/204/224
f 71/141/225 70/138/227 116/201/228 115/203/226
f 70/138/227 69/137/197 101/202/200 116/201/228
s off
f 104/188/229 105/189/230 121/181/231 120/182/232
f 107/191/233 108/192/234 124/178/235 123/179/236
f 105/189/237 106/190/238 122/180/239 121/181/240
f 106/190/241 107/191/242 123/179/243 122/180/244
f 103/187/245 104/188/246 120/182/247 119/183/248
f 108/192/249 109/193/250 125/177/251 124/178/252
f 102/185/253 103/187/254 119/183/255 118/184/256
f 109/193/257 110/194/258 126/176/259 125/177/260
f 101/186/261 102/185/262 118/184/263 117/170/264
f 110/194/265 111/195/266 127/175/267 126/176/268
f 116/200/269 101/186/270 117/170/271 132/169/272
f 111/195/273 112/196/274 128/174/275 127/175/276
f 115/199/277 116/200/278 132/169/279 131/171/280
f 112/196/281 113/197/282 129/173/283 128/174/284
f 114/198/285 115/199/286 131/171/287 130/236/288
f 113/197/289 114/234/290 130/172/291 129/173/292
g default
v -3578.604206 126.047647 56.968473
v -3576.445699 129.278083 56.968473
v -3573.215264 131.436593 56.968473
v -3569.404705 132.194563 56.968473
v -3565.594146 131.436598 56.968473
v -3562.363709 129.278091 56.968473
v -3560.205199 126.047656 56.968473
v -3559.447230 122.237097 56.968473
v -3560.205197 118.426537 56.968473
v -3562.363704 115.196100 56.968473
v -3565.594140 113.037591 56.968473
v -3569.404699 112.279623 56.968473
v -3573.215258 113.037590 56.968473
v -3576.445694 115.196098 56.968473
v -3578.604203 118.426534 56.968473
v -3579.362171 122.237093 56.968473
v -3578.604206 126.047647 -6.082096
v -3576.445699 129.278083 -6.082096
v -3573.215264 131.436593 -6.082096
v -3569.404705 132.194563 -6.082096
v -3565.594146 131.436598 -6.082096
v -3562.363709 129.278091 -6.082096
v -3560.205199 126.047656 -6.082096
v -3559.447230 122.237097 -6.082096
v -3560.205197 118.426537 -6.082096
v -3562.363704 115.196100 -6.082096
v -3565.594140 113.037591 -6.082096
v -3569.404699 112.279623 -6.082096
v -3573.215258 113.037590 -6.082096
v -3576.445694 115.196098 -6.082096
v -3578.604203 118.426534 -6.082096
v -3579.362171 122.237093 -6.082096
v -3569.404700 122.237093 56.968473
v -3569.404700 122.237093 -6.082096
vt 0.644356 0.096456
vt 0.610485 0.045765
vt 0.559794 0.011894
vt 0.500000 0.000000
vt 0.440206 0.011894
vt 0.389515 0.045765
vt 0.355644 0.096456
vt 0.343750 0.156250
vt 0.355644 0.216044
vt 0.389515 0.266735
vt 0.440206 0.300606
vt 0.500000 0.312500
vt 0.559794 0.300606
vt 0.610485 0.266735
vt 0.644356 0.216044
vt 0.656250 0.156250
vt 0.178168 0.017253
vt 0.218397 0.017253
vt 0.258626 0.017253
vt 0.298855 0.017253
vt 0.339084 0.017253
vt 0.379313 0.017253
vt 0.419542 0.017253
vt 0.459771 0.017253
vt 0.500000 0.017253
vt 0.540229 0.017253
vt 0.580458 0.017253
vt 0.620687 0.017253
vt 0.660916 0.017253
vt 0.701145 0.017253
vt 0.741374 0.017253
vt 0.781603 0.017253
vt 0.821832 0.017253
vt 0.178168 0.982747
vt 0.218397 0.982747
vt 0.258626 0.982747
vt 0.298855 0.982747
vt 0.339084 0.982747
vt 0.379313 0.982747
vt 0.419542 0.982747
vt 0.459771 0.982747
vt 0.500000 0.982747
vt 0.540229 0.982747
vt 0.580458 0.982747
vt 0.620687 0.982747
vt 0.660916 0.982747
vt 0.701145 0.982747
vt 0.741374 0.982747
vt 0.781603 0.982747
vt 0.821832 0.982747
vt 0.644356 0.783956
vt 0.610485 0.733265
vt 0.559794 0.699394
vt 0.500000 0.687500
vt 0.440206 0.699394
vt 0.389515 0.733265
vt 0.355644 0.783956
vt 0.343750 0.843750
vt 0.355644 0.903544
vt 0.389515 0.954235
vt 0.440206 0.988106
vt 0.500000 1.000000
vt 0.559794 0.988106
vt 0.610485 0.954235
vt 0.644356 0.903544
vt 0.656250 0.843750
vt 0.500000 0.156250
vt 0.500000 0.843750
vn -0.923880 0.382683 0.000000
vn -0.707107 0.707107 0.000000
vn -0.707107 0.707107 0.000000
vn -0.923880 0.382683 0.000000
vn -0.382684 0.923879 0.000000
vn -0.382684 0.923879 0.000000
vn -0.000001 1.000000 0.000000
vn -0.000001 1.000000 0.000000
vn 0.382683 0.923880 0.000000
vn 0.382683 0.923880 0.000000
vn 0.707106 0.707107 0.000000
vn 0.707106 0.707107 0.000000
vn 0.923879 0.382684 0.000000
vn 0.923879 0.382684 0.000000
vn 1.000000 0.000000 0.000000
vn 1.000000 0.000000 0.000000
vn 0.923880 -0.382683 -0.000000
vn 0.923880 -0.382683 -0.000000
vn 0.707107 -0.707107 -0.000000
vn 0.707107 -0.707107 -0.000000
vn 0.382684 -0.923880 -0.000000
vn 0.382684 -0.923880 -0.000000
vn 0.000000 -1.000000 -0.000000
vn 0.000000 -1.000000 -0.000000
vn -0.382683 -0.923880 -0.000000
vn -0.382683 -0.923880 -0.000000
vn -0.707107 -0.707107 -0.000000
vn -0.707107 -0.707107 -0.000000
vn -0.923880 -0.382683 -0.000000
vn -0.923880 -0.382683 -0.000000
vn -1.000000 -0.000000 -0.000000
vn -1.000000 -0.000000 -0.000000
vn 0.000000 -0.000000 1.000000
vn 0.000000 -0.000000 1.000000
vn -0.000000 0.000000 1.000000
vn -0.000000 0.000000 1.000000
vn -0.000000 0.000000 1.000000
vn -0.000000 0.000000 1.000000
vn -0.000000 0.000000 1.000000
vn 0.000000 -0.000000 1.000000
vn 0.000000 -0.000000 1.000000
vn 0.000000 -0.000000 1.000000
vn 0.000000 -0.000000 1.000000
vn -0.000000 0.000000 1.000000
vn -0.000000 0.000000 1.000000
vn -0.000000 0.000000 1.000000
vn -0.000000 0.000000 1.000000
vn 0.000000 -0.000000 1.000000
vn 0.000000 -0.000000 1.000000
vn -0.000000 0.000000 -1.000000
vn -0.000000 0.000000 -1.000000
vn 0.000000 -0.000000 -1.000000
vn -0.000000 0.000000 -1.000000
vn 0.000000 -0.000000 -1.000000
vn -0.000000 0.000000 -1.000000
vn 0.000000 -0.000000 -1.000000
vn 0.000000 -0.000000 -1.000000
vn -0.000000 0.000000 -1.000000
vn -0.000000 0.000000 -1.000000
vn -0.000000 0.000000 -1.000000
vn -0.000000 0.000000 -1.000000
vn 0.000000 -0.000000 -1.000000
vn -0.000000 0.000000 -1.000000
vn 0.000000 -0.000000 -1.000000
vn 0.000000 -0.000000 -1.000000
vn -0.000000 0.000000 -1.000000
s 1
g pCylinder83
usemtl lambert8SG
f 133/255/293 134/256/294 150/273/295 149/272/296
f 134/256/294 135/257/297 151/274/298 150/273/295
f 135/257/297 136/258/299 152/275/300 151/274/298
f 136/258/299 137/259/301 153/276/302 152/275/300
f 137/259/301 138/260/303 154/277/304 153/276/302
f 138/260/303 139/261/305 155/278/306 154/277/304
f 139/261/305 140/262/307 156/279/308 155/278/306
f 140/262/307 141/263/309 157/280/310 156/279/308
f 141/263/309 142/264/311 158/281/312 157/280/310
f 142/264/311 143/265/313 159/282/314 158/281/312
f 143/265/313 144/266/315 160/283/316 159/282/314
f 144/266/315 145/267/317 161/284/318 160/283/316
f 145/267/317 146/268/319 162/285/320 161/284/318
f 146/268/319 147/269/321 163/286/322 162/285/320
f 147/269/321 148/270/323 164/287/324 163/286/322
f 148/270/323 133/271/293 149/288/296 164/287/324
s 2
f 134/240/325 133/239/326 165/305/327
f 135/241/328 134/240/325 165/305/327
f 136/242/329 135/241/328 165/305/327
f 137/243/330 136/242/329 165/305/327
f 138/244/331 137/243/330 165/305/327
f 139/245/332 138/244/331 165/305/327
f 140/246/333 139/245/332 165/305/327
f 141/247/334 140/246/333 165/305/327
f 142/248/335 141/247/334 165/305/327
f 143/249/336 142/248/335 165/305/327
f 144/250/337 143/249/336 165/305/327
f 145/251/338 144/250/337 165/305/327
f 146/252/339 145/251/338 165/305/327
f 147/253/340 146/252/339 165/305/327
f 148/254/341 147/253/340 165/305/327
f 133/239/326 148/254/341 165/305/327
s 3
f 149/303/342 150/302/343 166/306/344
f 150/302/343 151/301/345 166/306/344
f 151/301/345 152/300/346 166/306/344
f 152/300/346 153/299/347 166/306/344
f 153/299/347 154/298/348 166/306/344
f 154/298/348 155/297/349 166/306/344
f 155/297/349 156/296/350 166/306/344
f 156/296/350 157/295/351 166/306/344
f 157/295/351 158/294/352 166/306/344
f 158/294/352 159/293/353 166/306/344
f 159/293/353 160/292/354 166/306/344
f 160/292/354 161/291/355 166/306/344
f 161/291/355 162/290/356 166/306/344
f 162/290/356 163/289/357 166/306/344
f 163/289/357 164/304/358 166/306/344
f 164/304/358 149/303/342 166/306/344
g default
v -3578.563134 115.625692 120.082251
v -3560.022508 115.625692 120.082251
v -3578.563134 129.008316 120.082251
v -3560.022508 129.008316 120.082251
v -3578.563134 129.008316 66.518692
v -3560.022508 129.008316 66.518692
v -3578.563134 115.625692 66.518692
v -3560.022508 115.625692 66.518692
v -3578.563134 129.008316 104.579565
v -3578.563134 115.625692 104.579565
v -3560.022508 115.625692 104.579565
v -3560.022508 129.008316 104.579565
v -3578.563134 129.008316 91.892622
v -3578.563134 115.625692 91.892622
v -3560.022508 115.625692 91.892622
v -3560.022508 129.008316 91.892622
v -3578.563134 129.008316 79.205655
v -3578.563134 115.625692 79.205655
v -3560.022508 115.625692 79.205655
v -3560.022508 129.008316 79.205655
v -3578.563134 129.008316 91.892622
v -3578.563134 115.625692 91.892622
v -3578.563134 115.625692 104.579565
v -3578.563134 129.008316 104.579565
v -3560.022508 115.625692 104.579565
v -3560.022508 129.008316 104.579565
v -3560.022508 115.625692 91.892622
v -3560.022508 129.008316 91.892622
v -3578.563134 115.625692 66.518692
v -3578.563134 115.625692 79.205655
v -3578.563134 129.008316 79.205655
v -3578.563134 129.008316 66.518692
v -3560.022508 115.625692 79.205655
v -3560.022508 129.008316 79.205655
v -3560.022508 115.625692 66.518692
v -3560.022508 129.008316 66.518692
v -3595.315572 129.008316 91.892622
v -3595.315572 115.625692 91.892622
v -3595.315572 115.625692 104.579565
v -3595.315572 129.008316 104.579565
v -3595.315572 115.625692 66.518692
v -3595.315572 115.625692 79.205655
v -3595.315572 129.008316 79.205655
v -3595.315572 129.008316 66.518692
vt 0.375000 0.000000
vt 0.625000 0.000000
vt 0.375000 0.250000
vt 0.625000 0.250000
vt 0.375000 0.500000
vt 0.625000 0.500000
vt 0.375000 0.750000
vt 0.625000 0.750000
vt 0.375000 1.000000
vt 0.625000 1.000000
vt 0.875000 0.000000
vt 0.875000 0.250000
vt 0.125000 0.000000
vt 0.125000 0.250000
vt 0.312500 0.250000
vt 0.375000 0.312500
vt 0.312500 0.000000
vt 0.375000 0.937500
vt 0.625000 0.937500
vt 0.687500 0.000000
vt 0.625000 0.312500
vt 0.687500 0.250000
vt 0.250000 0.250000
vt 0.375000 0.375000
vt 0.250000 0.000000
vt 0.375000 0.875000
vt 0.625000 0.875000
vt 0.750000 0.000000
vt 0.625000 0.375000
vt 0.750000 0.250000
vt 0.187500 0.250000
vt 0.375000 0.437500
vt 0.187500 0.000000
vt 0.375000 0.812500
vt 0.625000 0.812500
vt 0.812500 0.000000
vt 0.625000 0.437500
vt 0.812500 0.250000
vt 0.250000 0.250000
vt 0.250000 0.000000
vt 0.312500 0.000000
vt 0.312500 0.250000
vt 0.687500 0.250000
vt 0.687500 0.000000
vt 0.750000 0.000000
vt 0.750000 0.250000
vt 0.125000 0.000000
vt 0.187500 0.000000
vt 0.187500 0.250000
vt 0.125000 0.250000
vt 0.812500 0.250000
vt 0.812500 0.000000
vt 0.875000 0.000000
vt 0.875000 0.250000
vt 0.250000 0.250000
vt 0.250000 0.000000
vt 0.312500 0.000000
vt 0.312500 0.250000
vt 0.125000 0.000000
vt 0.187500 0.000000
vt 0.187500 0.250000
vt 0.125000 0.250000
vn 0.000000 0.000000 1.000000
vn 0.000000 0.000000 1.000000
vn 0.000000 0.000000 1.000000
vn 0.000000 0.000000 1.000000
vn 0.000000 1.000000 0.000000
vn 0.000000 1.000000 0.000000
vn 0.000000 1.000000 0.000000
vn 0.000000 1.000000 0.000000
vn 0.000000 0.000000 -1.000000
vn 0.000000 0.000000 -1.000000
vn 0.000000 0.000000 -1.000000
vn 0.000000 0.000000 -1.000000
vn 0.000000 -1.000000 0.000000
vn 0.000000 -1.000000 0.000000
vn 0.000000 -1.000000 0.000000
vn 0.000000 -1.000000 0.000000
vn 1.000000 0.000000 0.000000
vn 1.000000 0.000000 0.000000
vn 1.000000 0.000000 0.000000
vn 1.000000 0.000000 0.000000
vn -1.000000 0.000000 0.000000
vn -1.000000 0.000000 0.000000
vn -1.000000 0.000000 0.000000
vn -1.000000 0.000000 0.000000
vn -1.000000 0.000000 0.000000
vn -1.000000 0.000000 0.000000
vn -1.000000 0.000000 0.000000
vn -1.000000 0.000000 0.000000
vn 0.000000 -1.000000 0.000000
vn 0.000000 -1.000000 0.000000
vn 1.000000 0.000000 0.000000
vn 1.000000 0.000000 0.000000
vn 1.000000 0.000000 0.000000
vn 1.000000 0.000000 0.000000
vn 0.000000 1.000000 0.000000
vn 0.000000 1.000000 0.000000
vn -1.000000 0.000000 0.000000
vn -1.000000 0.000000 0.000000
vn -1.000000 0.000000 0.000000
vn -1.000000 0.000000 0.000000
vn 0.000000 -1.000000 0.000000
vn 0.000000 -1.000000 0.000000
vn 1.000000 0.000000 0.000000
vn 1.000000 0.000000 0.000000
vn 1.000000 0.000000 0.000000
vn 1.000000 0.000000 0.000000
vn 0.000000 1.000000 0.000000
vn 0.000000 1.000000 0.000000
vn -1.000000 0.000000 0.000000
vn -1.000000 0.000000 0.000000
vn -1.000000 0.000000 0.000000
vn -1.000000 0.000000 0.000000
vn 0.000000 -1.000000 0.000000
vn 0.000000 -1.000000 0.000000
vn 1.000000 0.000000 0.000000
vn 1.000000 0.000000 0.000000
vn 1.000000 0.000000 0.000000
vn 1.000000 0.000000 0.000000
vn 0.000000 1.000000 0.000000
vn 0.000000 1.000000 0.000000
vn 0.000000 0.000000 0.000000
vn 0.000000 0.000000 0.000000
vn 0.000000 0.000000 0.000000
vn 0.000000 0.000000 0.000000
vn 0.000000 0.000000 0.000000
vn 0.000000 0.000000 0.000000
vn 0.000000 0.000000 0.000000
vn 0.000000 0.000000 0.000000
vn 0.000000 0.000000 0.000000
vn 0.000000 0.000000 0.000000
vn 0.000000 0.000000 0.000000
vn 0.000000 0.000000 0.000000
vn 0.000000 0.000000 0.000000
vn 0.000000 0.000000 0.000000
vn 0.000000 0.000000 0.000000
vn 0.000000 0.000000 0.000000
vn 0.000000 0.000000 0.000000
vn 0.000000 0.000000 0.000000
vn 0.000000 0.000000 0.000000
vn 0.000000 0.000000 0.000000
vn 0.000000 0.000000 0.000000
vn 0.000000 0.000000 0.000000
vn 0.000000 0.000000 0.000000
vn 0.000000 0.000000 0.000000
vn 0.000000 0.000000 0.000000
vn 0.000000 0.000000 0.000000
vn 0.000000 0.000000 0.000000
vn 0.000000 0.000000 0.000000
vn 0.000000 0.000000 0.000000
vn 0.000000 0.000000 0.000000
vn 0.000000 0.000000 0.000000
vn 0.000000 0.000000 0.000000
vn 0.000000 0.000000 0.000000
vn 0.000000 0.000000 0.000000
vn 0.000000 0.000000 0.000000
vn 0.000000 0.000000 0.000000
vn 0.000000 0.000000 0.000000
vn 0.000000 0.000000 0.000000
vn 0.000000 0.000000 0.000000
vn 0.000000 0.000000 0.000000
vn 0.000000 0.000000 0.000000
vn 0.000000 0.000000 0.000000
vn 0.000000 0.000000 0.000000
vn 0.000000 0.000000 0.000000
vn 0.000000 0.000000 0.000000
vn 0.000000 0.000000 0.000000
vn 0.000000 0.000000 0.000000
vn 0.000000 0.000000 0.000000
vn 0.000000 0.000000 0.000000
vn 0.000000 0.000000 0.000000
vn 0.000000 0.000000 0.000000
vn 0.000000 0.000000 0.000000
vn 0.000000 0.000000 0.000000
vn 0.000000 0.000000 0.000000
vn 0.000000 0.000000 0.000000
vn 0.000000 0.000000 0.000000
vn 0.000000 0.000000 0.000000
vn 0.000000 0.000000 0.000000
vn 0.000000 0.000000 0.000000
vn 0.000000 0.000000 0.000000
vn 0.000000 0.000000 0.000000
vn 0.000000 0.000000 0.000000
vn 0.000000 0.000000 0.000000
vn 0.000000 0.000000 0.000000
vn 0.000000 0.000000 -1.000000
vn 0.000000 0.000000 -1.000000
vn 0.000000 0.000000 -1.000000
vn 0.000000 0.000000 -1.000000
vn 0.000000 -1.000000 0.000000
vn 0.000000 -1.000000 0.000000
vn 0.000000 -1.000000 0.000000
vn 0.000000 -1.000000 0.000000
vn 0.000000 0.000000 1.000000
vn 0.000000 0.000000 1.000000
vn 0.000000 0.000000 1.000000
vn 0.000000 0.000000 1.000000
vn 0.000000 1.000000 0.000000
vn 0.000000 1.000000 0.000000
vn 0.000000 1.000000 0.000000
vn 0.000000 1.000000 0.000000
vn 0.000000 -1.000000 0.000000
vn 0.000000 -1.000000 0.000000
vn 0.000000 -1.000000 0.000000
vn 0.000000 -1.000000 0.000000
vn 0.000000 0.000000 1.000000
vn 0.000000 0.000000 1.000000
vn 0.000000 0.000000 1.000000
vn 0.000000 0.000000 1.000000
vn 0.000000 1.000000 0.000000
vn 0.000000 1.000000 0.000000
vn 0.000000 1.000000 0.000000
vn 0.000000 1.000000 0.000000
vn 0.000000 0.000000 -1.000000
vn 0.000000 0.000000 -1.000000
vn 0.000000 0.000000 -1.000000
vn 0.000000 0.000000 -1.000000
s off
g pCube90
usemtl lambert8SG
f 167/307/359 168/308/360 170/310/361 169/309/362
s 1
f 169/309/363 170/310/364 178/327/365 175/322/366
s off
f 171/311/367 172/312/368 174/314/369 173/313/370
s 2
f 176/324/371 177/325/372 168/316/373 167/315/374
s off
f 168/308/375 177/326/376 178/328/377 170/310/378
f 175/321/379 176/323/380 167/307/381 169/309/382
f 203/361/383 204/362/384 205/363/385 206/364/386
s 2
f 180/332/387 181/333/388 177/325/372 176/324/371
s off
f 192/349/389 191/350/390 193/351/391 194/352/392
s 1
f 175/322/366 178/327/365 182/335/393 179/330/394
s off
f 183/337/395 184/339/396 180/331/397 179/329/398
s 2
f 184/340/399 185/341/400 181/333/388 180/332/387
s off
f 182/336/401 181/334/402 185/342/403 186/344/404
s 1
f 179/330/394 182/335/393 186/343/405 183/338/406
s off
f 207/365/407 208/366/408 209/367/409 210/368/410
s 2
f 173/313/411 174/314/412 185/341/400 184/340/399
s off
f 200/357/413 199/358/414 201/359/415 202/360/416
s 1
f 183/338/406 186/343/405 172/312/417 171/311/418
s off
f 179/329/419 180/331/420 188/346/421 187/345/422
f 180/331/423 176/323/424 189/347/425 188/346/426
f 176/323/427 175/321/428 190/348/429 189/347/430
f 175/321/431 179/329/432 187/345/433 190/348/434
f 178/328/435 177/326/436 191/350/437 192/349/438
f 177/326/439 181/334/440 193/351/441 191/350/442
f 181/334/443 182/336/444 194/352/445 193/351/446
f 182/336/447 178/328/448 192/349/449 194/352/450
f 173/319/451 184/339/452 196/354/453 195/353/454
f 184/339/455 183/337/456 197/355/457 196/354/458
f 183/337/459 171/320/460 198/356/461 197/355/462
f 171/320/463 173/319/464 195/353/465 198/356/466
f 186/344/467 185/342/468 199/358/469 200/357/470
f 185/342/471 174/317/472 201/359/473 199/358/474
f 174/317/475 172/318/476 202/360/477 201/359/478
f 172/318/479 186/344/480 200/357/481 202/360/482
f 187/345/483 188/346/484 204/362/485 203/361/486
f 188/346/487 189/347/488 205/363/489 204/362/490
f 189/347/491 190/348/492 206/364/493 205/363/494
f 190/348/495 187/345/496 203/361/497 206/364/498
f 195/353/499 196/354/500 208/366/501 207/365/502
f 196/354/503 197/355/504 209/367/505 208/366/506
f 197/355/507 198/356/508 210/368/509 209/367/510
f 198/356/511 195/353/512 207/365/513 210/368/514
