# This file uses meters as units for non-parametric coordinates.

mtllib paintingsmall.mtl
g default
v -3095.261907 125.773640 -162.616817
v -3095.261907 270.368873 -162.616817
v -3095.261907 270.368873 -283.161655
v -3095.261907 125.773640 -283.161655
v -3097.851904 125.773640 -162.616817
v -3097.851904 270.368873 -162.616817
v -3097.851904 270.368873 -283.161655
v -3097.851904 125.773640 -283.161655
v -3097.187454 132.048627 -166.995820
v -3097.187454 132.048627 -278.782707
v -3097.187454 264.093842 -166.995820
v -3097.187454 264.093842 -278.782707
v -3099.406469 127.327880 -163.372632
v -3099.779476 129.114404 -164.511789
v -3099.406469 127.327880 -282.405895
v -3099.779476 129.114404 -281.266701
v -3099.406469 268.814633 -163.372632
v -3099.779476 267.028021 -164.511789
v -3099.406469 268.814633 -282.405895
v -3099.779476 267.028021 -281.266701
vt 0.769610 0.522169
vt 0.847923 0.522169
vt 0.847923 0.600481
vt 0.730454 0.522169
vt 0.769610 0.600481
vt 0.769610 0.678794
vt 0.769610 0.757107
vt 0.769610 0.835420
vt 0.706962 0.834929
vt 0.701294 0.834189
vt 0.701294 0.758338
vt 0.706469 0.599640
vt 0.706962 0.756265
vt 0.701308 0.755298
vt 0.701308 0.680604
vt 0.701294 0.601712
vt 0.706962 0.678303
vt 0.701294 0.677563
vt 0.730454 0.835420
vt 0.706962 0.757598
vt 0.706469 0.523010
vt 0.730454 0.600481
vt 0.706962 0.600972
vt 0.730454 0.678794
vt 0.706962 0.679636
vt 0.730454 0.757107
vt 0.690479 0.523572
vt 0.613803 0.523572
vt 0.690479 0.599078
vt 0.690479 0.523572
vt 0.613803 0.599078
vt 0.690479 0.599078
vt 0.613803 0.523572
vt 0.613803 0.599078
vn 1.000000 0.000000 0.000000
vn 1.000000 0.000000 0.000000
vn 1.000000 0.000000 0.000000
vn 1.000000 0.000000 0.000000
vn 0.000000 0.000000 1.000000
vn 0.000000 0.000000 1.000000
vn 0.000000 0.000000 1.000000
vn 0.000000 0.000000 1.000000
vn 0.000000 1.000000 0.000000
vn 0.000000 1.000000 0.000000
vn 0.000000 1.000000 0.000000
vn 0.000000 1.000000 0.000000
vn 0.000000 0.000000 -1.000000
vn 0.000000 0.000000 -1.000000
vn 0.000000 0.000000 -1.000000
vn 0.000000 0.000000 -1.000000
vn 0.000000 -1.000000 0.000000
vn 0.000000 -1.000000 0.000000
vn 0.000000 -1.000000 0.000000
vn 0.000000 -1.000000 0.000000
vn -0.999718 0.000000 0.023753
vn -0.999718 0.000000 -0.023753
vn -0.999718 0.000000 -0.023753
vn -0.999718 0.000000 0.023753
vn -0.983555 -0.118382 0.136399
vn -0.983302 -0.115774 0.140407
vn -0.983302 -0.115772 -0.140405
vn -0.983556 -0.118381 -0.136397
vn -0.983556 0.118379 0.136395
vn -0.983303 0.115770 0.140404
vn -0.983303 0.115769 -0.140402
vn -0.983557 0.118378 -0.136393
vn -0.707033 -0.707181 0.000000
vn -0.707033 -0.707181 0.000000
vn -0.707033 -0.707181 0.000000
vn -0.707033 -0.707181 0.000000
vn -0.437247 0.000000 0.899341
vn -0.437247 0.000000 0.899341
vn -0.437247 0.000000 0.899341
vn -0.437247 0.000000 0.899341
vn -0.707033 0.707181 0.000000
vn -0.707033 0.707181 0.000000
vn -0.707033 0.707181 0.000000
vn -0.707033 0.707181 0.000000
vn -0.437222 0.000000 -0.899353
vn -0.437222 0.000000 -0.899353
vn -0.437222 0.000000 -0.899353
vn -0.437222 0.000000 -0.899353
vn -0.749457 0.662053 0.000000
vn -0.749457 0.662053 0.000000
vn -0.749457 0.662053 0.000000
vn -0.749457 0.662053 0.000000
vn -0.691907 0.000000 -0.721987
vn -0.691907 0.000000 -0.721987
vn -0.749452 -0.662058 0.000000
vn -0.749453 -0.662058 0.000000
vn -0.749453 -0.662058 0.000000
vn -0.749453 -0.662058 0.000000
vn -0.691902 0.000000 0.721992
vn -0.691902 0.000000 0.721992
s off
g frame4 paiting_2
usemtl StingrayPBS10SG
f 1/1/1 4/2/2 3/3/3 2/5/4
f 5/4/5 1/1/6 2/5/7 6/22/8
f 6/22/9 2/5/10 3/6/11 7/24/12
f 7/24/13 3/6/14 4/7/15 8/26/16
f 8/26/17 4/7/18 1/8/19 5/19/20
s 1
f 10/28/21 9/30/22 11/32/23 12/34/24
s 2
f 13/9/25 14/10/26 16/11/27 15/20/28
f 14/27/26 13/21/25 17/12/29 18/29/30
f 15/13/28 16/14/27 20/15/31 19/25/32
f 18/16/30 17/23/29 19/17/32 20/18/31
s off
f 5/19/33 13/9/34 15/20/35 8/26/36
f 13/21/37 5/4/38 6/22/39 17/12/40
f 17/23/41 6/22/42 7/24/43 19/17/44
f 19/25/45 7/24/46 8/26/47 15/13/48
f 16/33/49 14/27/50 9/30/51 10/28/52
s 1
f 14/27/53 18/29/54 11/32/23 9/30/22
s off
f 18/29/55 20/31/56 12/34/57 11/32/58
s 1
f 20/31/59 16/33/60 10/28/21 12/34/24
g default
v -3097.145484 134.164023 -166.959131
v -3095.035307 134.164023 -166.959131
v -3097.145484 268.994254 -166.959131
v -3095.035307 268.994254 -166.959131
v -3097.145484 268.994254 -279.312868
v -3095.035307 268.994254 -279.312868
v -3097.145484 134.164023 -279.312868
v -3095.035307 134.164023 -279.312868
vt 0.622100 0.329259
vt 0.963582 0.329259
vt 0.963582 0.670742
vt 0.622100 0.670742
vt 0.000728 0.023067
vt 0.990627 0.023067
vt 0.990627 0.976933
vt 0.000728 0.976933
vt 0.001890 0.668528
vt 0.331358 0.668528
vt 0.331358 0.998008
vt 0.001890 0.998008
vt 0.338704 0.668528
vt 0.668171 0.668528
vt 0.668171 0.998008
vt 0.338704 0.998008
vt 0.001890 0.001992
vt 0.331358 0.001992
vt 0.331358 0.331472
vt 0.001890 0.331472
vt 0.338704 0.001992
vt 0.668171 0.001992
vt 0.668171 0.331472
vt 0.338704 0.331472
vn 0.000000 0.000000 1.000000
vn 0.000000 0.000000 1.000000
vn 0.000000 0.000000 1.000000
vn 0.000000 0.000000 1.000000
vn 0.000000 1.000000 0.000000
vn 0.000000 1.000000 0.000000
vn 0.000000 1.000000 0.000000
vn 0.000000 1.000000 0.000000
vn 0.000000 0.000000 -1.000000
vn 0.000000 0.000000 -1.000000
vn 0.000000 0.000000 -1.000000
vn 0.000000 0.000000 -1.000000
vn 0.000000 -1.000000 0.000000
vn 0.000000 -1.000000 0.000000
vn 0.000000 -1.000000 0.000000
vn 0.000000 -1.000000 0.000000
vn 1.000000 0.000000 0.000000
vn 1.000000 0.000000 0.000000
vn 1.000000 0.000000 0.000000
vn 1.000000 0.000000 0.000000
vn -1.000000 0.000000 0.000000
vn -1.000000 0.000000 0.000000
vn -1.000000 0.000000 0.000000
vn -1.000000 0.000000 0.000000
s off
g paiting_2 painting10
usemtl lambert4SG
f 21/51/61 22/52/62 24/53/63 23/54/64
f 23/43/65 24/44/66 26/45/67 25/46/68
f 25/55/69 26/56/70 28/57/71 27/58/72
f 27/47/73 28/48/74 22/49/75 21/50/76
f 22/35/77 28/36/78 26/37/79 24/38/80
f 27/39/81 21/40/82 23/41/83 25/42/84
