# This file uses meters as units for non-parametric coordinates.

mtllib pot.mtl
g default
v -3632.171875 123.992664 29.691545
v -3632.456348 123.992664 29.265741
v -3632.882129 123.992664 28.981226
v -3633.384424 123.992664 28.881318
v -3633.886768 123.992664 28.981226
v -3634.312549 123.992664 29.265739
v -3634.596973 123.992664 29.691545
v -3634.696973 123.992664 30.193816
v -3634.596973 123.992664 30.696086
v -3634.312549 123.992664 31.121892
v -3633.886768 123.992664 31.406406
v -3633.384424 123.992664 31.506314
v -3632.882129 123.992664 31.406406
v -3632.456348 123.992664 31.121892
v -3632.171875 123.992664 30.696087
v -3632.071924 123.992664 30.193816
v -3631.005811 124.375507 29.208577
v -3631.563867 124.375507 28.373331
v -3632.399170 124.375507 27.815237
v -3633.384424 124.375507 27.619260
v -3634.369727 124.375507 27.815234
v -3635.204883 124.375507 28.373328
v -3635.763086 124.375507 29.208575
v -3635.958984 124.375507 30.193814
v -3635.763086 124.375507 31.179055
v -3635.204883 124.375507 32.014302
v -3634.369727 124.375507 32.572396
v -3633.384424 124.375507 32.768374
v -3632.399170 124.375507 32.572398
v -3631.563867 124.375507 32.014303
v -3631.005811 124.375507 31.179057
v -3630.809912 124.375507 30.193816
v -3629.931250 124.997208 28.763472
v -3630.741455 124.997208 27.550882
v -3631.954053 124.997208 26.740654
v -3633.384424 124.997208 26.456137
v -3634.814844 124.997208 26.740651
v -3636.027393 124.997208 27.550879
v -3636.837598 124.997208 28.763469
v -3637.122070 124.997208 30.193814
v -3636.837598 124.997208 31.624162
v -3636.027393 124.997208 32.836752
v -3634.814844 124.997208 33.646980
v -3633.384424 124.997208 33.931494
v -3631.954053 124.997208 33.646980
v -3630.741455 124.997208 32.836754
v -3629.931250 124.997208 31.624164
v -3629.646826 124.997208 30.193816
v -3628.989453 125.833873 28.373331
v -3630.020654 125.833873 26.829996
v -3631.563867 125.833873 25.798772
v -3633.384424 125.833873 25.436656
v -3635.204883 125.833873 25.798772
v -3636.748242 125.833873 26.829993
v -3637.779443 125.833873 28.373328
v -3638.141602 125.833873 30.193814
v -3637.779443 125.833873 32.014301
v -3636.748242 125.833873 33.557637
v -3635.204883 125.833873 34.588861
v -3633.384424 125.833873 34.950978
v -3631.563867 125.833873 34.588861
v -3630.020654 125.833873 33.557637
v -3628.989453 125.833873 32.014302
v -3628.627246 125.833873 30.193816
v -3628.216406 126.853360 28.053155
v -3629.428955 126.853360 26.238383
v -3631.243799 126.853360 25.025791
v -3633.384424 126.853360 24.599985
v -3635.525098 126.853360 25.025788
v -3637.339795 126.853360 26.238378
v -3638.552490 126.853360 28.053148
v -3638.978223 126.853360 30.193814
v -3638.552490 126.853360 32.334480
v -3637.339795 126.853360 34.149251
v -3635.525098 126.853360 35.361841
v -3633.384424 126.853360 35.787646
v -3631.243799 126.853360 35.361841
v -3629.428955 126.853360 34.149251
v -3628.216406 126.853360 32.334483
v -3627.790625 126.853360 30.193816
v -3627.641992 128.016476 27.815240
v -3628.989453 128.016476 25.798775
v -3631.005811 128.016476 24.451415
v -3633.384424 128.016476 23.978285
v -3635.763086 128.016476 24.451414
v -3637.779443 128.016476 25.798772
v -3639.126904 128.016476 27.815234
v -3639.600000 128.016476 30.193814
v -3639.126904 128.016476 32.572395
v -3637.779443 128.016476 34.588860
v -3635.763086 128.016476 35.936217
v -3633.384424 128.016476 36.409346
v -3631.005811 128.016476 35.936218
v -3628.989453 128.016476 34.588861
v -3627.641992 128.016476 32.572396
v -3627.168896 128.016476 30.193816
v -3627.320605 129.278534 27.682082
v -3628.743408 129.278534 25.552733
v -3630.872656 129.278534 24.129947
v -3633.384424 129.278534 23.630330
v -3635.896240 129.278534 24.129944
v -3638.025488 129.278534 25.552728
v -3639.448291 129.278534 27.682076
v -3639.947949 129.278534 30.193814
v -3639.448291 129.278534 32.705553
v -3638.025488 129.278534 34.834898
v -3635.896240 129.278534 36.257687
v -3633.384424 129.278534 36.757301
v -3630.872656 129.278534 36.257687
v -3628.743408 129.278534 34.834900
v -3627.320605 129.278534 32.705553
v -3626.820898 129.278534 30.193816
v -3627.217188 130.591039 27.639262
v -3628.664307 130.591039 25.473612
v -3630.829883 130.591039 24.026570
v -3633.384424 130.591039 23.518436
v -3635.939014 130.591039 24.026567
v -3638.104590 130.591039 25.473607
v -3639.551709 130.591039 27.639256
v -3640.059766 130.591039 30.193814
v -3639.551709 130.591039 32.748371
v -3638.104590 130.591039 34.914021
v -3635.939014 130.591039 36.361063
v -3633.384424 130.591039 36.869197
v -3630.829883 130.591039 36.361064
v -3628.664307 130.591039 34.914023
v -3627.217188 130.591039 32.748373
v -3626.709082 130.591039 30.193816
v -3627.382031 131.903537 27.707561
v -3628.790430 131.903537 25.599814
v -3630.898145 131.903537 24.191462
v -3633.384424 131.903537 23.696913
v -3635.870752 131.903537 24.191458
v -3637.978467 131.903537 25.599809
v -3639.386865 131.903537 27.707556
v -3639.881396 131.903537 30.193814
v -3639.386865 131.903537 32.680070
v -3637.978467 131.903537 34.787819
v -3635.870752 131.903537 36.196172
v -3633.384424 131.903537 36.690720
v -3630.898145 131.903537 36.196172
v -3628.790430 131.903537 34.787820
v -3627.382031 131.903537 32.680073
v -3626.887500 131.903537 30.193816
v -3633.384424 123.863388 30.193816
v -3633.384277 131.903534 30.193815
vt 0.000000 0.062500
vt 0.062500 0.062500
vt 0.125000 0.062500
vt 0.187500 0.062500
vt 0.250000 0.062500
vt 0.312500 0.062500
vt 0.375000 0.062500
vt 0.437500 0.062500
vt 0.500000 0.062500
vt 0.562500 0.062500
vt 0.625000 0.062500
vt 0.687500 0.062500
vt 0.750000 0.062500
vt 0.812500 0.062500
vt 0.875000 0.062500
vt 0.937500 0.062500
vt 1.000000 0.062500
vt 0.000000 0.125000
vt 0.062500 0.125000
vt 0.125000 0.125000
vt 0.187500 0.125000
vt 0.250000 0.125000
vt 0.312500 0.125000
vt 0.375000 0.125000
vt 0.437500 0.125000
vt 0.500000 0.125000
vt 0.562500 0.125000
vt 0.625000 0.125000
vt 0.687500 0.125000
vt 0.750000 0.125000
vt 0.812500 0.125000
vt 0.875000 0.125000
vt 0.937500 0.125000
vt 1.000000 0.125000
vt 0.000000 0.187500
vt 0.062500 0.187500
vt 0.125000 0.187500
vt 0.187500 0.187500
vt 0.250000 0.187500
vt 0.312500 0.187500
vt 0.375000 0.187500
vt 0.437500 0.187500
vt 0.500000 0.187500
vt 0.562500 0.187500
vt 0.625000 0.187500
vt 0.687500 0.187500
vt 0.750000 0.187500
vt 0.812500 0.187500
vt 0.875000 0.187500
vt 0.937500 0.187500
vt 1.000000 0.187500
vt 0.000000 0.250000
vt 0.062500 0.250000
vt 0.125000 0.250000
vt 0.187500 0.250000
vt 0.250000 0.250000
vt 0.312500 0.250000
vt 0.375000 0.250000
vt 0.437500 0.250000
vt 0.500000 0.250000
vt 0.562500 0.250000
vt 0.625000 0.250000
vt 0.687500 0.250000
vt 0.750000 0.250000
vt 0.812500 0.250000
vt 0.875000 0.250000
vt 0.937500 0.250000
vt 1.000000 0.250000
vt 0.000000 0.312500
vt 0.062500 0.312500
vt 0.125000 0.312500
vt 0.187500 0.312500
vt 0.250000 0.312500
vt 0.312500 0.312500
vt 0.375000 0.312500
vt 0.437500 0.312500
vt 0.500000 0.312500
vt 0.562500 0.312500
vt 0.625000 0.312500
vt 0.687500 0.312500
vt 0.750000 0.312500
vt 0.812500 0.312500
vt 0.875000 0.312500
vt 0.937500 0.312500
vt 1.000000 0.312500
vt 0.000000 0.375000
vt 0.062500 0.375000
vt 0.125000 0.375000
vt 0.187500 0.375000
vt 0.250000 0.375000
vt 0.312500 0.375000
vt 0.375000 0.375000
vt 0.437500 0.375000
vt 0.500000 0.375000
vt 0.562500 0.375000
vt 0.625000 0.375000
vt 0.687500 0.375000
vt 0.750000 0.375000
vt 0.812500 0.375000
vt 0.875000 0.375000
vt 0.937500 0.375000
vt 1.000000 0.375000
vt 0.000000 0.437500
vt 0.062500 0.437500
vt 0.125000 0.437500
vt 0.187500 0.437500
vt 0.250000 0.437500
vt 0.312500 0.437500
vt 0.375000 0.437500
vt 0.437500 0.437500
vt 0.500000 0.437500
vt 0.562500 0.437500
vt 0.625000 0.437500
vt 0.687500 0.437500
vt 0.750000 0.437500
vt 0.812500 0.437500
vt 0.875000 0.437500
vt 0.937500 0.437500
vt 1.000000 0.437500
vt 0.000000 0.500000
vt 0.062500 0.500000
vt 0.125000 0.500000
vt 0.187500 0.500000
vt 0.250000 0.500000
vt 0.312500 0.500000
vt 0.375000 0.500000
vt 0.437500 0.500000
vt 0.500000 0.500000
vt 0.562500 0.500000
vt 0.625000 0.500000
vt 0.687500 0.500000
vt 0.750000 0.500000
vt 0.812500 0.500000
vt 0.875000 0.500000
vt 0.937500 0.500000
vt 1.000000 0.500000
vt 0.000000 0.562500
vt 0.062500 0.562500
vt 0.125000 0.562500
vt 0.187500 0.562500
vt 0.250000 0.562500
vt 0.312500 0.562500
vt 0.375000 0.562500
vt 0.437500 0.562500
vt 0.500000 0.562500
vt 0.562500 0.562500
vt 0.625000 0.562500
vt 0.687500 0.562500
vt 0.750000 0.562500
vt 0.812500 0.562500
vt 0.875000 0.562500
vt 0.937500 0.562500
vt 1.000000 0.562500
vt 0.031250 0.000000
vt 0.093750 0.000000
vt 0.156250 0.000000
vt 0.218750 0.000000
vt 0.281250 0.000000
vt 0.343750 0.000000
vt 0.406250 0.000000
vt 0.468750 0.000000
vt 0.531250 0.000000
vt 0.593750 0.000000
vt 0.656250 0.000000
vt 0.718750 0.000000
vt 0.781250 0.000000
vt 0.843750 0.000000
vt 0.906250 0.000000
vt 0.968750 0.000000
vt 0.312500 0.562500
vn 0.231809 -0.968012 -0.096010
vn 0.177424 -0.968010 -0.177420
vn 0.292543 -0.910406 -0.292541
vn 0.382230 -0.910407 -0.158304
vn 0.096023 -0.968006 -0.231826
vn 0.158322 -0.910402 -0.382233
vn 0.000001 -0.968007 -0.250925
vn 0.000001 -0.910399 -0.413730
vn -0.096023 -0.968008 -0.231820
vn -0.158327 -0.910400 -0.382237
vn -0.177429 -0.968010 -0.177414
vn -0.292546 -0.910405 -0.292541
vn -0.231807 -0.968011 -0.096020
vn -0.382232 -0.910402 -0.158324
vn -0.250930 -0.968005 0.000001
vn -0.413726 -0.910402 0.000001
vn -0.231807 -0.968011 0.096022
vn -0.382233 -0.910402 0.158323
vn -0.177433 -0.968008 0.177419
vn -0.292550 -0.910401 0.292547
vn -0.096025 -0.968006 0.231825
vn -0.158327 -0.910402 0.382231
vn 0.000000 -0.968007 0.250924
vn 0.000002 -0.910405 0.413718
vn 0.096022 -0.968007 0.231823
vn 0.158319 -0.910403 0.382232
vn 0.177429 -0.968008 0.177424
vn 0.292545 -0.910405 0.292541
vn 0.231822 -0.968008 0.096015
vn 0.382235 -0.910404 0.158306
vn 0.250924 -0.968007 0.000001
vn 0.413725 -0.910402 0.000000
vn 0.407071 -0.817677 -0.407060
vn 0.531857 -0.817680 -0.220289
vn 0.220296 -0.817686 -0.531846
vn 0.000000 -0.817684 -0.575667
vn -0.220307 -0.817675 -0.531858
vn -0.407070 -0.817676 -0.407063
vn -0.531848 -0.817684 -0.220297
vn -0.575664 -0.817686 0.000001
vn -0.531846 -0.817686 0.220295
vn -0.407068 -0.817678 0.407060
vn -0.220305 -0.817679 0.531852
vn 0.000002 -0.817679 0.575675
vn 0.220298 -0.817678 0.531857
vn 0.407078 -0.817671 0.407065
vn 0.531869 -0.817670 0.220296
vn 0.575666 -0.817685 -0.000001
vn 0.509042 -0.694087 -0.509037
vn 0.665091 -0.694090 -0.275489
vn 0.275497 -0.694089 -0.665088
vn -0.000001 -0.694092 -0.719886
vn -0.275491 -0.694078 -0.665101
vn -0.509054 -0.694067 -0.509053
vn -0.665099 -0.694078 -0.275498
vn -0.719899 -0.694079 0.000001
vn -0.665097 -0.694081 0.275494
vn -0.509047 -0.694078 0.509046
vn -0.275493 -0.694076 0.665104
vn 0.000001 -0.694080 0.719898
vn 0.275498 -0.694079 0.665098
vn 0.509046 -0.694082 0.509040
vn 0.665096 -0.694084 0.275491
vn 0.719894 -0.694084 0.000000
vn 0.593104 -0.544488 -0.593094
vn 0.774918 -0.544494 -0.320981
vn 0.320978 -0.544490 -0.774921
vn 0.000000 -0.544495 -0.838764
vn -0.320981 -0.544497 -0.774916
vn -0.593092 -0.544496 -0.593098
vn -0.774910 -0.544502 -0.320987
vn -0.838752 -0.544514 -0.000000
vn -0.774907 -0.544508 0.320983
vn -0.593092 -0.544495 0.593100
vn -0.320984 -0.544489 0.774920
vn -0.000000 -0.544488 0.838769
vn 0.320978 -0.544487 0.774924
vn 0.593101 -0.544495 0.593091
vn 0.774909 -0.544508 0.320978
vn 0.838763 -0.544497 0.000000
vn 0.659054 -0.362345 -0.659055
vn 0.861092 -0.362349 -0.356684
vn 0.356680 -0.362370 -0.861085
vn 0.000001 -0.362373 -0.932033
vn -0.356679 -0.362372 -0.861085
vn -0.659049 -0.362375 -0.659044
vn -0.861079 -0.362385 -0.356680
vn -0.932027 -0.362390 -0.000000
vn -0.861077 -0.362389 0.356679
vn -0.659047 -0.362381 0.659043
vn -0.356679 -0.362373 0.861084
vn -0.000000 -0.362371 0.932034
vn 0.356679 -0.362376 0.861083
vn 0.659051 -0.362354 0.659053
vn 0.861090 -0.362356 0.356683
vn 0.932032 -0.362376 -0.000000
vn 0.696546 -0.172220 -0.696537
vn 0.910069 -0.172215 -0.376982
vn 0.376972 -0.172228 -0.910071
vn 0.000001 -0.172226 -0.985057
vn -0.376970 -0.172212 -0.910075
vn -0.696548 -0.172202 -0.696540
vn -0.910073 -0.172206 -0.376977
vn -0.985062 -0.172199 0.000000
vn -0.910074 -0.172204 0.376977
vn -0.696548 -0.172210 0.696538
vn -0.376969 -0.172221 0.910074
vn -0.000000 -0.172227 0.985057
vn 0.376972 -0.172225 0.910072
vn 0.696546 -0.172221 0.696537
vn 0.910069 -0.172218 0.376981
vn 0.985059 -0.172219 -0.000000
vn 0.706890 0.024710 -0.706892
vn 0.923593 0.024719 -0.382577
vn 0.382568 0.024725 -0.923597
vn 0.000001 0.024733 -0.999694
vn -0.382564 0.024726 -0.923598
vn -0.706890 0.024710 -0.706892
vn -0.923596 0.024714 -0.382571
vn -0.999694 0.024720 0.000000
vn -0.923596 0.024720 0.382570
vn -0.706890 0.024724 0.706891
vn -0.382565 0.024725 0.923598
vn -0.000000 0.024733 0.999694
vn 0.382567 0.024737 0.923596
vn 0.706890 0.024721 0.706892
vn 0.923593 0.024711 0.382577
vn 0.999694 0.024726 -0.000000
vn 0.700664 0.134716 -0.700658
vn 0.915454 0.134731 -0.379199
vn 0.379201 0.134732 -0.915453
vn 0.000001 0.134744 -0.990880
vn -0.379198 0.134715 -0.915457
vn -0.700667 0.134679 -0.700662
vn -0.915461 0.134685 -0.379198
vn -0.990887 0.134699 -0.000000
vn -0.915460 0.134695 0.379197
vn -0.700666 0.134698 0.700660
vn -0.379198 0.134725 0.915455
vn -0.000000 0.134745 0.990880
vn 0.379200 0.134735 0.915453
vn 0.700662 0.134735 0.700657
vn 0.915454 0.134728 0.379200
vn 0.990883 0.134726 -0.000000
vn -0.000001 -1.000000 0.000002
vn 0.000000 1.000000 -0.000000
vn -0.000000 1.000000 -0.000000
vn 0.000000 1.000000 -0.000001
vn -0.000000 1.000000 0.000001
vn -0.000000 1.000000 0.000001
vn 0.000000 1.000000 0.000001
vn 0.000000 1.000000 0.000000
vn 0.000000 1.000000 0.000001
vn 0.000000 1.000000 0.000001
vn 0.000000 1.000000 0.000000
vn 0.000000 1.000000 -0.000001
vn 0.000000 1.000000 -0.000001
vn -0.000000 1.000000 -0.000001
vn -0.000000 1.000000 -0.000001
vn -0.000000 1.000000 -0.000001
vn -0.000000 1.000000 -0.000000
vn -0.000000 1.000000 0.000001
s 1
g pSphere3 group9
usemtl lambert10SG
f 1/1/1 2/2/2 18/19/3 17/18/4
f 2/2/2 3/3/5 19/20/6 18/19/3
f 3/3/5 4/4/7 20/21/8 19/20/6
f 4/4/7 5/5/9 21/22/10 20/21/8
f 5/5/9 6/6/11 22/23/12 21/22/10
f 6/6/11 7/7/13 23/24/14 22/23/12
f 7/7/13 8/8/15 24/25/16 23/24/14
f 8/8/15 9/9/17 25/26/18 24/25/16
f 9/9/17 10/10/19 26/27/20 25/26/18
f 10/10/19 11/11/21 27/28/22 26/27/20
f 11/11/21 12/12/23 28/29/24 27/28/22
f 12/12/23 13/13/25 29/30/26 28/29/24
f 13/13/25 14/14/27 30/31/28 29/30/26
f 14/14/27 15/15/29 31/32/30 30/31/28
f 15/15/29 16/16/31 32/33/32 31/32/30
f 16/16/31 1/17/1 17/34/4 32/33/32
f 17/18/4 18/19/3 34/36/33 33/35/34
f 18/19/3 19/20/6 35/37/35 34/36/33
f 19/20/6 20/21/8 36/38/36 35/37/35
f 20/21/8 21/22/10 37/39/37 36/38/36
f 21/22/10 22/23/12 38/40/38 37/39/37
f 22/23/12 23/24/14 39/41/39 38/40/38
f 23/24/14 24/25/16 40/42/40 39/41/39
f 24/25/16 25/26/18 41/43/41 40/42/40
f 25/26/18 26/27/20 42/44/42 41/43/41
f 26/27/20 27/28/22 43/45/43 42/44/42
f 27/28/22 28/29/24 44/46/44 43/45/43
f 28/29/24 29/30/26 45/47/45 44/46/44
f 29/30/26 30/31/28 46/48/46 45/47/45
f 30/31/28 31/32/30 47/49/47 46/48/46
f 31/32/30 32/33/32 48/50/48 47/49/47
f 32/33/32 17/34/4 33/51/34 48/50/48
f 33/35/34 34/36/33 50/53/49 49/52/50
f 34/36/33 35/37/35 51/54/51 50/53/49
f 35/37/35 36/38/36 52/55/52 51/54/51
f 36/38/36 37/39/37 53/56/53 52/55/52
f 37/39/37 38/40/38 54/57/54 53/56/53
f 38/40/38 39/41/39 55/58/55 54/57/54
f 39/41/39 40/42/40 56/59/56 55/58/55
f 40/42/40 41/43/41 57/60/57 56/59/56
f 41/43/41 42/44/42 58/61/58 57/60/57
f 42/44/42 43/45/43 59/62/59 58/61/58
f 43/45/43 44/46/44 60/63/60 59/62/59
f 44/46/44 45/47/45 61/64/61 60/63/60
f 45/47/45 46/48/46 62/65/62 61/64/61
f 46/48/46 47/49/47 63/66/63 62/65/62
f 47/49/47 48/50/48 64/67/64 63/66/63
f 48/50/48 33/51/34 49/68/50 64/67/64
f 49/52/50 50/53/49 66/70/65 65/69/66
f 50/53/49 51/54/51 67/71/67 66/70/65
f 51/54/51 52/55/52 68/72/68 67/71/67
f 52/55/52 53/56/53 69/73/69 68/72/68
f 53/56/53 54/57/54 70/74/70 69/73/69
f 54/57/54 55/58/55 71/75/71 70/74/70
f 55/58/55 56/59/56 72/76/72 71/75/71
f 56/59/56 57/60/57 73/77/73 72/76/72
f 57/60/57 58/61/58 74/78/74 73/77/73
f 58/61/58 59/62/59 75/79/75 74/78/74
f 59/62/59 60/63/60 76/80/76 75/79/75
f 60/63/60 61/64/61 77/81/77 76/80/76
f 61/64/61 62/65/62 78/82/78 77/81/77
f 62/65/62 63/66/63 79/83/79 78/82/78
f 63/66/63 64/67/64 80/84/80 79/83/79
f 64/67/64 49/68/50 65/85/66 80/84/80
f 65/69/66 66/70/65 82/87/81 81/86/82
f 66/70/65 67/71/67 83/88/83 82/87/81
f 67/71/67 68/72/68 84/89/84 83/88/83
f 68/72/68 69/73/69 85/90/85 84/89/84
f 69/73/69 70/74/70 86/91/86 85/90/85
f 70/74/70 71/75/71 87/92/87 86/91/86
f 71/75/71 72/76/72 88/93/88 87/92/87
f 72/76/72 73/77/73 89/94/89 88/93/88
f 73/77/73 74/78/74 90/95/90 89/94/89
f 74/78/74 75/79/75 91/96/91 90/95/90
f 75/79/75 76/80/76 92/97/92 91/96/91
f 76/80/76 77/81/77 93/98/93 92/97/92
f 77/81/77 78/82/78 94/99/94 93/98/93
f 78/82/78 79/83/79 95/100/95 94/99/94
f 79/83/79 80/84/80 96/101/96 95/100/95
f 80/84/80 65/85/66 81/102/82 96/101/96
f 81/86/82 82/87/81 98/104/97 97/103/98
f 82/87/81 83/88/83 99/105/99 98/104/97
f 83/88/83 84/89/84 100/106/100 99/105/99
f 84/89/84 85/90/85 101/107/101 100/106/100
f 85/90/85 86/91/86 102/108/102 101/107/101
f 86/91/86 87/92/87 103/109/103 102/108/102
f 87/92/87 88/93/88 104/110/104 103/109/103
f 88/93/88 89/94/89 105/111/105 104/110/104
f 89/94/89 90/95/90 106/112/106 105/111/105
f 90/95/90 91/96/91 107/113/107 106/112/106
f 91/96/91 92/97/92 108/114/108 107/113/107
f 92/97/92 93/98/93 109/115/109 108/114/108
f 93/98/93 94/99/94 110/116/110 109/115/109
f 94/99/94 95/100/95 111/117/111 110/116/110
f 95/100/95 96/101/96 112/118/112 111/117/111
f 96/101/96 81/102/82 97/119/98 112/118/112
f 97/103/98 98/104/97 114/121/113 113/120/114
f 98/104/97 99/105/99 115/122/115 114/121/113
f 99/105/99 100/106/100 116/123/116 115/122/115
f 100/106/100 101/107/101 117/124/117 116/123/116
f 101/107/101 102/108/102 118/125/118 117/124/117
f 102/108/102 103/109/103 119/126/119 118/125/118
f 103/109/103 104/110/104 120/127/120 119/126/119
f 104/110/104 105/111/105 121/128/121 120/127/120
f 105/111/105 106/112/106 122/129/122 121/128/121
f 106/112/106 107/113/107 123/130/123 122/129/122
f 107/113/107 108/114/108 124/131/124 123/130/123
f 108/114/108 109/115/109 125/132/125 124/131/124
f 109/115/109 110/116/110 126/133/126 125/132/125
f 110/116/110 111/117/111 127/134/127 126/133/126
f 111/117/111 112/118/112 128/135/128 127/134/127
f 112/118/112 97/119/98 113/136/114 128/135/128
f 113/120/114 114/121/113 130/138/129 129/137/130
f 114/121/113 115/122/115 131/139/131 130/138/129
f 115/122/115 116/123/116 132/140/132 131/139/131
f 116/123/116 117/124/117 133/141/133 132/140/132
f 117/124/117 118/125/118 134/142/134 133/141/133
f 118/125/118 119/126/119 135/143/135 134/142/134
f 119/126/119 120/127/120 136/144/136 135/143/135
f 120/127/120 121/128/121 137/145/137 136/144/136
f 121/128/121 122/129/122 138/146/138 137/145/137
f 122/129/122 123/130/123 139/147/139 138/146/138
f 123/130/123 124/131/124 140/148/140 139/147/139
f 124/131/124 125/132/125 141/149/141 140/148/140
f 125/132/125 126/133/126 142/150/142 141/149/141
f 126/133/126 127/134/127 143/151/143 142/150/142
f 127/134/127 128/135/128 144/152/144 143/151/143
f 128/135/128 113/136/114 129/153/130 144/152/144
f 2/2/2 1/1/1 145/154/145
f 3/3/5 2/2/2 145/155/145
f 4/4/7 3/3/5 145/156/145
f 5/5/9 4/4/7 145/157/145
f 6/6/11 5/5/9 145/158/145
f 7/7/13 6/6/11 145/159/145
f 8/8/15 7/7/13 145/160/145
f 9/9/17 8/8/15 145/161/145
f 10/10/19 9/9/17 145/162/145
f 11/11/21 10/10/19 145/163/145
f 12/12/23 11/11/21 145/164/145
f 13/13/25 12/12/23 145/165/145
f 14/14/27 13/13/25 145/166/145
f 15/15/29 14/14/27 145/167/145
f 16/16/31 15/15/29 145/168/145
f 1/17/1 16/16/31 145/169/145
s 2
f 139/147/146 146/170/147 138/146/148
f 130/138/149 131/139/150 146/170/147
f 146/170/147 131/139/150 132/140/151
f 146/170/147 132/140/151 133/141/152
f 146/170/147 133/141/152 134/142/153
f 146/170/147 134/142/153 135/143/154
f 146/170/147 135/143/154 136/144/155
f 146/170/147 136/144/155 137/145/156
f 146/170/147 137/145/156 138/146/148
f 140/148/157 146/170/147 139/147/146
f 141/149/158 146/170/147 140/148/157
f 142/150/159 146/170/147 141/149/158
f 143/151/160 146/170/147 142/150/159
f 144/152/161 146/170/147 143/151/160
f 129/137/162 146/170/147 144/152/161
f 130/138/149 146/170/147 129/137/162
g default
v -3632.077344 123.478525 29.652409
v -3632.384033 123.478525 29.193425
v -3632.843018 123.478525 28.886742
v -3633.384424 123.478525 28.779049
v -3633.925830 123.478525 28.886742
v -3634.384814 123.478525 29.193423
v -3634.691455 123.478525 29.652408
v -3634.799170 123.478525 30.193816
v -3634.691455 123.478525 30.735223
v -3634.384814 123.478525 31.194206
v -3633.925830 123.478525 31.500890
v -3633.384424 123.478525 31.608583
v -3632.843018 123.478525 31.500890
v -3632.384033 123.478525 31.194206
v -3632.077344 123.478525 30.735223
v -3631.969678 123.478525 30.193816
v -3630.820508 123.891199 29.131808
v -3631.422021 123.891199 28.231480
v -3632.322412 123.891199 27.629900
v -3633.384424 123.891199 27.418652
v -3634.446436 123.891199 27.629897
v -3635.346729 123.891199 28.231477
v -3635.948340 123.891199 29.131805
v -3636.159521 123.891199 30.193814
v -3635.948340 123.891199 31.255824
v -3635.346729 123.891199 32.156153
v -3634.446436 123.891199 32.757733
v -3633.384424 123.891199 32.968980
v -3632.322412 123.891199 32.757735
v -3631.422021 123.891199 32.156154
v -3630.820508 123.891199 31.255826
v -3630.609229 123.891199 30.193816
v -3629.662109 124.561342 28.652020
v -3630.535449 124.561342 27.344947
v -3631.842627 124.561342 26.471586
v -3633.384424 124.561342 26.164901
v -3634.926221 124.561342 26.471582
v -3636.233252 124.561342 27.344944
v -3637.106592 124.561342 28.652017
v -3637.413330 124.561342 30.193814
v -3637.106592 124.561342 31.735613
v -3636.233252 124.561342 33.042688
v -3634.926221 124.561342 33.916048
v -3633.384424 124.561342 34.222731
v -3631.842627 124.561342 33.916048
v -3630.535449 124.561342 33.042690
v -3629.662109 124.561342 31.735616
v -3629.355518 124.561342 30.193816
v -3628.646924 125.463199 28.231480
v -3629.758496 125.463199 26.567889
v -3631.422021 125.463199 25.456314
v -3633.384424 125.463199 25.065981
v -3635.346729 125.463199 25.456313
v -3637.010352 125.463199 26.567886
v -3638.121924 125.463199 28.231477
v -3638.512207 125.463199 30.193814
v -3638.121924 125.463199 32.156152
v -3637.010352 125.463199 33.819743
v -3635.346729 125.463199 34.931319
v -3633.384424 125.463199 35.321652
v -3631.422021 125.463199 34.931319
v -3629.758496 125.463199 33.819743
v -3628.646924 125.463199 32.156153
v -3628.256592 125.463199 30.193816
v -3627.813721 126.562125 27.886356
v -3629.120752 126.562125 25.930178
v -3631.076953 126.562125 24.623102
v -3633.384424 126.562125 24.164118
v -3635.691895 126.562125 24.623100
v -3637.647998 126.562125 25.930173
v -3638.955127 126.562125 27.886349
v -3639.414014 126.562125 30.193813
v -3638.955127 126.562125 32.501279
v -3637.647998 126.562125 34.457455
v -3635.691895 126.562125 35.764529
v -3633.384424 126.562125 36.223513
v -3631.076953 126.562125 35.764529
v -3629.120752 126.562125 34.457455
v -3627.813721 126.562125 32.501282
v -3627.354688 126.562125 30.193816
v -3627.194580 127.815869 27.629903
v -3628.646924 127.815869 25.456316
v -3630.820508 127.815869 24.003972
v -3633.384424 127.815869 23.493975
v -3635.948340 127.815869 24.003970
v -3638.121924 127.815869 25.456313
v -3639.574268 127.815869 27.629896
v -3640.084229 127.815869 30.193813
v -3639.574268 127.815869 32.757732
v -3638.121924 127.815869 34.931317
v -3635.948340 127.815869 36.383660
v -3633.384424 127.815869 36.893655
v -3630.820508 127.815869 36.383661
v -3628.646924 127.815869 34.931319
v -3627.194580 127.815869 32.757733
v -3626.684521 127.815869 30.193816
v -3626.848047 129.176265 27.486369
v -3628.381689 129.176265 25.191103
v -3630.676953 129.176265 23.657455
v -3633.384424 129.176265 23.118908
v -3636.091895 129.176265 23.657452
v -3638.387158 129.176265 25.191098
v -3639.920801 129.176265 27.486363
v -3640.459326 129.176265 30.193813
v -3639.920801 129.176265 32.901265
v -3638.387158 129.176265 35.196529
v -3636.091895 129.176265 36.730179
v -3633.384424 129.176265 37.268723
v -3630.676953 129.176265 36.730179
v -3628.381689 129.176265 35.196530
v -3626.848047 129.176265 32.901265
v -3626.309473 129.176265 30.193816
v -3626.736572 130.591039 27.440212
v -3628.296436 130.591039 25.105817
v -3630.630762 130.591039 23.546022
v -3633.384424 130.591039 22.998295
v -3636.137988 130.591039 23.546020
v -3638.472412 130.591039 25.105812
v -3640.032178 130.591039 27.440206
v -3640.579932 130.591039 30.193813
v -3640.032178 130.591039 32.947420
v -3638.472412 130.591039 35.281816
v -3636.137988 130.591039 36.841609
v -3633.384424 130.591039 37.389337
v -3630.630762 130.591039 36.841611
v -3628.296436 130.591039 35.281818
v -3626.736572 130.591039 32.947423
v -3626.188867 130.591039 30.193816
v -3626.914355 132.005807 27.513834
v -3628.432471 132.005807 25.241853
v -3630.704443 132.005807 23.723763
v -3633.384424 132.005807 23.190679
v -3636.064404 132.005807 23.723759
v -3638.336377 132.005807 25.241848
v -3639.854492 132.005807 27.513828
v -3640.387549 132.005807 30.193813
v -3639.854492 132.005807 32.873798
v -3638.336377 132.005807 35.145780
v -3636.064404 132.005807 36.663870
v -3633.384424 132.005807 37.196953
v -3630.704443 132.005807 36.663870
v -3628.432471 132.005807 35.145781
v -3626.914355 132.005807 32.873800
v -3626.381299 132.005807 30.193816
v -3627.352832 133.366202 27.695445
v -3628.768018 133.366202 25.577422
v -3630.885986 133.366202 24.162205
v -3633.384424 133.366202 23.665246
v -3635.882764 133.366202 24.162203
v -3638.000830 133.366202 25.577417
v -3639.416016 133.366202 27.695438
v -3639.912988 133.366202 30.193813
v -3639.416016 133.366202 32.692189
v -3638.000830 133.366202 34.810210
v -3635.882764 133.366202 36.225426
v -3633.384424 133.366202 36.722385
v -3630.885986 133.366202 36.225427
v -3628.768018 133.366202 34.810211
v -3627.352832 133.366202 32.692192
v -3626.855859 133.366202 30.193816
v -3628.028662 134.372324 27.975436
v -3629.285352 134.372324 26.094781
v -3631.166016 134.372324 24.838165
v -3633.384424 134.372324 24.396899
v -3635.602734 134.372324 24.838161
v -3637.483496 134.372324 26.094777
v -3638.739941 134.372324 27.975430
v -3639.181299 134.372324 30.193814
v -3638.739941 134.372324 32.412198
v -3637.483496 134.372324 34.292854
v -3635.602734 134.372324 35.549467
v -3633.384424 134.372324 35.990733
v -3631.166016 134.372324 35.549469
v -3629.285352 134.372324 34.292854
v -3628.028662 134.372324 32.412199
v -3627.587451 134.372324 30.193816
v -3628.891162 135.239838 28.332660
v -3629.945410 135.239838 26.754845
v -3631.523291 135.239838 25.700583
v -3633.384424 135.239838 25.330373
v -3635.245557 135.239838 25.700581
v -3636.823340 135.239838 26.754842
v -3637.877686 135.239838 28.332656
v -3638.247852 135.239838 30.193814
v -3637.877686 135.239838 32.054974
v -3636.823340 135.239838 33.632788
v -3635.245557 135.239838 34.687051
v -3633.384424 135.239838 35.057259
v -3631.523291 135.239838 34.687051
v -3629.945410 135.239838 33.632790
v -3628.891162 135.239838 32.054975
v -3628.520996 135.239838 30.193816
v -3629.815137 135.945114 28.715401
v -3630.652637 135.945114 27.462058
v -3631.905957 135.945114 26.624603
v -3633.384424 135.945114 26.330522
v -3634.862891 135.945114 26.624598
v -3636.116113 135.945114 27.462055
v -3636.953613 135.945114 28.715398
v -3637.247656 135.945114 30.193814
v -3636.953613 135.945114 31.672233
v -3636.116113 135.945114 32.925577
v -3634.862891 135.945114 33.763034
v -3633.384424 135.945114 34.057111
v -3631.905957 135.945114 33.763034
v -3630.652637 135.945114 32.925577
v -3629.815137 135.945114 31.672234
v -3629.521045 135.945114 30.193816
v -3633.384424 123.339175 30.193816
v -3629.815137 135.945114 28.715401
v -3630.652637 135.945114 27.462058
v -3631.905957 135.945114 26.624603
v -3633.384424 135.945114 26.330522
v -3634.862891 135.945114 26.624598
v -3636.116113 135.945114 27.462055
v -3636.953613 135.945114 28.715398
v -3637.247656 135.945114 30.193814
v -3636.953613 135.945114 31.672233
v -3636.116113 135.945114 32.925577
v -3634.862891 135.945114 33.763034
v -3633.384424 135.945114 34.057111
v -3631.905957 135.945114 33.763034
v -3630.652637 135.945114 32.925577
v -3629.815137 135.945114 31.672234
v -3629.521045 135.945114 30.193816
v -3631.778027 138.245325 29.528491
v -3632.154932 138.245313 28.964459
v -3632.718994 138.245313 28.587586
v -3633.384277 138.245325 28.455257
v -3634.049609 138.245313 28.587578
v -3634.613623 138.245313 28.964450
v -3634.990479 138.245337 29.528514
v -3635.122900 138.245325 30.193823
v -3634.990576 138.245319 30.859137
v -3634.613623 138.245319 31.423184
v -3634.049609 138.245325 31.800050
v -3633.384277 138.245325 31.932392
v -3632.718994 138.245313 31.800058
v -3632.154932 138.245325 31.423182
v -3631.778027 138.245313 30.859154
v -3631.645752 138.245309 30.193823
v -3630.836914 136.588461 29.138637
v -3630.626953 136.588455 30.193818
v -3630.836914 136.588461 31.249000
v -3631.434717 136.588461 32.143534
v -3632.329199 136.588461 32.741248
v -3633.384424 136.588461 32.951132
v -3634.439600 136.588461 32.741244
v -3635.334131 136.588461 32.143534
v -3635.931836 136.588461 31.248993
v -3636.141650 136.588461 30.193817
v -3635.931836 136.588461 29.138644
v -3635.334131 136.588461 28.244096
v -3634.439600 136.588461 27.646387
v -3633.384424 136.588461 27.436508
v -3632.329199 136.588461 27.646390
v -3631.434717 136.588461 28.244102
v -3631.351025 137.178265 29.351595
v -3631.183496 137.178259 30.193822
v -3631.351025 137.178259 31.036046
v -3631.828125 137.178265 31.750043
v -3632.542139 137.178265 32.227122
v -3633.384375 137.178265 32.394646
v -3634.226660 137.178265 32.227117
v -3634.940625 137.178265 31.750043
v -3635.417676 137.178265 31.036034
v -3635.585205 137.178265 30.193819
v -3635.417627 137.178271 29.351608
v -3634.940576 137.178259 28.637590
v -3634.226660 137.178259 28.160513
v -3633.384375 137.178265 27.992998
v -3632.542139 137.178265 28.160517
v -3631.828125 137.178265 28.637594
v -3631.636816 137.772076 29.469991
v -3631.492871 137.772064 30.193822
v -3631.636816 137.772064 30.917653
v -3632.046875 137.772073 31.531276
v -3632.660547 137.772064 31.941293
v -3633.384375 137.772076 32.085264
v -3634.108154 137.772076 31.941286
v -3634.721826 137.772064 31.531277
v -3635.131787 137.772064 30.917640
v -3635.275781 137.772079 30.193822
v -3635.131787 137.772083 29.470008
v -3634.721777 137.772064 28.856357
v -3634.108154 137.772064 28.446343
v -3633.384375 137.772079 28.302381
v -3632.660547 137.772064 28.446350
v -3632.046875 137.772064 28.856359
v -3631.492334 139.775171 29.410306
v -3631.936377 139.775153 28.745863
v -3632.600732 139.775153 28.301920
v -3633.384424 139.775195 28.146027
v -3634.168018 139.775186 28.301850
v -3634.832373 139.775153 28.745741
v -3635.276123 139.775195 29.410062
v -3635.431934 139.775220 30.193771
v -3635.276123 139.775177 30.977509
v -3634.832373 139.775153 31.641804
v -3634.167969 139.775171 32.085693
v -3633.384375 139.775171 32.241599
v -3632.600732 139.775146 32.085724
v -3631.936377 139.775153 31.641794
v -3631.492236 139.775153 30.977370
v -3631.336279 139.775128 30.193844
v -3631.486328 139.523071 29.407793
v -3631.931787 139.523053 28.741225
v -3632.598193 139.523053 28.295859
v -3633.384424 139.523083 28.139479
v -3634.170508 139.523077 28.295808
v -3634.836914 139.523053 28.741123
v -3635.282227 139.523096 29.407569
v -3635.438477 139.523117 30.193771
v -3635.282227 139.523077 30.980011
v -3634.836914 139.523053 31.646442
v -3634.170508 139.523059 32.091756
v -3633.384424 139.523071 32.248155
v -3632.598193 139.523047 32.091783
v -3631.931787 139.523059 31.646429
v -3631.486182 139.523059 30.979882
v -3631.329688 139.523029 30.193841
v -3631.486328 139.523071 29.407793
v -3631.931787 139.523053 28.741225
v -3632.598193 139.523053 28.295859
v -3633.384424 139.523083 28.139479
v -3634.170508 139.523077 28.295808
v -3634.836914 139.523053 28.741123
v -3635.282227 139.523096 29.407569
v -3635.438477 139.523117 30.193771
v -3635.282227 139.523077 30.980011
v -3634.836914 139.523053 31.646442
v -3634.170508 139.523059 32.091756
v -3633.384424 139.523071 32.248155
v -3632.598193 139.523047 32.091783
v -3631.931787 139.523059 31.646429
v -3631.486182 139.523059 30.979882
v -3631.329688 139.523029 30.193841
v -3632.419434 139.496985 29.794501
v -3632.645947 139.496759 29.455415
v -3632.984717 139.496729 29.228998
v -3633.384473 139.496832 29.149527
v -3633.784033 139.496912 29.228970
v -3634.122705 139.496973 29.455298
v -3634.348975 139.497089 29.794004
v -3634.428418 139.496936 30.193776
v -3634.348975 139.496808 30.593580
v -3634.122705 139.496863 30.932265
v -3633.783984 139.496777 31.158606
v -3633.384424 139.496771 31.238115
v -3632.984717 139.496747 31.158640
v -3632.645850 139.496817 30.932162
v -3632.419287 139.496979 30.593195
v -3632.339697 139.497064 30.193938
v -3633.384277 139.496887 30.193813
v -3631.247412 138.412433 29.308666
v -3631.084375 138.594907 29.241135
v -3631.748779 138.412482 28.558273
v -3631.624023 138.594958 28.433493
v -3632.499170 138.412451 28.056894
v -3632.431689 138.594925 27.893854
v -3633.384277 138.412442 27.880840
v -3633.384277 138.594907 27.704363
v -3634.269531 138.412402 28.056886
v -3634.337061 138.594867 27.893840
v -3635.019922 138.412384 28.558300
v -3635.144678 138.594836 28.433512
v -3635.521240 138.412442 29.308710
v -3635.684326 138.594904 29.241177
v -3635.697314 138.412482 30.193805
v -3635.873730 138.594965 30.193798
v -3635.521240 138.412473 31.078937
v -3635.684326 138.594946 31.146463
v -3635.019922 138.412457 31.829357
v -3635.144678 138.594928 31.954132
v -3634.269531 138.412466 32.330745
v -3634.337061 138.594934 32.493779
v -3633.384277 138.412451 32.506809
v -3633.384277 138.594916 32.683282
v -3632.499170 138.412445 32.330750
v -3632.431689 138.594916 32.493787
v -3631.748779 138.412457 31.829366
v -3631.624023 138.594931 31.954149
v -3631.247412 138.412418 31.078983
v -3631.084375 138.594879 31.146516
v -3631.071289 138.412372 30.193824
v -3630.894775 138.594818 30.193827
v -3630.857617 139.597534 29.147274
v -3631.007373 139.792413 29.209341
v -3631.450488 139.597583 28.259995
v -3631.565137 139.792450 28.374632
v -3632.337842 139.597552 27.667135
v -3632.399951 139.792419 27.816898
v -3633.384424 139.597546 27.458945
v -3633.384424 139.792419 27.621041
v -3634.431055 139.597504 27.667084
v -3634.368945 139.792386 27.816841
v -3635.318262 139.597473 28.259931
v -3635.203613 139.792358 28.374535
v -3635.911035 139.597534 29.147207
v -3635.761230 139.792413 29.209209
v -3636.119092 139.597607 30.193776
v -3635.956982 139.792474 30.193773
v -3635.911035 139.597577 31.240378
v -3635.761230 139.792444 31.178362
v -3635.318262 139.597552 32.127647
v -3635.203613 139.792426 32.013019
v -3634.430908 139.597568 32.720486
v -3634.368799 139.792426 32.570720
v -3633.384375 139.597543 32.928677
v -3633.384375 139.792413 32.766571
v -3632.337793 139.597534 32.720506
v -3632.399756 139.792401 32.570738
v -3631.450488 139.597559 32.127660
v -3631.565137 139.792426 32.013028
v -3630.857617 139.597510 31.240398
v -3631.007373 139.792386 31.178334
v -3630.649268 139.597446 30.193839
v -3630.811377 139.792331 30.193841
vt 0.000000 0.062500
vt 0.062500 0.062500
vt 0.125000 0.062500
vt 0.187500 0.062500
vt 0.250000 0.062500
vt 0.312500 0.062500
vt 0.375000 0.062500
vt 0.437500 0.062500
vt 0.500000 0.062500
vt 0.562500 0.062500
vt 0.625000 0.062500
vt 0.687500 0.062500
vt 0.750000 0.062500
vt 0.812500 0.062500
vt 0.875000 0.062500
vt 0.937500 0.062500
vt 1.000000 0.062500
vt 0.000000 0.125000
vt 0.062500 0.125000
vt 0.125000 0.125000
vt 0.187500 0.125000
vt 0.250000 0.125000
vt 0.312500 0.125000
vt 0.375000 0.125000
vt 0.437500 0.125000
vt 0.500000 0.125000
vt 0.562500 0.125000
vt 0.625000 0.125000
vt 0.687500 0.125000
vt 0.750000 0.125000
vt 0.812500 0.125000
vt 0.875000 0.125000
vt 0.937500 0.125000
vt 1.000000 0.125000
vt 0.000000 0.187500
vt 0.062500 0.187500
vt 0.125000 0.187500
vt 0.187500 0.187500
vt 0.250000 0.187500
vt 0.312500 0.187500
vt 0.375000 0.187500
vt 0.437500 0.187500
vt 0.500000 0.187500
vt 0.562500 0.187500
vt 0.625000 0.187500
vt 0.687500 0.187500
vt 0.750000 0.187500
vt 0.812500 0.187500
vt 0.875000 0.187500
vt 0.937500 0.187500
vt 1.000000 0.187500
vt 0.000000 0.250000
vt 0.062500 0.250000
vt 0.125000 0.250000
vt 0.187500 0.250000
vt 0.250000 0.250000
vt 0.312500 0.250000
vt 0.375000 0.250000
vt 0.437500 0.250000
vt 0.500000 0.250000
vt 0.562500 0.250000
vt 0.625000 0.250000
vt 0.687500 0.250000
vt 0.750000 0.250000
vt 0.812500 0.250000
vt 0.875000 0.250000
vt 0.937500 0.250000
vt 1.000000 0.250000
vt 0.000000 0.312500
vt 0.062500 0.312500
vt 0.125000 0.312500
vt 0.187500 0.312500
vt 0.250000 0.312500
vt 0.312500 0.312500
vt 0.375000 0.312500
vt 0.437500 0.312500
vt 0.500000 0.312500
vt 0.562500 0.312500
vt 0.625000 0.312500
vt 0.687500 0.312500
vt 0.750000 0.312500
vt 0.812500 0.312500
vt 0.875000 0.312500
vt 0.937500 0.312500
vt 1.000000 0.312500
vt 0.000000 0.375000
vt 0.062500 0.375000
vt 0.125000 0.375000
vt 0.187500 0.375000
vt 0.250000 0.375000
vt 0.312500 0.375000
vt 0.375000 0.375000
vt 0.437500 0.375000
vt 0.500000 0.375000
vt 0.562500 0.375000
vt 0.625000 0.375000
vt 0.687500 0.375000
vt 0.750000 0.375000
vt 0.812500 0.375000
vt 0.875000 0.375000
vt 0.937500 0.375000
vt 1.000000 0.375000
vt 0.000000 0.437500
vt 0.062500 0.437500
vt 0.125000 0.437500
vt 0.187500 0.437500
vt 0.250000 0.437500
vt 0.312500 0.437500
vt 0.375000 0.437500
vt 0.437500 0.437500
vt 0.500000 0.437500
vt 0.562500 0.437500
vt 0.625000 0.437500
vt 0.687500 0.437500
vt 0.750000 0.437500
vt 0.812500 0.437500
vt 0.875000 0.437500
vt 0.937500 0.437500
vt 1.000000 0.437500
vt 0.000000 0.500000
vt 0.062500 0.500000
vt 0.125000 0.500000
vt 0.187500 0.500000
vt 0.250000 0.500000
vt 0.312500 0.500000
vt 0.375000 0.500000
vt 0.437500 0.500000
vt 0.500000 0.500000
vt 0.562500 0.500000
vt 0.625000 0.500000
vt 0.687500 0.500000
vt 0.750000 0.500000
vt 0.812500 0.500000
vt 0.875000 0.500000
vt 0.937500 0.500000
vt 1.000000 0.500000
vt 0.000000 0.562500
vt 0.062500 0.562500
vt 0.125000 0.562500
vt 0.187500 0.562500
vt 0.250000 0.562500
vt 0.312500 0.562500
vt 0.375000 0.562500
vt 0.437500 0.562500
vt 0.500000 0.562500
vt 0.562500 0.562500
vt 0.625000 0.562500
vt 0.687500 0.562500
vt 0.750000 0.562500
vt 0.812500 0.562500
vt 0.875000 0.562500
vt 0.937500 0.562500
vt 1.000000 0.562500
vt 0.000000 0.625000
vt 0.062500 0.625000
vt 0.125000 0.625000
vt 0.187500 0.625000
vt 0.250000 0.625000
vt 0.312500 0.625000
vt 0.375000 0.625000
vt 0.437500 0.625000
vt 0.500000 0.625000
vt 0.562500 0.625000
vt 0.625000 0.625000
vt 0.687500 0.625000
vt 0.750000 0.625000
vt 0.812500 0.625000
vt 0.875000 0.625000
vt 0.937500 0.625000
vt 1.000000 0.625000
vt 0.000000 0.687500
vt 0.062500 0.687500
vt 0.125000 0.687500
vt 0.187500 0.687500
vt 0.250000 0.687500
vt 0.312500 0.687500
vt 0.375000 0.687500
vt 0.437500 0.687500
vt 0.500000 0.687500
vt 0.562500 0.687500
vt 0.625000 0.687500
vt 0.687500 0.687500
vt 0.750000 0.687500
vt 0.812500 0.687500
vt 0.875000 0.687500
vt 0.937500 0.687500
vt 1.000000 0.687500
vt 0.000000 0.750000
vt 0.062500 0.750000
vt 0.125000 0.750000
vt 0.187500 0.750000
vt 0.250000 0.750000
vt 0.312500 0.750000
vt 0.375000 0.750000
vt 0.437500 0.750000
vt 0.500000 0.750000
vt 0.562500 0.750000
vt 0.625000 0.750000
vt 0.687500 0.750000
vt 0.750000 0.750000
vt 0.812500 0.750000
vt 0.875000 0.750000
vt 0.937500 0.750000
vt 1.000000 0.750000
vt 0.000000 0.812500
vt 0.062500 0.812500
vt 0.125000 0.812500
vt 0.187500 0.812500
vt 0.250000 0.812500
vt 0.312500 0.812500
vt 0.375000 0.812500
vt 0.437500 0.812500
vt 0.500000 0.812500
vt 0.562500 0.812500
vt 0.625000 0.812500
vt 0.687500 0.812500
vt 0.750000 0.812500
vt 0.812500 0.812500
vt 0.875000 0.812500
vt 0.937500 0.812500
vt 1.000000 0.812500
vt 0.031250 0.000000
vt 0.093750 0.000000
vt 0.156250 0.000000
vt 0.218750 0.000000
vt 0.281250 0.000000
vt 0.343750 0.000000
vt 0.406250 0.000000
vt 0.468750 0.000000
vt 0.531250 0.000000
vt 0.593750 0.000000
vt 0.656250 0.000000
vt 0.718750 0.000000
vt 0.781250 0.000000
vt 0.843750 0.000000
vt 0.906250 0.000000
vt 0.968750 0.000000
vt 0.000000 0.812500
vt 0.062500 0.812500
vt 0.062500 0.812500
vt 0.125000 0.812500
vt 0.125000 0.812500
vt 0.187500 0.812500
vt 0.187500 0.812500
vt 0.250000 0.812500
vt 0.250000 0.812500
vt 0.312500 0.812500
vt 0.312500 0.812500
vt 0.375000 0.812500
vt 0.375000 0.812500
vt 0.437500 0.812500
vt 0.437500 0.812500
vt 0.500000 0.812500
vt 0.500000 0.812500
vt 0.562500 0.812500
vt 0.562500 0.812500
vt 0.625000 0.812500
vt 0.625000 0.812500
vt 0.687500 0.812500
vt 0.687500 0.812500
vt 0.750000 0.812500
vt 0.750000 0.812500
vt 0.812500 0.812500
vt 0.812500 0.812500
vt 0.875000 0.812500
vt 0.875000 0.812500
vt 0.937500 0.812500
vt 0.937500 0.812500
vt 1.000000 0.812500
vt 0.062500 0.812500
vt 0.125000 0.812500
vt 0.187500 0.812500
vt 0.250000 0.812500
vt 0.312500 0.812500
vt 0.375000 0.812500
vt 0.437500 0.812500
vt 0.500000 0.812500
vt 0.562500 0.812500
vt 0.625000 0.812500
vt 0.687500 0.812500
vt 0.750000 0.812500
vt 0.812500 0.812500
vt 0.875000 0.812500
vt 0.937500 0.812500
vt 1.000000 0.812500
vt 1.000000 0.812500
vt 0.062500 0.812500
vt 0.937500 0.812500
vt 1.000000 0.812500
vt 0.875000 0.812500
vt 0.937500 0.812500
vt 0.812500 0.812500
vt 0.875000 0.812500
vt 0.750000 0.812500
vt 0.812500 0.812500
vt 0.687500 0.812500
vt 0.750000 0.812500
vt 0.625000 0.812500
vt 0.687500 0.812500
vt 0.562500 0.812500
vt 0.625000 0.812500
vt 0.500000 0.812500
vt 0.562500 0.812500
vt 0.437500 0.812500
vt 0.500000 0.812500
vt 0.375000 0.812500
vt 0.437500 0.812500
vt 0.312500 0.812500
vt 0.375000 0.812500
vt 0.250000 0.812500
vt 0.312500 0.812500
vt 0.187500 0.812500
vt 0.250000 0.812500
vt 0.125000 0.812500
vt 0.187500 0.812500
vt 0.062500 0.812500
vt 0.125000 0.812500
vt 1.000000 0.812500
vt 0.062500 0.812500
vt 0.937500 0.812500
vt 1.000000 0.812500
vt 0.875000 0.812500
vt 0.937500 0.812500
vt 0.812500 0.812500
vt 0.875000 0.812500
vt 0.750000 0.812500
vt 0.812500 0.812500
vt 0.687500 0.812500
vt 0.750000 0.812500
vt 0.625000 0.812500
vt 0.687500 0.812500
vt 0.562500 0.812500
vt 0.625000 0.812500
vt 0.500000 0.812500
vt 0.562500 0.812500
vt 0.437500 0.812500
vt 0.500000 0.812500
vt 0.375000 0.812500
vt 0.437500 0.812500
vt 0.312500 0.812500
vt 0.375000 0.812500
vt 0.250000 0.812500
vt 0.312500 0.812500
vt 0.187500 0.812500
vt 0.250000 0.812500
vt 0.125000 0.812500
vt 0.187500 0.812500
vt 0.062500 0.812500
vt 0.125000 0.812500
vt 1.000000 0.812500
vt 0.062500 0.812500
vt 0.937500 0.812500
vt 1.000000 0.812500
vt 0.875000 0.812500
vt 0.937500 0.812500
vt 0.812500 0.812500
vt 0.875000 0.812500
vt 0.750000 0.812500
vt 0.812500 0.812500
vt 0.687500 0.812500
vt 0.750000 0.812500
vt 0.625000 0.812500
vt 0.687500 0.812500
vt 0.562500 0.812500
vt 0.625000 0.812500
vt 0.500000 0.812500
vt 0.562500 0.812500
vt 0.437500 0.812500
vt 0.500000 0.812500
vt 0.375000 0.812500
vt 0.437500 0.812500
vt 0.312500 0.812500
vt 0.375000 0.812500
vt 0.250000 0.812500
vt 0.312500 0.812500
vt 0.187500 0.812500
vt 0.250000 0.812500
vt 0.125000 0.812500
vt 0.187500 0.812500
vt 0.062500 0.812500
vt 0.125000 0.812500
vt 0.062500 0.812500
vt 0.125000 0.812500
vt 0.187500 0.812500
vt 0.250000 0.812500
vt 0.312500 0.812500
vt 0.375000 0.812500
vt 0.437500 0.812500
vt 0.500000 0.812500
vt 0.562500 0.812500
vt 0.625000 0.812500
vt 0.687500 0.812500
vt 0.750000 0.812500
vt 0.812500 0.812500
vt 0.875000 0.812500
vt 0.937500 0.812500
vt 1.000000 0.812500
vt 0.062500 0.812500
vt 0.062500 0.812500
vt 0.125000 0.812500
vt 0.125000 0.812500
vt 0.187500 0.812500
vt 0.187500 0.812500
vt 0.250000 0.812500
vt 0.250000 0.812500
vt 0.312500 0.812500
vt 0.312500 0.812500
vt 0.375000 0.812500
vt 0.375000 0.812500
vt 0.437500 0.812500
vt 0.437500 0.812500
vt 0.500000 0.812500
vt 0.500000 0.812500
vt 0.562500 0.812500
vt 0.562500 0.812500
vt 0.625000 0.812500
vt 0.625000 0.812500
vt 0.687500 0.812500
vt 0.687500 0.812500
vt 0.750000 0.812500
vt 0.750000 0.812500
vt 0.812500 0.812500
vt 0.812500 0.812500
vt 0.875000 0.812500
vt 0.875000 0.812500
vt 0.937500 0.812500
vt 0.937500 0.812500
vt 1.000000 0.812500
vt 1.000000 0.812500
vt 0.062500 0.812500
vt 0.062500 0.812500
vt 0.125000 0.812500
vt 0.125000 0.812500
vt 0.187500 0.812500
vt 0.187500 0.812500
vt 0.250000 0.812500
vt 0.250000 0.812500
vt 0.312500 0.812500
vt 0.312500 0.812500
vt 0.375000 0.812500
vt 0.375000 0.812500
vt 0.437500 0.812500
vt 0.437500 0.812500
vt 0.500000 0.812500
vt 0.500000 0.812500
vt 0.562500 0.812500
vt 0.562500 0.812500
vt 0.625000 0.812500
vt 0.625000 0.812500
vt 0.687500 0.812500
vt 0.687500 0.812500
vt 0.750000 0.812500
vt 0.750000 0.812500
vt 0.812500 0.812500
vt 0.812500 0.812500
vt 0.875000 0.812500
vt 0.875000 0.812500
vt 0.937500 0.812500
vt 0.937500 0.812500
vt 1.000000 0.812500
vt 1.000000 0.812500
vt 0.062500 0.812500
vt 0.062500 0.812500
vt 0.125000 0.812500
vt 0.125000 0.812500
vt 0.187500 0.812500
vt 0.187500 0.812500
vt 0.250000 0.812500
vt 0.250000 0.812500
vt 0.312500 0.812500
vt 0.312500 0.812500
vt 0.375000 0.812500
vt 0.375000 0.812500
vt 0.437500 0.812500
vt 0.437500 0.812500
vt 0.500000 0.812500
vt 0.500000 0.812500
vt 0.562500 0.812500
vt 0.562500 0.812500
vt 0.625000 0.812500
vt 0.625000 0.812500
vt 0.687500 0.812500
vt 0.687500 0.812500
vt 0.750000 0.812500
vt 0.750000 0.812500
vt 0.812500 0.812500
vt 0.812500 0.812500
vt 0.875000 0.812500
vt 0.875000 0.812500
vt 0.937500 0.812500
vt 0.937500 0.812500
vt 1.000000 0.812500
vt 1.000000 0.812500
vt 0.375000 0.812500
vt 1.000000 0.812500
vt 1.000000 0.812500
vt 0.062500 0.812500
vt 0.062500 0.812500
vt 0.125000 0.812500
vt 0.125000 0.812500
vt 0.187500 0.812500
vt 0.187500 0.812500
vt 0.250000 0.812500
vt 0.250000 0.812500
vt 0.312500 0.812500
vt 0.312500 0.812500
vt 0.375000 0.812500
vt 0.375000 0.812500
vt 0.437500 0.812500
vt 0.437500 0.812500
vt 0.500000 0.812500
vt 0.500000 0.812500
vt 0.562500 0.812500
vt 0.562500 0.812500
vt 0.625000 0.812500
vt 0.625000 0.812500
vt 0.687500 0.812500
vt 0.687500 0.812500
vt 0.750000 0.812500
vt 0.750000 0.812500
vt 0.812500 0.812500
vt 0.812500 0.812500
vt 0.875000 0.812500
vt 0.875000 0.812500
vt 0.937500 0.812500
vt 0.937500 0.812500
vt 1.000000 0.812500
vt 1.000000 0.812500
vt 0.062500 0.812500
vt 0.062500 0.812500
vt 0.125000 0.812500
vt 0.125000 0.812500
vt 0.187500 0.812500
vt 0.187500 0.812500
vt 0.250000 0.812500
vt 0.250000 0.812500
vt 0.312500 0.812500
vt 0.312500 0.812500
vt 0.375000 0.812500
vt 0.375000 0.812500
vt 0.437500 0.812500
vt 0.437500 0.812500
vt 0.500000 0.812500
vt 0.500000 0.812500
vt 0.562500 0.812500
vt 0.562500 0.812500
vt 0.625000 0.812500
vt 0.625000 0.812500
vt 0.687500 0.812500
vt 0.687500 0.812500
vt 0.750000 0.812500
vt 0.750000 0.812500
vt 0.812500 0.812500
vt 0.812500 0.812500
vt 0.875000 0.812500
vt 0.875000 0.812500
vt 0.937500 0.812500
vt 0.937500 0.812500
vt 0.062500 0.812500
vt 0.062500 0.812500
vt 0.125000 0.812500
vt 0.125000 0.812500
vt 0.187500 0.812500
vt 0.187500 0.812500
vt 0.250000 0.812500
vt 0.250000 0.812500
vt 0.312500 0.812500
vt 0.312500 0.812500
vt 0.375000 0.812500
vt 0.375000 0.812500
vt 0.437500 0.812500
vt 0.437500 0.812500
vt 0.500000 0.812500
vt 0.500000 0.812500
vt 0.562500 0.812500
vt 0.562500 0.812500
vt 0.625000 0.812500
vt 0.625000 0.812500
vt 0.687500 0.812500
vt 0.687500 0.812500
vt 0.750000 0.812500
vt 0.750000 0.812500
vt 0.812500 0.812500
vt 0.812500 0.812500
vt 0.875000 0.812500
vt 0.875000 0.812500
vt 0.937500 0.812500
vt 0.937500 0.812500
vt 1.000000 0.812500
vt 1.000000 0.812500
vt 0.062500 0.812500
vt 0.062500 0.812500
vt 0.125000 0.812500
vt 0.125000 0.812500
vt 0.187500 0.812500
vt 0.187500 0.812500
vt 0.250000 0.812500
vt 0.250000 0.812500
vt 0.312500 0.812500
vt 0.312500 0.812500
vt 0.375000 0.812500
vt 0.375000 0.812500
vt 0.437500 0.812500
vt 0.437500 0.812500
vt 0.500000 0.812500
vt 0.500000 0.812500
vt 0.562500 0.812500
vt 0.562500 0.812500
vt 0.625000 0.812500
vt 0.625000 0.812500
vt 0.687500 0.812500
vt 0.687500 0.812500
vt 0.750000 0.812500
vt 0.750000 0.812500
vt 0.812500 0.812500
vt 0.812500 0.812500
vt 0.875000 0.812500
vt 0.875000 0.812500
vt 0.937500 0.812500
vt 0.937500 0.812500
vt 1.000000 0.812500
vt 1.000000 0.812500
vt 0.062500 0.812500
vt 0.062500 0.812500
vt 0.125000 0.812500
vt 0.125000 0.812500
vt 0.187500 0.812500
vt 0.187500 0.812500
vt 0.250000 0.812500
vt 0.250000 0.812500
vt 0.312500 0.812500
vt 0.312500 0.812500
vt 0.375000 0.812500
vt 0.375000 0.812500
vt 0.437500 0.812500
vt 0.437500 0.812500
vt 0.500000 0.812500
vt 0.500000 0.812500
vt 0.562500 0.812500
vt 0.562500 0.812500
vt 0.625000 0.812500
vt 0.625000 0.812500
vt 0.687500 0.812500
vt 0.687500 0.812500
vt 0.750000 0.812500
vt 0.750000 0.812500
vt 0.812500 0.812500
vt 0.812500 0.812500
vt 0.875000 0.812500
vt 0.875000 0.812500
vt 0.937500 0.812500
vt 0.937500 0.812500
vt 1.000000 0.812500
vt 1.000000 0.812500
vn 0.231822 -0.968008 -0.096020
vn 0.177427 -0.968008 -0.177426
vn 0.292544 -0.910403 -0.292547
vn 0.382226 -0.910406 -0.158315
vn 0.096017 -0.968010 -0.231812
vn 0.158319 -0.910404 -0.382230
vn -0.000001 -0.968009 -0.250915
vn 0.000001 -0.910404 -0.413720
vn -0.096026 -0.968005 -0.231829
vn -0.158329 -0.910400 -0.382235
vn -0.177433 -0.968007 -0.177427
vn -0.292555 -0.910399 -0.292549
vn -0.231818 -0.968009 -0.096017
vn -0.382236 -0.910400 -0.158325
vn -0.250929 -0.968005 0.000000
vn -0.413724 -0.910402 -0.000000
vn -0.231822 -0.968008 0.096019
vn -0.382234 -0.910402 0.158324
vn -0.177436 -0.968006 0.177429
vn -0.292552 -0.910401 0.292546
vn -0.096024 -0.968008 0.231819
vn -0.158328 -0.910403 0.382229
vn 0.000000 -0.968009 0.250915
vn 0.000000 -0.910404 0.413720
vn 0.096016 -0.968011 0.231810
vn 0.158316 -0.910407 0.382224
vn 0.177415 -0.968012 0.177417
vn 0.292536 -0.910408 0.292541
vn 0.231818 -0.968009 0.096017
vn 0.382222 -0.910409 0.158312
vn 0.250909 -0.968011 -0.000000
vn 0.413711 -0.910408 0.000000
vn 0.407062 -0.817681 -0.407060
vn 0.531874 -0.817667 -0.220296
vn 0.220288 -0.817689 -0.531843
vn 0.000001 -0.817681 -0.575671
vn -0.220307 -0.817675 -0.531858
vn -0.407064 -0.817679 -0.407064
vn -0.531836 -0.817693 -0.220294
vn -0.575654 -0.817693 0.000001
vn -0.531846 -0.817685 0.220299
vn -0.407062 -0.817682 0.407058
vn -0.220302 -0.817681 0.531850
vn 0.000000 -0.817678 0.575676
vn 0.220292 -0.817686 0.531847
vn 0.407062 -0.817680 0.407062
vn 0.531866 -0.817673 0.220292
vn 0.575684 -0.817672 0.000000
vn 0.509042 -0.694084 -0.509041
vn 0.665104 -0.694076 -0.275492
vn 0.275490 -0.694091 -0.665088
vn 0.000001 -0.694088 -0.719891
vn -0.275492 -0.694082 -0.665097
vn -0.509042 -0.694087 -0.509038
vn -0.665097 -0.694085 -0.275486
vn -0.719901 -0.694076 0.000001
vn -0.665102 -0.694079 0.275487
vn -0.509047 -0.694080 0.509043
vn -0.275491 -0.694083 0.665096
vn -0.000000 -0.694082 0.719896
vn 0.275495 -0.694081 0.665097
vn 0.509041 -0.694085 0.509041
vn 0.665099 -0.694081 0.275491
vn 0.719903 -0.694075 -0.000000
vn 0.593102 -0.544490 -0.593095
vn 0.774912 -0.544502 -0.320983
vn 0.320981 -0.544488 -0.774922
vn 0.000001 -0.544492 -0.838766
vn -0.320984 -0.544496 -0.774915
vn -0.593091 -0.544501 -0.593095
vn -0.774924 -0.544488 -0.320977
vn -0.838774 -0.544480 0.000000
vn -0.774919 -0.544497 0.320973
vn -0.593091 -0.544500 0.593096
vn -0.320983 -0.544499 0.774913
vn 0.000000 -0.544495 0.838764
vn 0.320981 -0.544487 0.774923
vn 0.593101 -0.544490 0.593095
vn 0.774915 -0.544495 0.320986
vn 0.838760 -0.544502 -0.000000
vn 0.659047 -0.362372 -0.659048
vn 0.861082 -0.362378 -0.356679
vn 0.356672 -0.362370 -0.861088
vn 0.000001 -0.362370 -0.932034
vn -0.356672 -0.362379 -0.861084
vn -0.659043 -0.362392 -0.659041
vn -0.861082 -0.362391 -0.356666
vn -0.932025 -0.362394 -0.000000
vn -0.861078 -0.362403 0.356664
vn -0.659043 -0.362393 0.659040
vn -0.356672 -0.362383 0.861083
vn 0.000000 -0.362373 0.932033
vn 0.356672 -0.362368 0.861089
vn 0.659048 -0.362365 0.659050
vn 0.861085 -0.362369 0.356681
vn 0.932030 -0.362382 0.000000
vn 0.696542 -0.172226 -0.696539
vn 0.910070 -0.172236 -0.376971
vn 0.376964 -0.172228 -0.910074
vn 0.000001 -0.172222 -0.985058
vn -0.376968 -0.172223 -0.910074
vn -0.696542 -0.172226 -0.696539
vn -0.910076 -0.172228 -0.376961
vn -0.985057 -0.172230 0.000000
vn -0.910075 -0.172235 0.376960
vn -0.696543 -0.172224 0.696540
vn -0.376969 -0.172219 0.910074
vn -0.000000 -0.172224 0.985058
vn 0.376964 -0.172219 0.910076
vn 0.696542 -0.172228 0.696539
vn 0.910070 -0.172238 0.376971
vn 0.985054 -0.172247 0.000000
vn 0.706890 0.024748 -0.706891
vn 0.923595 0.024750 -0.382570
vn 0.382571 0.024739 -0.923595
vn 0.000001 0.024733 -0.999694
vn -0.382562 0.024737 -0.923598
vn -0.706889 0.024741 -0.706891
vn -0.923597 0.024734 -0.382567
vn -0.999694 0.024738 -0.000000
vn -0.923597 0.024740 0.382567
vn -0.706890 0.024741 0.706891
vn -0.382563 0.024738 0.923598
vn -0.000000 0.024732 0.999694
vn 0.382570 0.024737 0.923595
vn 0.706889 0.024737 0.706891
vn 0.923595 0.024745 0.382570
vn 0.999694 0.024751 0.000000
vn 0.688405 0.228473 -0.688403
vn 0.899440 0.228481 -0.372563
vn 0.372558 0.228471 -0.899445
vn 0.000001 0.228470 -0.973551
vn -0.372565 0.228471 -0.899442
vn -0.688403 0.228467 -0.688407
vn -0.899445 0.228467 -0.372560
vn -0.973551 0.228470 -0.000000
vn -0.899444 0.228473 0.372559
vn -0.688403 0.228472 0.688406
vn -0.372565 0.228465 0.899444
vn 0.000000 0.228465 0.973552
vn 0.372558 0.228468 0.899446
vn 0.688403 0.228482 0.688401
vn 0.899438 0.228491 0.372562
vn 0.973546 0.228490 -0.000000
vn 0.634806 0.440511 -0.634801
vn 0.829417 0.440493 -0.343559
vn 0.343555 0.440518 -0.829406
vn 0.000001 0.440527 -0.897739
vn -0.343550 0.440527 -0.829403
vn -0.634800 0.440519 -0.634801
vn -0.829409 0.440518 -0.343547
vn -0.897736 0.440534 -0.000001
vn -0.829400 0.440537 0.343544
vn -0.634797 0.440528 0.634797
vn -0.343551 0.440521 0.829406
vn -0.000000 0.440520 0.897743
vn 0.343556 0.440515 0.829407
vn 0.634803 0.440517 0.634799
vn 0.829412 0.440506 0.343557
vn 0.897761 0.440482 -0.000000
vn 0.535532 0.653000 -0.535534
vn 0.699720 0.652986 -0.289830
vn 0.289824 0.653007 -0.699703
vn 0.000001 0.653003 -0.757356
vn -0.289826 0.652998 -0.699710
vn -0.535537 0.652998 -0.535531
vn -0.699717 0.652989 -0.289831
vn -0.757356 0.653002 -0.000001
vn -0.699697 0.653014 0.289822
vn -0.535531 0.653006 0.535527
vn -0.289824 0.653005 0.699705
vn -0.000001 0.653008 0.757351
vn 0.289826 0.653005 0.699704
vn 0.535537 0.652989 0.535542
vn 0.699716 0.652992 0.289828
vn 0.757366 0.652990 -0.000000
vn 0.453330 0.767449 -0.453336
vn 0.592312 0.767445 -0.245345
vn 0.245336 0.767451 -0.592308
vn 0.000001 0.767449 -0.641111
vn -0.245343 0.767450 -0.592306
vn -0.453326 0.767456 -0.453328
vn -0.592302 0.767456 -0.245336
vn -0.641097 0.767460 -0.000000
vn -0.592304 0.767454 0.245337
vn -0.453328 0.767455 0.453329
vn -0.245342 0.767454 0.592302
vn -0.000000 0.767452 0.641107
vn 0.245336 0.767453 0.592306
vn 0.453328 0.767450 0.453337
vn 0.592302 0.767455 0.245340
vn 0.641113 0.767447 -0.000000
vn 0.407504 0.817236 -0.407511
vn 0.532447 0.817226 -0.220549
vn 0.220546 0.817233 -0.532437
vn 0.000001 0.817241 -0.576296
vn -0.220541 0.817254 -0.532407
vn -0.407497 0.817249 -0.407492
vn -0.532397 0.817263 -0.220531
vn -0.576254 0.817270 -0.000001
vn -0.532409 0.817254 0.220538
vn -0.407505 0.817243 0.407497
vn -0.220546 0.817241 0.532425
vn -0.000001 0.817235 0.576305
vn 0.220545 0.817234 0.532437
vn 0.407494 0.817246 0.407502
vn 0.532431 0.817238 0.220542
vn 0.576335 0.817213 -0.000001
vn 0.000001 -1.000000 0.000003
vn 0.000000 0.000000 0.000000
vn 0.000000 0.000000 0.000000
vn 0.000000 0.000000 0.000000
vn 0.000000 0.000000 0.000000
vn 0.000000 0.000000 0.000000
vn 0.000000 0.000000 0.000000
vn 0.000000 0.000000 0.000000
vn 0.000000 0.000000 0.000000
vn 0.000000 0.000000 0.000000
vn 0.000000 0.000000 0.000000
vn 0.000000 0.000000 0.000000
vn 0.000000 0.000000 0.000000
vn 0.000000 0.000000 0.000000
vn 0.000000 0.000000 0.000000
vn 0.000000 0.000000 0.000000
vn 0.000000 0.000000 0.000000
vn 0.000000 0.000000 0.000000
vn 0.000000 0.000000 0.000000
vn 0.000000 0.000000 0.000000
vn 0.000000 0.000000 0.000000
vn 0.000000 0.000000 0.000000
vn 0.000000 0.000000 0.000000
vn 0.000000 0.000000 0.000000
vn 0.000000 0.000000 0.000000
vn 0.000000 0.000000 0.000000
vn 0.000000 0.000000 0.000000
vn 0.000000 0.000000 0.000000
vn 0.000000 0.000000 0.000000
vn 0.000000 0.000000 0.000000
vn 0.000000 0.000000 0.000000
vn 0.000000 0.000000 0.000000
vn 0.000000 0.000000 0.000000
vn 0.000000 0.000000 0.000000
vn 0.000000 0.000000 0.000000
vn 0.000000 0.000000 0.000000
vn 0.000000 0.000000 0.000000
vn 0.000000 0.000000 0.000000
vn 0.000000 0.000000 0.000000
vn 0.000000 0.000000 0.000000
vn 0.000000 0.000000 0.000000
vn 0.000000 0.000000 0.000000
vn 0.000000 0.000000 0.000000
vn 0.000000 0.000000 0.000000
vn 0.000000 0.000000 0.000000
vn 0.000000 0.000000 0.000000
vn 0.000000 0.000000 0.000000
vn 0.000000 0.000000 0.000000
vn 0.000000 0.000000 0.000000
vn 0.000000 0.000000 0.000000
vn 0.000000 0.000000 0.000000
vn 0.000000 0.000000 0.000000
vn 0.000000 0.000000 0.000000
vn 0.000000 0.000000 0.000000
vn 0.000000 0.000000 0.000000
vn 0.000000 0.000000 0.000000
vn 0.000000 0.000000 0.000000
vn 0.000000 0.000000 0.000000
vn 0.000000 0.000000 0.000000
vn 0.000000 0.000000 0.000000
vn 0.000000 0.000000 0.000000
vn 0.000000 0.000000 0.000000
vn 0.000000 0.000000 0.000000
vn 0.000000 0.000000 0.000000
vn 0.000000 0.000000 0.000000
vn 0.464529 0.864397 -0.192437
vn 0.355536 0.864399 -0.355540
vn 0.403602 0.821097 -0.403615
vn 0.527326 0.821100 -0.218453
vn 0.192418 0.864396 -0.464538
vn 0.218427 0.821100 -0.527336
vn 0.000001 0.864393 -0.502817
vn -0.000000 0.821101 -0.570783
vn -0.192426 0.864390 -0.464544
vn -0.218428 0.821103 -0.527333
vn -0.355558 0.864384 -0.355556
vn -0.403615 0.821098 -0.403599
vn -0.464540 0.864396 -0.192413
vn -0.527335 0.821104 -0.218418
vn -0.502808 0.864398 0.000001
vn -0.570791 0.821095 -0.000002
vn -0.464543 0.864394 0.192412
vn -0.527337 0.821103 0.218416
vn -0.355553 0.864390 0.355545
vn -0.403614 0.821100 0.403598
vn -0.192427 0.864387 0.464550
vn -0.218431 0.821095 0.527343
vn -0.000000 0.864387 0.502827
vn -0.000003 0.821094 0.570793
vn 0.192419 0.864393 0.464543
vn 0.218429 0.821099 0.527338
vn 0.355542 0.864395 0.355545
vn 0.403603 0.821096 0.403615
vn 0.464535 0.864393 0.192437
vn 0.527326 0.821101 0.218452
vn 0.502823 0.864390 0.000000
vn 0.570777 0.821105 0.000001
vn 0.733288 0.608291 -0.303760
vn 0.793687 0.608327 0.000001
vn 0.733275 0.608308 0.303758
vn 0.561229 0.608296 0.561247
vn 0.303734 0.608307 0.733286
vn 0.000001 0.608311 0.793698
vn -0.303735 0.608331 0.733266
vn -0.561221 0.608345 0.561202
vn -0.733276 0.608331 0.303710
vn -0.793709 0.608298 -0.000012
vn -0.733276 0.608323 -0.303727
vn -0.561220 0.608357 -0.561190
vn -0.303732 0.608346 -0.733254
vn 0.000005 0.608318 -0.793693
vn 0.303731 0.608302 -0.733291
vn 0.561237 0.608281 -0.561255
vn 0.844547 0.405421 -0.349820
vn 0.914138 0.405402 -0.000001
vn 0.844545 0.405425 0.349822
vn 0.646361 0.405436 0.646405
vn 0.349804 0.405436 0.844546
vn -0.000011 0.405445 0.914119
vn -0.349805 0.405478 0.844526
vn -0.646377 0.405480 0.646361
vn -0.844528 0.405468 0.349811
vn -0.914102 0.405483 -0.000018
vn -0.844515 0.405486 -0.349821
vn -0.646384 0.405493 -0.646345
vn -0.349807 0.405473 -0.844528
vn -0.000007 0.405440 -0.914122
vn 0.349806 0.405418 -0.844554
vn 0.646363 0.405424 -0.646411
vn 0.879154 0.307388 -0.364145
vn 0.951593 0.307360 0.000001
vn 0.879146 0.307416 0.364141
vn 0.672848 0.307412 0.672884
vn 0.364160 0.307374 0.879152
vn 0.000019 0.307396 0.951582
vn -0.364143 0.307422 0.879142
vn -0.672856 0.307377 0.672893
vn -0.879147 0.307387 0.364163
vn -0.951558 0.307471 -0.000031
vn -0.879107 0.307492 -0.364169
vn -0.672868 0.307446 -0.672849
vn -0.364140 0.307423 -0.879144
vn 0.000027 0.307411 -0.951577
vn 0.364163 0.307337 -0.879164
vn 0.672857 0.307361 -0.672899
vn -0.923490 -0.025958 0.382743
vn -0.706891 -0.025944 0.706846
vn -0.706865 -0.025944 0.706872
vn -0.923483 -0.025958 0.382759
vn -0.382561 -0.025964 0.923566
vn -0.382590 -0.025964 0.923553
vn -0.000034 -0.025960 0.999663
vn -0.000038 -0.025960 0.999663
vn 0.382544 -0.025878 0.923575
vn 0.382539 -0.025878 0.923577
vn 0.706911 -0.025760 0.706834
vn 0.706871 -0.025760 0.706873
vn 0.923608 -0.025912 0.382462
vn 0.923616 -0.025912 0.382443
vn 0.999657 -0.026185 0.000001
vn 0.999657 -0.026185 -0.000002
vn 0.923608 -0.026028 -0.382454
vn 0.923613 -0.026028 -0.382442
vn 0.706900 -0.025882 -0.706840
vn 0.706851 -0.025882 -0.706889
vn 0.382567 -0.026006 -0.923562
vn 0.382593 -0.026006 -0.923551
vn -0.000002 -0.026052 -0.999661
vn 0.000043 -0.026052 -0.999661
vn -0.382556 -0.026019 -0.923566
vn -0.382583 -0.026019 -0.923555
vn -0.706841 -0.026014 -0.706894
vn -0.706818 -0.026014 -0.706917
vn -0.923482 -0.026068 -0.382754
vn -0.923483 -0.026068 -0.382753
vn -0.999661 -0.026036 0.000081
vn -0.999661 -0.026036 0.000080
vn 0.000000 0.000000 0.000000
vn 0.000000 0.000000 0.000000
vn 0.000000 0.000000 0.000000
vn 0.000000 0.000000 0.000000
vn 0.000000 0.000000 0.000000
vn 0.000000 0.000000 0.000000
vn 0.000000 0.000000 0.000000
vn 0.000000 0.000000 0.000000
vn 0.000000 0.000000 0.000000
vn 0.000000 0.000000 0.000000
vn 0.000000 0.000000 0.000000
vn 0.000000 0.000000 0.000000
vn 0.000000 0.000000 0.000000
vn 0.000000 0.000000 0.000000
vn 0.000000 0.000000 0.000000
vn 0.000000 0.000000 0.000000
vn 0.000000 0.000000 0.000000
vn 0.000000 0.000000 0.000000
vn 0.000000 0.000000 0.000000
vn 0.000000 0.000000 0.000000
vn 0.000000 0.000000 0.000000
vn 0.000000 0.000000 0.000000
vn 0.000000 0.000000 0.000000
vn 0.000000 0.000000 0.000000
vn 0.000000 0.000000 0.000000
vn 0.000000 0.000000 0.000000
vn 0.000000 0.000000 0.000000
vn 0.000000 0.000000 0.000000
vn 0.000000 0.000000 0.000000
vn 0.000000 0.000000 0.000000
vn 0.000000 0.000000 0.000000
vn 0.000000 0.000000 0.000000
vn 0.000000 0.000000 0.000000
vn 0.000000 0.000000 0.000000
vn 0.000000 0.000000 0.000000
vn 0.000000 0.000000 0.000000
vn 0.000000 0.000000 0.000000
vn 0.000000 0.000000 0.000000
vn 0.000000 0.000000 0.000000
vn 0.000000 0.000000 0.000000
vn 0.000000 0.000000 0.000000
vn 0.000000 0.000000 0.000000
vn 0.000000 0.000000 0.000000
vn 0.000000 0.000000 0.000000
vn 0.000000 0.000000 0.000000
vn 0.000000 0.000000 0.000000
vn 0.000000 0.000000 0.000000
vn 0.000000 0.000000 0.000000
vn 0.000000 0.000000 0.000000
vn 0.000000 0.000000 0.000000
vn 0.000000 0.000000 0.000000
vn 0.000000 0.000000 0.000000
vn 0.000000 0.000000 0.000000
vn 0.000000 0.000000 0.000000
vn 0.000000 0.000000 0.000000
vn 0.000000 0.000000 0.000000
vn 0.000000 0.000000 0.000000
vn 0.000000 0.000000 0.000000
vn 0.000000 0.000000 0.000000
vn 0.000000 0.000000 0.000000
vn 0.000000 0.000000 0.000000
vn 0.000000 0.000000 0.000000
vn 0.000000 0.000000 0.000000
vn 0.000000 0.000000 0.000000
vn -0.023924 0.999666 0.009811
vn -0.018431 0.999663 0.018289
vn -0.018431 0.999663 0.018289
vn -0.023924 0.999666 0.009811
vn -0.009918 0.999662 0.024053
vn -0.009918 0.999662 0.024053
vn 0.000075 0.999662 0.025988
vn 0.000075 0.999662 0.025988
vn 0.009945 0.999664 0.023919
vn 0.009946 0.999664 0.023919
vn 0.018299 0.999667 0.018197
vn 0.018299 0.999667 0.018197
vn 0.023865 0.999667 0.009863
vn 0.023865 0.999667 0.009863
vn 0.025893 0.999665 0.000108
vn 0.025893 0.999665 0.000108
vn 0.023988 0.999664 -0.009870
vn 0.023988 0.999664 -0.009870
vn 0.018379 0.999663 -0.018348
vn 0.018379 0.999663 -0.018348
vn 0.009968 0.999662 -0.023998
vn 0.009968 0.999662 -0.023998
vn 0.000017 0.999661 -0.026032
vn 0.000017 0.999661 -0.026032
vn -0.009962 0.999662 -0.024024
vn -0.009962 0.999662 -0.024024
vn -0.018405 0.999663 -0.018282
vn -0.018405 0.999663 -0.018282
vn -0.023892 0.999666 -0.009824
vn -0.023892 0.999666 -0.009824
vn -0.025762 0.999668 0.000010
vn -0.025762 0.999668 0.000010
vn 0.000066 1.000000 0.000143
vn 0.000009 1.000000 0.000038
vn 0.000010 1.000000 0.000041
vn -0.000140 1.000000 -0.000316
vn 0.000143 1.000000 -0.000108
vn 0.000229 1.000000 -0.000052
vn 0.000171 1.000000 -0.000044
vn 0.000215 1.000000 -0.000099
vn 0.000161 1.000000 0.000117
vn 0.000047 1.000000 0.000357
vn -0.000035 1.000000 0.000111
vn 0.000038 1.000000 0.000111
vn -0.000001 1.000000 0.000143
vn -0.000158 1.000000 0.000251
vn -0.000199 1.000000 0.000253
vn -0.000169 1.000000 0.000009
vn -0.000232 1.000000 -0.000314
vn 0.427089 -0.886723 -0.176970
vn 0.875165 -0.320332 -0.362594
vn 0.947289 -0.320381 -0.000003
vn 0.462265 -0.886742 -0.000008
vn 0.326944 -0.886686 -0.326951
vn 0.669843 -0.320274 -0.669877
vn 0.176956 -0.886693 -0.427156
vn 0.362531 -0.320280 -0.875210
vn 0.000023 -0.886703 -0.462338
vn 0.000035 -0.320323 -0.947309
vn -0.176886 -0.886726 -0.427117
vn -0.362488 -0.320346 -0.875203
vn -0.326903 -0.886739 -0.326846
vn -0.669871 -0.320344 -0.669816
vn -0.427106 -0.886736 -0.176859
vn -0.875231 -0.320316 -0.362447
vn -0.462339 -0.886703 0.000004
vn -0.947323 -0.320281 0.000006
vn -0.427176 -0.886691 0.176920
vn -0.875233 -0.320301 0.362456
vn -0.326931 -0.886707 0.326906
vn -0.669850 -0.320327 0.669844
vn -0.176921 -0.886711 0.427132
vn -0.362518 -0.320298 0.875208
vn -0.000009 -0.886705 0.462336
vn -0.000000 -0.320293 0.947318
vn 0.176945 -0.886694 0.427158
vn 0.362522 -0.320288 0.875210
vn 0.326922 -0.886697 0.326943
vn 0.669842 -0.320275 0.669878
vn 0.427095 -0.886721 0.176961
vn 0.875169 -0.320323 0.362592
vn 0.710235 0.639534 -0.294217
vn 0.710236 0.639534 -0.294212
vn 0.768824 0.639461 0.000014
vn 0.768824 0.639461 0.000014
vn 0.543549 0.639578 -0.543594
vn 0.543541 0.639578 -0.543602
vn 0.294221 0.639502 -0.710262
vn 0.294173 0.639502 -0.710282
vn 0.000005 0.639497 -0.768794
vn 0.000012 0.639497 -0.768794
vn -0.294255 0.639482 -0.710265
vn -0.294198 0.639482 -0.710289
vn -0.543639 0.639502 -0.543594
vn -0.543626 0.639502 -0.543606
vn -0.710207 0.639602 -0.294134
vn -0.710201 0.639602 -0.294148
vn -0.768666 0.639650 -0.000013
vn -0.768666 0.639650 -0.000014
vn -0.710206 0.639617 0.294106
vn -0.710202 0.639617 0.294115
vn -0.543569 0.639559 0.543597
vn -0.543562 0.639559 0.543604
vn -0.294220 0.639532 0.710235
vn -0.294170 0.639532 0.710256
vn 0.000007 0.639524 0.768771
vn 0.000003 0.639524 0.768771
vn 0.294171 0.639492 0.710291
vn 0.294219 0.639492 0.710272
vn 0.543608 0.639510 0.543615
vn 0.543600 0.639510 0.543623
vn 0.710262 0.639494 0.294235
vn 0.710264 0.639494 0.294232
vn 0.258071 -0.960189 -0.106941
vn 0.197550 -0.960179 -0.197559
vn 0.106921 -0.960182 -0.258107
vn 0.000019 -0.960186 -0.279363
vn -0.106851 -0.960202 -0.258059
vn -0.197486 -0.960214 -0.197454
vn -0.258066 -0.960200 -0.106855
vn -0.279370 -0.960183 -0.000005
vn -0.258120 -0.960180 0.106905
vn -0.197543 -0.960182 0.197554
vn -0.106904 -0.960184 0.258104
vn -0.000009 -0.960189 0.279350
vn 0.106906 -0.960186 0.258096
vn 0.197530 -0.960186 0.197546
vn 0.258049 -0.960197 0.106926
vn 0.279309 -0.960201 -0.000011
vn 0.686822 -0.237721 -0.686851
vn 0.897360 -0.237744 -0.371784
vn 0.371712 -0.237722 -0.897395
vn 0.000006 -0.237763 -0.971323
vn -0.371687 -0.237790 -0.897388
vn -0.686854 -0.237793 -0.686794
vn -0.897417 -0.237755 -0.371639
vn -0.971332 -0.237729 0.000004
vn -0.897413 -0.237770 0.371640
vn -0.686837 -0.237765 0.686821
vn -0.371700 -0.237726 0.897399
vn -0.000025 -0.237736 0.971330
vn 0.371711 -0.237735 0.897392
vn 0.686821 -0.237720 0.686852
vn 0.897356 -0.237758 0.371784
vn 0.971319 -0.237780 -0.000003
vn -0.030318 0.999461 0.012618
vn -0.023258 0.999459 0.023259
vn -0.023258 0.999459 0.023260
vn -0.030318 0.999461 0.012618
vn -0.012579 0.999460 0.030361
vn -0.012581 0.999460 0.030361
vn -0.000008 0.999462 0.032803
vn -0.000008 0.999462 0.032803
vn 0.012509 0.999463 0.030275
vn 0.012509 0.999463 0.030275
vn 0.023167 0.999464 0.023147
vn 0.023167 0.999464 0.023147
vn 0.030316 0.999462 0.012494
vn 0.030315 0.999462 0.012494
vn 0.032844 0.999461 -0.000008
vn 0.032844 0.999461 -0.000008
vn 0.030377 0.999460 -0.012544
vn 0.030377 0.999460 -0.012544
vn 0.023247 0.999460 -0.023235
vn 0.023246 0.999460 -0.023235
vn 0.012573 0.999460 -0.030354
vn 0.012574 0.999460 -0.030354
vn 0.000014 0.999461 -0.032841
vn 0.000014 0.999461 -0.032841
vn -0.012571 0.999460 -0.030348
vn -0.012570 0.999460 -0.030348
vn -0.023233 0.999460 -0.023241
vn -0.023232 0.999460 -0.023241
vn -0.030304 0.999461 -0.012605
vn -0.030304 0.999461 -0.012604
vn -0.032774 0.999463 0.000012
vn -0.032774 0.999463 0.000012
s 1
g group9 pSphere2
usemtl lambert9SG
f 147/171/163 148/172/164 164/189/165 163/188/166
f 148/172/164 149/173/167 165/190/168 164/189/165
f 149/173/167 150/174/169 166/191/170 165/190/168
f 150/174/169 151/175/171 167/192/172 166/191/170
f 151/175/171 152/176/173 168/193/174 167/192/172
f 152/176/173 153/177/175 169/194/176 168/193/174
f 153/177/175 154/178/177 170/195/178 169/194/176
f 154/178/177 155/179/179 171/196/180 170/195/178
f 155/179/179 156/180/181 172/197/182 171/196/180
f 156/180/181 157/181/183 173/198/184 172/197/182
f 157/181/183 158/182/185 174/199/186 173/198/184
f 158/182/185 159/183/187 175/200/188 174/199/186
f 159/183/187 160/184/189 176/201/190 175/200/188
f 160/184/189 161/185/191 177/202/192 176/201/190
f 161/185/191 162/186/193 178/203/194 177/202/192
f 162/186/193 147/187/163 163/204/166 178/203/194
f 163/188/166 164/189/165 180/206/195 179/205/196
f 164/189/165 165/190/168 181/207/197 180/206/195
f 165/190/168 166/191/170 182/208/198 181/207/197
f 166/191/170 167/192/172 183/209/199 182/208/198
f 167/192/172 168/193/174 184/210/200 183/209/199
f 168/193/174 169/194/176 185/211/201 184/210/200
f 169/194/176 170/195/178 186/212/202 185/211/201
f 170/195/178 171/196/180 187/213/203 186/212/202
f 171/196/180 172/197/182 188/214/204 187/213/203
f 172/197/182 173/198/184 189/215/205 188/214/204
f 173/198/184 174/199/186 190/216/206 189/215/205
f 174/199/186 175/200/188 191/217/207 190/216/206
f 175/200/188 176/201/190 192/218/208 191/217/207
f 176/201/190 177/202/192 193/219/209 192/218/208
f 177/202/192 178/203/194 194/220/210 193/219/209
f 178/203/194 163/204/166 179/221/196 194/220/210
f 179/205/196 180/206/195 196/223/211 195/222/212
f 180/206/195 181/207/197 197/224/213 196/223/211
f 181/207/197 182/208/198 198/225/214 197/224/213
f 182/208/198 183/209/199 199/226/215 198/225/214
f 183/209/199 184/210/200 200/227/216 199/226/215
f 184/210/200 185/211/201 201/228/217 200/227/216
f 185/211/201 186/212/202 202/229/218 201/228/217
f 186/212/202 187/213/203 203/230/219 202/229/218
f 187/213/203 188/214/204 204/231/220 203/230/219
f 188/214/204 189/215/205 205/232/221 204/231/220
f 189/215/205 190/216/206 206/233/222 205/232/221
f 190/216/206 191/217/207 207/234/223 206/233/222
f 191/217/207 192/218/208 208/235/224 207/234/223
f 192/218/208 193/219/209 209/236/225 208/235/224
f 193/219/209 194/220/210 210/237/226 209/236/225
f 194/220/210 179/221/196 195/238/212 210/237/226
f 195/222/212 196/223/211 212/240/227 211/239/228
f 196/223/211 197/224/213 213/241/229 212/240/227
f 197/224/213 198/225/214 214/242/230 213/241/229
f 198/225/214 199/226/215 215/243/231 214/242/230
f 199/226/215 200/227/216 216/244/232 215/243/231
f 200/227/216 201/228/217 217/245/233 216/244/232
f 201/228/217 202/229/218 218/246/234 217/245/233
f 202/229/218 203/230/219 219/247/235 218/246/234
f 203/230/219 204/231/220 220/248/236 219/247/235
f 204/231/220 205/232/221 221/249/237 220/248/236
f 205/232/221 206/233/222 222/250/238 221/249/237
f 206/233/222 207/234/223 223/251/239 222/250/238
f 207/234/223 208/235/224 224/252/240 223/251/239
f 208/235/224 209/236/225 225/253/241 224/252/240
f 209/236/225 210/237/226 226/254/242 225/253/241
f 210/237/226 195/238/212 211/255/228 226/254/242
f 211/239/228 212/240/227 228/257/243 227/256/244
f 212/240/227 213/241/229 229/258/245 228/257/243
f 213/241/229 214/242/230 230/259/246 229/258/245
f 214/242/230 215/243/231 231/260/247 230/259/246
f 215/243/231 216/244/232 232/261/248 231/260/247
f 216/244/232 217/245/233 233/262/249 232/261/248
f 217/245/233 218/246/234 234/263/250 233/262/249
f 218/246/234 219/247/235 235/264/251 234/263/250
f 219/247/235 220/248/236 236/265/252 235/264/251
f 220/248/236 221/249/237 237/266/253 236/265/252
f 221/249/237 222/250/238 238/267/254 237/266/253
f 222/250/238 223/251/239 239/268/255 238/267/254
f 223/251/239 224/252/240 240/269/256 239/268/255
f 224/252/240 225/253/241 241/270/257 240/269/256
f 225/253/241 226/254/242 242/271/258 241/270/257
f 226/254/242 211/255/228 227/272/244 242/271/258
f 227/256/244 228/257/243 244/274/259 243/273/260
f 228/257/243 229/258/245 245/275/261 244/274/259
f 229/258/245 230/259/246 246/276/262 245/275/261
f 230/259/246 231/260/247 247/277/263 246/276/262
f 231/260/247 232/261/248 248/278/264 247/277/263
f 232/261/248 233/262/249 249/279/265 248/278/264
f 233/262/249 234/263/250 250/280/266 249/279/265
f 234/263/250 235/264/251 251/281/267 250/280/266
f 235/264/251 236/265/252 252/282/268 251/281/267
f 236/265/252 237/266/253 253/283/269 252/282/268
f 237/266/253 238/267/254 254/284/270 253/283/269
f 238/267/254 239/268/255 255/285/271 254/284/270
f 239/268/255 240/269/256 256/286/272 255/285/271
f 240/269/256 241/270/257 257/287/273 256/286/272
f 241/270/257 242/271/258 258/288/274 257/287/273
f 242/271/258 227/272/244 243/289/260 258/288/274
f 243/273/260 244/274/259 260/291/275 259/290/276
f 244/274/259 245/275/261 261/292/277 260/291/275
f 245/275/261 246/276/262 262/293/278 261/292/277
f 246/276/262 247/277/263 263/294/279 262/293/278
f 247/277/263 248/278/264 264/295/280 263/294/279
f 248/278/264 249/279/265 265/296/281 264/295/280
f 249/279/265 250/280/266 266/297/282 265/296/281
f 250/280/266 251/281/267 267/298/283 266/297/282
f 251/281/267 252/282/268 268/299/284 267/298/283
f 252/282/268 253/283/269 269/300/285 268/299/284
f 253/283/269 254/284/270 270/301/286 269/300/285
f 254/284/270 255/285/271 271/302/287 270/301/286
f 255/285/271 256/286/272 272/303/288 271/302/287
f 256/286/272 257/287/273 273/304/289 272/303/288
f 257/287/273 258/288/274 274/305/290 273/304/289
f 258/288/274 243/289/260 259/306/276 274/305/290
f 259/290/276 260/291/275 276/308/291 275/307/292
f 260/291/275 261/292/277 277/309/293 276/308/291
f 261/292/277 262/293/278 278/310/294 277/309/293
f 262/293/278 263/294/279 279/311/295 278/310/294
f 263/294/279 264/295/280 280/312/296 279/311/295
f 264/295/280 265/296/281 281/313/297 280/312/296
f 265/296/281 266/297/282 282/314/298 281/313/297
f 266/297/282 267/298/283 283/315/299 282/314/298
f 267/298/283 268/299/284 284/316/300 283/315/299
f 268/299/284 269/300/285 285/317/301 284/316/300
f 269/300/285 270/301/286 286/318/302 285/317/301
f 270/301/286 271/302/287 287/319/303 286/318/302
f 271/302/287 272/303/288 288/320/304 287/319/303
f 272/303/288 273/304/289 289/321/305 288/320/304
f 273/304/289 274/305/290 290/322/306 289/321/305
f 274/305/290 259/306/276 275/323/292 290/322/306
f 275/307/292 276/308/291 292/325/307 291/324/308
f 276/308/291 277/309/293 293/326/309 292/325/307
f 277/309/293 278/310/294 294/327/310 293/326/309
f 278/310/294 279/311/295 295/328/311 294/327/310
f 279/311/295 280/312/296 296/329/312 295/328/311
f 280/312/296 281/313/297 297/330/313 296/329/312
f 281/313/297 282/314/298 298/331/314 297/330/313
f 282/314/298 283/315/299 299/332/315 298/331/314
f 283/315/299 284/316/300 300/333/316 299/332/315
f 284/316/300 285/317/301 301/334/317 300/333/316
f 285/317/301 286/318/302 302/335/318 301/334/317
f 286/318/302 287/319/303 303/336/319 302/335/318
f 287/319/303 288/320/304 304/337/320 303/336/319
f 288/320/304 289/321/305 305/338/321 304/337/320
f 289/321/305 290/322/306 306/339/322 305/338/321
f 290/322/306 275/323/292 291/340/308 306/339/322
f 291/324/308 292/325/307 308/342/323 307/341/324
f 292/325/307 293/326/309 309/343/325 308/342/323
f 293/326/309 294/327/310 310/344/326 309/343/325
f 294/327/310 295/328/311 311/345/327 310/344/326
f 295/328/311 296/329/312 312/346/328 311/345/327
f 296/329/312 297/330/313 313/347/329 312/346/328
f 297/330/313 298/331/314 314/348/330 313/347/329
f 298/331/314 299/332/315 315/349/331 314/348/330
f 299/332/315 300/333/316 316/350/332 315/349/331
f 300/333/316 301/334/317 317/351/333 316/350/332
f 301/334/317 302/335/318 318/352/334 317/351/333
f 302/335/318 303/336/319 319/353/335 318/352/334
f 303/336/319 304/337/320 320/354/336 319/353/335
f 304/337/320 305/338/321 321/355/337 320/354/336
f 305/338/321 306/339/322 322/356/338 321/355/337
f 306/339/322 291/340/308 307/357/324 322/356/338
f 307/341/324 308/342/323 324/359/339 323/358/340
f 308/342/323 309/343/325 325/360/341 324/359/339
f 309/343/325 310/344/326 326/361/342 325/360/341
f 310/344/326 311/345/327 327/362/343 326/361/342
f 311/345/327 312/346/328 328/363/344 327/362/343
f 312/346/328 313/347/329 329/364/345 328/363/344
f 313/347/329 314/348/330 330/365/346 329/364/345
f 314/348/330 315/349/331 331/366/347 330/365/346
f 315/349/331 316/350/332 332/367/348 331/366/347
f 316/350/332 317/351/333 333/368/349 332/367/348
f 317/351/333 318/352/334 334/369/350 333/368/349
f 318/352/334 319/353/335 335/370/351 334/369/350
f 319/353/335 320/354/336 336/371/352 335/370/351
f 320/354/336 321/355/337 337/372/353 336/371/352
f 321/355/337 322/356/338 338/373/354 337/372/353
f 322/356/338 307/357/324 323/374/340 338/373/354
f 323/358/340 324/359/339 340/376/355 339/375/356
f 324/359/339 325/360/341 341/377/357 340/376/355
f 325/360/341 326/361/342 342/378/358 341/377/357
f 326/361/342 327/362/343 343/379/359 342/378/358
f 327/362/343 328/363/344 344/380/360 343/379/359
f 328/363/344 329/364/345 345/381/361 344/380/360
f 329/364/345 330/365/346 346/382/362 345/381/361
f 330/365/346 331/366/347 347/383/363 346/382/362
f 331/366/347 332/367/348 348/384/364 347/383/363
f 332/367/348 333/368/349 349/385/365 348/384/364
f 333/368/349 334/369/350 350/386/366 349/385/365
f 334/369/350 335/370/351 351/387/367 350/386/366
f 335/370/351 336/371/352 352/388/368 351/387/367
f 336/371/352 337/372/353 353/389/369 352/388/368
f 337/372/353 338/373/354 354/390/370 353/389/369
f 338/373/354 323/374/340 339/391/356 354/390/370
f 148/172/164 147/171/163 355/392/371
f 149/173/167 148/172/164 355/393/371
f 150/174/169 149/173/167 355/394/371
f 151/175/171 150/174/169 355/395/371
f 152/176/173 151/175/171 355/396/371
f 153/177/175 152/176/173 355/397/371
f 154/178/177 153/177/175 355/398/371
f 155/179/179 154/178/177 355/399/371
f 156/180/181 155/179/179 355/400/371
f 157/181/183 156/180/181 355/401/371
f 158/182/185 157/181/183 355/402/371
f 159/183/187 158/182/185 355/403/371
f 160/184/189 159/183/187 355/404/371
f 161/185/191 160/184/189 355/405/371
f 162/186/193 161/185/191 355/406/371
f 147/187/163 162/186/193 355/407/371
s off
f 339/376/372 340/409/373 357/375/374 356/408/375
f 340/377/376 341/411/377 358/376/378 357/410/379
f 341/378/380 342/413/381 359/377/382 358/412/383
f 342/379/384 343/415/385 360/378/386 359/414/387
f 343/380/388 344/417/389 361/379/390 360/416/391
f 344/381/392 345/419/393 362/380/394 361/418/395
f 345/382/396 346/421/397 363/381/398 362/420/399
f 346/383/400 347/423/401 364/382/402 363/422/403
f 347/384/404 348/425/405 365/383/406 364/424/407
f 348/385/408 349/427/409 366/384/410 365/426/411
f 349/386/412 350/429/413 367/385/414 366/428/415
f 350/387/416 351/431/417 368/386/418 367/430/419
f 351/388/420 352/433/421 369/387/422 368/432/423
f 352/389/424 353/435/425 370/388/426 369/434/427
f 353/390/428 354/437/429 371/389/430 370/436/431
f 354/391/432 339/439/433 356/390/434 371/438/435
s 2
f 339/376/436 340/409/437 403/486/438 388/457/439
f 340/377/437 341/411/440 402/484/441 403/487/438
f 341/378/440 342/413/442 401/482/443 402/485/441
f 342/379/442 343/415/444 400/480/445 401/483/443
f 343/380/444 344/417/446 399/478/447 400/481/445
f 344/381/446 345/419/448 398/476/449 399/479/447
f 345/382/448 346/421/450 397/474/451 398/477/449
f 346/383/450 347/423/452 396/472/453 397/475/451
f 347/384/452 348/425/454 395/470/455 396/473/453
f 348/385/454 349/427/456 394/468/457 395/471/455
f 349/386/456 350/429/458 393/466/459 394/469/457
f 350/387/458 351/431/460 392/464/461 393/467/459
f 351/388/460 352/433/462 391/462/463 392/465/461
f 352/389/462 353/435/464 390/460/465 391/463/463
f 353/390/464 354/437/466 389/458/467 390/461/465
f 354/391/466 339/439/436 388/456/439 389/459/467
f 389/459/467 388/456/439 404/488/468 405/491/469
f 390/461/465 389/458/467 405/490/469 406/493/470
f 391/463/463 390/460/465 406/492/470 407/495/471
f 392/465/461 391/462/463 407/494/471 408/497/472
f 393/467/459 392/464/461 408/496/472 409/499/473
f 394/469/457 393/466/459 409/498/473 410/501/474
f 395/471/455 394/468/457 410/500/474 411/503/475
f 396/473/453 395/470/455 411/502/475 412/505/476
f 397/475/451 396/472/453 412/504/476 413/507/477
f 398/477/449 397/474/451 413/506/477 414/509/478
f 399/479/447 398/476/449 414/508/478 415/511/479
f 400/481/445 399/478/447 415/510/479 416/513/480
f 401/483/443 400/480/445 416/512/480 417/515/481
f 402/485/441 401/482/443 417/514/481 418/517/482
f 403/487/438 402/484/441 418/516/482 419/519/483
f 388/457/439 403/486/438 419/518/483 404/489/468
f 405/491/469 404/488/468 420/520/484 421/523/485
f 406/493/470 405/490/469 421/522/485 422/525/486
f 407/495/471 406/492/470 422/524/486 423/527/487
f 408/497/472 407/494/471 423/526/487 424/529/488
f 409/499/473 408/496/472 424/528/488 425/531/489
f 410/501/474 409/498/473 425/530/489 426/533/490
f 411/503/475 410/500/474 426/532/490 427/535/491
f 412/505/476 411/502/475 427/534/491 428/537/492
f 413/507/477 412/504/476 428/536/492 429/539/493
f 414/509/478 413/506/477 429/538/493 430/541/494
f 415/511/479 414/508/478 430/540/494 431/543/495
f 416/513/480 415/510/479 431/542/495 432/545/496
f 417/515/481 416/512/480 432/544/496 433/547/497
f 418/517/482 417/514/481 433/546/497 434/549/498
f 419/519/483 418/516/482 434/548/498 435/551/499
f 404/489/468 419/518/483 435/550/499 420/521/484
f 421/523/485 420/520/484 372/759/500 387/455/501
f 422/525/486 421/522/485 387/757/501 386/454/502
f 423/527/487 422/524/486 386/755/502 385/453/503
f 424/529/488 423/526/487 385/753/503 384/452/504
f 425/531/489 424/528/488 384/751/504 383/451/505
f 426/533/490 425/530/489 383/749/505 382/450/506
f 427/535/491 426/532/490 382/747/506 381/449/507
f 428/537/492 427/534/491 381/745/507 380/448/508
f 429/539/493 428/536/492 380/743/508 379/447/509
f 430/541/494 429/538/493 379/741/509 378/446/510
f 431/543/495 430/540/494 378/739/510 377/445/511
f 432/545/496 431/542/495 377/737/511 376/444/512
f 433/547/497 432/544/496 376/735/512 375/443/513
f 434/549/498 433/546/497 375/733/513 374/442/514
f 435/551/499 434/548/498 374/731/514 373/441/515
f 420/521/484 435/550/499 373/729/515 372/440/500
s 3
f 436/794/516 437/552/517 453/568/518 452/569/519
f 437/796/517 438/553/520 454/570/521 453/571/518
f 438/798/520 439/554/522 455/572/523 454/573/521
f 439/800/522 440/555/524 456/574/525 455/575/523
f 440/802/524 441/556/526 457/576/527 456/577/525
f 441/804/526 442/557/528 458/578/529 457/579/527
f 442/806/528 443/558/530 459/580/531 458/581/529
f 443/808/530 444/559/532 460/582/533 459/583/531
f 444/810/532 445/560/534 461/584/535 460/585/533
f 445/812/534 446/561/536 462/586/537 461/587/535
f 446/814/536 447/562/538 463/588/539 462/589/537
f 447/816/538 448/563/540 464/590/541 463/591/539
f 448/818/540 449/564/542 465/592/543 464/593/541
f 449/820/542 450/565/544 466/594/545 465/595/543
f 450/822/544 451/566/546 467/596/547 466/597/545
f 451/824/546 436/567/516 452/598/519 467/599/547
s off
f 452/569/548 453/568/549 469/600/550 468/601/551
f 453/571/552 454/570/553 470/602/554 469/603/555
f 454/573/556 455/572/557 471/604/558 470/605/559
f 455/575/560 456/574/561 472/606/562 471/607/563
f 456/577/564 457/576/565 473/608/566 472/609/567
f 457/579/568 458/578/569 474/610/570 473/611/571
f 458/581/572 459/580/573 475/612/574 474/613/575
f 459/583/576 460/582/577 476/614/578 475/615/579
f 460/585/580 461/584/581 477/616/582 476/617/583
f 461/587/584 462/586/585 478/618/586 477/619/587
f 462/589/588 463/588/589 479/620/590 478/621/591
f 463/591/592 464/590/593 480/622/594 479/623/595
f 464/593/596 465/592/597 481/624/598 480/625/599
f 465/595/600 466/594/601 482/626/602 481/627/603
f 466/597/604 467/596/605 483/628/606 482/629/607
f 467/599/608 452/598/609 468/630/610 483/631/611
s 4
f 452/569/612 453/568/613 485/632/614 484/633/615
f 453/571/613 454/570/616 486/634/617 485/635/614
f 454/573/616 455/572/618 487/636/619 486/637/617
f 455/575/618 456/574/620 488/638/621 487/639/619
f 456/577/620 457/576/622 489/640/623 488/641/621
f 457/579/622 458/578/624 490/642/625 489/643/623
f 458/581/624 459/580/626 491/644/627 490/645/625
f 459/583/626 460/582/628 492/646/629 491/647/627
f 460/585/628 461/584/630 493/648/631 492/649/629
f 461/587/630 462/586/632 494/650/633 493/651/631
f 462/589/632 463/588/634 495/652/635 494/653/633
f 463/591/634 464/590/636 496/654/637 495/655/635
f 464/593/636 465/592/638 497/656/639 496/657/637
f 465/595/638 466/594/640 498/658/641 497/659/639
f 466/597/640 467/596/642 499/660/643 498/661/641
f 467/599/642 452/598/612 484/662/615 499/663/643
s 5
f 494/653/644 500/664/645 493/651/646
f 485/635/647 486/637/648 500/664/645
f 500/664/645 486/637/648 487/639/649
f 500/664/645 487/639/649 488/641/650
f 500/664/645 488/641/650 489/643/651
f 500/664/645 489/643/651 490/645/652
f 500/664/645 490/645/652 491/647/653
f 500/664/645 491/647/653 492/649/654
f 500/664/645 492/649/654 493/651/646
f 495/655/655 500/664/645 494/653/644
f 496/657/656 500/664/645 495/655/655
f 497/659/657 500/664/645 496/657/656
f 498/661/658 500/664/645 497/659/657
f 499/663/659 500/664/645 498/661/658
f 484/633/660 500/664/645 499/663/659
f 485/635/647 500/664/645 484/633/660
s 7
f 501/665/661 502/791/662 532/666/663 531/760/664
f 502/667/662 501/730/661 503/668/665 504/761/666
f 504/669/666 503/732/665 505/670/667 506/763/668
f 506/671/668 505/734/667 507/672/669 508/765/670
f 508/673/670 507/736/669 509/674/671 510/767/672
f 510/675/672 509/738/671 511/676/673 512/769/674
f 512/677/674 511/740/673 513/678/675 514/771/676
f 514/679/676 513/742/675 515/680/677 516/773/678
f 516/681/678 515/744/677 517/682/679 518/775/680
f 518/683/680 517/746/679 519/684/681 520/777/682
f 520/685/682 519/748/681 521/686/683 522/779/684
f 522/687/684 521/750/683 523/688/685 524/781/686
f 524/689/686 523/752/685 525/690/687 526/783/688
f 526/691/688 525/754/687 527/692/689 528/785/690
f 528/693/690 527/756/689 529/694/691 530/787/692
f 530/695/692 529/758/691 531/696/664 532/789/663
s 8
f 533/697/693 534/823/694 564/698/695 563/792/696
f 534/699/694 533/762/693 535/700/697 536/793/698
f 536/701/698 535/764/697 537/702/699 538/795/700
f 538/703/700 537/766/699 539/704/701 540/797/702
f 540/705/702 539/768/701 541/706/703 542/799/704
f 542/707/704 541/770/703 543/708/705 544/801/706
f 544/709/706 543/772/705 545/710/707 546/803/708
f 546/711/708 545/774/707 547/712/709 548/805/710
f 548/713/710 547/776/709 549/714/711 550/807/712
f 550/715/712 549/778/711 551/716/713 552/809/714
f 552/717/714 551/780/713 553/718/715 554/811/716
f 554/719/716 553/782/715 555/720/717 556/813/718
f 556/721/718 555/784/717 557/722/719 558/815/720
f 558/723/720 557/786/719 559/724/721 560/817/722
f 560/725/722 559/788/721 561/726/723 562/819/724
f 562/727/724 561/790/723 563/728/696 564/821/695
s 7
f 372/440/725 373/729/726 503/668/665 501/730/661
f 373/441/726 374/731/727 505/670/667 503/732/665
f 374/442/727 375/733/728 507/672/669 505/734/667
f 375/443/728 376/735/729 509/674/671 507/736/669
f 376/444/729 377/737/730 511/676/673 509/738/671
f 377/445/730 378/739/731 513/678/675 511/740/673
f 378/446/731 379/741/732 515/680/677 513/742/675
f 379/447/732 380/743/733 517/682/679 515/744/677
f 380/448/733 381/745/734 519/684/681 517/746/679
f 381/449/734 382/747/735 521/686/683 519/748/681
f 382/450/735 383/749/736 523/688/685 521/750/683
f 383/451/736 384/751/737 525/690/687 523/752/685
f 384/452/737 385/753/738 527/692/689 525/754/687
f 385/453/738 386/755/739 529/694/691 527/756/689
f 386/454/739 387/757/740 531/696/664 529/758/691
f 387/455/740 372/759/725 501/665/661 531/760/664
f 502/667/662 504/761/666 535/700/741 533/762/742
f 504/669/666 506/763/668 537/702/743 535/764/741
f 506/671/668 508/765/670 539/704/744 537/766/743
f 508/673/670 510/767/672 541/706/745 539/768/744
f 510/675/672 512/769/674 543/708/746 541/770/745
f 512/677/674 514/771/676 545/710/747 543/772/746
f 514/679/676 516/773/678 547/712/748 545/774/747
f 516/681/678 518/775/680 549/714/749 547/776/748
f 518/683/680 520/777/682 551/716/750 549/778/749
f 520/685/682 522/779/684 553/718/751 551/780/750
f 522/687/684 524/781/686 555/720/752 553/782/751
f 524/689/686 526/783/688 557/722/753 555/784/752
f 526/691/688 528/785/690 559/724/754 557/786/753
f 528/693/690 530/787/692 561/726/755 559/788/754
f 530/695/692 532/789/663 563/728/756 561/790/755
f 532/666/663 502/791/662 533/697/742 563/792/756
s 9
f 534/699/757 536/793/758 437/552/759 436/794/760
f 536/701/758 538/795/761 438/553/762 437/796/759
f 538/703/761 540/797/763 439/554/764 438/798/762
f 540/705/763 542/799/765 440/555/766 439/800/764
f 542/707/765 544/801/767 441/556/768 440/802/766
f 544/709/767 546/803/769 442/557/770 441/804/768
f 546/711/769 548/805/771 443/558/772 442/806/770
f 548/713/771 550/807/773 444/559/774 443/808/772
f 550/715/773 552/809/775 445/560/776 444/810/774
f 552/717/775 554/811/777 446/561/778 445/812/776
f 554/719/777 556/813/779 447/562/780 446/814/778
f 556/721/779 558/815/781 448/563/782 447/816/780
f 558/723/781 560/817/783 449/564/784 448/818/782
f 560/725/783 562/819/785 450/565/786 449/820/784
f 562/727/785 564/821/787 451/566/788 450/822/786
f 564/698/787 534/823/757 436/567/760 451/824/788
g default
v -3631.586816 139.126038 29.447455
v -3632.008057 139.126038 28.817094
v -3632.638330 139.126038 28.395901
v -3633.381982 139.126038 28.247996
v -3634.125488 139.126038 28.395900
v -3634.755908 139.126038 28.817092
v -3635.177002 139.126038 29.447453
v -3635.325000 139.126038 30.191014
v -3635.177002 139.126038 30.934576
v -3634.755908 139.126038 31.564937
v -3634.125488 139.126038 31.986130
v -3633.381982 139.126038 32.134034
v -3632.638330 139.126038 31.986130
v -3632.008057 139.126038 31.564937
v -3631.586816 139.126038 30.934576
v -3631.438965 139.126038 30.191015
v -3633.381982 139.126038 30.191015
v -3633.381982 141.373242 30.191015
v -3631.357910 141.265915 29.352650
v -3631.448242 141.373242 29.390041
v -3631.832813 141.265915 28.641915
v -3631.901953 141.373242 28.711010
v -3632.543604 141.265915 28.167018
v -3632.580957 141.373242 28.257294
v -3633.381982 141.265915 28.000256
v -3633.381982 141.373242 28.097970
v -3634.220361 141.265915 28.167017
v -3634.182959 141.373242 28.257293
v -3634.931104 141.265915 28.641914
v -3634.862012 141.373242 28.711009
v -3635.406006 141.265915 29.352647
v -3635.315674 141.373242 29.390039
v -3635.572754 141.265915 30.191014
v -3635.475000 141.373242 30.191014
v -3635.406006 141.265915 31.029382
v -3635.315674 141.373242 30.991990
v -3634.931104 141.265915 31.740115
v -3634.862012 141.373242 31.671021
v -3634.220361 141.265915 32.215012
v -3634.182959 141.373242 32.124736
v -3633.381982 141.265915 32.381774
v -3633.381982 141.373242 32.284061
v -3632.543604 141.265915 32.215012
v -3632.580957 141.373242 32.124738
v -3631.832813 141.265915 31.740116
v -3631.901953 141.373242 31.671021
v -3631.357910 141.265915 31.029382
v -3631.448242 141.373242 30.991991
v -3631.191162 141.265915 30.191015
v -3631.288916 141.373242 30.191015
vt 0.644356 0.096456
vt 0.610485 0.045765
vt 0.559794 0.011894
vt 0.500000 0.000000
vt 0.440206 0.011894
vt 0.389515 0.045765
vt 0.355644 0.096456
vt 0.343750 0.156250
vt 0.355644 0.216044
vt 0.389515 0.266735
vt 0.440206 0.300606
vt 0.500000 0.312500
vt 0.559794 0.300606
vt 0.610485 0.266735
vt 0.644356 0.216044
vt 0.656250 0.156250
vt 0.500000 0.156250
vt 0.625000 0.669589
vt 0.624611 0.686680
vt 0.609767 0.686680
vt 0.375392 0.686680
vt 0.390236 0.686680
vt 0.391017 0.686680
vt 0.405860 0.686680
vt 0.406641 0.686680
vt 0.421486 0.686680
vt 0.422268 0.686680
vt 0.437111 0.686680
vt 0.437892 0.686680
vt 0.452737 0.686680
vt 0.453518 0.686680
vt 0.468361 0.686680
vt 0.469142 0.686680
vt 0.483986 0.686680
vt 0.484768 0.686680
vt 0.499612 0.686680
vt 0.500393 0.686680
vt 0.515236 0.686680
vt 0.516017 0.686680
vt 0.530862 0.686680
vt 0.531643 0.686680
vt 0.546486 0.686680
vt 0.547268 0.686680
vt 0.562113 0.686680
vt 0.562894 0.686680
vt 0.577737 0.686680
vt 0.578518 0.686680
vt 0.593362 0.686680
vt 0.594143 0.686680
vt 0.608987 0.686680
vt 0.375000 0.312500
vt 0.390625 0.312500
vt 0.375000 0.669568
vt 0.406250 0.312500
vt 0.390624 0.669589
vt 0.421875 0.312500
vt 0.406250 0.669589
vt 0.437499 0.312501
vt 0.421875 0.669589
vt 0.453125 0.312500
vt 0.437500 0.669589
vt 0.468750 0.312500
vt 0.453125 0.669589
vt 0.484375 0.312500
vt 0.468750 0.669589
vt 0.500000 0.312500
vt 0.484375 0.669589
vt 0.515625 0.312500
vt 0.500000 0.669589
vt 0.531250 0.312500
vt 0.515625 0.669589
vt 0.546875 0.312500
vt 0.531250 0.669589
vt 0.562500 0.312500
vt 0.546875 0.669589
vt 0.578125 0.312500
vt 0.562500 0.669589
vt 0.593750 0.312500
vt 0.578126 0.669589
vt 0.609375 0.312500
vt 0.593750 0.669589
vt 0.625000 0.312501
vt 0.609375 0.669589
vt 0.604964 0.948712
vt 0.556810 0.980890
vt 0.500000 0.992189
vt 0.443195 0.980889
vt 0.395036 0.948712
vt 0.362863 0.900555
vt 0.351565 0.843750
vt 0.362863 0.786945
vt 0.395036 0.738788
vt 0.443195 0.706611
vt 0.500000 0.695311
vt 0.556810 0.706610
vt 0.604964 0.738788
vt 0.637142 0.786944
vt 0.648441 0.843750
vt 0.637142 0.900556
vt 0.500000 0.843750
vn 0.000000 -1.000000 -0.000002
vn 0.000000 -1.000000 0.000003
vn 0.000000 -1.000000 -0.000000
vn 0.000000 -1.000000 -0.000002
vn 0.000000 -1.000000 0.000000
vn 0.000000 -1.000000 -0.000003
vn 0.000000 -1.000000 -0.000003
vn 0.000000 -1.000000 0.000003
vn 0.000000 -1.000000 0.000000
vn 0.000000 -1.000000 -0.000003
vn 0.000000 -1.000000 0.000002
vn 0.000000 -1.000000 0.000002
vn 0.000000 -1.000000 0.000000
vn 0.000000 -1.000000 0.000003
vn 0.000000 -1.000000 0.000003
vn 0.000000 -1.000000 -0.000003
vn 0.000000 -1.000000 -0.000000
vn 0.683072 0.673326 -0.282922
vn 0.683061 0.673326 -0.282949
vn 0.739347 0.673325 0.000000
vn 0.739347 0.673325 0.000000
vn 0.522820 0.673324 -0.522775
vn 0.522790 0.673324 -0.522805
vn 0.282939 0.673229 -0.683161
vn 0.282981 0.673229 -0.683143
vn 0.000002 0.673182 -0.739477
vn 0.000002 0.673182 -0.739477
vn -0.282953 0.673278 -0.683106
vn -0.282942 0.673278 -0.683111
vn -0.522864 0.673238 -0.522842
vn -0.522867 0.673238 -0.522839
vn -0.683074 0.673328 -0.282913
vn -0.683063 0.673328 -0.282939
vn -0.739184 0.673504 -0.000007
vn -0.739184 0.673504 -0.000007
vn -0.683000 0.673417 0.282878
vn -0.682989 0.673417 0.282904
vn -0.522854 0.673238 0.522852
vn -0.522856 0.673238 0.522850
vn -0.282998 0.673144 0.683220
vn -0.282987 0.673144 0.683225
vn -0.000006 0.673182 0.739477
vn -0.000007 0.673182 0.739477
vn 0.282921 0.673274 0.683124
vn 0.282963 0.673274 0.683107
vn 0.522819 0.673325 0.522776
vn 0.522789 0.673325 0.522806
vn 0.683074 0.673326 0.282917
vn 0.683063 0.673326 0.282944
vn 0.917748 -0.115030 -0.380140
vn 0.702409 -0.115020 -0.702419
vn 0.702413 -0.115020 -0.702415
vn 0.917749 -0.115030 -0.380139
vn 0.380141 -0.115007 -0.917751
vn 0.380133 -0.115007 -0.917754
vn 0.000000 -0.115011 -0.993364
vn 0.000001 -0.115011 -0.993364
vn -0.380138 -0.115006 -0.917752
vn -0.380145 -0.115006 -0.917749
vn -0.702417 -0.115019 -0.702410
vn -0.702418 -0.115019 -0.702410
vn -0.917747 -0.115034 -0.380142
vn -0.917749 -0.115034 -0.380137
vn -0.993361 -0.115039 0.000000
vn -0.993361 -0.115039 0.000000
vn -0.917746 -0.115045 0.380142
vn -0.917748 -0.115045 0.380137
vn -0.702417 -0.115026 0.702410
vn -0.702418 -0.115026 0.702409
vn -0.380139 -0.115003 0.917752
vn -0.380146 -0.115003 0.917749
vn -0.000000 -0.115011 0.993364
vn -0.000000 -0.115010 0.993364
vn 0.380139 -0.115016 0.917750
vn 0.380132 -0.115016 0.917753
vn 0.702408 -0.115026 0.702419
vn 0.702412 -0.115026 0.702415
vn 0.917748 -0.115028 0.380141
vn 0.917749 -0.115028 0.380140
vn 0.993363 -0.115020 0.000000
vn 0.993363 -0.115020 0.000000
vn 0.000000 1.000000 0.000000
vn 0.000000 1.000000 0.000000
vn 0.000000 1.000000 0.000000
vn 0.000000 1.000000 0.000000
vn 0.000000 1.000000 0.000000
vn 0.000000 1.000000 0.000000
vn 0.000000 1.000000 0.000000
vn 0.000000 1.000000 0.000000
vn 0.000000 1.000000 0.000000
vn 0.000000 1.000000 0.000000
vn 0.000000 1.000000 0.000000
vn 0.000000 1.000000 0.000000
vn 0.000000 1.000000 0.000000
vn 0.000000 1.000000 0.000000
vn 0.000000 1.000000 0.000003
vn 0.000000 1.000000 0.000003
vn 0.000000 1.000000 0.000000
s 1
g group9 pCylinder86
usemtl pasted__lambert3SG
f 566/826/789 565/825/790 581/841/791
f 567/827/792 566/826/789 581/841/791
f 568/828/793 567/827/792 581/841/791
f 569/829/794 568/828/793 581/841/791
f 570/830/795 569/829/794 581/841/791
f 571/831/796 570/830/795 581/841/791
f 572/832/797 571/831/796 581/841/791
f 573/833/798 572/832/797 581/841/791
f 574/834/799 573/833/798 581/841/791
f 575/835/800 574/834/799 581/841/791
f 576/836/801 575/835/800 581/841/791
f 577/837/802 576/836/801 581/841/791
f 578/838/803 577/837/802 581/841/791
f 579/839/804 578/838/803 581/841/791
f 580/840/805 579/839/804 581/841/791
f 565/825/790 580/840/805 581/841/791
s 2
f 583/842/806 584/843/807 614/844/808 613/907/809
f 584/845/807 583/877/806 585/879/810 586/846/811
f 586/847/811 585/879/810 587/881/812 588/848/813
f 588/849/813 587/881/812 589/883/814 590/850/815
f 590/851/815 589/883/814 591/885/816 592/852/817
f 592/853/817 591/885/816 593/887/818 594/854/819
f 594/855/819 593/887/818 595/889/820 596/856/821
f 596/857/821 595/889/820 597/891/822 598/858/823
f 598/859/823 597/891/822 599/893/824 600/860/825
f 600/861/825 599/893/824 601/895/826 602/862/827
f 602/863/827 601/895/826 603/897/828 604/864/829
f 604/865/829 603/897/828 605/899/830 606/866/831
f 606/867/831 605/899/830 607/901/832 608/868/833
f 608/869/833 607/901/832 609/903/834 610/870/835
f 610/871/835 609/903/834 611/905/836 612/872/837
f 612/873/837 611/905/836 613/907/809 614/874/808
s 3
f 565/875/838 566/876/839 585/879/840 583/877/841
f 566/876/839 567/878/842 587/881/843 585/879/840
f 567/878/842 568/880/844 589/883/845 587/881/843
f 568/880/844 569/882/846 591/885/847 589/883/845
f 569/882/846 570/884/848 593/887/849 591/885/847
f 570/884/848 571/886/850 595/889/851 593/887/849
f 571/886/850 572/888/852 597/891/853 595/889/851
f 572/888/852 573/890/854 599/893/855 597/891/853
f 573/890/854 574/892/856 601/895/857 599/893/855
f 574/892/856 575/894/858 603/897/859 601/895/857
f 575/894/858 576/896/860 605/899/861 603/897/859
f 576/896/860 577/898/862 607/901/863 605/899/861
f 577/898/862 578/900/864 609/903/865 607/901/863
f 578/900/864 579/902/866 611/905/867 609/903/865
f 579/902/866 580/904/868 613/907/869 611/905/867
f 580/904/868 565/906/838 583/842/841 613/907/869
s 4
f 584/923/870 586/908/871 582/924/872
f 586/908/871 588/909/873 582/924/872
f 588/909/873 590/910/874 582/924/872
f 590/910/874 592/911/875 582/924/872
f 592/911/875 594/912/876 582/924/872
f 594/912/876 596/913/877 582/924/872
f 596/913/877 598/914/878 582/924/872
f 598/914/878 600/915/879 582/924/872
f 600/915/879 602/916/880 582/924/872
f 602/916/880 604/917/881 582/924/872
f 604/917/881 606/918/882 582/924/872
f 606/918/882 608/919/883 582/924/872
f 608/919/883 610/920/884 582/924/872
f 610/920/884 612/921/885 582/924/872
f 612/921/885 614/922/886 582/924/872
f 614/922/886 584/923/870 582/924/872
