# This file uses meters as units for non-parametric coordinates.

mtllib onecoin.mtl
g default
v -3241.728077 64.253365 -5.556274
v -3244.875455 64.253365 -10.266663
v -3249.585842 64.253365 -13.414046
v -3255.142123 64.253365 -14.519263
v -3260.698406 64.253365 -13.414053
v -3265.408796 64.253365 -10.266674
v -3268.556179 64.253365 -5.556287
v -3269.661395 64.253365 -0.000005
v -3268.556183 64.253365 5.556278
v -3265.408803 64.253365 10.266668
v -3260.698415 64.253365 13.414050
v -3255.142133 64.253365 14.519264
v -3249.585851 64.253365 13.414051
v -3244.875462 64.253365 10.266671
v -3241.728081 64.253365 5.556282
v -3240.622867 64.253365 0.000000
v -3241.728077 67.343816 -5.556274
v -3244.875455 67.343816 -10.266663
v -3249.585842 67.343816 -13.414046
v -3255.142123 67.343816 -14.519263
v -3260.698406 67.343816 -13.414053
v -3265.408796 67.343816 -10.266674
v -3268.556179 67.343816 -5.556287
v -3269.661395 67.343816 -0.000005
v -3268.556183 67.343816 5.556278
v -3265.408803 67.343816 10.266668
v -3260.698415 67.343816 13.414050
v -3255.142133 67.343816 14.519264
v -3249.585851 67.343816 13.414051
v -3244.875462 67.343816 10.266671
v -3241.728081 67.343816 5.556282
v -3240.622867 67.343816 0.000000
v -3255.142131 64.253365 0.000000
v -3255.142131 67.343816 0.000000
vt 0.901341 0.331391
vt 0.805642 0.178433
vt 0.662417 0.076230
vt 0.493471 0.040341
vt 0.324526 0.076230
vt 0.181301 0.178433
vt 0.085601 0.331390
vt 0.051995 0.511816
vt 0.085601 0.692242
vt 0.181301 0.845199
vt 0.324526 0.947402
vt 0.493471 0.983291
vt 0.662416 0.947402
vt 0.805642 0.845199
vt 0.901341 0.692242
vt 0.934947 0.511816
vt 0.160892 0.390895
vt 0.166870 0.390895
vt 0.172848 0.390895
vt 0.178827 0.390895
vt 0.184805 0.390895
vt 0.190784 0.390895
vt 0.196762 0.390895
vt 0.202741 0.390895
vt 0.208719 0.390895
vt 0.214697 0.390895
vt 0.220676 0.390895
vt 0.226654 0.390895
vt 0.232633 0.390895
vt 0.238611 0.390895
vt 0.244590 0.390895
vt 0.250568 0.390895
vt 0.256546 0.390895
vt 0.160892 0.597454
vt 0.166870 0.597454
vt 0.172848 0.597454
vt 0.178827 0.597454
vt 0.184805 0.597454
vt 0.190784 0.597454
vt 0.196762 0.597454
vt 0.202741 0.597454
vt 0.208719 0.597454
vt 0.214697 0.597454
vt 0.220676 0.597454
vt 0.226654 0.597454
vt 0.232633 0.597454
vt 0.238611 0.597454
vt 0.244590 0.597454
vt 0.250568 0.597454
vt 0.256546 0.597454
vt 0.901341 0.331391
vt 0.805642 0.178433
vt 0.662417 0.076230
vt 0.493471 0.040341
vt 0.324526 0.076230
vt 0.181301 0.178433
vt 0.085601 0.331390
vt 0.051995 0.511816
vt 0.085601 0.692242
vt 0.181301 0.845199
vt 0.324526 0.947402
vt 0.493471 0.983291
vt 0.662416 0.947402
vt 0.805642 0.845199
vt 0.901341 0.692242
vt 0.934947 0.511816
vt 0.493471 0.511816
vt 0.493471 0.511816
vn 0.923880 0.000000 -0.382683
vn 0.707107 0.000000 -0.707106
vn 0.707107 0.000000 -0.707106
vn 0.923880 0.000000 -0.382683
vn 0.382684 0.000000 -0.923879
vn 0.382684 0.000000 -0.923879
vn 0.000001 0.000000 -1.000000
vn 0.000001 0.000000 -1.000000
vn -0.382683 0.000000 -0.923880
vn -0.382683 0.000000 -0.923880
vn -0.707106 0.000000 -0.707107
vn -0.707106 0.000000 -0.707107
vn -0.923879 0.000000 -0.382684
vn -0.923879 0.000000 -0.382684
vn -1.000000 0.000000 -0.000000
vn -1.000000 0.000000 -0.000000
vn -0.923880 0.000000 0.382683
vn -0.923880 0.000000 0.382683
vn -0.707107 0.000000 0.707107
vn -0.707107 0.000000 0.707107
vn -0.382684 0.000000 0.923879
vn -0.382684 0.000000 0.923879
vn -0.000000 0.000000 1.000000
vn -0.000000 0.000000 1.000000
vn 0.382683 0.000000 0.923880
vn 0.382683 0.000000 0.923880
vn 0.707107 0.000000 0.707107
vn 0.707107 0.000000 0.707107
vn 0.923880 0.000000 0.382683
vn 0.923880 0.000000 0.382683
vn 1.000000 0.000000 0.000000
vn 1.000000 0.000000 0.000000
vn 0.000000 -1.000000 0.000000
vn 0.000000 -1.000000 0.000000
vn 0.000000 -1.000000 -0.000000
vn 0.000000 -1.000000 -0.000000
vn 0.000000 -1.000000 -0.000000
vn 0.000000 -1.000000 -0.000000
vn 0.000000 -1.000000 -0.000000
vn 0.000000 -1.000000 0.000000
vn 0.000000 -1.000000 0.000000
vn 0.000000 -1.000000 0.000000
vn 0.000000 -1.000000 0.000000
vn 0.000000 -1.000000 -0.000000
vn 0.000000 -1.000000 -0.000000
vn 0.000000 -1.000000 -0.000000
vn 0.000000 -1.000000 -0.000000
vn 0.000000 -1.000000 0.000000
vn 0.000000 -1.000000 0.000000
vn 0.000000 1.000000 0.000000
vn 0.000000 1.000000 0.000000
vn 0.000000 1.000000 0.000000
vn 0.000000 1.000000 0.000000
vn 0.000000 1.000000 0.000000
vn 0.000000 1.000000 -0.000000
vn 0.000000 1.000000 0.000000
vn 0.000000 1.000000 0.000000
vn 0.000000 1.000000 0.000000
vn 0.000000 1.000000 0.000000
vn 0.000000 1.000000 0.000000
vn 0.000000 1.000000 0.000000
vn 0.000000 1.000000 0.000000
vn 0.000000 1.000000 -0.000000
vn 0.000000 1.000000 0.000000
vn 0.000000 1.000000 0.000000
vn 0.000000 1.000000 0.000000
s 1
g pCylinder21
usemtl lambert7SG
f 1/17/1 2/18/2 18/35/3 17/34/4
f 2/18/2 3/19/5 19/36/6 18/35/3
f 3/19/5 4/20/7 20/37/8 19/36/6
f 4/20/7 5/21/9 21/38/10 20/37/8
f 5/21/9 6/22/11 22/39/12 21/38/10
f 6/22/11 7/23/13 23/40/14 22/39/12
f 7/23/13 8/24/15 24/41/16 23/40/14
f 8/24/15 9/25/17 25/42/18 24/41/16
f 9/25/17 10/26/19 26/43/20 25/42/18
f 10/26/19 11/27/21 27/44/22 26/43/20
f 11/27/21 12/28/23 28/45/24 27/44/22
f 12/28/23 13/29/25 29/46/26 28/45/24
f 13/29/25 14/30/27 30/47/28 29/46/26
f 14/30/27 15/31/29 31/48/30 30/47/28
f 15/31/29 16/32/31 32/49/32 31/48/30
f 16/32/31 1/33/1 17/50/4 32/49/32
s 2
f 2/2/33 1/1/34 33/67/35
f 3/3/36 2/2/33 33/67/35
f 4/4/37 3/3/36 33/67/35
f 5/5/38 4/4/37 33/67/35
f 6/6/39 5/5/38 33/67/35
f 7/7/40 6/6/39 33/67/35
f 8/8/41 7/7/40 33/67/35
f 9/9/42 8/8/41 33/67/35
f 10/10/43 9/9/42 33/67/35
f 11/11/44 10/10/43 33/67/35
f 12/12/45 11/11/44 33/67/35
f 13/13/46 12/12/45 33/67/35
f 14/14/47 13/13/46 33/67/35
f 15/15/48 14/14/47 33/67/35
f 16/16/49 15/15/48 33/67/35
f 1/1/34 16/16/49 33/67/35
s 3
f 17/65/50 18/64/51 34/68/52
f 18/64/51 19/63/53 34/68/52
f 19/63/53 20/62/54 34/68/52
f 20/62/54 21/61/55 34/68/52
f 21/61/55 22/60/56 34/68/52
f 22/60/56 23/59/57 34/68/52
f 23/59/57 24/58/58 34/68/52
f 24/58/58 25/57/59 34/68/52
f 25/57/59 26/56/60 34/68/52
f 26/56/60 27/55/61 34/68/52
f 27/55/61 28/54/62 34/68/52
f 28/54/62 29/53/63 34/68/52
f 29/53/63 30/52/64 34/68/52
f 30/52/64 31/51/65 34/68/52
f 31/51/65 32/66/66 34/68/52
f 32/66/66 17/65/50 34/68/52
