# This file uses meters as units for non-parametric coordinates.

mtllib smallcoinpile.mtl
g default
v -3256.371816 70.416428 -190.719358
v -3261.393747 70.416428 -193.341183
v -3267.036736 70.416428 -193.841623
v -3272.441689 70.416428 -192.144491
v -3276.785750 70.416428 -188.508160
v -3279.407574 70.416428 -183.486228
v -3279.908014 70.416428 -177.843239
v -3278.210881 70.416428 -172.438287
v -3274.574549 70.416428 -168.094227
v -3269.552616 70.416428 -165.472402
v -3263.909626 70.416428 -164.971964
v -3258.504675 70.416428 -166.669098
v -3254.160616 70.416428 -170.305431
v -3251.538792 70.416428 -175.327364
v -3251.038355 70.416428 -180.970353
v -3252.735489 70.416428 -186.375305
v -3256.371816 73.506878 -190.719358
v -3261.393747 73.506878 -193.341183
v -3267.036736 73.506878 -193.841623
v -3272.441689 73.506878 -192.144491
v -3276.785750 73.506878 -188.508160
v -3279.407574 73.506878 -183.486228
v -3279.908014 73.506878 -177.843239
v -3278.210881 73.506878 -172.438287
v -3274.574549 73.506878 -168.094227
v -3269.552616 73.506878 -165.472402
v -3263.909626 73.506878 -164.971964
v -3258.504675 73.506878 -166.669098
v -3254.160616 73.506878 -170.305431
v -3251.538792 73.506878 -175.327364
v -3251.038355 73.506878 -180.970353
v -3252.735489 73.506878 -186.375305
v -3265.473184 70.416428 -179.406794
v -3265.473184 73.506878 -179.406794
vt 0.901341 0.331391
vt 0.805642 0.178433
vt 0.662417 0.076230
vt 0.493471 0.040341
vt 0.324526 0.076230
vt 0.181301 0.178433
vt 0.085601 0.331390
vt 0.051995 0.511816
vt 0.085601 0.692242
vt 0.181301 0.845199
vt 0.324526 0.947402
vt 0.493471 0.983291
vt 0.662416 0.947402
vt 0.805642 0.845199
vt 0.901341 0.692242
vt 0.934947 0.511816
vt 0.160892 0.390895
vt 0.166870 0.390895
vt 0.172848 0.390895
vt 0.178827 0.390895
vt 0.184805 0.390895
vt 0.190784 0.390895
vt 0.196762 0.390895
vt 0.202741 0.390895
vt 0.208719 0.390895
vt 0.214697 0.390895
vt 0.220676 0.390895
vt 0.226654 0.390895
vt 0.232633 0.390895
vt 0.238611 0.390895
vt 0.244590 0.390895
vt 0.250568 0.390895
vt 0.256546 0.390895
vt 0.160892 0.597454
vt 0.166870 0.597454
vt 0.172848 0.597454
vt 0.178827 0.597454
vt 0.184805 0.597454
vt 0.190784 0.597454
vt 0.196762 0.597454
vt 0.202741 0.597454
vt 0.208719 0.597454
vt 0.214697 0.597454
vt 0.220676 0.597454
vt 0.226654 0.597454
vt 0.232633 0.597454
vt 0.238611 0.597454
vt 0.244590 0.597454
vt 0.250568 0.597454
vt 0.256546 0.597454
vt 0.901341 0.331391
vt 0.805642 0.178433
vt 0.662417 0.076230
vt 0.493471 0.040341
vt 0.324526 0.076230
vt 0.181301 0.178433
vt 0.085601 0.331390
vt 0.051995 0.511816
vt 0.085601 0.692242
vt 0.181301 0.845199
vt 0.324526 0.947402
vt 0.493471 0.983291
vt 0.662416 0.947402
vt 0.805642 0.845199
vt 0.901341 0.692242
vt 0.934947 0.511816
vt 0.493471 0.511816
vt 0.493471 0.511816
vn 0.626848 0.000000 -0.779142
vn 0.280967 0.000000 -0.959717
vn 0.280967 0.000000 -0.959717
vn 0.626848 0.000000 -0.779142
vn -0.107688 0.000000 -0.994185
vn -0.107688 0.000000 -0.994185
vn -0.479949 0.000000 -0.877297
vn -0.479949 0.000000 -0.877297
vn -0.779142 0.000000 -0.626848
vn -0.779142 0.000000 -0.626848
vn -0.959717 0.000000 -0.280967
vn -0.959717 0.000000 -0.280967
vn -0.994185 0.000000 0.107688
vn -0.994185 0.000000 0.107688
vn -0.877296 0.000000 0.479949
vn -0.877296 0.000000 0.479949
vn -0.626848 0.000000 0.779142
vn -0.626848 0.000000 0.779142
vn -0.280967 0.000000 0.959717
vn -0.280967 0.000000 0.959717
vn 0.107689 0.000000 0.994185
vn 0.107689 0.000000 0.994185
vn 0.479949 0.000000 0.877296
vn 0.479949 0.000000 0.877296
vn 0.779142 0.000000 0.626847
vn 0.779142 0.000000 0.626847
vn 0.959718 0.000000 0.280967
vn 0.959718 0.000000 0.280967
vn 0.994185 0.000000 -0.107689
vn 0.994185 0.000000 -0.107689
vn 0.877296 0.000000 -0.479949
vn 0.877296 0.000000 -0.479949
vn 0.000000 -1.000000 0.000000
vn 0.000000 -1.000000 0.000000
vn -0.000000 -1.000000 -0.000000
vn -0.000000 -1.000000 -0.000000
vn -0.000000 -1.000000 -0.000000
vn -0.000000 -1.000000 -0.000000
vn -0.000000 -1.000000 -0.000000
vn 0.000000 -1.000000 0.000000
vn 0.000000 -1.000000 0.000000
vn 0.000000 -1.000000 0.000000
vn 0.000000 -1.000000 0.000000
vn -0.000000 -1.000000 -0.000000
vn -0.000000 -1.000000 -0.000000
vn -0.000000 -1.000000 -0.000000
vn -0.000000 -1.000000 -0.000000
vn 0.000000 -1.000000 0.000000
vn 0.000000 -1.000000 0.000000
vn 0.000000 1.000000 0.000000
vn 0.000000 1.000000 0.000000
vn 0.000000 1.000000 0.000000
vn 0.000000 1.000000 0.000000
vn 0.000000 1.000000 0.000000
vn -0.000000 1.000000 -0.000000
vn 0.000000 1.000000 0.000000
vn 0.000000 1.000000 0.000000
vn 0.000000 1.000000 0.000000
vn 0.000000 1.000000 0.000000
vn 0.000000 1.000000 0.000000
vn 0.000000 1.000000 0.000000
vn 0.000000 1.000000 0.000000
vn -0.000000 1.000000 -0.000000
vn 0.000000 1.000000 0.000000
vn 0.000000 1.000000 0.000000
vn 0.000000 1.000000 0.000000
s 1
g pCylinder34
usemtl lambert7SG
f 1/17/1 2/18/2 18/35/3 17/34/4
f 2/18/2 3/19/5 19/36/6 18/35/3
f 3/19/5 4/20/7 20/37/8 19/36/6
f 4/20/7 5/21/9 21/38/10 20/37/8
f 5/21/9 6/22/11 22/39/12 21/38/10
f 6/22/11 7/23/13 23/40/14 22/39/12
f 7/23/13 8/24/15 24/41/16 23/40/14
f 8/24/15 9/25/17 25/42/18 24/41/16
f 9/25/17 10/26/19 26/43/20 25/42/18
f 10/26/19 11/27/21 27/44/22 26/43/20
f 11/27/21 12/28/23 28/45/24 27/44/22
f 12/28/23 13/29/25 29/46/26 28/45/24
f 13/29/25 14/30/27 30/47/28 29/46/26
f 14/30/27 15/31/29 31/48/30 30/47/28
f 15/31/29 16/32/31 32/49/32 31/48/30
f 16/32/31 1/33/1 17/50/4 32/49/32
s 2
f 2/2/33 1/1/34 33/67/35
f 3/3/36 2/2/33 33/67/35
f 4/4/37 3/3/36 33/67/35
f 5/5/38 4/4/37 33/67/35
f 6/6/39 5/5/38 33/67/35
f 7/7/40 6/6/39 33/67/35
f 8/8/41 7/7/40 33/67/35
f 9/9/42 8/8/41 33/67/35
f 10/10/43 9/9/42 33/67/35
f 11/11/44 10/10/43 33/67/35
f 12/12/45 11/11/44 33/67/35
f 13/13/46 12/12/45 33/67/35
f 14/14/47 13/13/46 33/67/35
f 15/15/48 14/14/47 33/67/35
f 16/16/49 15/15/48 33/67/35
f 1/1/34 16/16/49 33/67/35
s 3
f 17/65/50 18/64/51 34/68/52
f 18/64/51 19/63/53 34/68/52
f 19/63/53 20/62/54 34/68/52
f 20/62/54 21/61/55 34/68/52
f 21/61/55 22/60/56 34/68/52
f 22/60/56 23/59/57 34/68/52
f 23/59/57 24/58/58 34/68/52
f 24/58/58 25/57/59 34/68/52
f 25/57/59 26/56/60 34/68/52
f 26/56/60 27/55/61 34/68/52
f 27/55/61 28/54/62 34/68/52
f 28/54/62 29/53/63 34/68/52
f 29/53/63 30/52/64 34/68/52
f 30/52/64 31/51/65 34/68/52
f 31/51/65 32/66/66 34/68/52
f 32/66/66 17/65/50 34/68/52
g default
v -3240.812705 67.319410 -179.701299
v -3245.834637 67.319410 -182.323123
v -3251.477626 67.319410 -182.823563
v -3256.882578 67.319410 -181.126432
v -3261.226639 67.319410 -177.490101
v -3263.848464 67.319410 -172.468169
v -3264.348904 67.319410 -166.825179
v -3262.651771 67.319410 -161.420227
v -3259.015438 67.319410 -157.076167
v -3253.993505 67.319410 -154.454343
v -3248.350516 67.319410 -153.953904
v -3242.945564 67.319410 -155.651038
v -3238.601505 67.319410 -159.287371
v -3235.979682 67.319410 -164.309304
v -3235.479245 67.319410 -169.952294
v -3237.176379 67.319410 -175.357246
v -3240.812705 70.409861 -179.701299
v -3245.834637 70.409861 -182.323123
v -3251.477626 70.409861 -182.823563
v -3256.882578 70.409861 -181.126432
v -3261.226639 70.409861 -177.490101
v -3263.848464 70.409861 -172.468169
v -3264.348904 70.409861 -166.825179
v -3262.651771 70.409861 -161.420227
v -3259.015438 70.409861 -157.076167
v -3253.993505 70.409861 -154.454343
v -3248.350516 70.409861 -153.953904
v -3242.945564 70.409861 -155.651038
v -3238.601505 70.409861 -159.287371
v -3235.979682 70.409861 -164.309304
v -3235.479245 70.409861 -169.952294
v -3237.176379 70.409861 -175.357246
v -3249.914074 67.319410 -168.388734
v -3249.914074 70.409861 -168.388734
vt 0.901341 0.331391
vt 0.805642 0.178433
vt 0.662417 0.076230
vt 0.493471 0.040341
vt 0.324526 0.076230
vt 0.181301 0.178433
vt 0.085601 0.331390
vt 0.051995 0.511816
vt 0.085601 0.692242
vt 0.181301 0.845199
vt 0.324526 0.947402
vt 0.493471 0.983291
vt 0.662416 0.947402
vt 0.805642 0.845199
vt 0.901341 0.692242
vt 0.934947 0.511816
vt 0.160892 0.390895
vt 0.166870 0.390895
vt 0.172848 0.390895
vt 0.178827 0.390895
vt 0.184805 0.390895
vt 0.190784 0.390895
vt 0.196762 0.390895
vt 0.202741 0.390895
vt 0.208719 0.390895
vt 0.214697 0.390895
vt 0.220676 0.390895
vt 0.226654 0.390895
vt 0.232633 0.390895
vt 0.238611 0.390895
vt 0.244590 0.390895
vt 0.250568 0.390895
vt 0.256546 0.390895
vt 0.160892 0.597454
vt 0.166870 0.597454
vt 0.172848 0.597454
vt 0.178827 0.597454
vt 0.184805 0.597454
vt 0.190784 0.597454
vt 0.196762 0.597454
vt 0.202741 0.597454
vt 0.208719 0.597454
vt 0.214697 0.597454
vt 0.220676 0.597454
vt 0.226654 0.597454
vt 0.232633 0.597454
vt 0.238611 0.597454
vt 0.244590 0.597454
vt 0.250568 0.597454
vt 0.256546 0.597454
vt 0.901341 0.331391
vt 0.805642 0.178433
vt 0.662417 0.076230
vt 0.493471 0.040341
vt 0.324526 0.076230
vt 0.181301 0.178433
vt 0.085601 0.331390
vt 0.051995 0.511816
vt 0.085601 0.692242
vt 0.181301 0.845199
vt 0.324526 0.947402
vt 0.493471 0.983291
vt 0.662416 0.947402
vt 0.805642 0.845199
vt 0.901341 0.692242
vt 0.934947 0.511816
vt 0.493471 0.511816
vt 0.493471 0.511816
vn 0.626848 0.000000 -0.779142
vn 0.280967 0.000000 -0.959717
vn 0.280967 0.000000 -0.959717
vn 0.626848 0.000000 -0.779142
vn -0.107688 0.000000 -0.994185
vn -0.107688 0.000000 -0.994185
vn -0.479949 0.000000 -0.877297
vn -0.479949 0.000000 -0.877297
vn -0.779142 0.000000 -0.626848
vn -0.779142 0.000000 -0.626848
vn -0.959717 0.000000 -0.280967
vn -0.959717 0.000000 -0.280967
vn -0.994185 0.000000 0.107688
vn -0.994185 0.000000 0.107688
vn -0.877296 0.000000 0.479949
vn -0.877296 0.000000 0.479949
vn -0.626848 0.000000 0.779142
vn -0.626848 0.000000 0.779142
vn -0.280967 0.000000 0.959717
vn -0.280967 0.000000 0.959717
vn 0.107689 0.000000 0.994185
vn 0.107689 0.000000 0.994185
vn 0.479949 0.000000 0.877296
vn 0.479949 0.000000 0.877296
vn 0.779142 0.000000 0.626847
vn 0.779142 0.000000 0.626847
vn 0.959718 0.000000 0.280967
vn 0.959718 0.000000 0.280967
vn 0.994185 0.000000 -0.107689
vn 0.994185 0.000000 -0.107689
vn 0.877296 0.000000 -0.479949
vn 0.877296 0.000000 -0.479949
vn 0.000000 -1.000000 0.000000
vn 0.000000 -1.000000 0.000000
vn -0.000000 -1.000000 -0.000000
vn -0.000000 -1.000000 -0.000000
vn -0.000000 -1.000000 -0.000000
vn -0.000000 -1.000000 -0.000000
vn -0.000000 -1.000000 -0.000000
vn 0.000000 -1.000000 0.000000
vn 0.000000 -1.000000 0.000000
vn 0.000000 -1.000000 0.000000
vn 0.000000 -1.000000 0.000000
vn -0.000000 -1.000000 -0.000000
vn -0.000000 -1.000000 -0.000000
vn -0.000000 -1.000000 -0.000000
vn -0.000000 -1.000000 -0.000000
vn 0.000000 -1.000000 0.000000
vn 0.000000 -1.000000 0.000000
vn 0.000000 1.000000 0.000000
vn 0.000000 1.000000 0.000000
vn 0.000000 1.000000 0.000000
vn 0.000000 1.000000 0.000000
vn 0.000000 1.000000 0.000000
vn -0.000000 1.000000 -0.000000
vn 0.000000 1.000000 0.000000
vn 0.000000 1.000000 0.000000
vn 0.000000 1.000000 0.000000
vn 0.000000 1.000000 0.000000
vn 0.000000 1.000000 0.000000
vn 0.000000 1.000000 0.000000
vn 0.000000 1.000000 0.000000
vn -0.000000 1.000000 -0.000000
vn 0.000000 1.000000 0.000000
vn 0.000000 1.000000 0.000000
vn 0.000000 1.000000 0.000000
s 1
g pCylinder30
usemtl lambert7SG
f 35/85/67 36/86/68 52/103/69 51/102/70
f 36/86/68 37/87/71 53/104/72 52/103/69
f 37/87/71 38/88/73 54/105/74 53/104/72
f 38/88/73 39/89/75 55/106/76 54/105/74
f 39/89/75 40/90/77 56/107/78 55/106/76
f 40/90/77 41/91/79 57/108/80 56/107/78
f 41/91/79 42/92/81 58/109/82 57/108/80
f 42/92/81 43/93/83 59/110/84 58/109/82
f 43/93/83 44/94/85 60/111/86 59/110/84
f 44/94/85 45/95/87 61/112/88 60/111/86
f 45/95/87 46/96/89 62/113/90 61/112/88
f 46/96/89 47/97/91 63/114/92 62/113/90
f 47/97/91 48/98/93 64/115/94 63/114/92
f 48/98/93 49/99/95 65/116/96 64/115/94
f 49/99/95 50/100/97 66/117/98 65/116/96
f 50/100/97 35/101/67 51/118/70 66/117/98
s 2
f 36/70/99 35/69/100 67/135/101
f 37/71/102 36/70/99 67/135/101
f 38/72/103 37/71/102 67/135/101
f 39/73/104 38/72/103 67/135/101
f 40/74/105 39/73/104 67/135/101
f 41/75/106 40/74/105 67/135/101
f 42/76/107 41/75/106 67/135/101
f 43/77/108 42/76/107 67/135/101
f 44/78/109 43/77/108 67/135/101
f 45/79/110 44/78/109 67/135/101
f 46/80/111 45/79/110 67/135/101
f 47/81/112 46/80/111 67/135/101
f 48/82/113 47/81/112 67/135/101
f 49/83/114 48/82/113 67/135/101
f 50/84/115 49/83/114 67/135/101
f 35/69/100 50/84/115 67/135/101
s 3
f 51/133/116 52/132/117 68/136/118
f 52/132/117 53/131/119 68/136/118
f 53/131/119 54/130/120 68/136/118
f 54/130/120 55/129/121 68/136/118
f 55/129/121 56/128/122 68/136/118
f 56/128/122 57/127/123 68/136/118
f 57/127/123 58/126/124 68/136/118
f 58/126/124 59/125/125 68/136/118
f 59/125/125 60/124/126 68/136/118
f 60/124/126 61/123/127 68/136/118
f 61/123/127 62/122/128 68/136/118
f 62/122/128 63/121/129 68/136/118
f 63/121/129 64/120/130 68/136/118
f 64/120/130 65/119/131 68/136/118
f 65/119/131 66/134/132 68/136/118
f 66/134/132 51/133/116 68/136/118
g default
v -3277.374326 64.253365 -160.026501
v -3282.396258 64.253365 -162.648325
v -3288.039247 64.253365 -163.148765
v -3293.444199 64.253365 -161.451633
v -3297.788260 64.253365 -157.815303
v -3300.410085 64.253365 -152.793371
v -3300.910525 64.253365 -147.150381
v -3299.213392 64.253365 -141.745429
v -3295.577059 64.253365 -137.401369
v -3290.555126 64.253365 -134.779545
v -3284.912137 64.253365 -134.279106
v -3279.507185 64.253365 -135.976240
v -3275.163126 64.253365 -139.612573
v -3272.541303 64.253365 -144.634506
v -3272.040866 64.253365 -150.277496
v -3273.738000 64.253365 -155.682448
v -3277.374326 67.343816 -160.026501
v -3282.396258 67.343816 -162.648325
v -3288.039247 67.343816 -163.148765
v -3293.444199 67.343816 -161.451633
v -3297.788260 67.343816 -157.815303
v -3300.410085 67.343816 -152.793371
v -3300.910525 67.343816 -147.150381
v -3299.213392 67.343816 -141.745429
v -3295.577059 67.343816 -137.401369
v -3290.555126 67.343816 -134.779545
v -3284.912137 67.343816 -134.279106
v -3279.507185 67.343816 -135.976240
v -3275.163126 67.343816 -139.612573
v -3272.541303 67.343816 -144.634506
v -3272.040866 67.343816 -150.277496
v -3273.738000 67.343816 -155.682448
v -3286.475695 64.253365 -148.713936
v -3286.475695 67.343816 -148.713936
vt 0.901341 0.331391
vt 0.805642 0.178433
vt 0.662417 0.076230
vt 0.493471 0.040341
vt 0.324526 0.076230
vt 0.181301 0.178433
vt 0.085601 0.331390
vt 0.051995 0.511816
vt 0.085601 0.692242
vt 0.181301 0.845199
vt 0.324526 0.947402
vt 0.493471 0.983291
vt 0.662416 0.947402
vt 0.805642 0.845199
vt 0.901341 0.692242
vt 0.934947 0.511816
vt 0.160892 0.390895
vt 0.166870 0.390895
vt 0.172848 0.390895
vt 0.178827 0.390895
vt 0.184805 0.390895
vt 0.190784 0.390895
vt 0.196762 0.390895
vt 0.202741 0.390895
vt 0.208719 0.390895
vt 0.214697 0.390895
vt 0.220676 0.390895
vt 0.226654 0.390895
vt 0.232633 0.390895
vt 0.238611 0.390895
vt 0.244590 0.390895
vt 0.250568 0.390895
vt 0.256546 0.390895
vt 0.160892 0.597454
vt 0.166870 0.597454
vt 0.172848 0.597454
vt 0.178827 0.597454
vt 0.184805 0.597454
vt 0.190784 0.597454
vt 0.196762 0.597454
vt 0.202741 0.597454
vt 0.208719 0.597454
vt 0.214697 0.597454
vt 0.220676 0.597454
vt 0.226654 0.597454
vt 0.232633 0.597454
vt 0.238611 0.597454
vt 0.244590 0.597454
vt 0.250568 0.597454
vt 0.256546 0.597454
vt 0.901341 0.331391
vt 0.805642 0.178433
vt 0.662417 0.076230
vt 0.493471 0.040341
vt 0.324526 0.076230
vt 0.181301 0.178433
vt 0.085601 0.331390
vt 0.051995 0.511816
vt 0.085601 0.692242
vt 0.181301 0.845199
vt 0.324526 0.947402
vt 0.493471 0.983291
vt 0.662416 0.947402
vt 0.805642 0.845199
vt 0.901341 0.692242
vt 0.934947 0.511816
vt 0.493471 0.511816
vt 0.493471 0.511816
vn 0.626848 0.000000 -0.779142
vn 0.280967 0.000000 -0.959717
vn 0.280967 0.000000 -0.959717
vn 0.626848 0.000000 -0.779142
vn -0.107688 0.000000 -0.994185
vn -0.107688 0.000000 -0.994185
vn -0.479949 0.000000 -0.877297
vn -0.479949 0.000000 -0.877297
vn -0.779142 0.000000 -0.626848
vn -0.779142 0.000000 -0.626848
vn -0.959717 0.000000 -0.280967
vn -0.959717 0.000000 -0.280967
vn -0.994185 0.000000 0.107688
vn -0.994185 0.000000 0.107688
vn -0.877296 0.000000 0.479949
vn -0.877296 0.000000 0.479949
vn -0.626848 0.000000 0.779142
vn -0.626848 0.000000 0.779142
vn -0.280967 0.000000 0.959717
vn -0.280967 0.000000 0.959717
vn 0.107689 0.000000 0.994185
vn 0.107689 0.000000 0.994185
vn 0.479949 0.000000 0.877296
vn 0.479949 0.000000 0.877296
vn 0.779142 0.000000 0.626847
vn 0.779142 0.000000 0.626847
vn 0.959718 0.000000 0.280967
vn 0.959718 0.000000 0.280967
vn 0.994185 0.000000 -0.107689
vn 0.994185 0.000000 -0.107689
vn 0.877296 0.000000 -0.479949
vn 0.877296 0.000000 -0.479949
vn 0.000000 -1.000000 0.000000
vn 0.000000 -1.000000 0.000000
vn -0.000000 -1.000000 -0.000000
vn -0.000000 -1.000000 -0.000000
vn -0.000000 -1.000000 -0.000000
vn -0.000000 -1.000000 -0.000000
vn -0.000000 -1.000000 -0.000000
vn 0.000000 -1.000000 0.000000
vn 0.000000 -1.000000 0.000000
vn 0.000000 -1.000000 0.000000
vn 0.000000 -1.000000 0.000000
vn -0.000000 -1.000000 -0.000000
vn -0.000000 -1.000000 -0.000000
vn -0.000000 -1.000000 -0.000000
vn -0.000000 -1.000000 -0.000000
vn 0.000000 -1.000000 0.000000
vn 0.000000 -1.000000 0.000000
vn 0.000000 1.000000 0.000000
vn 0.000000 1.000000 0.000000
vn 0.000000 1.000000 0.000000
vn 0.000000 1.000000 0.000000
vn 0.000000 1.000000 0.000000
vn -0.000000 1.000000 -0.000000
vn 0.000000 1.000000 0.000000
vn 0.000000 1.000000 0.000000
vn 0.000000 1.000000 0.000000
vn 0.000000 1.000000 0.000000
vn 0.000000 1.000000 0.000000
vn 0.000000 1.000000 0.000000
vn 0.000000 1.000000 0.000000
vn -0.000000 1.000000 -0.000000
vn 0.000000 1.000000 0.000000
vn 0.000000 1.000000 0.000000
vn 0.000000 1.000000 0.000000
s 1
g pCylinder28
usemtl lambert7SG
f 69/153/133 70/154/134 86/171/135 85/170/136
f 70/154/134 71/155/137 87/172/138 86/171/135
f 71/155/137 72/156/139 88/173/140 87/172/138
f 72/156/139 73/157/141 89/174/142 88/173/140
f 73/157/141 74/158/143 90/175/144 89/174/142
f 74/158/143 75/159/145 91/176/146 90/175/144
f 75/159/145 76/160/147 92/177/148 91/176/146
f 76/160/147 77/161/149 93/178/150 92/177/148
f 77/161/149 78/162/151 94/179/152 93/178/150
f 78/162/151 79/163/153 95/180/154 94/179/152
f 79/163/153 80/164/155 96/181/156 95/180/154
f 80/164/155 81/165/157 97/182/158 96/181/156
f 81/165/157 82/166/159 98/183/160 97/182/158
f 82/166/159 83/167/161 99/184/162 98/183/160
f 83/167/161 84/168/163 100/185/164 99/184/162
f 84/168/163 69/169/133 85/186/136 100/185/164
s 2
f 70/138/165 69/137/166 101/203/167
f 71/139/168 70/138/165 101/203/167
f 72/140/169 71/139/168 101/203/167
f 73/141/170 72/140/169 101/203/167
f 74/142/171 73/141/170 101/203/167
f 75/143/172 74/142/171 101/203/167
f 76/144/173 75/143/172 101/203/167
f 77/145/174 76/144/173 101/203/167
f 78/146/175 77/145/174 101/203/167
f 79/147/176 78/146/175 101/203/167
f 80/148/177 79/147/176 101/203/167
f 81/149/178 80/148/177 101/203/167
f 82/150/179 81/149/178 101/203/167
f 83/151/180 82/150/179 101/203/167
f 84/152/181 83/151/180 101/203/167
f 69/137/166 84/152/181 101/203/167
s 3
f 85/201/182 86/200/183 102/204/184
f 86/200/183 87/199/185 102/204/184
f 87/199/185 88/198/186 102/204/184
f 88/198/186 89/197/187 102/204/184
f 89/197/187 90/196/188 102/204/184
f 90/196/188 91/195/189 102/204/184
f 91/195/189 92/194/190 102/204/184
f 92/194/190 93/193/191 102/204/184
f 93/193/191 94/192/192 102/204/184
f 94/192/192 95/191/193 102/204/184
f 95/191/193 96/190/194 102/204/184
f 96/190/194 97/189/195 102/204/184
f 97/189/195 98/188/196 102/204/184
f 98/188/196 99/187/197 102/204/184
f 99/187/197 100/202/198 102/204/184
f 100/202/198 85/201/182 102/204/184
g default
v -3235.865701 64.253365 -170.388976
v -3240.887633 64.253365 -173.010800
v -3246.530622 64.253365 -173.511240
v -3251.935574 64.253365 -171.814109
v -3256.279635 64.253365 -168.177778
v -3258.901460 64.253365 -163.155846
v -3259.401899 64.253365 -157.512857
v -3257.704766 64.253365 -152.107904
v -3254.068434 64.253365 -147.763845
v -3249.046501 64.253365 -145.142020
v -3243.403511 64.253365 -144.641582
v -3237.998560 64.253365 -146.338716
v -3233.654501 64.253365 -149.975049
v -3231.032678 64.253365 -154.996981
v -3230.532240 64.253365 -160.639971
v -3232.229374 64.253365 -166.044923
v -3235.865701 67.343816 -170.388976
v -3240.887633 67.343816 -173.010800
v -3246.530622 67.343816 -173.511240
v -3251.935574 67.343816 -171.814109
v -3256.279635 67.343816 -168.177778
v -3258.901460 67.343816 -163.155846
v -3259.401899 67.343816 -157.512857
v -3257.704766 67.343816 -152.107904
v -3254.068434 67.343816 -147.763845
v -3249.046501 67.343816 -145.142020
v -3243.403511 67.343816 -144.641582
v -3237.998560 67.343816 -146.338716
v -3233.654501 67.343816 -149.975049
v -3231.032678 67.343816 -154.996981
v -3230.532240 67.343816 -160.639971
v -3232.229374 67.343816 -166.044923
v -3244.967069 64.253365 -159.076411
v -3244.967069 67.343816 -159.076411
vt 0.901341 0.331391
vt 0.805642 0.178433
vt 0.662417 0.076230
vt 0.493471 0.040341
vt 0.324526 0.076230
vt 0.181301 0.178433
vt 0.085601 0.331390
vt 0.051995 0.511816
vt 0.085601 0.692242
vt 0.181301 0.845199
vt 0.324526 0.947402
vt 0.493471 0.983291
vt 0.662416 0.947402
vt 0.805642 0.845199
vt 0.901341 0.692242
vt 0.934947 0.511816
vt 0.160892 0.390895
vt 0.166870 0.390895
vt 0.172848 0.390895
vt 0.178827 0.390895
vt 0.184805 0.390895
vt 0.190784 0.390895
vt 0.196762 0.390895
vt 0.202741 0.390895
vt 0.208719 0.390895
vt 0.214697 0.390895
vt 0.220676 0.390895
vt 0.226654 0.390895
vt 0.232633 0.390895
vt 0.238611 0.390895
vt 0.244590 0.390895
vt 0.250568 0.390895
vt 0.256546 0.390895
vt 0.160892 0.597454
vt 0.166870 0.597454
vt 0.172848 0.597454
vt 0.178827 0.597454
vt 0.184805 0.597454
vt 0.190784 0.597454
vt 0.196762 0.597454
vt 0.202741 0.597454
vt 0.208719 0.597454
vt 0.214697 0.597454
vt 0.220676 0.597454
vt 0.226654 0.597454
vt 0.232633 0.597454
vt 0.238611 0.597454
vt 0.244590 0.597454
vt 0.250568 0.597454
vt 0.256546 0.597454
vt 0.901341 0.331391
vt 0.805642 0.178433
vt 0.662417 0.076230
vt 0.493471 0.040341
vt 0.324526 0.076230
vt 0.181301 0.178433
vt 0.085601 0.331390
vt 0.051995 0.511816
vt 0.085601 0.692242
vt 0.181301 0.845199
vt 0.324526 0.947402
vt 0.493471 0.983291
vt 0.662416 0.947402
vt 0.805642 0.845199
vt 0.901341 0.692242
vt 0.934947 0.511816
vt 0.493471 0.511816
vt 0.493471 0.511816
vn 0.626848 0.000000 -0.779142
vn 0.280967 0.000000 -0.959717
vn 0.280967 0.000000 -0.959717
vn 0.626848 0.000000 -0.779142
vn -0.107688 0.000000 -0.994185
vn -0.107688 0.000000 -0.994185
vn -0.479949 0.000000 -0.877297
vn -0.479949 0.000000 -0.877297
vn -0.779142 0.000000 -0.626848
vn -0.779142 0.000000 -0.626848
vn -0.959717 0.000000 -0.280967
vn -0.959717 0.000000 -0.280967
vn -0.994185 0.000000 0.107688
vn -0.994185 0.000000 0.107688
vn -0.877296 0.000000 0.479949
vn -0.877296 0.000000 0.479949
vn -0.626848 0.000000 0.779142
vn -0.626848 0.000000 0.779142
vn -0.280967 0.000000 0.959717
vn -0.280967 0.000000 0.959717
vn 0.107689 0.000000 0.994185
vn 0.107689 0.000000 0.994185
vn 0.479949 0.000000 0.877296
vn 0.479949 0.000000 0.877296
vn 0.779142 0.000000 0.626847
vn 0.779142 0.000000 0.626847
vn 0.959718 0.000000 0.280967
vn 0.959718 0.000000 0.280967
vn 0.994185 0.000000 -0.107689
vn 0.994185 0.000000 -0.107689
vn 0.877296 0.000000 -0.479949
vn 0.877296 0.000000 -0.479949
vn 0.000000 -1.000000 0.000000
vn 0.000000 -1.000000 0.000000
vn -0.000000 -1.000000 -0.000000
vn -0.000000 -1.000000 -0.000000
vn -0.000000 -1.000000 -0.000000
vn -0.000000 -1.000000 -0.000000
vn -0.000000 -1.000000 -0.000000
vn 0.000000 -1.000000 0.000000
vn 0.000000 -1.000000 0.000000
vn 0.000000 -1.000000 0.000000
vn 0.000000 -1.000000 0.000000
vn -0.000000 -1.000000 -0.000000
vn -0.000000 -1.000000 -0.000000
vn -0.000000 -1.000000 -0.000000
vn -0.000000 -1.000000 -0.000000
vn 0.000000 -1.000000 0.000000
vn 0.000000 -1.000000 0.000000
vn 0.000000 1.000000 0.000000
vn 0.000000 1.000000 0.000000
vn 0.000000 1.000000 0.000000
vn 0.000000 1.000000 0.000000
vn 0.000000 1.000000 0.000000
vn -0.000000 1.000000 -0.000000
vn 0.000000 1.000000 0.000000
vn 0.000000 1.000000 0.000000
vn 0.000000 1.000000 0.000000
vn 0.000000 1.000000 0.000000
vn 0.000000 1.000000 0.000000
vn 0.000000 1.000000 0.000000
vn 0.000000 1.000000 0.000000
vn -0.000000 1.000000 -0.000000
vn 0.000000 1.000000 0.000000
vn 0.000000 1.000000 0.000000
vn 0.000000 1.000000 0.000000
s 1
g pCylinder29
usemtl lambert7SG
f 103/221/199 104/222/200 120/239/201 119/238/202
f 104/222/200 105/223/203 121/240/204 120/239/201
f 105/223/203 106/224/205 122/241/206 121/240/204
f 106/224/205 107/225/207 123/242/208 122/241/206
f 107/225/207 108/226/209 124/243/210 123/242/208
f 108/226/209 109/227/211 125/244/212 124/243/210
f 109/227/211 110/228/213 126/245/214 125/244/212
f 110/228/213 111/229/215 127/246/216 126/245/214
f 111/229/215 112/230/217 128/247/218 127/246/216
f 112/230/217 113/231/219 129/248/220 128/247/218
f 113/231/219 114/232/221 130/249/222 129/248/220
f 114/232/221 115/233/223 131/250/224 130/249/222
f 115/233/223 116/234/225 132/251/226 131/250/224
f 116/234/225 117/235/227 133/252/228 132/251/226
f 117/235/227 118/236/229 134/253/230 133/252/228
f 118/236/229 103/237/199 119/254/202 134/253/230
s 2
f 104/206/231 103/205/232 135/271/233
f 105/207/234 104/206/231 135/271/233
f 106/208/235 105/207/234 135/271/233
f 107/209/236 106/208/235 135/271/233
f 108/210/237 107/209/236 135/271/233
f 109/211/238 108/210/237 135/271/233
f 110/212/239 109/211/238 135/271/233
f 111/213/240 110/212/239 135/271/233
f 112/214/241 111/213/240 135/271/233
f 113/215/242 112/214/241 135/271/233
f 114/216/243 113/215/242 135/271/233
f 115/217/244 114/216/243 135/271/233
f 116/218/245 115/217/244 135/271/233
f 117/219/246 116/218/245 135/271/233
f 118/220/247 117/219/246 135/271/233
f 103/205/232 118/220/247 135/271/233
s 3
f 119/269/248 120/268/249 136/272/250
f 120/268/249 121/267/251 136/272/250
f 121/267/251 122/266/252 136/272/250
f 122/266/252 123/265/253 136/272/250
f 123/265/253 124/264/254 136/272/250
f 124/264/254 125/263/255 136/272/250
f 125/263/255 126/262/256 136/272/250
f 126/262/256 127/261/257 136/272/250
f 127/261/257 128/260/258 136/272/250
f 128/260/258 129/259/259 136/272/250
f 129/259/259 130/258/260 136/272/250
f 130/258/260 131/257/261 136/272/250
f 131/257/261 132/256/262 136/272/250
f 132/256/262 133/255/263 136/272/250
f 133/255/263 134/270/264 136/272/250
f 134/270/264 119/269/248 136/272/250
g default
v -3241.728077 64.253365 -192.168233
v -3244.875455 64.253365 -196.878622
v -3249.585842 64.253365 -200.026006
v -3255.142123 64.253365 -201.131222
v -3260.698406 64.253365 -200.026012
v -3265.408796 64.253365 -196.878633
v -3268.556179 64.253365 -192.168246
v -3269.661395 64.253365 -186.611964
v -3268.556183 64.253365 -181.055682
v -3265.408803 64.253365 -176.345292
v -3260.698415 64.253365 -173.197909
v -3255.142133 64.253365 -172.092695
v -3249.585851 64.253365 -173.197908
v -3244.875462 64.253365 -176.345288
v -3241.728081 64.253365 -181.055677
v -3240.622867 64.253365 -186.611959
v -3241.728077 67.343816 -192.168233
v -3244.875455 67.343816 -196.878622
v -3249.585842 67.343816 -200.026006
v -3255.142123 67.343816 -201.131222
v -3260.698406 67.343816 -200.026012
v -3265.408796 67.343816 -196.878633
v -3268.556179 67.343816 -192.168246
v -3269.661395 67.343816 -186.611964
v -3268.556183 67.343816 -181.055682
v -3265.408803 67.343816 -176.345292
v -3260.698415 67.343816 -173.197909
v -3255.142133 67.343816 -172.092695
v -3249.585851 67.343816 -173.197908
v -3244.875462 67.343816 -176.345288
v -3241.728081 67.343816 -181.055677
v -3240.622867 67.343816 -186.611959
v -3255.142131 64.253365 -186.611959
v -3255.142131 67.343816 -186.611959
vt 0.901341 0.331391
vt 0.805642 0.178433
vt 0.662417 0.076230
vt 0.493471 0.040341
vt 0.324526 0.076230
vt 0.181301 0.178433
vt 0.085601 0.331390
vt 0.051995 0.511816
vt 0.085601 0.692242
vt 0.181301 0.845199
vt 0.324526 0.947402
vt 0.493471 0.983291
vt 0.662416 0.947402
vt 0.805642 0.845199
vt 0.901341 0.692242
vt 0.934947 0.511816
vt 0.160892 0.390895
vt 0.166870 0.390895
vt 0.172848 0.390895
vt 0.178827 0.390895
vt 0.184805 0.390895
vt 0.190784 0.390895
vt 0.196762 0.390895
vt 0.202741 0.390895
vt 0.208719 0.390895
vt 0.214697 0.390895
vt 0.220676 0.390895
vt 0.226654 0.390895
vt 0.232633 0.390895
vt 0.238611 0.390895
vt 0.244590 0.390895
vt 0.250568 0.390895
vt 0.256546 0.390895
vt 0.160892 0.597454
vt 0.166870 0.597454
vt 0.172848 0.597454
vt 0.178827 0.597454
vt 0.184805 0.597454
vt 0.190784 0.597454
vt 0.196762 0.597454
vt 0.202741 0.597454
vt 0.208719 0.597454
vt 0.214697 0.597454
vt 0.220676 0.597454
vt 0.226654 0.597454
vt 0.232633 0.597454
vt 0.238611 0.597454
vt 0.244590 0.597454
vt 0.250568 0.597454
vt 0.256546 0.597454
vt 0.901341 0.331391
vt 0.805642 0.178433
vt 0.662417 0.076230
vt 0.493471 0.040341
vt 0.324526 0.076230
vt 0.181301 0.178433
vt 0.085601 0.331390
vt 0.051995 0.511816
vt 0.085601 0.692242
vt 0.181301 0.845199
vt 0.324526 0.947402
vt 0.493471 0.983291
vt 0.662416 0.947402
vt 0.805642 0.845199
vt 0.901341 0.692242
vt 0.934947 0.511816
vt 0.493471 0.511816
vt 0.493471 0.511816
vn 0.923880 0.000000 -0.382683
vn 0.707107 0.000000 -0.707106
vn 0.707107 0.000000 -0.707106
vn 0.923880 0.000000 -0.382683
vn 0.382684 0.000000 -0.923879
vn 0.382684 0.000000 -0.923879
vn 0.000001 0.000000 -1.000000
vn 0.000001 0.000000 -1.000000
vn -0.382683 0.000000 -0.923880
vn -0.382683 0.000000 -0.923880
vn -0.707106 0.000000 -0.707107
vn -0.707106 0.000000 -0.707107
vn -0.923879 0.000000 -0.382684
vn -0.923879 0.000000 -0.382684
vn -1.000000 0.000000 -0.000000
vn -1.000000 0.000000 -0.000000
vn -0.923880 0.000000 0.382683
vn -0.923880 0.000000 0.382683
vn -0.707107 0.000000 0.707107
vn -0.707107 0.000000 0.707107
vn -0.382684 0.000000 0.923879
vn -0.382684 0.000000 0.923879
vn -0.000000 0.000000 1.000000
vn -0.000000 0.000000 1.000000
vn 0.382683 0.000000 0.923880
vn 0.382683 0.000000 0.923880
vn 0.707107 0.000000 0.707107
vn 0.707107 0.000000 0.707107
vn 0.923880 0.000000 0.382683
vn 0.923880 0.000000 0.382683
vn 1.000000 0.000000 0.000000
vn 1.000000 0.000000 0.000000
vn 0.000000 -1.000000 0.000000
vn 0.000000 -1.000000 0.000000
vn 0.000000 -1.000000 -0.000000
vn 0.000000 -1.000000 -0.000000
vn 0.000000 -1.000000 -0.000000
vn 0.000000 -1.000000 -0.000000
vn 0.000000 -1.000000 -0.000000
vn 0.000000 -1.000000 0.000000
vn 0.000000 -1.000000 0.000000
vn 0.000000 -1.000000 0.000000
vn 0.000000 -1.000000 0.000000
vn 0.000000 -1.000000 -0.000000
vn 0.000000 -1.000000 -0.000000
vn 0.000000 -1.000000 -0.000000
vn 0.000000 -1.000000 -0.000000
vn 0.000000 -1.000000 0.000000
vn 0.000000 -1.000000 0.000000
vn 0.000000 1.000000 0.000000
vn 0.000000 1.000000 0.000000
vn 0.000000 1.000000 0.000000
vn 0.000000 1.000000 0.000000
vn 0.000000 1.000000 0.000000
vn 0.000000 1.000000 -0.000000
vn 0.000000 1.000000 0.000000
vn 0.000000 1.000000 0.000000
vn 0.000000 1.000000 0.000000
vn 0.000000 1.000000 0.000000
vn 0.000000 1.000000 0.000000
vn 0.000000 1.000000 0.000000
vn 0.000000 1.000000 0.000000
vn 0.000000 1.000000 -0.000000
vn 0.000000 1.000000 0.000000
vn 0.000000 1.000000 0.000000
vn 0.000000 1.000000 0.000000
s 1
g pCylinder24
usemtl lambert7SG
f 137/289/265 138/290/266 154/307/267 153/306/268
f 138/290/266 139/291/269 155/308/270 154/307/267
f 139/291/269 140/292/271 156/309/272 155/308/270
f 140/292/271 141/293/273 157/310/274 156/309/272
f 141/293/273 142/294/275 158/311/276 157/310/274
f 142/294/275 143/295/277 159/312/278 158/311/276
f 143/295/277 144/296/279 160/313/280 159/312/278
f 144/296/279 145/297/281 161/314/282 160/313/280
f 145/297/281 146/298/283 162/315/284 161/314/282
f 146/298/283 147/299/285 163/316/286 162/315/284
f 147/299/285 148/300/287 164/317/288 163/316/286
f 148/300/287 149/301/289 165/318/290 164/317/288
f 149/301/289 150/302/291 166/319/292 165/318/290
f 150/302/291 151/303/293 167/320/294 166/319/292
f 151/303/293 152/304/295 168/321/296 167/320/294
f 152/304/295 137/305/265 153/322/268 168/321/296
s 2
f 138/274/297 137/273/298 169/339/299
f 139/275/300 138/274/297 169/339/299
f 140/276/301 139/275/300 169/339/299
f 141/277/302 140/276/301 169/339/299
f 142/278/303 141/277/302 169/339/299
f 143/279/304 142/278/303 169/339/299
f 144/280/305 143/279/304 169/339/299
f 145/281/306 144/280/305 169/339/299
f 146/282/307 145/281/306 169/339/299
f 147/283/308 146/282/307 169/339/299
f 148/284/309 147/283/308 169/339/299
f 149/285/310 148/284/309 169/339/299
f 150/286/311 149/285/310 169/339/299
f 151/287/312 150/286/311 169/339/299
f 152/288/313 151/287/312 169/339/299
f 137/273/298 152/288/313 169/339/299
s 3
f 153/337/314 154/336/315 170/340/316
f 154/336/315 155/335/317 170/340/316
f 155/335/317 156/334/318 170/340/316
f 156/334/318 157/333/319 170/340/316
f 157/333/319 158/332/320 170/340/316
f 158/332/320 159/331/321 170/340/316
f 159/331/321 160/330/322 170/340/316
f 160/330/322 161/329/323 170/340/316
f 161/329/323 162/328/324 170/340/316
f 162/328/324 163/327/325 170/340/316
f 163/327/325 164/326/326 170/340/316
f 164/326/326 165/325/327 170/340/316
f 165/325/327 166/324/328 170/340/316
f 166/324/328 167/323/329 170/340/316
f 167/323/329 168/338/330 170/340/316
f 168/338/330 153/337/314 170/340/316
g default
v -3273.999438 64.253365 -210.601684
v -3279.021370 64.253365 -213.223508
v -3284.664359 64.253365 -213.723948
v -3290.069311 64.253365 -212.026816
v -3294.413372 64.253365 -208.390486
v -3297.035197 64.253365 -203.368554
v -3297.535637 64.253365 -197.725564
v -3295.838504 64.253365 -192.320612
v -3292.202171 64.253365 -187.976552
v -3287.180238 64.253365 -185.354728
v -3281.537249 64.253365 -184.854289
v -3276.132297 64.253365 -186.551423
v -3271.788238 64.253365 -190.187756
v -3269.166415 64.253365 -195.209689
v -3268.665978 64.253365 -200.852679
v -3270.363112 64.253365 -206.257631
v -3273.999438 67.343816 -210.601684
v -3279.021370 67.343816 -213.223508
v -3284.664359 67.343816 -213.723948
v -3290.069311 67.343816 -212.026816
v -3294.413372 67.343816 -208.390486
v -3297.035197 67.343816 -203.368554
v -3297.535637 67.343816 -197.725564
v -3295.838504 67.343816 -192.320612
v -3292.202171 67.343816 -187.976552
v -3287.180238 67.343816 -185.354728
v -3281.537249 67.343816 -184.854289
v -3276.132297 67.343816 -186.551423
v -3271.788238 67.343816 -190.187756
v -3269.166415 67.343816 -195.209689
v -3268.665978 67.343816 -200.852679
v -3270.363112 67.343816 -206.257631
v -3283.100807 64.253365 -199.289119
v -3283.100807 67.343816 -199.289119
vt 0.901341 0.331391
vt 0.805642 0.178433
vt 0.662417 0.076230
vt 0.493471 0.040341
vt 0.324526 0.076230
vt 0.181301 0.178433
vt 0.085601 0.331390
vt 0.051995 0.511816
vt 0.085601 0.692242
vt 0.181301 0.845199
vt 0.324526 0.947402
vt 0.493471 0.983291
vt 0.662416 0.947402
vt 0.805642 0.845199
vt 0.901341 0.692242
vt 0.934947 0.511816
vt 0.160892 0.390895
vt 0.166870 0.390895
vt 0.172848 0.390895
vt 0.178827 0.390895
vt 0.184805 0.390895
vt 0.190784 0.390895
vt 0.196762 0.390895
vt 0.202741 0.390895
vt 0.208719 0.390895
vt 0.214697 0.390895
vt 0.220676 0.390895
vt 0.226654 0.390895
vt 0.232633 0.390895
vt 0.238611 0.390895
vt 0.244590 0.390895
vt 0.250568 0.390895
vt 0.256546 0.390895
vt 0.160892 0.597454
vt 0.166870 0.597454
vt 0.172848 0.597454
vt 0.178827 0.597454
vt 0.184805 0.597454
vt 0.190784 0.597454
vt 0.196762 0.597454
vt 0.202741 0.597454
vt 0.208719 0.597454
vt 0.214697 0.597454
vt 0.220676 0.597454
vt 0.226654 0.597454
vt 0.232633 0.597454
vt 0.238611 0.597454
vt 0.244590 0.597454
vt 0.250568 0.597454
vt 0.256546 0.597454
vt 0.901341 0.331391
vt 0.805642 0.178433
vt 0.662417 0.076230
vt 0.493471 0.040341
vt 0.324526 0.076230
vt 0.181301 0.178433
vt 0.085601 0.331390
vt 0.051995 0.511816
vt 0.085601 0.692242
vt 0.181301 0.845199
vt 0.324526 0.947402
vt 0.493471 0.983291
vt 0.662416 0.947402
vt 0.805642 0.845199
vt 0.901341 0.692242
vt 0.934947 0.511816
vt 0.493471 0.511816
vt 0.493471 0.511816
vn 0.626848 0.000000 -0.779142
vn 0.280967 0.000000 -0.959717
vn 0.280967 0.000000 -0.959717
vn 0.626848 0.000000 -0.779142
vn -0.107688 0.000000 -0.994185
vn -0.107688 0.000000 -0.994185
vn -0.479949 0.000000 -0.877297
vn -0.479949 0.000000 -0.877297
vn -0.779142 0.000000 -0.626848
vn -0.779142 0.000000 -0.626848
vn -0.959717 0.000000 -0.280967
vn -0.959717 0.000000 -0.280967
vn -0.994185 0.000000 0.107688
vn -0.994185 0.000000 0.107688
vn -0.877296 0.000000 0.479949
vn -0.877296 0.000000 0.479949
vn -0.626848 0.000000 0.779142
vn -0.626848 0.000000 0.779142
vn -0.280967 0.000000 0.959717
vn -0.280967 0.000000 0.959717
vn 0.107689 0.000000 0.994185
vn 0.107689 0.000000 0.994185
vn 0.479949 0.000000 0.877296
vn 0.479949 0.000000 0.877296
vn 0.779142 0.000000 0.626847
vn 0.779142 0.000000 0.626847
vn 0.959718 0.000000 0.280967
vn 0.959718 0.000000 0.280967
vn 0.994185 0.000000 -0.107689
vn 0.994185 0.000000 -0.107689
vn 0.877296 0.000000 -0.479949
vn 0.877296 0.000000 -0.479949
vn 0.000000 -1.000000 0.000000
vn 0.000000 -1.000000 0.000000
vn -0.000000 -1.000000 -0.000000
vn -0.000000 -1.000000 -0.000000
vn -0.000000 -1.000000 -0.000000
vn -0.000000 -1.000000 -0.000000
vn -0.000000 -1.000000 -0.000000
vn 0.000000 -1.000000 0.000000
vn 0.000000 -1.000000 0.000000
vn 0.000000 -1.000000 0.000000
vn 0.000000 -1.000000 0.000000
vn -0.000000 -1.000000 -0.000000
vn -0.000000 -1.000000 -0.000000
vn -0.000000 -1.000000 -0.000000
vn -0.000000 -1.000000 -0.000000
vn 0.000000 -1.000000 0.000000
vn 0.000000 -1.000000 0.000000
vn 0.000000 1.000000 0.000000
vn 0.000000 1.000000 0.000000
vn 0.000000 1.000000 0.000000
vn 0.000000 1.000000 0.000000
vn 0.000000 1.000000 0.000000
vn -0.000000 1.000000 -0.000000
vn 0.000000 1.000000 0.000000
vn 0.000000 1.000000 0.000000
vn 0.000000 1.000000 0.000000
vn 0.000000 1.000000 0.000000
vn 0.000000 1.000000 0.000000
vn 0.000000 1.000000 0.000000
vn 0.000000 1.000000 0.000000
vn -0.000000 1.000000 -0.000000
vn 0.000000 1.000000 0.000000
vn 0.000000 1.000000 0.000000
vn 0.000000 1.000000 0.000000
s 1
g pCylinder26
usemtl lambert7SG
f 171/357/331 172/358/332 188/375/333 187/374/334
f 172/358/332 173/359/335 189/376/336 188/375/333
f 173/359/335 174/360/337 190/377/338 189/376/336
f 174/360/337 175/361/339 191/378/340 190/377/338
f 175/361/339 176/362/341 192/379/342 191/378/340
f 176/362/341 177/363/343 193/380/344 192/379/342
f 177/363/343 178/364/345 194/381/346 193/380/344
f 178/364/345 179/365/347 195/382/348 194/381/346
f 179/365/347 180/366/349 196/383/350 195/382/348
f 180/366/349 181/367/351 197/384/352 196/383/350
f 181/367/351 182/368/353 198/385/354 197/384/352
f 182/368/353 183/369/355 199/386/356 198/385/354
f 183/369/355 184/370/357 200/387/358 199/386/356
f 184/370/357 185/371/359 201/388/360 200/387/358
f 185/371/359 186/372/361 202/389/362 201/388/360
f 186/372/361 171/373/331 187/390/334 202/389/362
s 2
f 172/342/363 171/341/364 203/407/365
f 173/343/366 172/342/363 203/407/365
f 174/344/367 173/343/366 203/407/365
f 175/345/368 174/344/367 203/407/365
f 176/346/369 175/345/368 203/407/365
f 177/347/370 176/346/369 203/407/365
f 178/348/371 177/347/370 203/407/365
f 179/349/372 178/348/371 203/407/365
f 180/350/373 179/349/372 203/407/365
f 181/351/374 180/350/373 203/407/365
f 182/352/375 181/351/374 203/407/365
f 183/353/376 182/352/375 203/407/365
f 184/354/377 183/353/376 203/407/365
f 185/355/378 184/354/377 203/407/365
f 186/356/379 185/355/378 203/407/365
f 171/341/364 186/356/379 203/407/365
s 3
f 187/405/380 188/404/381 204/408/382
f 188/404/381 189/403/383 204/408/382
f 189/403/383 190/402/384 204/408/382
f 190/402/384 191/401/385 204/408/382
f 191/401/385 192/400/386 204/408/382
f 192/400/386 193/399/387 204/408/382
f 193/399/387 194/398/388 204/408/382
f 194/398/388 195/397/389 204/408/382
f 195/397/389 196/396/390 204/408/382
f 196/396/390 197/395/391 204/408/382
f 197/395/391 198/394/392 204/408/382
f 198/394/392 199/393/393 204/408/382
f 199/393/393 200/392/394 204/408/382
f 200/392/394 201/391/395 204/408/382
f 201/391/395 202/406/396 204/408/382
f 202/406/396 187/405/380 204/408/382
g default
v -3273.999438 64.253365 -188.712077
v -3279.021370 64.253365 -191.333902
v -3284.664359 64.253365 -191.834342
v -3290.069311 64.253365 -190.137210
v -3294.413372 64.253365 -186.500880
v -3297.035197 64.253365 -181.478948
v -3297.535637 64.253365 -175.835958
v -3295.838504 64.253365 -170.431006
v -3292.202171 64.253365 -166.086946
v -3287.180238 64.253365 -163.465122
v -3281.537249 64.253365 -162.964683
v -3276.132297 64.253365 -164.661817
v -3271.788238 64.253365 -168.298150
v -3269.166415 64.253365 -173.320083
v -3268.665978 64.253365 -178.963073
v -3270.363112 64.253365 -184.368024
v -3273.999438 67.343816 -188.712077
v -3279.021370 67.343816 -191.333902
v -3284.664359 67.343816 -191.834342
v -3290.069311 67.343816 -190.137210
v -3294.413372 67.343816 -186.500880
v -3297.035197 67.343816 -181.478948
v -3297.535637 67.343816 -175.835958
v -3295.838504 67.343816 -170.431006
v -3292.202171 67.343816 -166.086946
v -3287.180238 67.343816 -163.465122
v -3281.537249 67.343816 -162.964683
v -3276.132297 67.343816 -164.661817
v -3271.788238 67.343816 -168.298150
v -3269.166415 67.343816 -173.320083
v -3268.665978 67.343816 -178.963073
v -3270.363112 67.343816 -184.368024
v -3283.100807 64.253365 -177.399513
v -3283.100807 67.343816 -177.399513
vt 0.901341 0.331391
vt 0.805642 0.178433
vt 0.662417 0.076230
vt 0.493471 0.040341
vt 0.324526 0.076230
vt 0.181301 0.178433
vt 0.085601 0.331390
vt 0.051995 0.511816
vt 0.085601 0.692242
vt 0.181301 0.845199
vt 0.324526 0.947402
vt 0.493471 0.983291
vt 0.662416 0.947402
vt 0.805642 0.845199
vt 0.901341 0.692242
vt 0.934947 0.511816
vt 0.160892 0.390895
vt 0.166870 0.390895
vt 0.172848 0.390895
vt 0.178827 0.390895
vt 0.184805 0.390895
vt 0.190784 0.390895
vt 0.196762 0.390895
vt 0.202741 0.390895
vt 0.208719 0.390895
vt 0.214697 0.390895
vt 0.220676 0.390895
vt 0.226654 0.390895
vt 0.232633 0.390895
vt 0.238611 0.390895
vt 0.244590 0.390895
vt 0.250568 0.390895
vt 0.256546 0.390895
vt 0.160892 0.597454
vt 0.166870 0.597454
vt 0.172848 0.597454
vt 0.178827 0.597454
vt 0.184805 0.597454
vt 0.190784 0.597454
vt 0.196762 0.597454
vt 0.202741 0.597454
vt 0.208719 0.597454
vt 0.214697 0.597454
vt 0.220676 0.597454
vt 0.226654 0.597454
vt 0.232633 0.597454
vt 0.238611 0.597454
vt 0.244590 0.597454
vt 0.250568 0.597454
vt 0.256546 0.597454
vt 0.901341 0.331391
vt 0.805642 0.178433
vt 0.662417 0.076230
vt 0.493471 0.040341
vt 0.324526 0.076230
vt 0.181301 0.178433
vt 0.085601 0.331390
vt 0.051995 0.511816
vt 0.085601 0.692242
vt 0.181301 0.845199
vt 0.324526 0.947402
vt 0.493471 0.983291
vt 0.662416 0.947402
vt 0.805642 0.845199
vt 0.901341 0.692242
vt 0.934947 0.511816
vt 0.493471 0.511816
vt 0.493471 0.511816
vn 0.626848 0.000000 -0.779142
vn 0.280967 0.000000 -0.959717
vn 0.280967 0.000000 -0.959717
vn 0.626848 0.000000 -0.779142
vn -0.107688 0.000000 -0.994185
vn -0.107688 0.000000 -0.994185
vn -0.479949 0.000000 -0.877297
vn -0.479949 0.000000 -0.877297
vn -0.779142 0.000000 -0.626848
vn -0.779142 0.000000 -0.626848
vn -0.959717 0.000000 -0.280967
vn -0.959717 0.000000 -0.280967
vn -0.994185 0.000000 0.107688
vn -0.994185 0.000000 0.107688
vn -0.877296 0.000000 0.479949
vn -0.877296 0.000000 0.479949
vn -0.626848 0.000000 0.779142
vn -0.626848 0.000000 0.779142
vn -0.280967 0.000000 0.959717
vn -0.280967 0.000000 0.959717
vn 0.107689 0.000000 0.994185
vn 0.107689 0.000000 0.994185
vn 0.479949 0.000000 0.877296
vn 0.479949 0.000000 0.877296
vn 0.779142 0.000000 0.626847
vn 0.779142 0.000000 0.626847
vn 0.959718 0.000000 0.280967
vn 0.959718 0.000000 0.280967
vn 0.994185 0.000000 -0.107689
vn 0.994185 0.000000 -0.107689
vn 0.877296 0.000000 -0.479949
vn 0.877296 0.000000 -0.479949
vn 0.000000 -1.000000 0.000000
vn 0.000000 -1.000000 0.000000
vn -0.000000 -1.000000 -0.000000
vn -0.000000 -1.000000 -0.000000
vn -0.000000 -1.000000 -0.000000
vn -0.000000 -1.000000 -0.000000
vn -0.000000 -1.000000 -0.000000
vn 0.000000 -1.000000 0.000000
vn 0.000000 -1.000000 0.000000
vn 0.000000 -1.000000 0.000000
vn 0.000000 -1.000000 0.000000
vn -0.000000 -1.000000 -0.000000
vn -0.000000 -1.000000 -0.000000
vn -0.000000 -1.000000 -0.000000
vn -0.000000 -1.000000 -0.000000
vn 0.000000 -1.000000 0.000000
vn 0.000000 -1.000000 0.000000
vn 0.000000 1.000000 0.000000
vn 0.000000 1.000000 0.000000
vn 0.000000 1.000000 0.000000
vn 0.000000 1.000000 0.000000
vn 0.000000 1.000000 0.000000
vn -0.000000 1.000000 -0.000000
vn 0.000000 1.000000 0.000000
vn 0.000000 1.000000 0.000000
vn 0.000000 1.000000 0.000000
vn 0.000000 1.000000 0.000000
vn 0.000000 1.000000 0.000000
vn 0.000000 1.000000 0.000000
vn 0.000000 1.000000 0.000000
vn -0.000000 1.000000 -0.000000
vn 0.000000 1.000000 0.000000
vn 0.000000 1.000000 0.000000
vn 0.000000 1.000000 0.000000
s 1
g pCylinder25
usemtl lambert7SG
f 205/425/397 206/426/398 222/443/399 221/442/400
f 206/426/398 207/427/401 223/444/402 222/443/399
f 207/427/401 208/428/403 224/445/404 223/444/402
f 208/428/403 209/429/405 225/446/406 224/445/404
f 209/429/405 210/430/407 226/447/408 225/446/406
f 210/430/407 211/431/409 227/448/410 226/447/408
f 211/431/409 212/432/411 228/449/412 227/448/410
f 212/432/411 213/433/413 229/450/414 228/449/412
f 213/433/413 214/434/415 230/451/416 229/450/414
f 214/434/415 215/435/417 231/452/418 230/451/416
f 215/435/417 216/436/419 232/453/420 231/452/418
f 216/436/419 217/437/421 233/454/422 232/453/420
f 217/437/421 218/438/423 234/455/424 233/454/422
f 218/438/423 219/439/425 235/456/426 234/455/424
f 219/439/425 220/440/427 236/457/428 235/456/426
f 220/440/427 205/441/397 221/458/400 236/457/428
s 2
f 206/410/429 205/409/430 237/475/431
f 207/411/432 206/410/429 237/475/431
f 208/412/433 207/411/432 237/475/431
f 209/413/434 208/412/433 237/475/431
f 210/414/435 209/413/434 237/475/431
f 211/415/436 210/414/435 237/475/431
f 212/416/437 211/415/436 237/475/431
f 213/417/438 212/416/437 237/475/431
f 214/418/439 213/417/438 237/475/431
f 215/419/440 214/418/439 237/475/431
f 216/420/441 215/419/440 237/475/431
f 217/421/442 216/420/441 237/475/431
f 218/422/443 217/421/442 237/475/431
f 219/423/444 218/422/443 237/475/431
f 220/424/445 219/423/444 237/475/431
f 205/409/430 220/424/445 237/475/431
s 3
f 221/473/446 222/472/447 238/476/448
f 222/472/447 223/471/449 238/476/448
f 223/471/449 224/470/450 238/476/448
f 224/470/450 225/469/451 238/476/448
f 225/469/451 226/468/452 238/476/448
f 226/468/452 227/467/453 238/476/448
f 227/467/453 228/466/454 238/476/448
f 228/466/454 229/465/455 238/476/448
f 229/465/455 230/464/456 238/476/448
f 230/464/456 231/463/457 238/476/448
f 231/463/457 232/462/458 238/476/448
f 232/462/458 233/461/459 238/476/448
f 233/461/459 234/460/460 238/476/448
f 234/460/460 235/459/461 238/476/448
f 235/459/461 236/474/462 238/476/448
f 236/474/462 221/473/446 238/476/448
g default
v -3273.999438 67.319410 -202.616658
v -3279.021370 67.319410 -205.238483
v -3284.664359 67.319410 -205.738923
v -3290.069311 67.319410 -204.041791
v -3294.413372 67.319410 -200.405461
v -3297.035197 67.319410 -195.383528
v -3297.535637 67.319410 -189.740539
v -3295.838504 67.319410 -184.335587
v -3292.202171 67.319410 -179.991527
v -3287.180238 67.319410 -177.369703
v -3281.537249 67.319410 -176.869264
v -3276.132297 67.319410 -178.566398
v -3271.788238 67.319410 -182.202731
v -3269.166415 67.319410 -187.224664
v -3268.665978 67.319410 -192.867654
v -3270.363112 67.319410 -198.272605
v -3273.999438 70.409861 -202.616658
v -3279.021370 70.409861 -205.238483
v -3284.664359 70.409861 -205.738923
v -3290.069311 70.409861 -204.041791
v -3294.413372 70.409861 -200.405461
v -3297.035197 70.409861 -195.383528
v -3297.535637 70.409861 -189.740539
v -3295.838504 70.409861 -184.335587
v -3292.202171 70.409861 -179.991527
v -3287.180238 70.409861 -177.369703
v -3281.537249 70.409861 -176.869264
v -3276.132297 70.409861 -178.566398
v -3271.788238 70.409861 -182.202731
v -3269.166415 70.409861 -187.224664
v -3268.665978 70.409861 -192.867654
v -3270.363112 70.409861 -198.272605
v -3283.100807 67.319410 -191.304094
v -3283.100807 70.409861 -191.304094
vt 0.901341 0.331391
vt 0.805642 0.178433
vt 0.662417 0.076230
vt 0.493471 0.040341
vt 0.324526 0.076230
vt 0.181301 0.178433
vt 0.085601 0.331390
vt 0.051995 0.511816
vt 0.085601 0.692242
vt 0.181301 0.845199
vt 0.324526 0.947402
vt 0.493471 0.983291
vt 0.662416 0.947402
vt 0.805642 0.845199
vt 0.901341 0.692242
vt 0.934947 0.511816
vt 0.160892 0.390895
vt 0.166870 0.390895
vt 0.172848 0.390895
vt 0.178827 0.390895
vt 0.184805 0.390895
vt 0.190784 0.390895
vt 0.196762 0.390895
vt 0.202741 0.390895
vt 0.208719 0.390895
vt 0.214697 0.390895
vt 0.220676 0.390895
vt 0.226654 0.390895
vt 0.232633 0.390895
vt 0.238611 0.390895
vt 0.244590 0.390895
vt 0.250568 0.390895
vt 0.256546 0.390895
vt 0.160892 0.597454
vt 0.166870 0.597454
vt 0.172848 0.597454
vt 0.178827 0.597454
vt 0.184805 0.597454
vt 0.190784 0.597454
vt 0.196762 0.597454
vt 0.202741 0.597454
vt 0.208719 0.597454
vt 0.214697 0.597454
vt 0.220676 0.597454
vt 0.226654 0.597454
vt 0.232633 0.597454
vt 0.238611 0.597454
vt 0.244590 0.597454
vt 0.250568 0.597454
vt 0.256546 0.597454
vt 0.901341 0.331391
vt 0.805642 0.178433
vt 0.662417 0.076230
vt 0.493471 0.040341
vt 0.324526 0.076230
vt 0.181301 0.178433
vt 0.085601 0.331390
vt 0.051995 0.511816
vt 0.085601 0.692242
vt 0.181301 0.845199
vt 0.324526 0.947402
vt 0.493471 0.983291
vt 0.662416 0.947402
vt 0.805642 0.845199
vt 0.901341 0.692242
vt 0.934947 0.511816
vt 0.493471 0.511816
vt 0.493471 0.511816
vn 0.626848 0.000000 -0.779142
vn 0.280967 0.000000 -0.959717
vn 0.280967 0.000000 -0.959717
vn 0.626848 0.000000 -0.779142
vn -0.107688 0.000000 -0.994185
vn -0.107688 0.000000 -0.994185
vn -0.479949 0.000000 -0.877297
vn -0.479949 0.000000 -0.877297
vn -0.779142 0.000000 -0.626848
vn -0.779142 0.000000 -0.626848
vn -0.959717 0.000000 -0.280967
vn -0.959717 0.000000 -0.280967
vn -0.994185 0.000000 0.107688
vn -0.994185 0.000000 0.107688
vn -0.877296 0.000000 0.479949
vn -0.877296 0.000000 0.479949
vn -0.626848 0.000000 0.779142
vn -0.626848 0.000000 0.779142
vn -0.280967 0.000000 0.959717
vn -0.280967 0.000000 0.959717
vn 0.107689 0.000000 0.994185
vn 0.107689 0.000000 0.994185
vn 0.479949 0.000000 0.877296
vn 0.479949 0.000000 0.877296
vn 0.779142 0.000000 0.626847
vn 0.779142 0.000000 0.626847
vn 0.959718 0.000000 0.280967
vn 0.959718 0.000000 0.280967
vn 0.994185 0.000000 -0.107689
vn 0.994185 0.000000 -0.107689
vn 0.877296 0.000000 -0.479949
vn 0.877296 0.000000 -0.479949
vn 0.000000 -1.000000 0.000000
vn 0.000000 -1.000000 0.000000
vn -0.000000 -1.000000 -0.000000
vn -0.000000 -1.000000 -0.000000
vn -0.000000 -1.000000 -0.000000
vn -0.000000 -1.000000 -0.000000
vn -0.000000 -1.000000 -0.000000
vn 0.000000 -1.000000 0.000000
vn 0.000000 -1.000000 0.000000
vn 0.000000 -1.000000 0.000000
vn 0.000000 -1.000000 0.000000
vn -0.000000 -1.000000 -0.000000
vn -0.000000 -1.000000 -0.000000
vn -0.000000 -1.000000 -0.000000
vn -0.000000 -1.000000 -0.000000
vn 0.000000 -1.000000 0.000000
vn 0.000000 -1.000000 0.000000
vn 0.000000 1.000000 0.000000
vn 0.000000 1.000000 0.000000
vn 0.000000 1.000000 0.000000
vn 0.000000 1.000000 0.000000
vn 0.000000 1.000000 0.000000
vn -0.000000 1.000000 -0.000000
vn 0.000000 1.000000 0.000000
vn 0.000000 1.000000 0.000000
vn 0.000000 1.000000 0.000000
vn 0.000000 1.000000 0.000000
vn 0.000000 1.000000 0.000000
vn 0.000000 1.000000 0.000000
vn 0.000000 1.000000 0.000000
vn -0.000000 1.000000 -0.000000
vn 0.000000 1.000000 0.000000
vn 0.000000 1.000000 0.000000
vn 0.000000 1.000000 0.000000
s 1
g pCylinder27
usemtl lambert7SG
f 239/493/463 240/494/464 256/511/465 255/510/466
f 240/494/464 241/495/467 257/512/468 256/511/465
f 241/495/467 242/496/469 258/513/470 257/512/468
f 242/496/469 243/497/471 259/514/472 258/513/470
f 243/497/471 244/498/473 260/515/474 259/514/472
f 244/498/473 245/499/475 261/516/476 260/515/474
f 245/499/475 246/500/477 262/517/478 261/516/476
f 246/500/477 247/501/479 263/518/480 262/517/478
f 247/501/479 248/502/481 264/519/482 263/518/480
f 248/502/481 249/503/483 265/520/484 264/519/482
f 249/503/483 250/504/485 266/521/486 265/520/484
f 250/504/485 251/505/487 267/522/488 266/521/486
f 251/505/487 252/506/489 268/523/490 267/522/488
f 252/506/489 253/507/491 269/524/492 268/523/490
f 253/507/491 254/508/493 270/525/494 269/524/492
f 254/508/493 239/509/463 255/526/466 270/525/494
s 2
f 240/478/495 239/477/496 271/543/497
f 241/479/498 240/478/495 271/543/497
f 242/480/499 241/479/498 271/543/497
f 243/481/500 242/480/499 271/543/497
f 244/482/501 243/481/500 271/543/497
f 245/483/502 244/482/501 271/543/497
f 246/484/503 245/483/502 271/543/497
f 247/485/504 246/484/503 271/543/497
f 248/486/505 247/485/504 271/543/497
f 249/487/506 248/486/505 271/543/497
f 250/488/507 249/487/506 271/543/497
f 251/489/508 250/488/507 271/543/497
f 252/490/509 251/489/508 271/543/497
f 253/491/510 252/490/509 271/543/497
f 254/492/511 253/491/510 271/543/497
f 239/477/496 254/492/511 271/543/497
s 3
f 255/541/512 256/540/513 272/544/514
f 256/540/513 257/539/515 272/544/514
f 257/539/515 258/538/516 272/544/514
f 258/538/516 259/537/517 272/544/514
f 259/537/517 260/536/518 272/544/514
f 260/536/518 261/535/519 272/544/514
f 261/535/519 262/534/520 272/544/514
f 262/534/520 263/533/521 272/544/514
f 263/533/521 264/532/522 272/544/514
f 264/532/522 265/531/523 272/544/514
f 265/531/523 266/530/524 272/544/514
f 266/530/524 267/529/525 272/544/514
f 267/529/525 268/528/526 272/544/514
f 268/528/526 269/527/527 272/544/514
f 269/527/527 270/542/528 272/544/514
f 270/542/528 255/541/512 272/544/514
g default
v -3251.484668 64.253365 -146.246353
v -3256.506600 64.253365 -148.868178
v -3262.149589 64.253365 -149.368618
v -3267.554541 64.253365 -147.671486
v -3271.898602 64.253365 -144.035156
v -3274.520427 64.253365 -139.013223
v -3275.020866 64.253365 -133.370234
v -3273.323733 64.253365 -127.965282
v -3269.687401 64.253365 -123.621222
v -3264.665468 64.253365 -120.999398
v -3259.022478 64.253365 -120.498959
v -3253.617527 64.253365 -122.196093
v -3249.273468 64.253365 -125.832426
v -3246.651645 64.253365 -130.854359
v -3246.151208 64.253365 -136.497348
v -3247.848341 64.253365 -141.902300
v -3251.484668 67.343816 -146.246353
v -3256.506600 67.343816 -148.868178
v -3262.149589 67.343816 -149.368618
v -3267.554541 67.343816 -147.671486
v -3271.898602 67.343816 -144.035156
v -3274.520427 67.343816 -139.013223
v -3275.020866 67.343816 -133.370234
v -3273.323733 67.343816 -127.965282
v -3269.687401 67.343816 -123.621222
v -3264.665468 67.343816 -120.999398
v -3259.022478 67.343816 -120.498959
v -3253.617527 67.343816 -122.196093
v -3249.273468 67.343816 -125.832426
v -3246.651645 67.343816 -130.854359
v -3246.151208 67.343816 -136.497348
v -3247.848341 67.343816 -141.902300
v -3260.586036 64.253365 -134.933789
v -3260.586036 67.343816 -134.933789
vt 0.901341 0.331391
vt 0.805642 0.178433
vt 0.662417 0.076230
vt 0.493471 0.040341
vt 0.324526 0.076230
vt 0.181301 0.178433
vt 0.085601 0.331390
vt 0.051995 0.511816
vt 0.085601 0.692242
vt 0.181301 0.845199
vt 0.324526 0.947402
vt 0.493471 0.983291
vt 0.662416 0.947402
vt 0.805642 0.845199
vt 0.901341 0.692242
vt 0.934947 0.511816
vt 0.160892 0.390895
vt 0.166870 0.390895
vt 0.172848 0.390895
vt 0.178827 0.390895
vt 0.184805 0.390895
vt 0.190784 0.390895
vt 0.196762 0.390895
vt 0.202741 0.390895
vt 0.208719 0.390895
vt 0.214697 0.390895
vt 0.220676 0.390895
vt 0.226654 0.390895
vt 0.232633 0.390895
vt 0.238611 0.390895
vt 0.244590 0.390895
vt 0.250568 0.390895
vt 0.256546 0.390895
vt 0.160892 0.597454
vt 0.166870 0.597454
vt 0.172848 0.597454
vt 0.178827 0.597454
vt 0.184805 0.597454
vt 0.190784 0.597454
vt 0.196762 0.597454
vt 0.202741 0.597454
vt 0.208719 0.597454
vt 0.214697 0.597454
vt 0.220676 0.597454
vt 0.226654 0.597454
vt 0.232633 0.597454
vt 0.238611 0.597454
vt 0.244590 0.597454
vt 0.250568 0.597454
vt 0.256546 0.597454
vt 0.901341 0.331391
vt 0.805642 0.178433
vt 0.662417 0.076230
vt 0.493471 0.040341
vt 0.324526 0.076230
vt 0.181301 0.178433
vt 0.085601 0.331390
vt 0.051995 0.511816
vt 0.085601 0.692242
vt 0.181301 0.845199
vt 0.324526 0.947402
vt 0.493471 0.983291
vt 0.662416 0.947402
vt 0.805642 0.845199
vt 0.901341 0.692242
vt 0.934947 0.511816
vt 0.493471 0.511816
vt 0.493471 0.511816
vn 0.626848 0.000000 -0.779142
vn 0.280967 0.000000 -0.959717
vn 0.280967 0.000000 -0.959717
vn 0.626848 0.000000 -0.779142
vn -0.107688 0.000000 -0.994185
vn -0.107688 0.000000 -0.994185
vn -0.479949 0.000000 -0.877297
vn -0.479949 0.000000 -0.877297
vn -0.779142 0.000000 -0.626848
vn -0.779142 0.000000 -0.626848
vn -0.959717 0.000000 -0.280967
vn -0.959717 0.000000 -0.280967
vn -0.994185 0.000000 0.107688
vn -0.994185 0.000000 0.107688
vn -0.877296 0.000000 0.479949
vn -0.877296 0.000000 0.479949
vn -0.626848 0.000000 0.779142
vn -0.626848 0.000000 0.779142
vn -0.280967 0.000000 0.959717
vn -0.280967 0.000000 0.959717
vn 0.107689 0.000000 0.994185
vn 0.107689 0.000000 0.994185
vn 0.479949 0.000000 0.877296
vn 0.479949 0.000000 0.877296
vn 0.779142 0.000000 0.626847
vn 0.779142 0.000000 0.626847
vn 0.959718 0.000000 0.280967
vn 0.959718 0.000000 0.280967
vn 0.994185 0.000000 -0.107689
vn 0.994185 0.000000 -0.107689
vn 0.877296 0.000000 -0.479949
vn 0.877296 0.000000 -0.479949
vn 0.000000 -1.000000 0.000000
vn 0.000000 -1.000000 0.000000
vn -0.000000 -1.000000 -0.000000
vn -0.000000 -1.000000 -0.000000
vn -0.000000 -1.000000 -0.000000
vn -0.000000 -1.000000 -0.000000
vn -0.000000 -1.000000 -0.000000
vn 0.000000 -1.000000 0.000000
vn 0.000000 -1.000000 0.000000
vn 0.000000 -1.000000 0.000000
vn 0.000000 -1.000000 0.000000
vn -0.000000 -1.000000 -0.000000
vn -0.000000 -1.000000 -0.000000
vn -0.000000 -1.000000 -0.000000
vn -0.000000 -1.000000 -0.000000
vn 0.000000 -1.000000 0.000000
vn 0.000000 -1.000000 0.000000
vn 0.000000 1.000000 0.000000
vn 0.000000 1.000000 0.000000
vn 0.000000 1.000000 0.000000
vn 0.000000 1.000000 0.000000
vn 0.000000 1.000000 0.000000
vn -0.000000 1.000000 -0.000000
vn 0.000000 1.000000 0.000000
vn 0.000000 1.000000 0.000000
vn 0.000000 1.000000 0.000000
vn 0.000000 1.000000 0.000000
vn 0.000000 1.000000 0.000000
vn 0.000000 1.000000 0.000000
vn 0.000000 1.000000 0.000000
vn -0.000000 1.000000 -0.000000
vn 0.000000 1.000000 0.000000
vn 0.000000 1.000000 0.000000
vn 0.000000 1.000000 0.000000
s 1
g pCylinder31
usemtl lambert7SG
f 273/561/529 274/562/530 290/579/531 289/578/532
f 274/562/530 275/563/533 291/580/534 290/579/531
f 275/563/533 276/564/535 292/581/536 291/580/534
f 276/564/535 277/565/537 293/582/538 292/581/536
f 277/565/537 278/566/539 294/583/540 293/582/538
f 278/566/539 279/567/541 295/584/542 294/583/540
f 279/567/541 280/568/543 296/585/544 295/584/542
f 280/568/543 281/569/545 297/586/546 296/585/544
f 281/569/545 282/570/547 298/587/548 297/586/546
f 282/570/547 283/571/549 299/588/550 298/587/548
f 283/571/549 284/572/551 300/589/552 299/588/550
f 284/572/551 285/573/553 301/590/554 300/589/552
f 285/573/553 286/574/555 302/591/556 301/590/554
f 286/574/555 287/575/557 303/592/558 302/591/556
f 287/575/557 288/576/559 304/593/560 303/592/558
f 288/576/559 273/577/529 289/594/532 304/593/560
s 2
f 274/546/561 273/545/562 305/611/563
f 275/547/564 274/546/561 305/611/563
f 276/548/565 275/547/564 305/611/563
f 277/549/566 276/548/565 305/611/563
f 278/550/567 277/549/566 305/611/563
f 279/551/568 278/550/567 305/611/563
f 280/552/569 279/551/568 305/611/563
f 281/553/570 280/552/569 305/611/563
f 282/554/571 281/553/570 305/611/563
f 283/555/572 282/554/571 305/611/563
f 284/556/573 283/555/572 305/611/563
f 285/557/574 284/556/573 305/611/563
f 286/558/575 285/557/574 305/611/563
f 287/559/576 286/558/575 305/611/563
f 288/560/577 287/559/576 305/611/563
f 273/545/562 288/560/577 305/611/563
s 3
f 289/609/578 290/608/579 306/612/580
f 290/608/579 291/607/581 306/612/580
f 291/607/581 292/606/582 306/612/580
f 292/606/582 293/605/583 306/612/580
f 293/605/583 294/604/584 306/612/580
f 294/604/584 295/603/585 306/612/580
f 295/603/585 296/602/586 306/612/580
f 296/602/586 297/601/587 306/612/580
f 297/601/587 298/600/588 306/612/580
f 298/600/588 299/599/589 306/612/580
f 299/599/589 300/598/590 306/612/580
f 300/598/590 301/597/591 306/612/580
f 301/597/591 302/596/592 306/612/580
f 302/596/592 303/595/593 306/612/580
f 303/595/593 304/610/594 306/612/580
f 304/610/594 289/609/578 306/612/580
g default
v -3252.943382 70.416428 -161.845353
v -3257.965314 70.416428 -164.467177
v -3263.608303 70.416428 -164.967618
v -3269.013256 70.416428 -163.270486
v -3273.357317 70.416428 -159.634155
v -3275.979141 70.416428 -154.612223
v -3276.479581 70.416428 -148.969234
v -3274.782448 70.416428 -143.564282
v -3271.146116 70.416428 -139.220222
v -3266.124183 70.416428 -136.598397
v -3260.481193 70.416428 -136.097959
v -3255.076241 70.416428 -137.795093
v -3250.732183 70.416428 -141.431426
v -3248.110359 70.416428 -146.453358
v -3247.609922 70.416428 -152.096348
v -3249.307056 70.416428 -157.501300
v -3252.943382 73.506878 -161.845353
v -3257.965314 73.506878 -164.467177
v -3263.608303 73.506878 -164.967618
v -3269.013256 73.506878 -163.270486
v -3273.357317 73.506878 -159.634155
v -3275.979141 73.506878 -154.612223
v -3276.479581 73.506878 -148.969234
v -3274.782448 73.506878 -143.564282
v -3271.146116 73.506878 -139.220222
v -3266.124183 73.506878 -136.598397
v -3260.481193 73.506878 -136.097959
v -3255.076241 73.506878 -137.795093
v -3250.732183 73.506878 -141.431426
v -3248.110359 73.506878 -146.453358
v -3247.609922 73.506878 -152.096348
v -3249.307056 73.506878 -157.501300
v -3262.044751 70.416428 -150.532789
v -3262.044751 73.506878 -150.532789
vt 0.901341 0.331391
vt 0.805642 0.178433
vt 0.662417 0.076230
vt 0.493471 0.040341
vt 0.324526 0.076230
vt 0.181301 0.178433
vt 0.085601 0.331390
vt 0.051995 0.511816
vt 0.085601 0.692242
vt 0.181301 0.845199
vt 0.324526 0.947402
vt 0.493471 0.983291
vt 0.662416 0.947402
vt 0.805642 0.845199
vt 0.901341 0.692242
vt 0.934947 0.511816
vt 0.160892 0.390895
vt 0.166870 0.390895
vt 0.172848 0.390895
vt 0.178827 0.390895
vt 0.184805 0.390895
vt 0.190784 0.390895
vt 0.196762 0.390895
vt 0.202741 0.390895
vt 0.208719 0.390895
vt 0.214697 0.390895
vt 0.220676 0.390895
vt 0.226654 0.390895
vt 0.232633 0.390895
vt 0.238611 0.390895
vt 0.244590 0.390895
vt 0.250568 0.390895
vt 0.256546 0.390895
vt 0.160892 0.597454
vt 0.166870 0.597454
vt 0.172848 0.597454
vt 0.178827 0.597454
vt 0.184805 0.597454
vt 0.190784 0.597454
vt 0.196762 0.597454
vt 0.202741 0.597454
vt 0.208719 0.597454
vt 0.214697 0.597454
vt 0.220676 0.597454
vt 0.226654 0.597454
vt 0.232633 0.597454
vt 0.238611 0.597454
vt 0.244590 0.597454
vt 0.250568 0.597454
vt 0.256546 0.597454
vt 0.901341 0.331391
vt 0.805642 0.178433
vt 0.662417 0.076230
vt 0.493471 0.040341
vt 0.324526 0.076230
vt 0.181301 0.178433
vt 0.085601 0.331390
vt 0.051995 0.511816
vt 0.085601 0.692242
vt 0.181301 0.845199
vt 0.324526 0.947402
vt 0.493471 0.983291
vt 0.662416 0.947402
vt 0.805642 0.845199
vt 0.901341 0.692242
vt 0.934947 0.511816
vt 0.493471 0.511816
vt 0.493471 0.511816
vn 0.626848 0.000000 -0.779142
vn 0.280967 0.000000 -0.959717
vn 0.280967 0.000000 -0.959717
vn 0.626848 0.000000 -0.779142
vn -0.107688 0.000000 -0.994185
vn -0.107688 0.000000 -0.994185
vn -0.479949 0.000000 -0.877297
vn -0.479949 0.000000 -0.877297
vn -0.779142 0.000000 -0.626848
vn -0.779142 0.000000 -0.626848
vn -0.959717 0.000000 -0.280967
vn -0.959717 0.000000 -0.280967
vn -0.994185 0.000000 0.107688
vn -0.994185 0.000000 0.107688
vn -0.877296 0.000000 0.479949
vn -0.877296 0.000000 0.479949
vn -0.626848 0.000000 0.779142
vn -0.626848 0.000000 0.779142
vn -0.280967 0.000000 0.959717
vn -0.280967 0.000000 0.959717
vn 0.107689 0.000000 0.994185
vn 0.107689 0.000000 0.994185
vn 0.479949 0.000000 0.877296
vn 0.479949 0.000000 0.877296
vn 0.779142 0.000000 0.626847
vn 0.779142 0.000000 0.626847
vn 0.959718 0.000000 0.280967
vn 0.959718 0.000000 0.280967
vn 0.994185 0.000000 -0.107689
vn 0.994185 0.000000 -0.107689
vn 0.877296 0.000000 -0.479949
vn 0.877296 0.000000 -0.479949
vn 0.000000 -1.000000 0.000000
vn 0.000000 -1.000000 0.000000
vn -0.000000 -1.000000 -0.000000
vn -0.000000 -1.000000 -0.000000
vn -0.000000 -1.000000 -0.000000
vn -0.000000 -1.000000 -0.000000
vn -0.000000 -1.000000 -0.000000
vn 0.000000 -1.000000 0.000000
vn 0.000000 -1.000000 0.000000
vn 0.000000 -1.000000 0.000000
vn 0.000000 -1.000000 0.000000
vn -0.000000 -1.000000 -0.000000
vn -0.000000 -1.000000 -0.000000
vn -0.000000 -1.000000 -0.000000
vn -0.000000 -1.000000 -0.000000
vn 0.000000 -1.000000 0.000000
vn 0.000000 -1.000000 0.000000
vn 0.000000 1.000000 0.000000
vn 0.000000 1.000000 0.000000
vn 0.000000 1.000000 0.000000
vn 0.000000 1.000000 0.000000
vn 0.000000 1.000000 0.000000
vn -0.000000 1.000000 -0.000000
vn 0.000000 1.000000 0.000000
vn 0.000000 1.000000 0.000000
vn 0.000000 1.000000 0.000000
vn 0.000000 1.000000 0.000000
vn 0.000000 1.000000 0.000000
vn 0.000000 1.000000 0.000000
vn 0.000000 1.000000 0.000000
vn -0.000000 1.000000 -0.000000
vn 0.000000 1.000000 0.000000
vn 0.000000 1.000000 0.000000
vn 0.000000 1.000000 0.000000
s 1
g pCylinder35
usemtl lambert7SG
f 307/629/595 308/630/596 324/647/597 323/646/598
f 308/630/596 309/631/599 325/648/600 324/647/597
f 309/631/599 310/632/601 326/649/602 325/648/600
f 310/632/601 311/633/603 327/650/604 326/649/602
f 311/633/603 312/634/605 328/651/606 327/650/604
f 312/634/605 313/635/607 329/652/608 328/651/606
f 313/635/607 314/636/609 330/653/610 329/652/608
f 314/636/609 315/637/611 331/654/612 330/653/610
f 315/637/611 316/638/613 332/655/614 331/654/612
f 316/638/613 317/639/615 333/656/616 332/655/614
f 317/639/615 318/640/617 334/657/618 333/656/616
f 318/640/617 319/641/619 335/658/620 334/657/618
f 319/641/619 320/642/621 336/659/622 335/658/620
f 320/642/621 321/643/623 337/660/624 336/659/622
f 321/643/623 322/644/625 338/661/626 337/660/624
f 322/644/625 307/645/595 323/662/598 338/661/626
s 2
f 308/614/627 307/613/628 339/679/629
f 309/615/630 308/614/627 339/679/629
f 310/616/631 309/615/630 339/679/629
f 311/617/632 310/616/631 339/679/629
f 312/618/633 311/617/632 339/679/629
f 313/619/634 312/618/633 339/679/629
f 314/620/635 313/619/634 339/679/629
f 315/621/636 314/620/635 339/679/629
f 316/622/637 315/621/636 339/679/629
f 317/623/638 316/622/637 339/679/629
f 318/624/639 317/623/638 339/679/629
f 319/625/640 318/624/639 339/679/629
f 320/626/641 319/625/640 339/679/629
f 321/627/642 320/626/641 339/679/629
f 322/628/643 321/627/642 339/679/629
f 307/613/628 322/628/643 339/679/629
s 3
f 323/677/644 324/676/645 340/680/646
f 324/676/645 325/675/647 340/680/646
f 325/675/647 326/674/648 340/680/646
f 326/674/648 327/673/649 340/680/646
f 327/673/649 328/672/650 340/680/646
f 328/672/650 329/671/651 340/680/646
f 329/671/651 330/670/652 340/680/646
f 330/670/652 331/669/653 340/680/646
f 331/669/653 332/668/654 340/680/646
f 332/668/654 333/667/655 340/680/646
f 333/667/655 334/666/656 340/680/646
f 334/666/656 335/665/657 340/680/646
f 335/665/657 336/664/658 340/680/646
f 336/664/658 337/663/659 340/680/646
f 337/663/659 338/678/660 340/680/646
f 338/678/660 323/677/644 340/680/646
g default
v -3241.728077 64.253365 -214.057839
v -3244.875455 64.253365 -218.768229
v -3249.585842 64.253365 -221.915612
v -3255.142123 64.253365 -223.020828
v -3260.698406 64.253365 -221.915618
v -3265.408796 64.253365 -218.768240
v -3268.556179 64.253365 -214.057852
v -3269.661395 64.253365 -208.501571
v -3268.556183 64.253365 -202.945288
v -3265.408803 64.253365 -198.234898
v -3260.698415 64.253365 -195.087516
v -3255.142133 64.253365 -193.982302
v -3249.585851 64.253365 -195.087515
v -3244.875462 64.253365 -198.234894
v -3241.728081 64.253365 -202.945283
v -3240.622867 64.253365 -208.501565
v -3241.728077 67.343816 -214.057839
v -3244.875455 67.343816 -218.768229
v -3249.585842 67.343816 -221.915612
v -3255.142123 67.343816 -223.020828
v -3260.698406 67.343816 -221.915618
v -3265.408796 67.343816 -218.768240
v -3268.556179 67.343816 -214.057852
v -3269.661395 67.343816 -208.501571
v -3268.556183 67.343816 -202.945288
v -3265.408803 67.343816 -198.234898
v -3260.698415 67.343816 -195.087516
v -3255.142133 67.343816 -193.982302
v -3249.585851 67.343816 -195.087515
v -3244.875462 67.343816 -198.234894
v -3241.728081 67.343816 -202.945283
v -3240.622867 67.343816 -208.501565
v -3255.142131 64.253365 -208.501565
v -3255.142131 67.343816 -208.501565
vt 0.901341 0.331391
vt 0.805642 0.178433
vt 0.662417 0.076230
vt 0.493471 0.040341
vt 0.324526 0.076230
vt 0.181301 0.178433
vt 0.085601 0.331390
vt 0.051995 0.511816
vt 0.085601 0.692242
vt 0.181301 0.845199
vt 0.324526 0.947402
vt 0.493471 0.983291
vt 0.662416 0.947402
vt 0.805642 0.845199
vt 0.901341 0.692242
vt 0.934947 0.511816
vt 0.160892 0.390895
vt 0.166870 0.390895
vt 0.172848 0.390895
vt 0.178827 0.390895
vt 0.184805 0.390895
vt 0.190784 0.390895
vt 0.196762 0.390895
vt 0.202741 0.390895
vt 0.208719 0.390895
vt 0.214697 0.390895
vt 0.220676 0.390895
vt 0.226654 0.390895
vt 0.232633 0.390895
vt 0.238611 0.390895
vt 0.244590 0.390895
vt 0.250568 0.390895
vt 0.256546 0.390895
vt 0.160892 0.597454
vt 0.166870 0.597454
vt 0.172848 0.597454
vt 0.178827 0.597454
vt 0.184805 0.597454
vt 0.190784 0.597454
vt 0.196762 0.597454
vt 0.202741 0.597454
vt 0.208719 0.597454
vt 0.214697 0.597454
vt 0.220676 0.597454
vt 0.226654 0.597454
vt 0.232633 0.597454
vt 0.238611 0.597454
vt 0.244590 0.597454
vt 0.250568 0.597454
vt 0.256546 0.597454
vt 0.901341 0.331391
vt 0.805642 0.178433
vt 0.662417 0.076230
vt 0.493471 0.040341
vt 0.324526 0.076230
vt 0.181301 0.178433
vt 0.085601 0.331390
vt 0.051995 0.511816
vt 0.085601 0.692242
vt 0.181301 0.845199
vt 0.324526 0.947402
vt 0.493471 0.983291
vt 0.662416 0.947402
vt 0.805642 0.845199
vt 0.901341 0.692242
vt 0.934947 0.511816
vt 0.493471 0.511816
vt 0.493471 0.511816
vn 0.923880 0.000000 -0.382683
vn 0.707107 0.000000 -0.707106
vn 0.707107 0.000000 -0.707106
vn 0.923880 0.000000 -0.382683
vn 0.382684 0.000000 -0.923879
vn 0.382684 0.000000 -0.923879
vn 0.000001 0.000000 -1.000000
vn 0.000001 0.000000 -1.000000
vn -0.382683 0.000000 -0.923880
vn -0.382683 0.000000 -0.923880
vn -0.707106 0.000000 -0.707107
vn -0.707106 0.000000 -0.707107
vn -0.923879 0.000000 -0.382684
vn -0.923879 0.000000 -0.382684
vn -1.000000 0.000000 -0.000000
vn -1.000000 0.000000 -0.000000
vn -0.923880 0.000000 0.382683
vn -0.923880 0.000000 0.382683
vn -0.707107 0.000000 0.707107
vn -0.707107 0.000000 0.707107
vn -0.382684 0.000000 0.923879
vn -0.382684 0.000000 0.923879
vn -0.000000 0.000000 1.000000
vn -0.000000 0.000000 1.000000
vn 0.382683 0.000000 0.923880
vn 0.382683 0.000000 0.923880
vn 0.707107 0.000000 0.707107
vn 0.707107 0.000000 0.707107
vn 0.923880 0.000000 0.382683
vn 0.923880 0.000000 0.382683
vn 1.000000 0.000000 0.000000
vn 1.000000 0.000000 0.000000
vn 0.000000 -1.000000 0.000000
vn 0.000000 -1.000000 0.000000
vn 0.000000 -1.000000 -0.000000
vn 0.000000 -1.000000 -0.000000
vn 0.000000 -1.000000 -0.000000
vn 0.000000 -1.000000 -0.000000
vn 0.000000 -1.000000 -0.000000
vn 0.000000 -1.000000 0.000000
vn 0.000000 -1.000000 0.000000
vn 0.000000 -1.000000 0.000000
vn 0.000000 -1.000000 0.000000
vn 0.000000 -1.000000 -0.000000
vn 0.000000 -1.000000 -0.000000
vn 0.000000 -1.000000 -0.000000
vn 0.000000 -1.000000 -0.000000
vn 0.000000 -1.000000 0.000000
vn 0.000000 -1.000000 0.000000
vn 0.000000 1.000000 0.000000
vn 0.000000 1.000000 0.000000
vn 0.000000 1.000000 0.000000
vn 0.000000 1.000000 0.000000
vn 0.000000 1.000000 0.000000
vn 0.000000 1.000000 -0.000000
vn 0.000000 1.000000 0.000000
vn 0.000000 1.000000 0.000000
vn 0.000000 1.000000 0.000000
vn 0.000000 1.000000 0.000000
vn 0.000000 1.000000 0.000000
vn 0.000000 1.000000 0.000000
vn 0.000000 1.000000 0.000000
vn 0.000000 1.000000 -0.000000
vn 0.000000 1.000000 0.000000
vn 0.000000 1.000000 0.000000
vn 0.000000 1.000000 0.000000
s 1
g pCylinder22
usemtl lambert7SG
f 341/697/661 342/698/662 358/715/663 357/714/664
f 342/698/662 343/699/665 359/716/666 358/715/663
f 343/699/665 344/700/667 360/717/668 359/716/666
f 344/700/667 345/701/669 361/718/670 360/717/668
f 345/701/669 346/702/671 362/719/672 361/718/670
f 346/702/671 347/703/673 363/720/674 362/719/672
f 347/703/673 348/704/675 364/721/676 363/720/674
f 348/704/675 349/705/677 365/722/678 364/721/676
f 349/705/677 350/706/679 366/723/680 365/722/678
f 350/706/679 351/707/681 367/724/682 366/723/680
f 351/707/681 352/708/683 368/725/684 367/724/682
f 352/708/683 353/709/685 369/726/686 368/725/684
f 353/709/685 354/710/687 370/727/688 369/726/686
f 354/710/687 355/711/689 371/728/690 370/727/688
f 355/711/689 356/712/691 372/729/692 371/728/690
f 356/712/691 341/713/661 357/730/664 372/729/692
s 2
f 342/682/693 341/681/694 373/747/695
f 343/683/696 342/682/693 373/747/695
f 344/684/697 343/683/696 373/747/695
f 345/685/698 344/684/697 373/747/695
f 346/686/699 345/685/698 373/747/695
f 347/687/700 346/686/699 373/747/695
f 348/688/701 347/687/700 373/747/695
f 349/689/702 348/688/701 373/747/695
f 350/690/703 349/689/702 373/747/695
f 351/691/704 350/690/703 373/747/695
f 352/692/705 351/691/704 373/747/695
f 353/693/706 352/692/705 373/747/695
f 354/694/707 353/693/706 373/747/695
f 355/695/708 354/694/707 373/747/695
f 356/696/709 355/695/708 373/747/695
f 341/681/694 356/696/709 373/747/695
s 3
f 357/745/710 358/744/711 374/748/712
f 358/744/711 359/743/713 374/748/712
f 359/743/713 360/742/714 374/748/712
f 360/742/714 361/741/715 374/748/712
f 361/741/715 362/740/716 374/748/712
f 362/740/716 363/739/717 374/748/712
f 363/739/717 364/738/718 374/748/712
f 364/738/718 365/737/719 374/748/712
f 365/737/719 366/736/720 374/748/712
f 366/736/720 367/735/721 374/748/712
f 367/735/721 368/734/722 374/748/712
f 368/734/722 369/733/723 374/748/712
f 369/733/723 370/732/724 374/748/712
f 370/732/724 371/731/725 374/748/712
f 371/731/725 372/746/726 374/748/712
f 372/746/726 357/745/710 374/748/712
g default
v -3250.179426 67.319410 -152.384377
v -3255.201358 67.319410 -155.006201
v -3260.844347 67.319410 -155.506641
v -3266.249299 67.319410 -153.809509
v -3270.593360 67.319410 -150.173179
v -3273.215185 67.319410 -145.151247
v -3273.715625 67.319410 -139.508257
v -3272.018492 67.319410 -134.103305
v -3268.382160 67.319410 -129.759245
v -3263.360227 67.319410 -127.137421
v -3257.717237 67.319410 -126.636982
v -3252.312285 67.319410 -128.334116
v -3247.968227 67.319410 -131.970449
v -3245.346403 67.319410 -136.992382
v -3244.845966 67.319410 -142.635372
v -3246.543100 67.319410 -148.040324
v -3250.179426 70.409861 -152.384377
v -3255.201358 70.409861 -155.006201
v -3260.844347 70.409861 -155.506641
v -3266.249299 70.409861 -153.809509
v -3270.593360 70.409861 -150.173179
v -3273.215185 70.409861 -145.151247
v -3273.715625 70.409861 -139.508257
v -3272.018492 70.409861 -134.103305
v -3268.382160 70.409861 -129.759245
v -3263.360227 70.409861 -127.137421
v -3257.717237 70.409861 -126.636982
v -3252.312285 70.409861 -128.334116
v -3247.968227 70.409861 -131.970449
v -3245.346403 70.409861 -136.992382
v -3244.845966 70.409861 -142.635372
v -3246.543100 70.409861 -148.040324
v -3259.280795 67.319410 -141.071812
v -3259.280795 70.409861 -141.071812
vt 0.901341 0.331391
vt 0.805642 0.178433
vt 0.662417 0.076230
vt 0.493471 0.040341
vt 0.324526 0.076230
vt 0.181301 0.178433
vt 0.085601 0.331390
vt 0.051995 0.511816
vt 0.085601 0.692242
vt 0.181301 0.845199
vt 0.324526 0.947402
vt 0.493471 0.983291
vt 0.662416 0.947402
vt 0.805642 0.845199
vt 0.901341 0.692242
vt 0.934947 0.511816
vt 0.160892 0.390895
vt 0.166870 0.390895
vt 0.172848 0.390895
vt 0.178827 0.390895
vt 0.184805 0.390895
vt 0.190784 0.390895
vt 0.196762 0.390895
vt 0.202741 0.390895
vt 0.208719 0.390895
vt 0.214697 0.390895
vt 0.220676 0.390895
vt 0.226654 0.390895
vt 0.232633 0.390895
vt 0.238611 0.390895
vt 0.244590 0.390895
vt 0.250568 0.390895
vt 0.256546 0.390895
vt 0.160892 0.597454
vt 0.166870 0.597454
vt 0.172848 0.597454
vt 0.178827 0.597454
vt 0.184805 0.597454
vt 0.190784 0.597454
vt 0.196762 0.597454
vt 0.202741 0.597454
vt 0.208719 0.597454
vt 0.214697 0.597454
vt 0.220676 0.597454
vt 0.226654 0.597454
vt 0.232633 0.597454
vt 0.238611 0.597454
vt 0.244590 0.597454
vt 0.250568 0.597454
vt 0.256546 0.597454
vt 0.901341 0.331391
vt 0.805642 0.178433
vt 0.662417 0.076230
vt 0.493471 0.040341
vt 0.324526 0.076230
vt 0.181301 0.178433
vt 0.085601 0.331390
vt 0.051995 0.511816
vt 0.085601 0.692242
vt 0.181301 0.845199
vt 0.324526 0.947402
vt 0.493471 0.983291
vt 0.662416 0.947402
vt 0.805642 0.845199
vt 0.901341 0.692242
vt 0.934947 0.511816
vt 0.493471 0.511816
vt 0.493471 0.511816
vn 0.626848 0.000000 -0.779142
vn 0.280967 0.000000 -0.959717
vn 0.280967 0.000000 -0.959717
vn 0.626848 0.000000 -0.779142
vn -0.107688 0.000000 -0.994185
vn -0.107688 0.000000 -0.994185
vn -0.479949 0.000000 -0.877297
vn -0.479949 0.000000 -0.877297
vn -0.779142 0.000000 -0.626848
vn -0.779142 0.000000 -0.626848
vn -0.959717 0.000000 -0.280967
vn -0.959717 0.000000 -0.280967
vn -0.994185 0.000000 0.107688
vn -0.994185 0.000000 0.107688
vn -0.877296 0.000000 0.479949
vn -0.877296 0.000000 0.479949
vn -0.626848 0.000000 0.779142
vn -0.626848 0.000000 0.779142
vn -0.280967 0.000000 0.959717
vn -0.280967 0.000000 0.959717
vn 0.107689 0.000000 0.994185
vn 0.107689 0.000000 0.994185
vn 0.479949 0.000000 0.877296
vn 0.479949 0.000000 0.877296
vn 0.779142 0.000000 0.626847
vn 0.779142 0.000000 0.626847
vn 0.959718 0.000000 0.280967
vn 0.959718 0.000000 0.280967
vn 0.994185 0.000000 -0.107689
vn 0.994185 0.000000 -0.107689
vn 0.877296 0.000000 -0.479949
vn 0.877296 0.000000 -0.479949
vn 0.000000 -1.000000 0.000000
vn 0.000000 -1.000000 0.000000
vn -0.000000 -1.000000 -0.000000
vn -0.000000 -1.000000 -0.000000
vn -0.000000 -1.000000 -0.000000
vn -0.000000 -1.000000 -0.000000
vn -0.000000 -1.000000 -0.000000
vn 0.000000 -1.000000 0.000000
vn 0.000000 -1.000000 0.000000
vn 0.000000 -1.000000 0.000000
vn 0.000000 -1.000000 0.000000
vn -0.000000 -1.000000 -0.000000
vn -0.000000 -1.000000 -0.000000
vn -0.000000 -1.000000 -0.000000
vn -0.000000 -1.000000 -0.000000
vn 0.000000 -1.000000 0.000000
vn 0.000000 -1.000000 0.000000
vn 0.000000 1.000000 0.000000
vn 0.000000 1.000000 0.000000
vn 0.000000 1.000000 0.000000
vn 0.000000 1.000000 0.000000
vn 0.000000 1.000000 0.000000
vn -0.000000 1.000000 -0.000000
vn 0.000000 1.000000 0.000000
vn 0.000000 1.000000 0.000000
vn 0.000000 1.000000 0.000000
vn 0.000000 1.000000 0.000000
vn 0.000000 1.000000 0.000000
vn 0.000000 1.000000 0.000000
vn 0.000000 1.000000 0.000000
vn -0.000000 1.000000 -0.000000
vn 0.000000 1.000000 0.000000
vn 0.000000 1.000000 0.000000
vn 0.000000 1.000000 0.000000
s 1
g pCylinder32
usemtl lambert7SG
f 375/765/727 376/766/728 392/783/729 391/782/730
f 376/766/728 377/767/731 393/784/732 392/783/729
f 377/767/731 378/768/733 394/785/734 393/784/732
f 378/768/733 379/769/735 395/786/736 394/785/734
f 379/769/735 380/770/737 396/787/738 395/786/736
f 380/770/737 381/771/739 397/788/740 396/787/738
f 381/771/739 382/772/741 398/789/742 397/788/740
f 382/772/741 383/773/743 399/790/744 398/789/742
f 383/773/743 384/774/745 400/791/746 399/790/744
f 384/774/745 385/775/747 401/792/748 400/791/746
f 385/775/747 386/776/749 402/793/750 401/792/748
f 386/776/749 387/777/751 403/794/752 402/793/750
f 387/777/751 388/778/753 404/795/754 403/794/752
f 388/778/753 389/779/755 405/796/756 404/795/754
f 389/779/755 390/780/757 406/797/758 405/796/756
f 390/780/757 375/781/727 391/798/730 406/797/758
s 2
f 376/750/759 375/749/760 407/815/761
f 377/751/762 376/750/759 407/815/761
f 378/752/763 377/751/762 407/815/761
f 379/753/764 378/752/763 407/815/761
f 380/754/765 379/753/764 407/815/761
f 381/755/766 380/754/765 407/815/761
f 382/756/767 381/755/766 407/815/761
f 383/757/768 382/756/767 407/815/761
f 384/758/769 383/757/768 407/815/761
f 385/759/770 384/758/769 407/815/761
f 386/760/771 385/759/770 407/815/761
f 387/761/772 386/760/771 407/815/761
f 388/762/773 387/761/772 407/815/761
f 389/763/774 388/762/773 407/815/761
f 390/764/775 389/763/774 407/815/761
f 375/749/760 390/764/775 407/815/761
s 3
f 391/813/776 392/812/777 408/816/778
f 392/812/777 393/811/779 408/816/778
f 393/811/779 394/810/780 408/816/778
f 394/810/780 395/809/781 408/816/778
f 395/809/781 396/808/782 408/816/778
f 396/808/782 397/807/783 408/816/778
f 397/807/783 398/806/784 408/816/778
f 398/806/784 399/805/785 408/816/778
f 399/805/785 400/804/786 408/816/778
f 400/804/786 401/803/787 408/816/778
f 401/803/787 402/802/788 408/816/778
f 402/802/788 403/801/789 408/816/778
f 403/801/789 404/800/790 408/816/778
f 404/800/790 405/799/791 408/816/778
f 405/799/791 406/814/792 408/816/778
f 406/814/792 391/813/776 408/816/778
g default
v -3241.728077 67.319410 -206.072814
v -3244.875455 67.319410 -210.783203
v -3249.585842 67.319410 -213.930586
v -3255.142123 67.319410 -215.035803
v -3260.698406 67.319410 -213.930593
v -3265.408796 67.319410 -210.783214
v -3268.556179 67.319410 -206.072827
v -3269.661395 67.319410 -200.516545
v -3268.556183 67.319410 -194.960263
v -3265.408803 67.319410 -190.249872
v -3260.698415 67.319410 -187.102490
v -3255.142133 67.319410 -185.997276
v -3249.585851 67.319410 -187.102489
v -3244.875462 67.319410 -190.249869
v -3241.728081 67.319410 -194.960258
v -3240.622867 67.319410 -200.516540
v -3241.728077 70.409861 -206.072814
v -3244.875455 70.409861 -210.783203
v -3249.585842 70.409861 -213.930586
v -3255.142123 70.409861 -215.035803
v -3260.698406 70.409861 -213.930593
v -3265.408796 70.409861 -210.783214
v -3268.556179 70.409861 -206.072827
v -3269.661395 70.409861 -200.516545
v -3268.556183 70.409861 -194.960263
v -3265.408803 70.409861 -190.249872
v -3260.698415 70.409861 -187.102490
v -3255.142133 70.409861 -185.997276
v -3249.585851 70.409861 -187.102489
v -3244.875462 70.409861 -190.249869
v -3241.728081 70.409861 -194.960258
v -3240.622867 70.409861 -200.516540
v -3255.142131 67.319410 -200.516540
v -3255.142131 70.409861 -200.516540
vt 0.901341 0.331391
vt 0.805642 0.178433
vt 0.662417 0.076230
vt 0.493471 0.040341
vt 0.324526 0.076230
vt 0.181301 0.178433
vt 0.085601 0.331390
vt 0.051995 0.511816
vt 0.085601 0.692242
vt 0.181301 0.845199
vt 0.324526 0.947402
vt 0.493471 0.983291
vt 0.662416 0.947402
vt 0.805642 0.845199
vt 0.901341 0.692242
vt 0.934947 0.511816
vt 0.160892 0.390895
vt 0.166870 0.390895
vt 0.172848 0.390895
vt 0.178827 0.390895
vt 0.184805 0.390895
vt 0.190784 0.390895
vt 0.196762 0.390895
vt 0.202741 0.390895
vt 0.208719 0.390895
vt 0.214697 0.390895
vt 0.220676 0.390895
vt 0.226654 0.390895
vt 0.232633 0.390895
vt 0.238611 0.390895
vt 0.244590 0.390895
vt 0.250568 0.390895
vt 0.256546 0.390895
vt 0.160892 0.597454
vt 0.166870 0.597454
vt 0.172848 0.597454
vt 0.178827 0.597454
vt 0.184805 0.597454
vt 0.190784 0.597454
vt 0.196762 0.597454
vt 0.202741 0.597454
vt 0.208719 0.597454
vt 0.214697 0.597454
vt 0.220676 0.597454
vt 0.226654 0.597454
vt 0.232633 0.597454
vt 0.238611 0.597454
vt 0.244590 0.597454
vt 0.250568 0.597454
vt 0.256546 0.597454
vt 0.901341 0.331391
vt 0.805642 0.178433
vt 0.662417 0.076230
vt 0.493471 0.040341
vt 0.324526 0.076230
vt 0.181301 0.178433
vt 0.085601 0.331390
vt 0.051995 0.511816
vt 0.085601 0.692242
vt 0.181301 0.845199
vt 0.324526 0.947402
vt 0.493471 0.983291
vt 0.662416 0.947402
vt 0.805642 0.845199
vt 0.901341 0.692242
vt 0.934947 0.511816
vt 0.493471 0.511816
vt 0.493471 0.511816
vn 0.923880 0.000000 -0.382683
vn 0.707107 0.000000 -0.707106
vn 0.707107 0.000000 -0.707106
vn 0.923880 0.000000 -0.382683
vn 0.382684 0.000000 -0.923879
vn 0.382684 0.000000 -0.923879
vn 0.000001 0.000000 -1.000000
vn 0.000001 0.000000 -1.000000
vn -0.382683 0.000000 -0.923880
vn -0.382683 0.000000 -0.923880
vn -0.707106 0.000000 -0.707107
vn -0.707106 0.000000 -0.707107
vn -0.923879 0.000000 -0.382684
vn -0.923879 0.000000 -0.382684
vn -1.000000 0.000000 -0.000000
vn -1.000000 0.000000 -0.000000
vn -0.923880 0.000000 0.382683
vn -0.923880 0.000000 0.382683
vn -0.707107 0.000000 0.707107
vn -0.707107 0.000000 0.707107
vn -0.382684 0.000000 0.923879
vn -0.382684 0.000000 0.923879
vn -0.000000 0.000000 1.000000
vn -0.000000 0.000000 1.000000
vn 0.382683 0.000000 0.923880
vn 0.382683 0.000000 0.923880
vn 0.707107 0.000000 0.707107
vn 0.707107 0.000000 0.707107
vn 0.923880 0.000000 0.382683
vn 0.923880 0.000000 0.382683
vn 1.000000 0.000000 0.000000
vn 1.000000 0.000000 0.000000
vn 0.000000 -1.000000 0.000000
vn 0.000000 -1.000000 0.000000
vn 0.000000 -1.000000 -0.000000
vn 0.000000 -1.000000 -0.000000
vn 0.000000 -1.000000 -0.000000
vn 0.000000 -1.000000 -0.000000
vn 0.000000 -1.000000 -0.000000
vn 0.000000 -1.000000 0.000000
vn 0.000000 -1.000000 0.000000
vn 0.000000 -1.000000 0.000000
vn 0.000000 -1.000000 0.000000
vn 0.000000 -1.000000 -0.000000
vn 0.000000 -1.000000 -0.000000
vn 0.000000 -1.000000 -0.000000
vn 0.000000 -1.000000 -0.000000
vn 0.000000 -1.000000 0.000000
vn 0.000000 -1.000000 0.000000
vn 0.000000 1.000000 0.000000
vn 0.000000 1.000000 0.000000
vn 0.000000 1.000000 0.000000
vn 0.000000 1.000000 0.000000
vn 0.000000 1.000000 0.000000
vn 0.000000 1.000000 -0.000000
vn 0.000000 1.000000 0.000000
vn 0.000000 1.000000 0.000000
vn 0.000000 1.000000 0.000000
vn 0.000000 1.000000 0.000000
vn 0.000000 1.000000 0.000000
vn 0.000000 1.000000 0.000000
vn 0.000000 1.000000 0.000000
vn 0.000000 1.000000 -0.000000
vn 0.000000 1.000000 0.000000
vn 0.000000 1.000000 0.000000
vn 0.000000 1.000000 0.000000
s 1
g pCylinder23
usemtl lambert7SG
f 409/833/793 410/834/794 426/851/795 425/850/796
f 410/834/794 411/835/797 427/852/798 426/851/795
f 411/835/797 412/836/799 428/853/800 427/852/798
f 412/836/799 413/837/801 429/854/802 428/853/800
f 413/837/801 414/838/803 430/855/804 429/854/802
f 414/838/803 415/839/805 431/856/806 430/855/804
f 415/839/805 416/840/807 432/857/808 431/856/806
f 416/840/807 417/841/809 433/858/810 432/857/808
f 417/841/809 418/842/811 434/859/812 433/858/810
f 418/842/811 419/843/813 435/860/814 434/859/812
f 419/843/813 420/844/815 436/861/816 435/860/814
f 420/844/815 421/845/817 437/862/818 436/861/816
f 421/845/817 422/846/819 438/863/820 437/862/818
f 422/846/819 423/847/821 439/864/822 438/863/820
f 423/847/821 424/848/823 440/865/824 439/864/822
f 424/848/823 409/849/793 425/866/796 440/865/824
s 2
f 410/818/825 409/817/826 441/883/827
f 411/819/828 410/818/825 441/883/827
f 412/820/829 411/819/828 441/883/827
f 413/821/830 412/820/829 441/883/827
f 414/822/831 413/821/830 441/883/827
f 415/823/832 414/822/831 441/883/827
f 416/824/833 415/823/832 441/883/827
f 417/825/834 416/824/833 441/883/827
f 418/826/835 417/825/834 441/883/827
f 419/827/836 418/826/835 441/883/827
f 420/828/837 419/827/836 441/883/827
f 421/829/838 420/828/837 441/883/827
f 422/830/839 421/829/838 441/883/827
f 423/831/840 422/830/839 441/883/827
f 424/832/841 423/831/840 441/883/827
f 409/817/826 424/832/841 441/883/827
s 3
f 425/881/842 426/880/843 442/884/844
f 426/880/843 427/879/845 442/884/844
f 427/879/845 428/878/846 442/884/844
f 428/878/846 429/877/847 442/884/844
f 429/877/847 430/876/848 442/884/844
f 430/876/848 431/875/849 442/884/844
f 431/875/849 432/874/850 442/884/844
f 432/874/850 433/873/851 442/884/844
f 433/873/851 434/872/852 442/884/844
f 434/872/852 435/871/853 442/884/844
f 435/871/853 436/870/854 442/884/844
f 436/870/854 437/869/855 442/884/844
f 437/869/855 438/868/856 442/884/844
f 438/868/856 439/867/857 442/884/844
f 439/867/857 440/882/858 442/884/844
f 440/882/858 425/881/842 442/884/844
g default
v -3269.559171 67.319410 -174.490146
v -3274.581103 67.319410 -177.111970
v -3280.224092 67.319410 -177.612410
v -3285.629044 67.319410 -175.915279
v -3289.973105 67.319410 -172.278948
v -3292.594930 67.319410 -167.257016
v -3293.095369 67.319410 -161.614027
v -3291.398236 67.319410 -156.209074
v -3287.761904 67.319410 -151.865015
v -3282.739971 67.319410 -149.243190
v -3277.096981 67.319410 -148.742752
v -3271.692030 67.319410 -150.439886
v -3267.347971 67.319410 -154.076219
v -3264.726148 67.319410 -159.098151
v -3264.225710 67.319410 -164.741141
v -3265.922844 67.319410 -170.146093
v -3269.559171 70.409861 -174.490146
v -3274.581103 70.409861 -177.111970
v -3280.224092 70.409861 -177.612410
v -3285.629044 70.409861 -175.915279
v -3289.973105 70.409861 -172.278948
v -3292.594930 70.409861 -167.257016
v -3293.095369 70.409861 -161.614027
v -3291.398236 70.409861 -156.209074
v -3287.761904 70.409861 -151.865015
v -3282.739971 70.409861 -149.243190
v -3277.096981 70.409861 -148.742752
v -3271.692030 70.409861 -150.439886
v -3267.347971 70.409861 -154.076219
v -3264.726148 70.409861 -159.098151
v -3264.225710 70.409861 -164.741141
v -3265.922844 70.409861 -170.146093
v -3278.660539 67.319410 -163.177581
v -3278.660539 70.409861 -163.177581
vt 0.901341 0.331391
vt 0.805642 0.178433
vt 0.662417 0.076230
vt 0.493471 0.040341
vt 0.324526 0.076230
vt 0.181301 0.178433
vt 0.085601 0.331390
vt 0.051995 0.511816
vt 0.085601 0.692242
vt 0.181301 0.845199
vt 0.324526 0.947402
vt 0.493471 0.983291
vt 0.662416 0.947402
vt 0.805642 0.845199
vt 0.901341 0.692242
vt 0.934947 0.511816
vt 0.160892 0.390895
vt 0.166870 0.390895
vt 0.172848 0.390895
vt 0.178827 0.390895
vt 0.184805 0.390895
vt 0.190784 0.390895
vt 0.196762 0.390895
vt 0.202741 0.390895
vt 0.208719 0.390895
vt 0.214697 0.390895
vt 0.220676 0.390895
vt 0.226654 0.390895
vt 0.232633 0.390895
vt 0.238611 0.390895
vt 0.244590 0.390895
vt 0.250568 0.390895
vt 0.256546 0.390895
vt 0.160892 0.597454
vt 0.166870 0.597454
vt 0.172848 0.597454
vt 0.178827 0.597454
vt 0.184805 0.597454
vt 0.190784 0.597454
vt 0.196762 0.597454
vt 0.202741 0.597454
vt 0.208719 0.597454
vt 0.214697 0.597454
vt 0.220676 0.597454
vt 0.226654 0.597454
vt 0.232633 0.597454
vt 0.238611 0.597454
vt 0.244590 0.597454
vt 0.250568 0.597454
vt 0.256546 0.597454
vt 0.901341 0.331391
vt 0.805642 0.178433
vt 0.662417 0.076230
vt 0.493471 0.040341
vt 0.324526 0.076230
vt 0.181301 0.178433
vt 0.085601 0.331390
vt 0.051995 0.511816
vt 0.085601 0.692242
vt 0.181301 0.845199
vt 0.324526 0.947402
vt 0.493471 0.983291
vt 0.662416 0.947402
vt 0.805642 0.845199
vt 0.901341 0.692242
vt 0.934947 0.511816
vt 0.493471 0.511816
vt 0.493471 0.511816
vn 0.626848 0.000000 -0.779142
vn 0.280967 0.000000 -0.959717
vn 0.280967 0.000000 -0.959717
vn 0.626848 0.000000 -0.779142
vn -0.107688 0.000000 -0.994185
vn -0.107688 0.000000 -0.994185
vn -0.479949 0.000000 -0.877297
vn -0.479949 0.000000 -0.877297
vn -0.779142 0.000000 -0.626848
vn -0.779142 0.000000 -0.626848
vn -0.959717 0.000000 -0.280967
vn -0.959717 0.000000 -0.280967
vn -0.994185 0.000000 0.107688
vn -0.994185 0.000000 0.107688
vn -0.877296 0.000000 0.479949
vn -0.877296 0.000000 0.479949
vn -0.626848 0.000000 0.779142
vn -0.626848 0.000000 0.779142
vn -0.280967 0.000000 0.959717
vn -0.280967 0.000000 0.959717
vn 0.107689 0.000000 0.994185
vn 0.107689 0.000000 0.994185
vn 0.479949 0.000000 0.877296
vn 0.479949 0.000000 0.877296
vn 0.779142 0.000000 0.626847
vn 0.779142 0.000000 0.626847
vn 0.959718 0.000000 0.280967
vn 0.959718 0.000000 0.280967
vn 0.994185 0.000000 -0.107689
vn 0.994185 0.000000 -0.107689
vn 0.877296 0.000000 -0.479949
vn 0.877296 0.000000 -0.479949
vn 0.000000 -1.000000 0.000000
vn 0.000000 -1.000000 0.000000
vn -0.000000 -1.000000 -0.000000
vn -0.000000 -1.000000 -0.000000
vn -0.000000 -1.000000 -0.000000
vn -0.000000 -1.000000 -0.000000
vn -0.000000 -1.000000 -0.000000
vn 0.000000 -1.000000 0.000000
vn 0.000000 -1.000000 0.000000
vn 0.000000 -1.000000 0.000000
vn 0.000000 -1.000000 0.000000
vn -0.000000 -1.000000 -0.000000
vn -0.000000 -1.000000 -0.000000
vn -0.000000 -1.000000 -0.000000
vn -0.000000 -1.000000 -0.000000
vn 0.000000 -1.000000 0.000000
vn 0.000000 -1.000000 0.000000
vn 0.000000 1.000000 0.000000
vn 0.000000 1.000000 0.000000
vn 0.000000 1.000000 0.000000
vn 0.000000 1.000000 0.000000
vn 0.000000 1.000000 0.000000
vn -0.000000 1.000000 -0.000000
vn 0.000000 1.000000 0.000000
vn 0.000000 1.000000 0.000000
vn 0.000000 1.000000 0.000000
vn 0.000000 1.000000 0.000000
vn 0.000000 1.000000 0.000000
vn 0.000000 1.000000 0.000000
vn 0.000000 1.000000 0.000000
vn -0.000000 1.000000 -0.000000
vn 0.000000 1.000000 0.000000
vn 0.000000 1.000000 0.000000
vn 0.000000 1.000000 0.000000
s 1
g pCylinder33
usemtl lambert7SG
f 443/901/859 444/902/860 460/919/861 459/918/862
f 444/902/860 445/903/863 461/920/864 460/919/861
f 445/903/863 446/904/865 462/921/866 461/920/864
f 446/904/865 447/905/867 463/922/868 462/921/866
f 447/905/867 448/906/869 464/923/870 463/922/868
f 448/906/869 449/907/871 465/924/872 464/923/870
f 449/907/871 450/908/873 466/925/874 465/924/872
f 450/908/873 451/909/875 467/926/876 466/925/874
f 451/909/875 452/910/877 468/927/878 467/926/876
f 452/910/877 453/911/879 469/928/880 468/927/878
f 453/911/879 454/912/881 470/929/882 469/928/880
f 454/912/881 455/913/883 471/930/884 470/929/882
f 455/913/883 456/914/885 472/931/886 471/930/884
f 456/914/885 457/915/887 473/932/888 472/931/886
f 457/915/887 458/916/889 474/933/890 473/932/888
f 458/916/889 443/917/859 459/934/862 474/933/890
s 2
f 444/886/891 443/885/892 475/951/893
f 445/887/894 444/886/891 475/951/893
f 446/888/895 445/887/894 475/951/893
f 447/889/896 446/888/895 475/951/893
f 448/890/897 447/889/896 475/951/893
f 449/891/898 448/890/897 475/951/893
f 450/892/899 449/891/898 475/951/893
f 451/893/900 450/892/899 475/951/893
f 452/894/901 451/893/900 475/951/893
f 453/895/902 452/894/901 475/951/893
f 454/896/903 453/895/902 475/951/893
f 455/897/904 454/896/903 475/951/893
f 456/898/905 455/897/904 475/951/893
f 457/899/906 456/898/905 475/951/893
f 458/900/907 457/899/906 475/951/893
f 443/885/892 458/900/907 475/951/893
s 3
f 459/949/908 460/948/909 476/952/910
f 460/948/909 461/947/911 476/952/910
f 461/947/911 462/946/912 476/952/910
f 462/946/912 463/945/913 476/952/910
f 463/945/913 464/944/914 476/952/910
f 464/944/914 465/943/915 476/952/910
f 465/943/915 466/942/916 476/952/910
f 466/942/916 467/941/917 476/952/910
f 467/941/917 468/940/918 476/952/910
f 468/940/918 469/939/919 476/952/910
f 469/939/919 470/938/920 476/952/910
f 470/938/920 471/937/921 476/952/910
f 471/937/921 472/936/922 476/952/910
f 472/936/922 473/935/923 476/952/910
f 473/935/923 474/950/924 476/952/910
f 474/950/924 459/949/908 476/952/910
