# This file uses meters as units for non-parametric coordinates.

mtllib potion1.mtl
g default
v -3627.322197 92.349181 27.682466
v -3628.744594 92.349181 25.553441
v -3630.873591 92.349181 24.130867
v -3633.384960 92.349181 23.631329
v -3635.896657 92.349181 24.130867
v -3638.025654 92.349181 25.553434
v -3639.447723 92.349181 27.682464
v -3639.947697 92.349181 30.193817
v -3639.447723 92.349181 32.705170
v -3638.025654 92.349181 34.834198
v -3635.896657 92.349181 36.256767
v -3633.384960 92.349181 36.756310
v -3630.873591 92.349181 36.256767
v -3628.744594 92.349181 34.834198
v -3627.322197 92.349181 32.705173
v -3626.822551 92.349181 30.193817
v -3621.492011 94.263402 25.267625
v -3624.282275 94.263402 21.091393
v -3628.458801 94.263402 18.300922
v -3633.384960 94.263402 17.321038
v -3638.311447 94.263402 18.300909
v -3642.487316 94.263402 21.091377
v -3645.278237 94.263402 25.267612
v -3646.257819 94.263402 30.193809
v -3645.278237 94.263402 35.120015
v -3642.487316 94.263402 39.296251
v -3638.311447 94.263402 42.086720
v -3633.384960 94.263402 43.066607
v -3628.458801 94.263402 42.086727
v -3624.282275 94.263402 39.296253
v -3621.492011 94.263402 35.120022
v -3620.512429 94.263402 30.193817
v -3616.119095 97.371909 23.042098
v -3620.170134 97.371909 16.979149
v -3626.233226 97.371909 12.928010
v -3633.384960 97.371909 11.505426
v -3640.537023 97.371909 12.927992
v -3646.599785 97.371909 16.979134
v -3650.650825 97.371909 23.042083
v -3652.073222 97.371909 30.193809
v -3650.650825 97.371909 37.345551
v -3646.599785 97.371909 43.408502
v -3640.537023 97.371909 47.459639
v -3633.384960 97.371909 48.882211
v -3626.233226 97.371909 47.459639
v -3620.170134 97.371909 43.408507
v -3616.119095 97.371909 37.345559
v -3614.697026 97.371909 30.193817
v -3611.410073 101.555231 21.091396
v -3616.566181 101.555231 13.374718
v -3624.282275 101.555231 8.218599
v -3633.384960 101.555231 6.408017
v -3642.487316 101.555231 8.218597
v -3650.204068 101.555231 13.374704
v -3655.360175 101.555231 21.091377
v -3657.170857 101.555231 30.193809
v -3655.360175 101.555231 39.296243
v -3650.204068 101.555231 47.012922
v -3642.487316 101.555231 52.169045
v -3633.384960 101.555231 53.979630
v -3624.282275 101.555231 52.169045
v -3616.566181 101.555231 47.012922
v -3611.410073 101.555231 39.296251
v -3609.599062 101.555231 30.193817
v -3607.544963 106.652671 19.490512
v -3613.607726 106.652671 10.416652
v -3622.681832 106.652671 4.353695
v -3633.384960 106.652671 2.224662
v -3644.088417 106.652671 4.353679
v -3653.161865 106.652671 10.416629
v -3659.225285 106.652671 19.490478
v -3661.353953 106.652671 30.193807
v -3659.225285 106.652671 40.897140
v -3653.161865 106.652671 49.970992
v -3644.088417 106.652671 56.033945
v -3633.384960 106.652671 58.162972
v -3622.681832 106.652671 56.033945
v -3613.607726 106.652671 49.970992
v -3607.544963 106.652671 40.897156
v -3605.415966 106.652671 30.193817
v -3604.672903 112.468249 18.300938
v -3611.410073 112.468249 8.218612
v -3621.492011 112.468249 1.481815
v -3633.384960 112.468249 -0.883837
v -3645.278237 112.468249 1.481807
v -3655.360175 112.468249 8.218597
v -3662.097345 112.468249 18.300906
v -3664.462860 112.468249 30.193807
v -3662.097345 112.468249 42.086712
v -3655.360175 112.468249 52.169035
v -3645.278237 112.468249 58.905825
v -3633.384960 112.468249 61.271469
v -3621.492011 112.468249 58.905830
v -3611.410073 112.468249 52.169045
v -3604.672903 112.468249 42.086720
v -3602.307388 112.468249 30.193817
v -3603.065890 118.778535 17.635148
v -3610.179847 118.778535 6.988404
v -3620.826145 118.778535 -0.125527
v -3633.384960 118.778535 -2.623610
v -3645.944103 118.778535 -0.125540
v -3656.590401 118.778535 6.988379
v -3663.704358 118.778535 17.635121
v -3666.202587 118.778535 30.193807
v -3663.704358 118.778535 42.752503
v -3656.590401 118.778535 53.399230
v -3645.944103 118.778535 60.513177
v -3633.384960 118.778535 63.011247
v -3620.826145 118.778535 60.513177
v -3610.179847 118.778535 53.399240
v -3603.065890 118.778535 42.752503
v -3600.567333 118.778535 30.193817
v -3602.548834 125.341056 17.421048
v -3609.784335 125.341056 6.592797
v -3620.612293 125.341056 -0.642411
v -3633.384960 125.341056 -3.183081
v -3646.157955 125.341056 -0.642424
v -3656.985913 125.341056 6.592774
v -3664.221414 125.341056 17.421017
v -3666.761691 125.341056 30.193807
v -3664.221414 125.341056 42.966594
v -3656.985913 125.341056 53.794845
v -3646.157955 125.341056 61.030053
v -3633.384960 125.341056 63.570725
v -3620.612293 125.341056 61.030059
v -3609.784335 125.341056 53.794855
v -3602.548834 125.341056 42.966607
v -3600.008229 125.341056 30.193817
v -3603.373036 131.903547 17.762547
v -3610.415052 131.903547 7.223809
v -3620.953603 131.903547 0.182050
v -3633.384960 131.903547 -2.290697
v -3645.816646 131.903547 0.182029
v -3656.355196 131.903547 7.223783
v -3663.397212 131.903547 17.762518
v -3665.869818 131.903547 30.193807
v -3663.397212 131.903547 42.625092
v -3656.355196 131.903547 53.163836
v -3645.816646 131.903547 60.205600
v -3633.384960 131.903547 62.678339
v -3620.953603 131.903547 60.205600
v -3610.415052 131.903547 53.163841
v -3603.373036 131.903547 42.625103
v -3600.900430 131.903547 30.193817
v -3633.384960 91.702810 30.193817
v -3633.384303 131.903537 30.193815
vt 0.000000 0.062500
vt 0.062500 0.062500
vt 0.125000 0.062500
vt 0.187500 0.062500
vt 0.250000 0.062500
vt 0.312500 0.062500
vt 0.375000 0.062500
vt 0.437500 0.062500
vt 0.500000 0.062500
vt 0.562500 0.062500
vt 0.625000 0.062500
vt 0.687500 0.062500
vt 0.750000 0.062500
vt 0.812500 0.062500
vt 0.875000 0.062500
vt 0.937500 0.062500
vt 1.000000 0.062500
vt 0.000000 0.125000
vt 0.062500 0.125000
vt 0.125000 0.125000
vt 0.187500 0.125000
vt 0.250000 0.125000
vt 0.312500 0.125000
vt 0.375000 0.125000
vt 0.437500 0.125000
vt 0.500000 0.125000
vt 0.562500 0.125000
vt 0.625000 0.125000
vt 0.687500 0.125000
vt 0.750000 0.125000
vt 0.812500 0.125000
vt 0.875000 0.125000
vt 0.937500 0.125000
vt 1.000000 0.125000
vt 0.000000 0.187500
vt 0.062500 0.187500
vt 0.125000 0.187500
vt 0.187500 0.187500
vt 0.250000 0.187500
vt 0.312500 0.187500
vt 0.375000 0.187500
vt 0.437500 0.187500
vt 0.500000 0.187500
vt 0.562500 0.187500
vt 0.625000 0.187500
vt 0.687500 0.187500
vt 0.750000 0.187500
vt 0.812500 0.187500
vt 0.875000 0.187500
vt 0.937500 0.187500
vt 1.000000 0.187500
vt 0.000000 0.250000
vt 0.062500 0.250000
vt 0.125000 0.250000
vt 0.187500 0.250000
vt 0.250000 0.250000
vt 0.312500 0.250000
vt 0.375000 0.250000
vt 0.437500 0.250000
vt 0.500000 0.250000
vt 0.562500 0.250000
vt 0.625000 0.250000
vt 0.687500 0.250000
vt 0.750000 0.250000
vt 0.812500 0.250000
vt 0.875000 0.250000
vt 0.937500 0.250000
vt 1.000000 0.250000
vt 0.000000 0.312500
vt 0.062500 0.312500
vt 0.125000 0.312500
vt 0.187500 0.312500
vt 0.250000 0.312500
vt 0.312500 0.312500
vt 0.375000 0.312500
vt 0.437500 0.312500
vt 0.500000 0.312500
vt 0.562500 0.312500
vt 0.625000 0.312500
vt 0.687500 0.312500
vt 0.750000 0.312500
vt 0.812500 0.312500
vt 0.875000 0.312500
vt 0.937500 0.312500
vt 1.000000 0.312500
vt 0.000000 0.375000
vt 0.062500 0.375000
vt 0.125000 0.375000
vt 0.187500 0.375000
vt 0.250000 0.375000
vt 0.312500 0.375000
vt 0.375000 0.375000
vt 0.437500 0.375000
vt 0.500000 0.375000
vt 0.562500 0.375000
vt 0.625000 0.375000
vt 0.687500 0.375000
vt 0.750000 0.375000
vt 0.812500 0.375000
vt 0.875000 0.375000
vt 0.937500 0.375000
vt 1.000000 0.375000
vt 0.000000 0.437500
vt 0.062500 0.437500
vt 0.125000 0.437500
vt 0.187500 0.437500
vt 0.250000 0.437500
vt 0.312500 0.437500
vt 0.375000 0.437500
vt 0.437500 0.437500
vt 0.500000 0.437500
vt 0.562500 0.437500
vt 0.625000 0.437500
vt 0.687500 0.437500
vt 0.750000 0.437500
vt 0.812500 0.437500
vt 0.875000 0.437500
vt 0.937500 0.437500
vt 1.000000 0.437500
vt 0.000000 0.500000
vt 0.062500 0.500000
vt 0.125000 0.500000
vt 0.187500 0.500000
vt 0.250000 0.500000
vt 0.312500 0.500000
vt 0.375000 0.500000
vt 0.437500 0.500000
vt 0.500000 0.500000
vt 0.562500 0.500000
vt 0.625000 0.500000
vt 0.687500 0.500000
vt 0.750000 0.500000
vt 0.812500 0.500000
vt 0.875000 0.500000
vt 0.937500 0.500000
vt 1.000000 0.500000
vt 0.000000 0.562500
vt 0.062500 0.562500
vt 0.125000 0.562500
vt 0.187500 0.562500
vt 0.250000 0.562500
vt 0.312500 0.562500
vt 0.375000 0.562500
vt 0.437500 0.562500
vt 0.500000 0.562500
vt 0.562500 0.562500
vt 0.625000 0.562500
vt 0.687500 0.562500
vt 0.750000 0.562500
vt 0.812500 0.562500
vt 0.875000 0.562500
vt 0.937500 0.562500
vt 1.000000 0.562500
vt 0.031250 0.000000
vt 0.093750 0.000000
vt 0.156250 0.000000
vt 0.218750 0.000000
vt 0.281250 0.000000
vt 0.343750 0.000000
vt 0.406250 0.000000
vt 0.468750 0.000000
vt 0.531250 0.000000
vt 0.593750 0.000000
vt 0.656250 0.000000
vt 0.718750 0.000000
vt 0.781250 0.000000
vt 0.843750 0.000000
vt 0.906250 0.000000
vt 0.968750 0.000000
vt 0.312500 0.562500
vn 0.231817 -0.968010 -0.096013
vn 0.177425 -0.968009 -0.177422
vn 0.292546 -0.910403 -0.292546
vn 0.382237 -0.910403 -0.158309
vn 0.096021 -0.968008 -0.231818
vn 0.158322 -0.910403 -0.382231
vn 0.000000 -0.968009 -0.250917
vn 0.000001 -0.910403 -0.413722
vn -0.096020 -0.968009 -0.231818
vn -0.158324 -0.910403 -0.382230
vn -0.177435 -0.968007 -0.177422
vn -0.292547 -0.910403 -0.292545
vn -0.231809 -0.968011 -0.096020
vn -0.382236 -0.910400 -0.158325
vn -0.250916 -0.968009 -0.000000
vn -0.413728 -0.910401 -0.000000
vn -0.231809 -0.968011 0.096020
vn -0.382236 -0.910400 0.158325
vn -0.177435 -0.968007 0.177422
vn -0.292547 -0.910403 0.292544
vn -0.096020 -0.968009 0.231818
vn -0.158324 -0.910403 0.382230
vn 0.000000 -0.968009 0.250916
vn -0.000000 -0.910403 0.413722
vn 0.096021 -0.968008 0.231818
vn 0.158322 -0.910403 0.382231
vn 0.177424 -0.968009 0.177422
vn 0.292546 -0.910403 0.292546
vn 0.231817 -0.968010 0.096012
vn 0.382237 -0.910403 0.158308
vn 0.250920 -0.968008 -0.000000
vn 0.413727 -0.910401 -0.000000
vn 0.407071 -0.817675 -0.407063
vn 0.531863 -0.817675 -0.220293
vn 0.220298 -0.817682 -0.531850
vn 0.000001 -0.817682 -0.575670
vn -0.220302 -0.817680 -0.531852
vn -0.407067 -0.817678 -0.407061
vn -0.531854 -0.817679 -0.220298
vn -0.575674 -0.817679 0.000000
vn -0.531854 -0.817679 0.220298
vn -0.407068 -0.817678 0.407061
vn -0.220303 -0.817680 0.531852
vn -0.000000 -0.817682 0.575670
vn 0.220298 -0.817682 0.531851
vn 0.407071 -0.817675 0.407063
vn 0.531863 -0.817675 0.220293
vn 0.575669 -0.817683 -0.000000
vn 0.509045 -0.694083 -0.509040
vn 0.665094 -0.694085 -0.275494
vn 0.275499 -0.694082 -0.665095
vn 0.000000 -0.694084 -0.719894
vn -0.275490 -0.694082 -0.665098
vn -0.509046 -0.694078 -0.509045
vn -0.665095 -0.694083 -0.275493
vn -0.719894 -0.694084 0.000000
vn -0.665095 -0.694083 0.275493
vn -0.509047 -0.694078 0.509045
vn -0.275490 -0.694081 0.665099
vn -0.000000 -0.694083 0.719895
vn 0.275499 -0.694082 0.665095
vn 0.509045 -0.694083 0.509041
vn 0.665094 -0.694085 0.275493
vn 0.719893 -0.694085 0.000000
vn 0.593103 -0.544491 -0.593093
vn 0.774915 -0.544496 -0.320983
vn 0.320980 -0.544489 -0.774922
vn 0.000000 -0.544491 -0.838766
vn -0.320982 -0.544496 -0.774916
vn -0.593091 -0.544499 -0.593097
vn -0.774909 -0.544504 -0.320984
vn -0.838756 -0.544507 -0.000000
vn -0.774909 -0.544504 0.320984
vn -0.593091 -0.544499 0.593097
vn -0.320982 -0.544496 0.774916
vn -0.000000 -0.544491 0.838767
vn 0.320980 -0.544489 0.774922
vn 0.593102 -0.544491 0.593093
vn 0.774915 -0.544497 0.320983
vn 0.838762 -0.544498 0.000000
vn 0.659050 -0.362364 -0.659049
vn 0.861086 -0.362367 -0.356680
vn 0.356678 -0.362372 -0.861085
vn 0.000000 -0.362372 -0.932033
vn -0.356675 -0.362378 -0.861084
vn -0.659049 -0.362377 -0.659043
vn -0.861083 -0.362375 -0.356678
vn -0.932032 -0.362375 0.000000
vn -0.861083 -0.362375 0.356678
vn -0.659049 -0.362377 0.659043
vn -0.356675 -0.362378 0.861084
vn -0.000000 -0.362373 0.932033
vn 0.356678 -0.362373 0.861085
vn 0.659049 -0.362364 0.659049
vn 0.861086 -0.362366 0.356680
vn 0.932031 -0.362377 -0.000000
vn 0.696546 -0.172218 -0.696537
vn 0.910070 -0.172217 -0.376980
vn 0.376973 -0.172222 -0.910072
vn 0.000000 -0.172224 -0.985058
vn -0.376968 -0.172222 -0.910074
vn -0.696546 -0.172219 -0.696537
vn -0.910074 -0.172211 -0.376972
vn -0.985061 -0.172204 0.000000
vn -0.910074 -0.172211 0.376972
vn -0.696546 -0.172218 0.696537
vn -0.376969 -0.172222 0.910074
vn -0.000000 -0.172224 0.985058
vn 0.376973 -0.172222 0.910072
vn 0.696546 -0.172218 0.696537
vn 0.910070 -0.172217 0.376980
vn 0.985059 -0.172216 0.000000
vn 0.706891 0.024720 -0.706891
vn 0.923593 0.024717 -0.382576
vn 0.382567 0.024731 -0.923597
vn 0.000001 0.024732 -0.999694
vn -0.382562 0.024730 -0.923599
vn -0.706890 0.024720 -0.706891
vn -0.923597 0.024711 -0.382568
vn -0.999695 0.024710 0.000000
vn -0.923597 0.024711 0.382568
vn -0.706891 0.024720 0.706891
vn -0.382563 0.024730 0.923598
vn -0.000000 0.024732 0.999694
vn 0.382567 0.024730 0.923597
vn 0.706890 0.024720 0.706891
vn 0.923593 0.024717 0.382576
vn 0.999694 0.024722 0.000000
vn 0.700663 0.134715 -0.700659
vn 0.915457 0.134709 -0.379200
vn 0.379201 0.134731 -0.915453
vn 0.000001 0.134740 -0.990881
vn -0.379196 0.134731 -0.915455
vn -0.700663 0.134715 -0.700659
vn -0.915460 0.134697 -0.379195
vn -0.990888 0.134685 0.000000
vn -0.915460 0.134698 0.379195
vn -0.700663 0.134715 0.700659
vn -0.379197 0.134731 0.915455
vn -0.000000 0.134740 0.990881
vn 0.379201 0.134731 0.915453
vn 0.700663 0.134715 0.700659
vn 0.915457 0.134710 0.379200
vn 0.990885 0.134710 -0.000000
vn 0.000001 -1.000000 -0.000000
vn 0.000000 1.000000 -0.000000
vn -0.000000 1.000000 0.000000
vn 0.000000 1.000000 -0.000000
vn -0.000000 1.000000 0.000000
vn -0.000000 1.000000 0.000000
vn 0.000000 1.000000 0.000000
vn 0.000000 1.000000 0.000000
vn 0.000000 1.000000 0.000000
vn 0.000000 1.000000 0.000000
vn 0.000000 1.000000 0.000000
vn 0.000000 1.000000 -0.000000
vn 0.000000 1.000000 -0.000000
vn -0.000000 1.000000 -0.000000
vn -0.000000 1.000000 -0.000000
vn -0.000000 1.000000 -0.000000
vn -0.000000 1.000000 -0.000000
vn -0.000000 1.000000 0.000000
s 1
g pSphere3 group9
usemtl lambert10SG
f 1/1/1 2/2/2 18/19/3 17/18/4
f 2/2/2 3/3/5 19/20/6 18/19/3
f 3/3/5 4/4/7 20/21/8 19/20/6
f 4/4/7 5/5/9 21/22/10 20/21/8
f 5/5/9 6/6/11 22/23/12 21/22/10
f 6/6/11 7/7/13 23/24/14 22/23/12
f 7/7/13 8/8/15 24/25/16 23/24/14
f 8/8/15 9/9/17 25/26/18 24/25/16
f 9/9/17 10/10/19 26/27/20 25/26/18
f 10/10/19 11/11/21 27/28/22 26/27/20
f 11/11/21 12/12/23 28/29/24 27/28/22
f 12/12/23 13/13/25 29/30/26 28/29/24
f 13/13/25 14/14/27 30/31/28 29/30/26
f 14/14/27 15/15/29 31/32/30 30/31/28
f 15/15/29 16/16/31 32/33/32 31/32/30
f 16/16/31 1/17/1 17/34/4 32/33/32
f 17/18/4 18/19/3 34/36/33 33/35/34
f 18/19/3 19/20/6 35/37/35 34/36/33
f 19/20/6 20/21/8 36/38/36 35/37/35
f 20/21/8 21/22/10 37/39/37 36/38/36
f 21/22/10 22/23/12 38/40/38 37/39/37
f 22/23/12 23/24/14 39/41/39 38/40/38
f 23/24/14 24/25/16 40/42/40 39/41/39
f 24/25/16 25/26/18 41/43/41 40/42/40
f 25/26/18 26/27/20 42/44/42 41/43/41
f 26/27/20 27/28/22 43/45/43 42/44/42
f 27/28/22 28/29/24 44/46/44 43/45/43
f 28/29/24 29/30/26 45/47/45 44/46/44
f 29/30/26 30/31/28 46/48/46 45/47/45
f 30/31/28 31/32/30 47/49/47 46/48/46
f 31/32/30 32/33/32 48/50/48 47/49/47
f 32/33/32 17/34/4 33/51/34 48/50/48
f 33/35/34 34/36/33 50/53/49 49/52/50
f 34/36/33 35/37/35 51/54/51 50/53/49
f 35/37/35 36/38/36 52/55/52 51/54/51
f 36/38/36 37/39/37 53/56/53 52/55/52
f 37/39/37 38/40/38 54/57/54 53/56/53
f 38/40/38 39/41/39 55/58/55 54/57/54
f 39/41/39 40/42/40 56/59/56 55/58/55
f 40/42/40 41/43/41 57/60/57 56/59/56
f 41/43/41 42/44/42 58/61/58 57/60/57
f 42/44/42 43/45/43 59/62/59 58/61/58
f 43/45/43 44/46/44 60/63/60 59/62/59
f 44/46/44 45/47/45 61/64/61 60/63/60
f 45/47/45 46/48/46 62/65/62 61/64/61
f 46/48/46 47/49/47 63/66/63 62/65/62
f 47/49/47 48/50/48 64/67/64 63/66/63
f 48/50/48 33/51/34 49/68/50 64/67/64
f 49/52/50 50/53/49 66/70/65 65/69/66
f 50/53/49 51/54/51 67/71/67 66/70/65
f 51/54/51 52/55/52 68/72/68 67/71/67
f 52/55/52 53/56/53 69/73/69 68/72/68
f 53/56/53 54/57/54 70/74/70 69/73/69
f 54/57/54 55/58/55 71/75/71 70/74/70
f 55/58/55 56/59/56 72/76/72 71/75/71
f 56/59/56 57/60/57 73/77/73 72/76/72
f 57/60/57 58/61/58 74/78/74 73/77/73
f 58/61/58 59/62/59 75/79/75 74/78/74
f 59/62/59 60/63/60 76/80/76 75/79/75
f 60/63/60 61/64/61 77/81/77 76/80/76
f 61/64/61 62/65/62 78/82/78 77/81/77
f 62/65/62 63/66/63 79/83/79 78/82/78
f 63/66/63 64/67/64 80/84/80 79/83/79
f 64/67/64 49/68/50 65/85/66 80/84/80
f 65/69/66 66/70/65 82/87/81 81/86/82
f 66/70/65 67/71/67 83/88/83 82/87/81
f 67/71/67 68/72/68 84/89/84 83/88/83
f 68/72/68 69/73/69 85/90/85 84/89/84
f 69/73/69 70/74/70 86/91/86 85/90/85
f 70/74/70 71/75/71 87/92/87 86/91/86
f 71/75/71 72/76/72 88/93/88 87/92/87
f 72/76/72 73/77/73 89/94/89 88/93/88
f 73/77/73 74/78/74 90/95/90 89/94/89
f 74/78/74 75/79/75 91/96/91 90/95/90
f 75/79/75 76/80/76 92/97/92 91/96/91
f 76/80/76 77/81/77 93/98/93 92/97/92
f 77/81/77 78/82/78 94/99/94 93/98/93
f 78/82/78 79/83/79 95/100/95 94/99/94
f 79/83/79 80/84/80 96/101/96 95/100/95
f 80/84/80 65/85/66 81/102/82 96/101/96
f 81/86/82 82/87/81 98/104/97 97/103/98
f 82/87/81 83/88/83 99/105/99 98/104/97
f 83/88/83 84/89/84 100/106/100 99/105/99
f 84/89/84 85/90/85 101/107/101 100/106/100
f 85/90/85 86/91/86 102/108/102 101/107/101
f 86/91/86 87/92/87 103/109/103 102/108/102
f 87/92/87 88/93/88 104/110/104 103/109/103
f 88/93/88 89/94/89 105/111/105 104/110/104
f 89/94/89 90/95/90 106/112/106 105/111/105
f 90/95/90 91/96/91 107/113/107 106/112/106
f 91/96/91 92/97/92 108/114/108 107/113/107
f 92/97/92 93/98/93 109/115/109 108/114/108
f 93/98/93 94/99/94 110/116/110 109/115/109
f 94/99/94 95/100/95 111/117/111 110/116/110
f 95/100/95 96/101/96 112/118/112 111/117/111
f 96/101/96 81/102/82 97/119/98 112/118/112
f 97/103/98 98/104/97 114/121/113 113/120/114
f 98/104/97 99/105/99 115/122/115 114/121/113
f 99/105/99 100/106/100 116/123/116 115/122/115
f 100/106/100 101/107/101 117/124/117 116/123/116
f 101/107/101 102/108/102 118/125/118 117/124/117
f 102/108/102 103/109/103 119/126/119 118/125/118
f 103/109/103 104/110/104 120/127/120 119/126/119
f 104/110/104 105/111/105 121/128/121 120/127/120
f 105/111/105 106/112/106 122/129/122 121/128/121
f 106/112/106 107/113/107 123/130/123 122/129/122
f 107/113/107 108/114/108 124/131/124 123/130/123
f 108/114/108 109/115/109 125/132/125 124/131/124
f 109/115/109 110/116/110 126/133/126 125/132/125
f 110/116/110 111/117/111 127/134/127 126/133/126
f 111/117/111 112/118/112 128/135/128 127/134/127
f 112/118/112 97/119/98 113/136/114 128/135/128
f 113/120/114 114/121/113 130/138/129 129/137/130
f 114/121/113 115/122/115 131/139/131 130/138/129
f 115/122/115 116/123/116 132/140/132 131/139/131
f 116/123/116 117/124/117 133/141/133 132/140/132
f 117/124/117 118/125/118 134/142/134 133/141/133
f 118/125/118 119/126/119 135/143/135 134/142/134
f 119/126/119 120/127/120 136/144/136 135/143/135
f 120/127/120 121/128/121 137/145/137 136/144/136
f 121/128/121 122/129/122 138/146/138 137/145/137
f 122/129/122 123/130/123 139/147/139 138/146/138
f 123/130/123 124/131/124 140/148/140 139/147/139
f 124/131/124 125/132/125 141/149/141 140/148/140
f 125/132/125 126/133/126 142/150/142 141/149/141
f 126/133/126 127/134/127 143/151/143 142/150/142
f 127/134/127 128/135/128 144/152/144 143/151/143
f 128/135/128 113/136/114 129/153/130 144/152/144
f 2/2/2 1/1/1 145/154/145
f 3/3/5 2/2/2 145/155/145
f 4/4/7 3/3/5 145/156/145
f 5/5/9 4/4/7 145/157/145
f 6/6/11 5/5/9 145/158/145
f 7/7/13 6/6/11 145/159/145
f 8/8/15 7/7/13 145/160/145
f 9/9/17 8/8/15 145/161/145
f 10/10/19 9/9/17 145/162/145
f 11/11/21 10/10/19 145/163/145
f 12/12/23 11/11/21 145/164/145
f 13/13/25 12/12/23 145/165/145
f 14/14/27 13/13/25 145/166/145
f 15/15/29 14/14/27 145/167/145
f 16/16/31 15/15/29 145/168/145
f 1/17/1 16/16/31 145/169/145
s 2
f 139/147/146 146/170/147 138/146/148
f 130/138/149 131/139/150 146/170/147
f 146/170/147 131/139/150 132/140/151
f 146/170/147 132/140/151 133/141/152
f 146/170/147 133/141/152 134/142/153
f 146/170/147 134/142/153 135/143/154
f 146/170/147 135/143/154 136/144/155
f 146/170/147 136/144/155 137/145/156
f 146/170/147 137/145/156 138/146/148
f 140/148/157 146/170/147 139/147/146
f 141/149/158 146/170/147 140/148/157
f 142/150/159 146/170/147 141/149/158
f 143/151/160 146/170/147 142/150/159
f 144/152/161 146/170/147 143/151/160
f 129/137/162 146/170/147 144/152/161
f 130/138/149 146/170/147 129/137/162
g default
v -3626.849437 89.778486 27.486784
v -3628.383021 89.778486 25.191864
v -3630.677907 89.778486 23.658447
v -3633.384960 89.778486 23.119984
v -3636.092012 89.778486 23.658447
v -3638.386899 89.778486 25.191856
v -3639.920128 89.778486 27.486779
v -3640.458706 89.778486 30.193817
v -3639.920128 89.778486 32.900853
v -3638.386899 89.778486 35.195770
v -3636.092012 89.778486 36.729188
v -3633.384960 89.778486 37.267655
v -3630.677907 89.778486 36.729188
v -3628.383021 89.778486 35.195770
v -3626.849437 89.778486 32.900856
v -3626.311214 89.778486 30.193817
v -3620.565322 91.841855 24.883777
v -3623.573001 91.841855 20.382138
v -3628.074959 91.841855 17.374238
v -3633.384960 91.841855 16.318001
v -3638.694961 91.841855 17.374222
v -3643.196565 91.841855 20.382123
v -3646.204598 91.841855 24.883766
v -3647.260507 91.841855 30.193809
v -3646.204598 91.841855 35.503860
v -3643.196565 91.841855 40.005505
v -3638.694961 91.841855 43.013405
v -3633.384960 91.841855 44.069642
v -3628.074959 91.841855 43.013414
v -3623.573001 91.841855 40.005508
v -3620.565322 91.841855 35.503868
v -3619.509058 91.841855 30.193817
v -3614.773398 95.192574 22.484841
v -3619.140092 95.192574 15.949472
v -3625.675968 95.192574 11.582671
v -3633.384960 95.192574 10.049242
v -3641.093951 95.192574 11.582651
v -3647.629120 95.192574 15.949457
v -3651.995813 95.192574 22.484826
v -3653.529397 95.192574 30.193809
v -3651.995813 95.192574 37.902806
v -3647.629120 95.192574 44.438179
v -3641.093951 95.192574 48.804981
v -3633.384960 95.192574 50.338393
v -3625.675968 95.192574 48.804981
v -3619.140092 95.192574 44.438188
v -3614.773398 95.192574 37.902817
v -3613.240523 95.192574 30.193817
v -3609.697453 99.701857 20.382142
v -3615.255321 99.701857 12.064187
v -3623.573001 99.701857 6.506308
v -3633.384960 99.701857 4.554644
v -3643.196565 99.701857 6.506302
v -3651.514599 99.701857 12.064171
v -3657.072466 99.701857 20.382123
v -3659.023881 99.701857 30.193809
v -3657.072466 99.701857 40.005497
v -3651.514599 99.701857 48.323451
v -3643.196565 99.701857 53.881335
v -3633.384960 99.701857 55.832999
v -3623.573001 99.701857 53.881335
v -3615.255321 99.701857 48.323456
v -3609.697453 99.701857 40.005505
v -3607.745684 99.701857 30.193817
v -3605.531531 105.196486 18.656518
v -3612.066700 105.196486 8.875632
v -3621.847498 105.196486 2.340251
v -3633.384960 105.196486 0.045328
v -3644.922421 105.196486 2.340237
v -3654.702866 105.196486 8.875607
v -3661.238388 105.196486 18.656483
v -3663.532921 105.196486 30.193804
v -3661.238388 105.196486 41.731132
v -3654.702866 105.196486 51.512011
v -3644.922421 105.196486 58.047384
v -3633.384960 105.196486 60.342304
v -3621.847498 105.196486 58.047384
v -3612.066700 105.196486 51.512017
v -3605.531531 105.196486 41.731149
v -3603.236291 105.196486 30.193817
v -3602.435683 111.465209 17.374253
v -3609.697453 111.465209 6.506319
v -3620.565322 111.465209 -0.755401
v -3633.384960 111.465209 -3.305383
v -3646.204598 111.465209 -0.755412
v -3657.072466 111.465209 6.506302
v -3664.334237 111.465209 17.374218
v -3666.884071 111.465209 30.193804
v -3664.334237 111.465209 43.013397
v -3657.072466 111.465209 53.881324
v -3646.204598 111.465209 61.143039
v -3633.384960 111.465209 63.693017
v -3620.565322 111.465209 61.143044
v -3609.697453 111.465209 53.881335
v -3602.435683 111.465209 43.013405
v -3599.885494 111.465209 30.193817
v -3600.703099 118.267188 16.656586
v -3608.371369 118.267188 5.180255
v -3619.847572 118.267188 -2.487986
v -3633.384960 118.267188 -5.180720
v -3646.922347 118.267188 -2.488000
v -3658.398550 118.267188 5.180230
v -3666.066821 118.267188 16.656556
v -3668.759356 118.267188 30.193804
v -3666.066821 118.267188 43.731064
v -3658.398550 118.267188 55.207380
v -3646.922347 118.267188 62.875634
v -3633.384960 118.267188 65.568352
v -3619.847572 118.267188 62.875634
v -3608.371369 118.267188 55.207391
v -3600.703099 118.267188 43.731064
v -3598.010210 118.267188 30.193817
v -3600.145754 125.341055 16.425801
v -3607.945040 125.341055 4.753822
v -3619.616703 125.341055 -3.045148
v -3633.384960 125.341055 -5.783784
v -3647.152863 125.341055 -3.045159
v -3658.824880 125.341055 4.753797
v -3666.623812 125.341055 16.425771
v -3669.362379 125.341055 30.193804
v -3666.623812 125.341055 43.961839
v -3658.824880 125.341055 55.633821
v -3647.152863 125.341055 63.432786
v -3633.384960 125.341055 66.171424
v -3619.616703 125.341055 63.432791
v -3607.945040 125.341055 55.633826
v -3600.145754 125.341055 43.961853
v -3597.407187 125.341055 30.193817
v -3601.034531 132.414901 16.793911
v -3608.625255 132.414901 5.434002
v -3619.984961 132.414901 -2.156445
v -3633.384960 132.414901 -4.821867
v -3646.784959 132.414901 -2.156465
v -3658.144665 132.414901 5.433977
v -3665.735389 132.414901 16.793881
v -3668.400658 132.414901 30.193804
v -3665.735389 132.414901 43.593728
v -3658.144665 132.414901 54.953638
v -3646.784959 132.414901 62.544091
v -3633.384960 132.414901 65.209505
v -3619.984961 132.414901 62.544091
v -3608.625255 132.414901 54.953644
v -3601.034531 132.414901 43.593739
v -3598.369262 132.414901 30.193817
v -3603.227084 139.216869 17.701966
v -3610.302955 139.216869 7.111851
v -3620.892859 139.216869 0.035765
v -3633.384960 139.216869 -2.449030
v -3645.876706 139.216869 0.035754
v -3656.466965 139.216869 7.111826
v -3663.542835 139.216869 17.701931
v -3666.027871 139.216869 30.193804
v -3663.542835 139.216869 42.685685
v -3656.466965 139.216869 53.275789
v -3645.876706 139.216869 60.351870
v -3633.384960 139.216869 62.836662
v -3620.892859 139.216869 60.351876
v -3610.302955 139.216869 53.275795
v -3603.227084 139.216869 42.685699
v -3600.742049 139.216869 30.193817
v -3606.606208 144.247478 19.101922
v -3612.889615 144.247478 9.698647
v -3622.292949 144.247478 3.415564
v -3633.384960 144.247478 1.209237
v -3644.476616 144.247478 3.415547
v -3653.880304 144.247478 9.698622
v -3660.162649 144.247478 19.101891
v -3662.369366 144.247478 30.193809
v -3660.162649 144.247478 41.285728
v -3653.880304 144.247478 50.689013
v -3644.476616 144.247478 56.972077
v -3633.384960 144.247478 59.178401
v -3622.292949 144.247478 56.972082
v -3612.889615 144.247478 50.689013
v -3606.606208 144.247478 41.285737
v -3604.400199 144.247478 30.193817
v -3610.918725 148.585048 20.888039
v -3616.189776 148.585048 12.998963
v -3624.079356 148.585048 7.727652
v -3633.384960 148.585048 5.876606
v -3642.690564 148.585048 7.727646
v -3650.579435 148.585048 12.998948
v -3655.851194 148.585048 20.888020
v -3657.702046 148.585048 30.193809
v -3655.851194 148.585048 39.499612
v -3650.579435 148.585048 47.388680
v -3642.690564 148.585048 52.659991
v -3633.384960 148.585048 54.511031
v -3624.079356 148.585048 52.659991
v -3616.189776 148.585048 47.388686
v -3610.918725 148.585048 39.499615
v -3609.067873 148.585048 30.193817
v -3615.538596 152.111431 22.801743
v -3619.726118 152.111431 16.535031
v -3625.992529 152.111431 12.347751
v -3633.384960 152.111431 10.877350
v -3640.777391 152.111431 12.347729
v -3647.043448 152.111431 16.535016
v -3651.230969 152.111431 22.801728
v -3652.701170 152.111431 30.193809
v -3651.230969 152.111431 37.585903
v -3647.043448 152.111431 43.852623
v -3640.777391 152.111431 48.039910
v -3633.384960 152.111431 49.510293
v -3625.992529 152.111431 48.039910
v -3619.726118 152.111431 43.852623
v -3615.538596 152.111431 37.585911
v -3614.068042 152.111431 30.193817
v -3633.384960 89.081738 30.193817
v -3615.538596 152.111431 22.801743
v -3619.726118 152.111431 16.535031
v -3625.992529 152.111431 12.347751
v -3633.384960 152.111431 10.877350
v -3640.777391 152.111431 12.347729
v -3647.043448 152.111431 16.535016
v -3651.230969 152.111431 22.801728
v -3652.701170 152.111431 30.193809
v -3651.230969 152.111431 37.585903
v -3647.043448 152.111431 43.852623
v -3640.777391 152.111431 48.039910
v -3633.384960 152.111431 49.510293
v -3625.992529 152.111431 48.039910
v -3619.726118 152.111431 43.852623
v -3615.538596 152.111431 37.585911
v -3614.068042 152.111431 30.193817
v -3625.353034 163.612487 26.867193
v -3627.237525 163.612420 24.047033
v -3630.057888 163.612420 22.162669
v -3633.384252 163.612498 21.501025
v -3636.710970 163.612420 22.162629
v -3639.530978 163.612420 24.046991
v -3641.415115 163.612542 26.867310
v -3642.077272 163.612498 30.193853
v -3641.415823 163.612454 33.520425
v -3639.530978 163.612454 36.340660
v -3636.710970 163.612487 38.224991
v -3633.384252 163.612487 38.886699
v -3630.057888 163.612420 38.225029
v -3627.237525 163.612487 36.340649
v -3625.353034 163.612420 33.520508
v -3624.691585 163.612409 30.193853
v -3620.647520 155.328177 24.917924
v -3619.597688 155.328138 30.193829
v -3620.647520 155.328169 35.469737
v -3623.636431 155.328177 39.942410
v -3628.108722 155.328169 42.930976
v -3633.384917 155.328177 43.980399
v -3638.660787 155.328177 42.930957
v -3643.133404 155.328177 39.942410
v -3646.121988 155.328177 35.469702
v -3647.171169 155.328177 30.193824
v -3646.121988 155.328177 24.917957
v -3643.133404 155.328169 20.445218
v -3638.660787 155.328169 17.456671
v -3633.384917 155.328177 16.407279
v -3628.108722 155.328169 17.456689
v -3623.636431 155.328169 20.445246
v -3623.217931 158.277190 25.982716
v -3622.380370 158.277159 30.193848
v -3623.217931 158.277159 34.404967
v -3625.603501 158.277190 37.974950
v -3629.173481 158.277190 40.360351
v -3633.384606 158.277190 41.197971
v -3637.596059 158.277190 40.360323
v -3641.166039 158.277190 37.974950
v -3643.551281 158.277190 34.404911
v -3644.388842 158.277190 30.193835
v -3643.550952 158.277231 25.982777
v -3641.165710 158.277159 22.412689
v -3637.596059 158.277159 20.027306
v -3633.384606 158.277190 19.189726
v -3629.173481 158.277190 20.027324
v -3625.603501 158.277190 22.412707
v -3624.646982 161.246239 26.574692
v -3623.927171 161.246186 30.193848
v -3624.646982 161.246186 33.813004
v -3626.697211 161.246228 36.881118
v -3629.765564 161.246186 38.931201
v -3633.384595 161.246239 39.651059
v -3637.003626 161.246239 38.931164
v -3640.071979 161.246186 36.881125
v -3642.121875 161.246186 33.812936
v -3642.841687 161.246258 30.193848
v -3642.121875 161.246269 26.574778
v -3640.071646 161.246186 23.506522
v -3637.003626 161.246186 21.456456
v -3633.384595 161.246258 20.736645
v -3629.765564 161.246186 21.456488
v -3626.697211 161.246186 23.506536
v -3623.924617 171.261714 26.276268
v -3626.144789 171.261636 22.954056
v -3629.466550 171.261625 20.734337
v -3633.384960 171.261836 19.954873
v -3637.303016 171.261791 20.733990
v -3640.624776 171.261636 22.953442
v -3642.843532 171.261836 26.275051
v -3643.622540 171.261957 30.193596
v -3642.843532 171.261747 34.112285
v -3640.624776 171.261636 37.433758
v -3637.302662 171.261714 39.653206
v -3633.384606 171.261714 40.432731
v -3629.466550 171.261592 39.653358
v -3626.144789 171.261636 37.433708
v -3623.923909 171.261636 34.111588
v -3623.144192 171.261515 30.193958
v -3623.894519 170.001215 26.263706
v -3626.121773 170.001126 22.930863
v -3629.453803 170.001126 20.704033
v -3633.384960 170.001292 19.922136
v -3637.315409 170.001248 20.703781
v -3640.647438 170.001126 22.930354
v -3642.873985 170.001337 26.262583
v -3643.655117 170.001447 30.193593
v -3642.873985 170.001248 34.124795
v -3640.647438 170.001126 37.456949
v -3637.315409 170.001171 39.683517
v -3633.384960 170.001215 40.465515
v -3629.453803 170.001093 39.683655
v -3626.121773 170.001160 37.456882
v -3623.893810 170.001160 34.124150
v -3623.111262 170.001005 30.193945
v -3623.894519 170.001215 26.263706
v -3626.121773 170.001126 22.930863
v -3629.453803 170.001126 20.704033
v -3633.384960 170.001292 19.922136
v -3637.315409 170.001248 20.703781
v -3640.647438 170.001126 22.930354
v -3642.873985 170.001337 26.262583
v -3643.655117 170.001447 30.193593
v -3642.873985 170.001248 34.124795
v -3640.647438 170.001126 37.456949
v -3637.315409 170.001171 39.683517
v -3633.384960 170.001215 40.465515
v -3629.453803 170.001093 39.683655
v -3626.121773 170.001160 37.456882
v -3623.893810 170.001160 34.124150
v -3623.111262 170.001005 30.193945
v -3628.560068 169.870786 28.197244
v -3629.692462 169.869669 26.501812
v -3631.386450 169.869503 25.369728
v -3633.385314 169.870023 24.972376
v -3635.383115 169.870421 25.369587
v -3637.076395 169.870720 26.501228
v -3638.207727 169.871306 28.194757
v -3638.605021 169.870543 30.193621
v -3638.207727 169.869901 32.192639
v -3637.076395 169.870189 33.886063
v -3635.382761 169.869746 35.017769
v -3633.384960 169.869713 35.415314
v -3631.386450 169.869591 35.017937
v -3629.692108 169.869945 33.885549
v -3628.559360 169.870753 32.190717
v -3628.161358 169.871185 30.194426
v -3633.384252 169.870299 30.193804
v -3622.699804 164.448039 25.768067
v -3621.884678 165.360397 25.430416
v -3625.206793 164.448271 22.016104
v -3624.582878 165.360651 21.392202
v -3628.958778 164.448117 19.509208
v -3628.621326 165.360485 18.694009
v -3633.384252 164.448072 18.628941
v -3633.384252 165.360397 17.746554
v -3637.810433 164.447873 19.509168
v -3638.148239 165.360198 18.693940
v -3641.562419 164.447785 22.016238
v -3642.186333 165.360043 21.392298
v -3644.069054 164.448072 25.768289
v -3644.884533 165.360375 25.430624
v -3644.949333 164.448283 30.193762
v -3645.831382 165.360685 30.193729
v -3644.069054 164.448227 34.619423
v -3644.884533 165.360596 34.957055
v -3641.562419 164.448150 38.371525
v -3642.186333 165.360496 38.995401
v -3637.810433 164.448194 40.878464
v -3638.148239 165.360530 41.693634
v -3633.384252 164.448117 41.758785
v -3633.384252 165.360441 42.641152
v -3628.958778 164.448083 40.878484
v -3628.621326 165.360441 41.693676
v -3625.206793 164.448150 38.371564
v -3624.582878 165.360519 38.995484
v -3622.699804 164.447951 34.619653
v -3621.884678 165.360253 34.957318
v -3621.819171 164.447718 30.193859
v -3620.936767 165.359954 30.193873
v -3620.750868 170.373545 24.961111
v -3621.499777 171.347925 25.271444
v -3623.715347 170.373789 20.524711
v -3624.288626 171.348113 21.097897
v -3628.152151 170.373623 17.560414
v -3628.462692 171.347958 18.309231
v -3633.384960 170.373589 16.519463
v -3633.384960 171.347958 17.329945
v -3638.618123 170.373379 17.560159
v -3638.307582 171.347792 18.308942
v -3643.054219 170.373224 20.524393
v -3642.480940 171.347648 21.097413
v -3646.017990 170.373534 24.960774
v -3645.269080 171.347925 25.270786
v -3647.058319 170.373899 30.193621
v -3646.247797 171.348235 30.193602
v -3646.017990 170.373744 35.426629
v -3645.269080 171.348080 35.116547
v -3643.054219 170.373623 39.862977
v -3642.480940 171.347991 39.289830
v -3638.617414 170.373700 42.827171
v -3638.306874 171.348002 42.078339
v -3633.384606 170.373578 43.868123
v -3633.384606 171.347925 43.057595
v -3628.151797 170.373545 42.827268
v -3628.461630 171.347881 42.078430
v -3623.715347 170.373656 39.863038
v -3624.288626 171.347991 39.289880
v -3620.750868 170.373412 35.426728
v -3621.499777 171.347792 35.116409
v -3619.709122 170.373092 30.193934
v -3620.519644 171.347515 30.193945
vt 0.000000 0.062500
vt 0.062500 0.062500
vt 0.125000 0.062500
vt 0.187500 0.062500
vt 0.250000 0.062500
vt 0.312500 0.062500
vt 0.375000 0.062500
vt 0.437500 0.062500
vt 0.500000 0.062500
vt 0.562500 0.062500
vt 0.625000 0.062500
vt 0.687500 0.062500
vt 0.750000 0.062500
vt 0.812500 0.062500
vt 0.875000 0.062500
vt 0.937500 0.062500
vt 1.000000 0.062500
vt 0.000000 0.125000
vt 0.062500 0.125000
vt 0.125000 0.125000
vt 0.187500 0.125000
vt 0.250000 0.125000
vt 0.312500 0.125000
vt 0.375000 0.125000
vt 0.437500 0.125000
vt 0.500000 0.125000
vt 0.562500 0.125000
vt 0.625000 0.125000
vt 0.687500 0.125000
vt 0.750000 0.125000
vt 0.812500 0.125000
vt 0.875000 0.125000
vt 0.937500 0.125000
vt 1.000000 0.125000
vt 0.000000 0.187500
vt 0.062500 0.187500
vt 0.125000 0.187500
vt 0.187500 0.187500
vt 0.250000 0.187500
vt 0.312500 0.187500
vt 0.375000 0.187500
vt 0.437500 0.187500
vt 0.500000 0.187500
vt 0.562500 0.187500
vt 0.625000 0.187500
vt 0.687500 0.187500
vt 0.750000 0.187500
vt 0.812500 0.187500
vt 0.875000 0.187500
vt 0.937500 0.187500
vt 1.000000 0.187500
vt 0.000000 0.250000
vt 0.062500 0.250000
vt 0.125000 0.250000
vt 0.187500 0.250000
vt 0.250000 0.250000
vt 0.312500 0.250000
vt 0.375000 0.250000
vt 0.437500 0.250000
vt 0.500000 0.250000
vt 0.562500 0.250000
vt 0.625000 0.250000
vt 0.687500 0.250000
vt 0.750000 0.250000
vt 0.812500 0.250000
vt 0.875000 0.250000
vt 0.937500 0.250000
vt 1.000000 0.250000
vt 0.000000 0.312500
vt 0.062500 0.312500
vt 0.125000 0.312500
vt 0.187500 0.312500
vt 0.250000 0.312500
vt 0.312500 0.312500
vt 0.375000 0.312500
vt 0.437500 0.312500
vt 0.500000 0.312500
vt 0.562500 0.312500
vt 0.625000 0.312500
vt 0.687500 0.312500
vt 0.750000 0.312500
vt 0.812500 0.312500
vt 0.875000 0.312500
vt 0.937500 0.312500
vt 1.000000 0.312500
vt 0.000000 0.375000
vt 0.062500 0.375000
vt 0.125000 0.375000
vt 0.187500 0.375000
vt 0.250000 0.375000
vt 0.312500 0.375000
vt 0.375000 0.375000
vt 0.437500 0.375000
vt 0.500000 0.375000
vt 0.562500 0.375000
vt 0.625000 0.375000
vt 0.687500 0.375000
vt 0.750000 0.375000
vt 0.812500 0.375000
vt 0.875000 0.375000
vt 0.937500 0.375000
vt 1.000000 0.375000
vt 0.000000 0.437500
vt 0.062500 0.437500
vt 0.125000 0.437500
vt 0.187500 0.437500
vt 0.250000 0.437500
vt 0.312500 0.437500
vt 0.375000 0.437500
vt 0.437500 0.437500
vt 0.500000 0.437500
vt 0.562500 0.437500
vt 0.625000 0.437500
vt 0.687500 0.437500
vt 0.750000 0.437500
vt 0.812500 0.437500
vt 0.875000 0.437500
vt 0.937500 0.437500
vt 1.000000 0.437500
vt 0.000000 0.500000
vt 0.062500 0.500000
vt 0.125000 0.500000
vt 0.187500 0.500000
vt 0.250000 0.500000
vt 0.312500 0.500000
vt 0.375000 0.500000
vt 0.437500 0.500000
vt 0.500000 0.500000
vt 0.562500 0.500000
vt 0.625000 0.500000
vt 0.687500 0.500000
vt 0.750000 0.500000
vt 0.812500 0.500000
vt 0.875000 0.500000
vt 0.937500 0.500000
vt 1.000000 0.500000
vt 0.000000 0.562500
vt 0.062500 0.562500
vt 0.125000 0.562500
vt 0.187500 0.562500
vt 0.250000 0.562500
vt 0.312500 0.562500
vt 0.375000 0.562500
vt 0.437500 0.562500
vt 0.500000 0.562500
vt 0.562500 0.562500
vt 0.625000 0.562500
vt 0.687500 0.562500
vt 0.750000 0.562500
vt 0.812500 0.562500
vt 0.875000 0.562500
vt 0.937500 0.562500
vt 1.000000 0.562500
vt 0.000000 0.625000
vt 0.062500 0.625000
vt 0.125000 0.625000
vt 0.187500 0.625000
vt 0.250000 0.625000
vt 0.312500 0.625000
vt 0.375000 0.625000
vt 0.437500 0.625000
vt 0.500000 0.625000
vt 0.562500 0.625000
vt 0.625000 0.625000
vt 0.687500 0.625000
vt 0.750000 0.625000
vt 0.812500 0.625000
vt 0.875000 0.625000
vt 0.937500 0.625000
vt 1.000000 0.625000
vt 0.000000 0.687500
vt 0.062500 0.687500
vt 0.125000 0.687500
vt 0.187500 0.687500
vt 0.250000 0.687500
vt 0.312500 0.687500
vt 0.375000 0.687500
vt 0.437500 0.687500
vt 0.500000 0.687500
vt 0.562500 0.687500
vt 0.625000 0.687500
vt 0.687500 0.687500
vt 0.750000 0.687500
vt 0.812500 0.687500
vt 0.875000 0.687500
vt 0.937500 0.687500
vt 1.000000 0.687500
vt 0.000000 0.750000
vt 0.062500 0.750000
vt 0.125000 0.750000
vt 0.187500 0.750000
vt 0.250000 0.750000
vt 0.312500 0.750000
vt 0.375000 0.750000
vt 0.437500 0.750000
vt 0.500000 0.750000
vt 0.562500 0.750000
vt 0.625000 0.750000
vt 0.687500 0.750000
vt 0.750000 0.750000
vt 0.812500 0.750000
vt 0.875000 0.750000
vt 0.937500 0.750000
vt 1.000000 0.750000
vt 0.000000 0.812500
vt 0.062500 0.812500
vt 0.125000 0.812500
vt 0.187500 0.812500
vt 0.250000 0.812500
vt 0.312500 0.812500
vt 0.375000 0.812500
vt 0.437500 0.812500
vt 0.500000 0.812500
vt 0.562500 0.812500
vt 0.625000 0.812500
vt 0.687500 0.812500
vt 0.750000 0.812500
vt 0.812500 0.812500
vt 0.875000 0.812500
vt 0.937500 0.812500
vt 1.000000 0.812500
vt 0.031250 0.000000
vt 0.093750 0.000000
vt 0.156250 0.000000
vt 0.218750 0.000000
vt 0.281250 0.000000
vt 0.343750 0.000000
vt 0.406250 0.000000
vt 0.468750 0.000000
vt 0.531250 0.000000
vt 0.593750 0.000000
vt 0.656250 0.000000
vt 0.718750 0.000000
vt 0.781250 0.000000
vt 0.843750 0.000000
vt 0.906250 0.000000
vt 0.968750 0.000000
vt 0.000000 0.812500
vt 0.062500 0.812500
vt 0.062500 0.812500
vt 0.125000 0.812500
vt 0.125000 0.812500
vt 0.187500 0.812500
vt 0.187500 0.812500
vt 0.250000 0.812500
vt 0.250000 0.812500
vt 0.312500 0.812500
vt 0.312500 0.812500
vt 0.375000 0.812500
vt 0.375000 0.812500
vt 0.437500 0.812500
vt 0.437500 0.812500
vt 0.500000 0.812500
vt 0.500000 0.812500
vt 0.562500 0.812500
vt 0.562500 0.812500
vt 0.625000 0.812500
vt 0.625000 0.812500
vt 0.687500 0.812500
vt 0.687500 0.812500
vt 0.750000 0.812500
vt 0.750000 0.812500
vt 0.812500 0.812500
vt 0.812500 0.812500
vt 0.875000 0.812500
vt 0.875000 0.812500
vt 0.937500 0.812500
vt 0.937500 0.812500
vt 1.000000 0.812500
vt 0.062500 0.812500
vt 0.125000 0.812500
vt 0.187500 0.812500
vt 0.250000 0.812500
vt 0.312500 0.812500
vt 0.375000 0.812500
vt 0.437500 0.812500
vt 0.500000 0.812500
vt 0.562500 0.812500
vt 0.625000 0.812500
vt 0.687500 0.812500
vt 0.750000 0.812500
vt 0.812500 0.812500
vt 0.875000 0.812500
vt 0.937500 0.812500
vt 1.000000 0.812500
vt 1.000000 0.812500
vt 0.062500 0.812500
vt 0.937500 0.812500
vt 1.000000 0.812500
vt 0.875000 0.812500
vt 0.937500 0.812500
vt 0.812500 0.812500
vt 0.875000 0.812500
vt 0.750000 0.812500
vt 0.812500 0.812500
vt 0.687500 0.812500
vt 0.750000 0.812500
vt 0.625000 0.812500
vt 0.687500 0.812500
vt 0.562500 0.812500
vt 0.625000 0.812500
vt 0.500000 0.812500
vt 0.562500 0.812500
vt 0.437500 0.812500
vt 0.500000 0.812500
vt 0.375000 0.812500
vt 0.437500 0.812500
vt 0.312500 0.812500
vt 0.375000 0.812500
vt 0.250000 0.812500
vt 0.312500 0.812500
vt 0.187500 0.812500
vt 0.250000 0.812500
vt 0.125000 0.812500
vt 0.187500 0.812500
vt 0.062500 0.812500
vt 0.125000 0.812500
vt 1.000000 0.812500
vt 0.062500 0.812500
vt 0.937500 0.812500
vt 1.000000 0.812500
vt 0.875000 0.812500
vt 0.937500 0.812500
vt 0.812500 0.812500
vt 0.875000 0.812500
vt 0.750000 0.812500
vt 0.812500 0.812500
vt 0.687500 0.812500
vt 0.750000 0.812500
vt 0.625000 0.812500
vt 0.687500 0.812500
vt 0.562500 0.812500
vt 0.625000 0.812500
vt 0.500000 0.812500
vt 0.562500 0.812500
vt 0.437500 0.812500
vt 0.500000 0.812500
vt 0.375000 0.812500
vt 0.437500 0.812500
vt 0.312500 0.812500
vt 0.375000 0.812500
vt 0.250000 0.812500
vt 0.312500 0.812500
vt 0.187500 0.812500
vt 0.250000 0.812500
vt 0.125000 0.812500
vt 0.187500 0.812500
vt 0.062500 0.812500
vt 0.125000 0.812500
vt 1.000000 0.812500
vt 0.062500 0.812500
vt 0.937500 0.812500
vt 1.000000 0.812500
vt 0.875000 0.812500
vt 0.937500 0.812500
vt 0.812500 0.812500
vt 0.875000 0.812500
vt 0.750000 0.812500
vt 0.812500 0.812500
vt 0.687500 0.812500
vt 0.750000 0.812500
vt 0.625000 0.812500
vt 0.687500 0.812500
vt 0.562500 0.812500
vt 0.625000 0.812500
vt 0.500000 0.812500
vt 0.562500 0.812500
vt 0.437500 0.812500
vt 0.500000 0.812500
vt 0.375000 0.812500
vt 0.437500 0.812500
vt 0.312500 0.812500
vt 0.375000 0.812500
vt 0.250000 0.812500
vt 0.312500 0.812500
vt 0.187500 0.812500
vt 0.250000 0.812500
vt 0.125000 0.812500
vt 0.187500 0.812500
vt 0.062500 0.812500
vt 0.125000 0.812500
vt 0.062500 0.812500
vt 0.125000 0.812500
vt 0.187500 0.812500
vt 0.250000 0.812500
vt 0.312500 0.812500
vt 0.375000 0.812500
vt 0.437500 0.812500
vt 0.500000 0.812500
vt 0.562500 0.812500
vt 0.625000 0.812500
vt 0.687500 0.812500
vt 0.750000 0.812500
vt 0.812500 0.812500
vt 0.875000 0.812500
vt 0.937500 0.812500
vt 1.000000 0.812500
vt 0.062500 0.812500
vt 0.062500 0.812500
vt 0.125000 0.812500
vt 0.125000 0.812500
vt 0.187500 0.812500
vt 0.187500 0.812500
vt 0.250000 0.812500
vt 0.250000 0.812500
vt 0.312500 0.812500
vt 0.312500 0.812500
vt 0.375000 0.812500
vt 0.375000 0.812500
vt 0.437500 0.812500
vt 0.437500 0.812500
vt 0.500000 0.812500
vt 0.500000 0.812500
vt 0.562500 0.812500
vt 0.562500 0.812500
vt 0.625000 0.812500
vt 0.625000 0.812500
vt 0.687500 0.812500
vt 0.687500 0.812500
vt 0.750000 0.812500
vt 0.750000 0.812500
vt 0.812500 0.812500
vt 0.812500 0.812500
vt 0.875000 0.812500
vt 0.875000 0.812500
vt 0.937500 0.812500
vt 0.937500 0.812500
vt 1.000000 0.812500
vt 1.000000 0.812500
vt 0.062500 0.812500
vt 0.062500 0.812500
vt 0.125000 0.812500
vt 0.125000 0.812500
vt 0.187500 0.812500
vt 0.187500 0.812500
vt 0.250000 0.812500
vt 0.250000 0.812500
vt 0.312500 0.812500
vt 0.312500 0.812500
vt 0.375000 0.812500
vt 0.375000 0.812500
vt 0.437500 0.812500
vt 0.437500 0.812500
vt 0.500000 0.812500
vt 0.500000 0.812500
vt 0.562500 0.812500
vt 0.562500 0.812500
vt 0.625000 0.812500
vt 0.625000 0.812500
vt 0.687500 0.812500
vt 0.687500 0.812500
vt 0.750000 0.812500
vt 0.750000 0.812500
vt 0.812500 0.812500
vt 0.812500 0.812500
vt 0.875000 0.812500
vt 0.875000 0.812500
vt 0.937500 0.812500
vt 0.937500 0.812500
vt 1.000000 0.812500
vt 1.000000 0.812500
vt 0.062500 0.812500
vt 0.062500 0.812500
vt 0.125000 0.812500
vt 0.125000 0.812500
vt 0.187500 0.812500
vt 0.187500 0.812500
vt 0.250000 0.812500
vt 0.250000 0.812500
vt 0.312500 0.812500
vt 0.312500 0.812500
vt 0.375000 0.812500
vt 0.375000 0.812500
vt 0.437500 0.812500
vt 0.437500 0.812500
vt 0.500000 0.812500
vt 0.500000 0.812500
vt 0.562500 0.812500
vt 0.562500 0.812500
vt 0.625000 0.812500
vt 0.625000 0.812500
vt 0.687500 0.812500
vt 0.687500 0.812500
vt 0.750000 0.812500
vt 0.750000 0.812500
vt 0.812500 0.812500
vt 0.812500 0.812500
vt 0.875000 0.812500
vt 0.875000 0.812500
vt 0.937500 0.812500
vt 0.937500 0.812500
vt 1.000000 0.812500
vt 1.000000 0.812500
vt 0.375000 0.812500
vt 1.000000 0.812500
vt 1.000000 0.812500
vt 0.062500 0.812500
vt 0.062500 0.812500
vt 0.125000 0.812500
vt 0.125000 0.812500
vt 0.187500 0.812500
vt 0.187500 0.812500
vt 0.250000 0.812500
vt 0.250000 0.812500
vt 0.312500 0.812500
vt 0.312500 0.812500
vt 0.375000 0.812500
vt 0.375000 0.812500
vt 0.437500 0.812500
vt 0.437500 0.812500
vt 0.500000 0.812500
vt 0.500000 0.812500
vt 0.562500 0.812500
vt 0.562500 0.812500
vt 0.625000 0.812500
vt 0.625000 0.812500
vt 0.687500 0.812500
vt 0.687500 0.812500
vt 0.750000 0.812500
vt 0.750000 0.812500
vt 0.812500 0.812500
vt 0.812500 0.812500
vt 0.875000 0.812500
vt 0.875000 0.812500
vt 0.937500 0.812500
vt 0.937500 0.812500
vt 1.000000 0.812500
vt 1.000000 0.812500
vt 0.062500 0.812500
vt 0.062500 0.812500
vt 0.125000 0.812500
vt 0.125000 0.812500
vt 0.187500 0.812500
vt 0.187500 0.812500
vt 0.250000 0.812500
vt 0.250000 0.812500
vt 0.312500 0.812500
vt 0.312500 0.812500
vt 0.375000 0.812500
vt 0.375000 0.812500
vt 0.437500 0.812500
vt 0.437500 0.812500
vt 0.500000 0.812500
vt 0.500000 0.812500
vt 0.562500 0.812500
vt 0.562500 0.812500
vt 0.625000 0.812500
vt 0.625000 0.812500
vt 0.687500 0.812500
vt 0.687500 0.812500
vt 0.750000 0.812500
vt 0.750000 0.812500
vt 0.812500 0.812500
vt 0.812500 0.812500
vt 0.875000 0.812500
vt 0.875000 0.812500
vt 0.937500 0.812500
vt 0.937500 0.812500
vt 0.062500 0.812500
vt 0.062500 0.812500
vt 0.125000 0.812500
vt 0.125000 0.812500
vt 0.187500 0.812500
vt 0.187500 0.812500
vt 0.250000 0.812500
vt 0.250000 0.812500
vt 0.312500 0.812500
vt 0.312500 0.812500
vt 0.375000 0.812500
vt 0.375000 0.812500
vt 0.437500 0.812500
vt 0.437500 0.812500
vt 0.500000 0.812500
vt 0.500000 0.812500
vt 0.562500 0.812500
vt 0.562500 0.812500
vt 0.625000 0.812500
vt 0.625000 0.812500
vt 0.687500 0.812500
vt 0.687500 0.812500
vt 0.750000 0.812500
vt 0.750000 0.812500
vt 0.812500 0.812500
vt 0.812500 0.812500
vt 0.875000 0.812500
vt 0.875000 0.812500
vt 0.937500 0.812500
vt 0.937500 0.812500
vt 1.000000 0.812500
vt 1.000000 0.812500
vt 0.062500 0.812500
vt 0.062500 0.812500
vt 0.125000 0.812500
vt 0.125000 0.812500
vt 0.187500 0.812500
vt 0.187500 0.812500
vt 0.250000 0.812500
vt 0.250000 0.812500
vt 0.312500 0.812500
vt 0.312500 0.812500
vt 0.375000 0.812500
vt 0.375000 0.812500
vt 0.437500 0.812500
vt 0.437500 0.812500
vt 0.500000 0.812500
vt 0.500000 0.812500
vt 0.562500 0.812500
vt 0.562500 0.812500
vt 0.625000 0.812500
vt 0.625000 0.812500
vt 0.687500 0.812500
vt 0.687500 0.812500
vt 0.750000 0.812500
vt 0.750000 0.812500
vt 0.812500 0.812500
vt 0.812500 0.812500
vt 0.875000 0.812500
vt 0.875000 0.812500
vt 0.937500 0.812500
vt 0.937500 0.812500
vt 1.000000 0.812500
vt 1.000000 0.812500
vt 0.062500 0.812500
vt 0.062500 0.812500
vt 0.125000 0.812500
vt 0.125000 0.812500
vt 0.187500 0.812500
vt 0.187500 0.812500
vt 0.250000 0.812500
vt 0.250000 0.812500
vt 0.312500 0.812500
vt 0.312500 0.812500
vt 0.375000 0.812500
vt 0.375000 0.812500
vt 0.437500 0.812500
vt 0.437500 0.812500
vt 0.500000 0.812500
vt 0.500000 0.812500
vt 0.562500 0.812500
vt 0.562500 0.812500
vt 0.625000 0.812500
vt 0.625000 0.812500
vt 0.687500 0.812500
vt 0.687500 0.812500
vt 0.750000 0.812500
vt 0.750000 0.812500
vt 0.812500 0.812500
vt 0.812500 0.812500
vt 0.875000 0.812500
vt 0.875000 0.812500
vt 0.937500 0.812500
vt 0.937500 0.812500
vt 1.000000 0.812500
vt 1.000000 0.812500
vn 0.231819 -0.968009 -0.096018
vn 0.177420 -0.968010 -0.177425
vn 0.292538 -0.910406 -0.292546
vn 0.382226 -0.910407 -0.158312
vn 0.096021 -0.968008 -0.231818
vn 0.158320 -0.910403 -0.382231
vn 0.000000 -0.968009 -0.250917
vn 0.000001 -0.910403 -0.413723
vn -0.096023 -0.968008 -0.231818
vn -0.158326 -0.910403 -0.382230
vn -0.177428 -0.968008 -0.177425
vn -0.292550 -0.910401 -0.292547
vn -0.231816 -0.968009 -0.096018
vn -0.382237 -0.910400 -0.158324
vn -0.250920 -0.968008 -0.000000
vn -0.413725 -0.910402 -0.000000
vn -0.231816 -0.968009 0.096017
vn -0.382237 -0.910400 0.158323
vn -0.177428 -0.968008 0.177424
vn -0.292550 -0.910401 0.292547
vn -0.096023 -0.968008 0.231818
vn -0.158326 -0.910403 0.382230
vn -0.000000 -0.968009 0.250917
vn -0.000000 -0.910403 0.413723
vn 0.096021 -0.968008 0.231818
vn 0.158320 -0.910404 0.382231
vn 0.177420 -0.968009 0.177426
vn 0.292537 -0.910406 0.292545
vn 0.231819 -0.968009 0.096018
vn 0.382226 -0.910407 0.158312
vn 0.250915 -0.968009 -0.000000
vn 0.413722 -0.910403 0.000000
vn 0.407063 -0.817679 -0.407064
vn 0.531861 -0.817677 -0.220290
vn 0.220294 -0.817683 -0.531851
vn 0.000001 -0.817682 -0.575670
vn -0.220302 -0.817682 -0.531849
vn -0.407060 -0.817684 -0.407057
vn -0.531848 -0.817684 -0.220297
vn -0.575671 -0.817682 -0.000000
vn -0.531848 -0.817684 0.220297
vn -0.407060 -0.817683 0.407057
vn -0.220302 -0.817682 0.531849
vn -0.000000 -0.817682 0.575670
vn 0.220294 -0.817682 0.531852
vn 0.407063 -0.817679 0.407064
vn 0.531861 -0.817677 0.220290
vn 0.575672 -0.817681 0.000000
vn 0.509048 -0.694077 -0.509046
vn 0.665103 -0.694075 -0.275494
vn 0.275493 -0.694083 -0.665096
vn 0.000000 -0.694084 -0.719894
vn -0.275491 -0.694085 -0.665095
vn -0.509046 -0.694083 -0.509039
vn -0.665101 -0.694081 -0.275486
vn -0.719900 -0.694077 0.000000
vn -0.665101 -0.694080 0.275486
vn -0.509046 -0.694083 0.509039
vn -0.275491 -0.694084 0.665095
vn -0.000000 -0.694084 0.719894
vn 0.275492 -0.694083 0.665096
vn 0.509048 -0.694077 0.509046
vn 0.665103 -0.694075 0.275494
vn 0.719898 -0.694080 0.000000
vn 0.593103 -0.544489 -0.593094
vn 0.774915 -0.544494 -0.320987
vn 0.320983 -0.544489 -0.774921
vn 0.000000 -0.544490 -0.838767
vn -0.320985 -0.544492 -0.774917
vn -0.593096 -0.544493 -0.593096
vn -0.774918 -0.544497 -0.320975
vn -0.838762 -0.544499 -0.000000
vn -0.774918 -0.544497 0.320975
vn -0.593097 -0.544493 0.593096
vn -0.320986 -0.544492 0.774917
vn -0.000000 -0.544490 0.838767
vn 0.320982 -0.544489 0.774921
vn 0.593102 -0.544489 0.593094
vn 0.774915 -0.544494 0.320987
vn 0.838762 -0.544498 -0.000000
vn 0.659049 -0.362373 -0.659045
vn 0.861083 -0.362376 -0.356680
vn 0.356673 -0.362371 -0.861087
vn 0.000000 -0.362371 -0.932034
vn -0.356673 -0.362374 -0.861086
vn -0.659048 -0.362379 -0.659043
vn -0.861084 -0.362386 -0.356667
vn -0.932028 -0.362386 0.000000
vn -0.861084 -0.362386 0.356667
vn -0.659048 -0.362379 0.659043
vn -0.356673 -0.362374 0.861086
vn -0.000000 -0.362372 0.932034
vn 0.356672 -0.362372 0.861088
vn 0.659048 -0.362373 0.659046
vn 0.861083 -0.362375 0.356679
vn 0.932031 -0.362378 0.000000
vn 0.696542 -0.172227 -0.696539
vn 0.910071 -0.172228 -0.376973
vn 0.376966 -0.172226 -0.910074
vn 0.000000 -0.172225 -0.985058
vn -0.376968 -0.172222 -0.910074
vn -0.696543 -0.172218 -0.696541
vn -0.910078 -0.172217 -0.376961
vn -0.985059 -0.172215 0.000000
vn -0.910078 -0.172216 0.376961
vn -0.696543 -0.172218 0.696540
vn -0.376969 -0.172222 0.910074
vn -0.000000 -0.172225 0.985058
vn 0.376965 -0.172226 0.910074
vn 0.696542 -0.172227 0.696539
vn 0.910071 -0.172228 0.376973
vn 0.985057 -0.172228 0.000000
vn 0.706890 0.024734 -0.706891
vn 0.923594 0.024734 -0.382572
vn 0.382569 0.024734 -0.923596
vn 0.000001 0.024732 -0.999694
vn -0.382563 0.024733 -0.923598
vn -0.706890 0.024734 -0.706891
vn -0.923597 0.024728 -0.382566
vn -0.999694 0.024722 -0.000000
vn -0.923597 0.024728 0.382566
vn -0.706890 0.024734 0.706891
vn -0.382564 0.024734 0.923598
vn -0.000000 0.024732 0.999694
vn 0.382569 0.024734 0.923596
vn 0.706890 0.024734 0.706891
vn 0.923595 0.024734 0.382572
vn 0.999694 0.024734 0.000000
vn 0.688405 0.228471 -0.688404
vn 0.899440 0.228480 -0.372565
vn 0.372561 0.228467 -0.899445
vn 0.000000 0.228467 -0.973552
vn -0.372566 0.228466 -0.899443
vn -0.688404 0.228465 -0.688407
vn -0.899445 0.228463 -0.372562
vn -0.973553 0.228460 -0.000000
vn -0.899446 0.228462 0.372562
vn -0.688404 0.228465 0.688406
vn -0.372566 0.228466 0.899443
vn -0.000000 0.228468 0.973552
vn 0.372561 0.228467 0.899445
vn 0.688405 0.228471 0.688404
vn 0.899440 0.228480 0.372565
vn 0.973547 0.228485 0.000000
vn 0.634805 0.440511 -0.634801
vn 0.829409 0.440509 -0.343558
vn 0.343554 0.440518 -0.829406
vn 0.000000 0.440520 -0.897743
vn -0.343550 0.440522 -0.829406
vn -0.634799 0.440527 -0.634796
vn -0.829398 0.440538 -0.343548
vn -0.897730 0.440547 -0.000000
vn -0.829398 0.440537 0.343548
vn -0.634799 0.440526 0.634796
vn -0.343550 0.440522 0.829406
vn -0.000000 0.440521 0.897743
vn 0.343554 0.440517 0.829406
vn 0.634805 0.440511 0.634801
vn 0.829409 0.440509 0.343558
vn 0.897749 0.440508 0.000000
vn 0.535532 0.652998 -0.535536
vn 0.699715 0.652993 -0.289826
vn 0.289826 0.653005 -0.699704
vn 0.000000 0.653004 -0.757354
vn -0.289825 0.653006 -0.699703
vn -0.535532 0.653009 -0.535523
vn -0.699702 0.653007 -0.289826
vn -0.757352 0.653007 0.000000
vn -0.699702 0.653007 0.289826
vn -0.535532 0.653008 0.535524
vn -0.289825 0.653005 0.699704
vn -0.000000 0.653004 0.757355
vn 0.289825 0.653005 0.699704
vn 0.535532 0.652998 0.535536
vn 0.699715 0.652993 0.289825
vn 0.757361 0.652997 -0.000000
vn 0.453325 0.767455 -0.453330
vn 0.592299 0.767458 -0.245336
vn 0.245334 0.767453 -0.592306
vn 0.000000 0.767453 -0.641105
vn -0.245341 0.767453 -0.592304
vn -0.453328 0.767453 -0.453331
vn -0.592309 0.767448 -0.245342
vn -0.641116 0.767444 -0.000000
vn -0.592310 0.767448 0.245342
vn -0.453328 0.767453 0.453331
vn -0.245341 0.767453 0.592304
vn -0.000000 0.767453 0.641105
vn 0.245334 0.767453 0.592307
vn 0.453325 0.767455 0.453330
vn 0.592299 0.767459 0.245335
vn 0.641100 0.767457 0.000000
vn 0.407500 0.817241 -0.407506
vn 0.532440 0.817232 -0.220544
vn 0.220544 0.817238 -0.532430
vn 0.000001 0.817239 -0.576299
vn -0.220552 0.817236 -0.532430
vn -0.407510 0.817236 -0.407506
vn -0.532417 0.817248 -0.220541
vn -0.576286 0.817248 -0.000000
vn -0.532417 0.817248 0.220541
vn -0.407510 0.817236 0.407506
vn -0.220552 0.817236 0.532430
vn 0.000000 0.817238 0.576300
vn 0.220544 0.817238 0.532431
vn 0.407500 0.817241 0.407506
vn 0.532441 0.817232 0.220544
vn 0.576326 0.817220 -0.000000
vn -0.000000 -1.000000 -0.000000
vn 0.000000 0.000000 0.000000
vn 0.000000 0.000000 0.000000
vn 0.000000 0.000000 0.000000
vn 0.000000 0.000000 0.000000
vn 0.000000 0.000000 0.000000
vn 0.000000 0.000000 0.000000
vn 0.000000 0.000000 0.000000
vn 0.000000 0.000000 0.000000
vn 0.000000 0.000000 0.000000
vn 0.000000 0.000000 0.000000
vn 0.000000 0.000000 0.000000
vn 0.000000 0.000000 0.000000
vn 0.000000 0.000000 0.000000
vn 0.000000 0.000000 0.000000
vn 0.000000 0.000000 0.000000
vn 0.000000 0.000000 0.000000
vn 0.000000 0.000000 0.000000
vn 0.000000 0.000000 0.000000
vn 0.000000 0.000000 0.000000
vn 0.000000 0.000000 0.000000
vn 0.000000 0.000000 0.000000
vn 0.000000 0.000000 0.000000
vn 0.000000 0.000000 0.000000
vn 0.000000 0.000000 0.000000
vn 0.000000 0.000000 0.000000
vn 0.000000 0.000000 0.000000
vn 0.000000 0.000000 0.000000
vn 0.000000 0.000000 0.000000
vn 0.000000 0.000000 0.000000
vn 0.000000 0.000000 0.000000
vn 0.000000 0.000000 0.000000
vn 0.000000 0.000000 0.000000
vn 0.000000 0.000000 0.000000
vn 0.000000 0.000000 0.000000
vn 0.000000 0.000000 0.000000
vn 0.000000 0.000000 0.000000
vn 0.000000 0.000000 0.000000
vn 0.000000 0.000000 0.000000
vn 0.000000 0.000000 0.000000
vn 0.000000 0.000000 0.000000
vn 0.000000 0.000000 0.000000
vn 0.000000 0.000000 0.000000
vn 0.000000 0.000000 0.000000
vn 0.000000 0.000000 0.000000
vn 0.000000 0.000000 0.000000
vn 0.000000 0.000000 0.000000
vn 0.000000 0.000000 0.000000
vn 0.000000 0.000000 0.000000
vn 0.000000 0.000000 0.000000
vn 0.000000 0.000000 0.000000
vn 0.000000 0.000000 0.000000
vn 0.000000 0.000000 0.000000
vn 0.000000 0.000000 0.000000
vn 0.000000 0.000000 0.000000
vn 0.000000 0.000000 0.000000
vn 0.000000 0.000000 0.000000
vn 0.000000 0.000000 0.000000
vn 0.000000 0.000000 0.000000
vn 0.000000 0.000000 0.000000
vn 0.000000 0.000000 0.000000
vn 0.000000 0.000000 0.000000
vn 0.000000 0.000000 0.000000
vn 0.000000 0.000000 0.000000
vn 0.000000 0.000000 0.000000
vn 0.464539 0.864391 -0.192439
vn 0.355548 0.864392 -0.355546
vn 0.403612 0.821092 -0.403616
vn 0.527334 0.821094 -0.218455
vn 0.192419 0.864394 -0.464541
vn 0.218430 0.821100 -0.527336
vn 0.000000 0.864393 -0.502816
vn -0.000001 0.821100 -0.570784
vn -0.192423 0.864395 -0.464536
vn -0.218426 0.821104 -0.527331
vn -0.355551 0.864391 -0.355544
vn -0.403611 0.821102 -0.403595
vn -0.464542 0.864394 -0.192417
vn -0.527330 0.821106 -0.218422
vn -0.502816 0.864394 -0.000000
vn -0.570784 0.821100 -0.000003
vn -0.464543 0.864393 0.192416
vn -0.527337 0.821101 0.218422
vn -0.355551 0.864391 0.355544
vn -0.403613 0.821097 0.403603
vn -0.192424 0.864395 0.464537
vn -0.218428 0.821101 0.527335
vn -0.000001 0.864392 0.502818
vn -0.000003 0.821099 0.570785
vn 0.192420 0.864393 0.464542
vn 0.218430 0.821099 0.527337
vn 0.355549 0.864391 0.355545
vn 0.403612 0.821092 0.403615
vn 0.464539 0.864391 0.192438
vn 0.527334 0.821095 0.218455
vn 0.502822 0.864390 0.000000
vn 0.570784 0.821100 0.000001
vn 0.733284 0.608298 -0.303757
vn 0.793700 0.608310 0.000002
vn 0.733283 0.608298 0.303757
vn 0.561237 0.608288 0.561247
vn 0.303737 0.608308 0.733284
vn 0.000002 0.608317 0.793694
vn -0.303731 0.608322 0.733274
vn -0.561228 0.608329 0.561213
vn -0.733276 0.608331 0.303710
vn -0.793682 0.608333 -0.000014
vn -0.733262 0.608337 -0.303731
vn -0.561227 0.608341 -0.561200
vn -0.303733 0.608333 -0.733265
vn 0.000005 0.608318 -0.793694
vn 0.303734 0.608310 -0.733284
vn 0.561236 0.608289 -0.561248
vn 0.844547 0.405418 -0.349825
vn 0.914131 0.405418 0.000002
vn 0.844546 0.405417 0.349826
vn 0.646370 0.405416 0.646408
vn 0.349812 0.405431 0.844545
vn -0.000009 0.405446 0.914119
vn -0.349800 0.405474 0.844530
vn -0.646367 0.405496 0.646361
vn -0.844525 0.405484 0.349799
vn -0.914102 0.405484 -0.000027
vn -0.844514 0.405492 -0.349817
vn -0.646383 0.405488 -0.646350
vn -0.349807 0.405472 -0.844528
vn -0.000003 0.405447 -0.914119
vn 0.349808 0.405435 -0.844545
vn 0.646367 0.405421 -0.646408
vn 0.879160 0.307362 -0.364151
vn 0.951589 0.307373 0.000002
vn 0.879160 0.307359 0.364153
vn 0.672860 0.307343 0.672904
vn 0.364162 0.307356 0.879158
vn 0.000012 0.307386 0.951585
vn -0.364142 0.307427 0.879141
vn -0.672836 0.307447 0.672881
vn -0.879144 0.307410 0.364150
vn -0.951568 0.307439 -0.000050
vn -0.879105 0.307502 -0.364166
vn -0.672871 0.307463 -0.672838
vn -0.364143 0.307415 -0.879145
vn 0.000021 0.307391 -0.951583
vn 0.364157 0.307363 -0.879157
vn 0.672859 0.307348 -0.672903
vn -0.923486 -0.025935 0.382754
vn -0.706890 -0.025951 0.706847
vn -0.706871 -0.025951 0.706867
vn -0.923481 -0.025935 0.382766
vn -0.382557 -0.026010 0.923566
vn -0.382595 -0.026010 0.923550
vn -0.000034 -0.025970 0.999663
vn -0.000039 -0.025970 0.999663
vn 0.382548 -0.025864 0.923573
vn 0.382533 -0.025864 0.923580
vn 0.706916 -0.025816 0.706826
vn 0.706873 -0.025816 0.706870
vn 0.923612 -0.025909 0.382452
vn 0.923618 -0.025909 0.382437
vn 0.999663 -0.025977 0.000001
vn 0.999663 -0.025977 -0.000001
vn 0.923615 -0.025927 -0.382444
vn 0.923618 -0.025927 -0.382437
vn 0.706900 -0.025906 -0.706838
vn 0.706847 -0.025906 -0.706892
vn 0.382556 -0.025995 -0.923566
vn 0.382591 -0.025995 -0.923552
vn -0.000013 -0.026022 -0.999661
vn 0.000054 -0.026022 -0.999661
vn -0.382553 -0.026000 -0.923568
vn -0.382588 -0.026000 -0.923553
vn -0.706832 -0.025945 -0.706905
vn -0.706816 -0.025945 -0.706921
vn -0.923484 -0.025933 -0.382759
vn -0.923480 -0.025933 -0.382770
vn -0.999662 -0.025986 0.000091
vn -0.999662 -0.025986 0.000091
vn 0.000000 0.000000 0.000000
vn 0.000000 0.000000 0.000000
vn 0.000000 0.000000 0.000000
vn 0.000000 0.000000 0.000000
vn 0.000000 0.000000 0.000000
vn 0.000000 0.000000 0.000000
vn 0.000000 0.000000 0.000000
vn 0.000000 0.000000 0.000000
vn 0.000000 0.000000 0.000000
vn 0.000000 0.000000 0.000000
vn 0.000000 0.000000 0.000000
vn 0.000000 0.000000 0.000000
vn 0.000000 0.000000 0.000000
vn 0.000000 0.000000 0.000000
vn 0.000000 0.000000 0.000000
vn 0.000000 0.000000 0.000000
vn 0.000000 0.000000 0.000000
vn 0.000000 0.000000 0.000000
vn 0.000000 0.000000 0.000000
vn 0.000000 0.000000 0.000000
vn 0.000000 0.000000 0.000000
vn 0.000000 0.000000 0.000000
vn 0.000000 0.000000 0.000000
vn 0.000000 0.000000 0.000000
vn 0.000000 0.000000 0.000000
vn 0.000000 0.000000 0.000000
vn 0.000000 0.000000 0.000000
vn 0.000000 0.000000 0.000000
vn 0.000000 0.000000 0.000000
vn 0.000000 0.000000 0.000000
vn 0.000000 0.000000 0.000000
vn 0.000000 0.000000 0.000000
vn 0.000000 0.000000 0.000000
vn 0.000000 0.000000 0.000000
vn 0.000000 0.000000 0.000000
vn 0.000000 0.000000 0.000000
vn 0.000000 0.000000 0.000000
vn 0.000000 0.000000 0.000000
vn 0.000000 0.000000 0.000000
vn 0.000000 0.000000 0.000000
vn 0.000000 0.000000 0.000000
vn 0.000000 0.000000 0.000000
vn 0.000000 0.000000 0.000000
vn 0.000000 0.000000 0.000000
vn 0.000000 0.000000 0.000000
vn 0.000000 0.000000 0.000000
vn 0.000000 0.000000 0.000000
vn 0.000000 0.000000 0.000000
vn 0.000000 0.000000 0.000000
vn 0.000000 0.000000 0.000000
vn 0.000000 0.000000 0.000000
vn 0.000000 0.000000 0.000000
vn 0.000000 0.000000 0.000000
vn 0.000000 0.000000 0.000000
vn 0.000000 0.000000 0.000000
vn 0.000000 0.000000 0.000000
vn 0.000000 0.000000 0.000000
vn 0.000000 0.000000 0.000000
vn 0.000000 0.000000 0.000000
vn 0.000000 0.000000 0.000000
vn 0.000000 0.000000 0.000000
vn 0.000000 0.000000 0.000000
vn 0.000000 0.000000 0.000000
vn 0.000000 0.000000 0.000000
vn -0.023923 0.999666 0.009812
vn -0.018430 0.999663 0.018286
vn -0.018431 0.999663 0.018286
vn -0.023922 0.999666 0.009812
vn -0.009918 0.999662 0.024050
vn -0.009918 0.999662 0.024050
vn 0.000075 0.999662 0.025985
vn 0.000076 0.999662 0.025985
vn 0.009943 0.999665 0.023916
vn 0.009944 0.999665 0.023916
vn 0.018299 0.999667 0.018196
vn 0.018299 0.999667 0.018196
vn 0.023865 0.999667 0.009863
vn 0.023865 0.999667 0.009863
vn 0.025894 0.999665 0.000108
vn 0.025894 0.999665 0.000108
vn 0.023988 0.999663 -0.009873
vn 0.023988 0.999663 -0.009873
vn 0.018378 0.999663 -0.018351
vn 0.018378 0.999663 -0.018351
vn 0.009970 0.999662 -0.024000
vn 0.009970 0.999662 -0.024000
vn 0.000019 0.999661 -0.026031
vn 0.000019 0.999661 -0.026031
vn -0.009963 0.999662 -0.024021
vn -0.009963 0.999662 -0.024021
vn -0.018406 0.999663 -0.018282
vn -0.018407 0.999663 -0.018281
vn -0.023893 0.999666 -0.009825
vn -0.023892 0.999666 -0.009825
vn -0.025762 0.999668 0.000011
vn -0.025762 0.999668 0.000011
vn 0.000069 1.000000 0.000142
vn 0.000009 1.000000 0.000038
vn 0.000012 1.000000 0.000042
vn -0.000142 1.000000 -0.000313
vn 0.000140 1.000000 -0.000107
vn 0.000230 1.000000 -0.000052
vn 0.000170 1.000000 -0.000045
vn 0.000214 1.000000 -0.000100
vn 0.000161 1.000000 0.000114
vn 0.000047 1.000000 0.000352
vn -0.000037 1.000000 0.000112
vn 0.000039 1.000000 0.000112
vn -0.000002 1.000000 0.000148
vn -0.000158 1.000000 0.000254
vn -0.000199 1.000000 0.000254
vn -0.000169 1.000000 0.000008
vn -0.000231 1.000000 -0.000314
vn 0.427120 -0.886705 -0.176980
vn 0.875168 -0.320322 -0.362595
vn 0.947291 -0.320373 -0.000004
vn 0.462285 -0.886731 -0.000010
vn 0.326946 -0.886679 -0.326965
vn 0.669841 -0.320271 -0.669881
vn 0.176954 -0.886693 -0.427158
vn 0.362532 -0.320277 -0.875210
vn 0.000022 -0.886708 -0.462331
vn 0.000034 -0.320315 -0.947311
vn -0.176878 -0.886729 -0.427113
vn -0.362488 -0.320355 -0.875200
vn -0.326890 -0.886749 -0.326833
vn -0.669868 -0.320363 -0.669809
vn -0.427120 -0.886730 -0.176855
vn -0.875236 -0.320318 -0.362434
vn -0.462363 -0.886691 0.000003
vn -0.947322 -0.320281 0.000006
vn -0.427175 -0.886693 0.176912
vn -0.875239 -0.320299 0.362443
vn -0.326930 -0.886705 0.326910
vn -0.669857 -0.320309 0.669846
vn -0.176923 -0.886703 0.427149
vn -0.362518 -0.320293 0.875211
vn -0.000011 -0.886701 0.462344
vn -0.000002 -0.320297 0.947317
vn 0.176942 -0.886697 0.427153
vn 0.362522 -0.320290 0.875210
vn 0.326923 -0.886692 0.326954
vn 0.669839 -0.320287 0.669875
vn 0.427104 -0.886716 0.176967
vn 0.875166 -0.320330 0.362592
vn 0.710215 0.639553 -0.294221
vn 0.710214 0.639553 -0.294226
vn 0.768765 0.639531 0.000008
vn 0.768765 0.639531 0.000008
vn 0.543544 0.639599 -0.543574
vn 0.543532 0.639599 -0.543585
vn 0.294202 0.639558 -0.710219
vn 0.294155 0.639558 -0.710239
vn 0.000001 0.639510 -0.768783
vn 0.000008 0.639510 -0.768783
vn -0.294237 0.639515 -0.710243
vn -0.294180 0.639515 -0.710267
vn -0.543629 0.639517 -0.543587
vn -0.543614 0.639517 -0.543601
vn -0.710271 0.639514 -0.294172
vn -0.710268 0.639514 -0.294179
vn -0.768770 0.639525 -0.000013
vn -0.768770 0.639525 -0.000013
vn -0.710256 0.639546 0.294139
vn -0.710254 0.639546 0.294142
vn -0.543565 0.639578 0.543578
vn -0.543556 0.639578 0.543587
vn -0.294200 0.639567 0.710211
vn -0.294150 0.639567 0.710232
vn 0.000004 0.639527 0.768768
vn 0.000000 0.639527 0.768768
vn 0.294172 0.639506 0.710278
vn 0.294219 0.639506 0.710259
vn 0.543600 0.639544 0.543582
vn 0.543588 0.639544 0.543594
vn 0.710215 0.639547 0.294234
vn 0.710213 0.639547 0.294238
vn 0.258070 -0.960189 -0.106942
vn 0.197565 -0.960173 -0.197577
vn 0.106926 -0.960179 -0.258116
vn 0.000021 -0.960189 -0.279351
vn -0.106851 -0.960204 -0.258051
vn -0.197494 -0.960213 -0.197452
vn -0.258073 -0.960198 -0.106854
vn -0.279391 -0.960178 -0.000007
vn -0.258142 -0.960173 0.106910
vn -0.197545 -0.960183 0.197549
vn -0.106904 -0.960184 0.258106
vn -0.000012 -0.960183 0.279372
vn 0.106913 -0.960183 0.258105
vn 0.197537 -0.960182 0.197560
vn 0.258053 -0.960195 0.106928
vn 0.279290 -0.960207 -0.000010
vn 0.686816 -0.237717 -0.686858
vn 0.897354 -0.237768 -0.371781
vn 0.371711 -0.237715 -0.897398
vn 0.000006 -0.237753 -0.971326
vn -0.371683 -0.237794 -0.897388
vn -0.686854 -0.237792 -0.686794
vn -0.897421 -0.237753 -0.371630
vn -0.971335 -0.237716 0.000005
vn -0.897425 -0.237734 0.371633
vn -0.686844 -0.237738 0.686823
vn -0.371694 -0.237727 0.897402
vn -0.000020 -0.237730 0.971331
vn 0.371713 -0.237729 0.897393
vn 0.686815 -0.237733 0.686854
vn 0.897353 -0.237774 0.371782
vn 0.971309 -0.237820 -0.000003
vn -0.030318 0.999461 0.012616
vn -0.023258 0.999459 0.023258
vn -0.023258 0.999459 0.023259
vn -0.030318 0.999461 0.012616
vn -0.012580 0.999460 0.030360
vn -0.012581 0.999460 0.030360
vn -0.000007 0.999462 0.032806
vn -0.000008 0.999462 0.032806
vn 0.012508 0.999463 0.030278
vn 0.012508 0.999463 0.030279
vn 0.023164 0.999464 0.023147
vn 0.023164 0.999464 0.023147
vn 0.030314 0.999462 0.012493
vn 0.030314 0.999462 0.012494
vn 0.032843 0.999460 -0.000008
vn 0.032843 0.999460 -0.000008
vn 0.030375 0.999460 -0.012545
vn 0.030375 0.999460 -0.012546
vn 0.023246 0.999460 -0.023237
vn 0.023246 0.999460 -0.023237
vn 0.012575 0.999460 -0.030355
vn 0.012576 0.999460 -0.030355
vn 0.000014 0.999461 -0.032842
vn 0.000014 0.999461 -0.032842
vn -0.012574 0.999460 -0.030348
vn -0.012573 0.999460 -0.030349
vn -0.023232 0.999460 -0.023240
vn -0.023231 0.999460 -0.023240
vn -0.030301 0.999461 -0.012601
vn -0.030302 0.999461 -0.012600
vn -0.032774 0.999463 0.000014
vn -0.032774 0.999463 0.000014
s 1
g group9 pSphere2
usemtl lambert9SG
f 147/171/163 148/172/164 164/189/165 163/188/166
f 148/172/164 149/173/167 165/190/168 164/189/165
f 149/173/167 150/174/169 166/191/170 165/190/168
f 150/174/169 151/175/171 167/192/172 166/191/170
f 151/175/171 152/176/173 168/193/174 167/192/172
f 152/176/173 153/177/175 169/194/176 168/193/174
f 153/177/175 154/178/177 170/195/178 169/194/176
f 154/178/177 155/179/179 171/196/180 170/195/178
f 155/179/179 156/180/181 172/197/182 171/196/180
f 156/180/181 157/181/183 173/198/184 172/197/182
f 157/181/183 158/182/185 174/199/186 173/198/184
f 158/182/185 159/183/187 175/200/188 174/199/186
f 159/183/187 160/184/189 176/201/190 175/200/188
f 160/184/189 161/185/191 177/202/192 176/201/190
f 161/185/191 162/186/193 178/203/194 177/202/192
f 162/186/193 147/187/163 163/204/166 178/203/194
f 163/188/166 164/189/165 180/206/195 179/205/196
f 164/189/165 165/190/168 181/207/197 180/206/195
f 165/190/168 166/191/170 182/208/198 181/207/197
f 166/191/170 167/192/172 183/209/199 182/208/198
f 167/192/172 168/193/174 184/210/200 183/209/199
f 168/193/174 169/194/176 185/211/201 184/210/200
f 169/194/176 170/195/178 186/212/202 185/211/201
f 170/195/178 171/196/180 187/213/203 186/212/202
f 171/196/180 172/197/182 188/214/204 187/213/203
f 172/197/182 173/198/184 189/215/205 188/214/204
f 173/198/184 174/199/186 190/216/206 189/215/205
f 174/199/186 175/200/188 191/217/207 190/216/206
f 175/200/188 176/201/190 192/218/208 191/217/207
f 176/201/190 177/202/192 193/219/209 192/218/208
f 177/202/192 178/203/194 194/220/210 193/219/209
f 178/203/194 163/204/166 179/221/196 194/220/210
f 179/205/196 180/206/195 196/223/211 195/222/212
f 180/206/195 181/207/197 197/224/213 196/223/211
f 181/207/197 182/208/198 198/225/214 197/224/213
f 182/208/198 183/209/199 199/226/215 198/225/214
f 183/209/199 184/210/200 200/227/216 199/226/215
f 184/210/200 185/211/201 201/228/217 200/227/216
f 185/211/201 186/212/202 202/229/218 201/228/217
f 186/212/202 187/213/203 203/230/219 202/229/218
f 187/213/203 188/214/204 204/231/220 203/230/219
f 188/214/204 189/215/205 205/232/221 204/231/220
f 189/215/205 190/216/206 206/233/222 205/232/221
f 190/216/206 191/217/207 207/234/223 206/233/222
f 191/217/207 192/218/208 208/235/224 207/234/223
f 192/218/208 193/219/209 209/236/225 208/235/224
f 193/219/209 194/220/210 210/237/226 209/236/225
f 194/220/210 179/221/196 195/238/212 210/237/226
f 195/222/212 196/223/211 212/240/227 211/239/228
f 196/223/211 197/224/213 213/241/229 212/240/227
f 197/224/213 198/225/214 214/242/230 213/241/229
f 198/225/214 199/226/215 215/243/231 214/242/230
f 199/226/215 200/227/216 216/244/232 215/243/231
f 200/227/216 201/228/217 217/245/233 216/244/232
f 201/228/217 202/229/218 218/246/234 217/245/233
f 202/229/218 203/230/219 219/247/235 218/246/234
f 203/230/219 204/231/220 220/248/236 219/247/235
f 204/231/220 205/232/221 221/249/237 220/248/236
f 205/232/221 206/233/222 222/250/238 221/249/237
f 206/233/222 207/234/223 223/251/239 222/250/238
f 207/234/223 208/235/224 224/252/240 223/251/239
f 208/235/224 209/236/225 225/253/241 224/252/240
f 209/236/225 210/237/226 226/254/242 225/253/241
f 210/237/226 195/238/212 211/255/228 226/254/242
f 211/239/228 212/240/227 228/257/243 227/256/244
f 212/240/227 213/241/229 229/258/245 228/257/243
f 213/241/229 214/242/230 230/259/246 229/258/245
f 214/242/230 215/243/231 231/260/247 230/259/246
f 215/243/231 216/244/232 232/261/248 231/260/247
f 216/244/232 217/245/233 233/262/249 232/261/248
f 217/245/233 218/246/234 234/263/250 233/262/249
f 218/246/234 219/247/235 235/264/251 234/263/250
f 219/247/235 220/248/236 236/265/252 235/264/251
f 220/248/236 221/249/237 237/266/253 236/265/252
f 221/249/237 222/250/238 238/267/254 237/266/253
f 222/250/238 223/251/239 239/268/255 238/267/254
f 223/251/239 224/252/240 240/269/256 239/268/255
f 224/252/240 225/253/241 241/270/257 240/269/256
f 225/253/241 226/254/242 242/271/258 241/270/257
f 226/254/242 211/255/228 227/272/244 242/271/258
f 227/256/244 228/257/243 244/274/259 243/273/260
f 228/257/243 229/258/245 245/275/261 244/274/259
f 229/258/245 230/259/246 246/276/262 245/275/261
f 230/259/246 231/260/247 247/277/263 246/276/262
f 231/260/247 232/261/248 248/278/264 247/277/263
f 232/261/248 233/262/249 249/279/265 248/278/264
f 233/262/249 234/263/250 250/280/266 249/279/265
f 234/263/250 235/264/251 251/281/267 250/280/266
f 235/264/251 236/265/252 252/282/268 251/281/267
f 236/265/252 237/266/253 253/283/269 252/282/268
f 237/266/253 238/267/254 254/284/270 253/283/269
f 238/267/254 239/268/255 255/285/271 254/284/270
f 239/268/255 240/269/256 256/286/272 255/285/271
f 240/269/256 241/270/257 257/287/273 256/286/272
f 241/270/257 242/271/258 258/288/274 257/287/273
f 242/271/258 227/272/244 243/289/260 258/288/274
f 243/273/260 244/274/259 260/291/275 259/290/276
f 244/274/259 245/275/261 261/292/277 260/291/275
f 245/275/261 246/276/262 262/293/278 261/292/277
f 246/276/262 247/277/263 263/294/279 262/293/278
f 247/277/263 248/278/264 264/295/280 263/294/279
f 248/278/264 249/279/265 265/296/281 264/295/280
f 249/279/265 250/280/266 266/297/282 265/296/281
f 250/280/266 251/281/267 267/298/283 266/297/282
f 251/281/267 252/282/268 268/299/284 267/298/283
f 252/282/268 253/283/269 269/300/285 268/299/284
f 253/283/269 254/284/270 270/301/286 269/300/285
f 254/284/270 255/285/271 271/302/287 270/301/286
f 255/285/271 256/286/272 272/303/288 271/302/287
f 256/286/272 257/287/273 273/304/289 272/303/288
f 257/287/273 258/288/274 274/305/290 273/304/289
f 258/288/274 243/289/260 259/306/276 274/305/290
f 259/290/276 260/291/275 276/308/291 275/307/292
f 260/291/275 261/292/277 277/309/293 276/308/291
f 261/292/277 262/293/278 278/310/294 277/309/293
f 262/293/278 263/294/279 279/311/295 278/310/294
f 263/294/279 264/295/280 280/312/296 279/311/295
f 264/295/280 265/296/281 281/313/297 280/312/296
f 265/296/281 266/297/282 282/314/298 281/313/297
f 266/297/282 267/298/283 283/315/299 282/314/298
f 267/298/283 268/299/284 284/316/300 283/315/299
f 268/299/284 269/300/285 285/317/301 284/316/300
f 269/300/285 270/301/286 286/318/302 285/317/301
f 270/301/286 271/302/287 287/319/303 286/318/302
f 271/302/287 272/303/288 288/320/304 287/319/303
f 272/303/288 273/304/289 289/321/305 288/320/304
f 273/304/289 274/305/290 290/322/306 289/321/305
f 274/305/290 259/306/276 275/323/292 290/322/306
f 275/307/292 276/308/291 292/325/307 291/324/308
f 276/308/291 277/309/293 293/326/309 292/325/307
f 277/309/293 278/310/294 294/327/310 293/326/309
f 278/310/294 279/311/295 295/328/311 294/327/310
f 279/311/295 280/312/296 296/329/312 295/328/311
f 280/312/296 281/313/297 297/330/313 296/329/312
f 281/313/297 282/314/298 298/331/314 297/330/313
f 282/314/298 283/315/299 299/332/315 298/331/314
f 283/315/299 284/316/300 300/333/316 299/332/315
f 284/316/300 285/317/301 301/334/317 300/333/316
f 285/317/301 286/318/302 302/335/318 301/334/317
f 286/318/302 287/319/303 303/336/319 302/335/318
f 287/319/303 288/320/304 304/337/320 303/336/319
f 288/320/304 289/321/305 305/338/321 304/337/320
f 289/321/305 290/322/306 306/339/322 305/338/321
f 290/322/306 275/323/292 291/340/308 306/339/322
f 291/324/308 292/325/307 308/342/323 307/341/324
f 292/325/307 293/326/309 309/343/325 308/342/323
f 293/326/309 294/327/310 310/344/326 309/343/325
f 294/327/310 295/328/311 311/345/327 310/344/326
f 295/328/311 296/329/312 312/346/328 311/345/327
f 296/329/312 297/330/313 313/347/329 312/346/328
f 297/330/313 298/331/314 314/348/330 313/347/329
f 298/331/314 299/332/315 315/349/331 314/348/330
f 299/332/315 300/333/316 316/350/332 315/349/331
f 300/333/316 301/334/317 317/351/333 316/350/332
f 301/334/317 302/335/318 318/352/334 317/351/333
f 302/335/318 303/336/319 319/353/335 318/352/334
f 303/336/319 304/337/320 320/354/336 319/353/335
f 304/337/320 305/338/321 321/355/337 320/354/336
f 305/338/321 306/339/322 322/356/338 321/355/337
f 306/339/322 291/340/308 307/357/324 322/356/338
f 307/341/324 308/342/323 324/359/339 323/358/340
f 308/342/323 309/343/325 325/360/341 324/359/339
f 309/343/325 310/344/326 326/361/342 325/360/341
f 310/344/326 311/345/327 327/362/343 326/361/342
f 311/345/327 312/346/328 328/363/344 327/362/343
f 312/346/328 313/347/329 329/364/345 328/363/344
f 313/347/329 314/348/330 330/365/346 329/364/345
f 314/348/330 315/349/331 331/366/347 330/365/346
f 315/349/331 316/350/332 332/367/348 331/366/347
f 316/350/332 317/351/333 333/368/349 332/367/348
f 317/351/333 318/352/334 334/369/350 333/368/349
f 318/352/334 319/353/335 335/370/351 334/369/350
f 319/353/335 320/354/336 336/371/352 335/370/351
f 320/354/336 321/355/337 337/372/353 336/371/352
f 321/355/337 322/356/338 338/373/354 337/372/353
f 322/356/338 307/357/324 323/374/340 338/373/354
f 323/358/340 324/359/339 340/376/355 339/375/356
f 324/359/339 325/360/341 341/377/357 340/376/355
f 325/360/341 326/361/342 342/378/358 341/377/357
f 326/361/342 327/362/343 343/379/359 342/378/358
f 327/362/343 328/363/344 344/380/360 343/379/359
f 328/363/344 329/364/345 345/381/361 344/380/360
f 329/364/345 330/365/346 346/382/362 345/381/361
f 330/365/346 331/366/347 347/383/363 346/382/362
f 331/366/347 332/367/348 348/384/364 347/383/363
f 332/367/348 333/368/349 349/385/365 348/384/364
f 333/368/349 334/369/350 350/386/366 349/385/365
f 334/369/350 335/370/351 351/387/367 350/386/366
f 335/370/351 336/371/352 352/388/368 351/387/367
f 336/371/352 337/372/353 353/389/369 352/388/368
f 337/372/353 338/373/354 354/390/370 353/389/369
f 338/373/354 323/374/340 339/391/356 354/390/370
f 148/172/164 147/171/163 355/392/371
f 149/173/167 148/172/164 355/393/371
f 150/174/169 149/173/167 355/394/371
f 151/175/171 150/174/169 355/395/371
f 152/176/173 151/175/171 355/396/371
f 153/177/175 152/176/173 355/397/371
f 154/178/177 153/177/175 355/398/371
f 155/179/179 154/178/177 355/399/371
f 156/180/181 155/179/179 355/400/371
f 157/181/183 156/180/181 355/401/371
f 158/182/185 157/181/183 355/402/371
f 159/183/187 158/182/185 355/403/371
f 160/184/189 159/183/187 355/404/371
f 161/185/191 160/184/189 355/405/371
f 162/186/193 161/185/191 355/406/371
f 147/187/163 162/186/193 355/407/371
s off
f 339/376/372 340/409/373 357/375/374 356/408/375
f 340/377/376 341/411/377 358/376/378 357/410/379
f 341/378/380 342/413/381 359/377/382 358/412/383
f 342/379/384 343/415/385 360/378/386 359/414/387
f 343/380/388 344/417/389 361/379/390 360/416/391
f 344/381/392 345/419/393 362/380/394 361/418/395
f 345/382/396 346/421/397 363/381/398 362/420/399
f 346/383/400 347/423/401 364/382/402 363/422/403
f 347/384/404 348/425/405 365/383/406 364/424/407
f 348/385/408 349/427/409 366/384/410 365/426/411
f 349/386/412 350/429/413 367/385/414 366/428/415
f 350/387/416 351/431/417 368/386/418 367/430/419
f 351/388/420 352/433/421 369/387/422 368/432/423
f 352/389/424 353/435/425 370/388/426 369/434/427
f 353/390/428 354/437/429 371/389/430 370/436/431
f 354/391/432 339/439/433 356/390/434 371/438/435
s 2
f 339/376/436 340/409/437 403/486/438 388/457/439
f 340/377/437 341/411/440 402/484/441 403/487/438
f 341/378/440 342/413/442 401/482/443 402/485/441
f 342/379/442 343/415/444 400/480/445 401/483/443
f 343/380/444 344/417/446 399/478/447 400/481/445
f 344/381/446 345/419/448 398/476/449 399/479/447
f 345/382/448 346/421/450 397/474/451 398/477/449
f 346/383/450 347/423/452 396/472/453 397/475/451
f 347/384/452 348/425/454 395/470/455 396/473/453
f 348/385/454 349/427/456 394/468/457 395/471/455
f 349/386/456 350/429/458 393/466/459 394/469/457
f 350/387/458 351/431/460 392/464/461 393/467/459
f 351/388/460 352/433/462 391/462/463 392/465/461
f 352/389/462 353/435/464 390/460/465 391/463/463
f 353/390/464 354/437/466 389/458/467 390/461/465
f 354/391/466 339/439/436 388/456/439 389/459/467
f 389/459/467 388/456/439 404/488/468 405/491/469
f 390/461/465 389/458/467 405/490/469 406/493/470
f 391/463/463 390/460/465 406/492/470 407/495/471
f 392/465/461 391/462/463 407/494/471 408/497/472
f 393/467/459 392/464/461 408/496/472 409/499/473
f 394/469/457 393/466/459 409/498/473 410/501/474
f 395/471/455 394/468/457 410/500/474 411/503/475
f 396/473/453 395/470/455 411/502/475 412/505/476
f 397/475/451 396/472/453 412/504/476 413/507/477
f 398/477/449 397/474/451 413/506/477 414/509/478
f 399/479/447 398/476/449 414/508/478 415/511/479
f 400/481/445 399/478/447 415/510/479 416/513/480
f 401/483/443 400/480/445 416/512/480 417/515/481
f 402/485/441 401/482/443 417/514/481 418/517/482
f 403/487/438 402/484/441 418/516/482 419/519/483
f 388/457/439 403/486/438 419/518/483 404/489/468
f 405/491/469 404/488/468 420/520/484 421/523/485
f 406/493/470 405/490/469 421/522/485 422/525/486
f 407/495/471 406/492/470 422/524/486 423/527/487
f 408/497/472 407/494/471 423/526/487 424/529/488
f 409/499/473 408/496/472 424/528/488 425/531/489
f 410/501/474 409/498/473 425/530/489 426/533/490
f 411/503/475 410/500/474 426/532/490 427/535/491
f 412/505/476 411/502/475 427/534/491 428/537/492
f 413/507/477 412/504/476 428/536/492 429/539/493
f 414/509/478 413/506/477 429/538/493 430/541/494
f 415/511/479 414/508/478 430/540/494 431/543/495
f 416/513/480 415/510/479 431/542/495 432/545/496
f 417/515/481 416/512/480 432/544/496 433/547/497
f 418/517/482 417/514/481 433/546/497 434/549/498
f 419/519/483 418/516/482 434/548/498 435/551/499
f 404/489/468 419/518/483 435/550/499 420/521/484
f 421/523/485 420/520/484 372/759/500 387/455/501
f 422/525/486 421/522/485 387/757/501 386/454/502
f 423/527/487 422/524/486 386/755/502 385/453/503
f 424/529/488 423/526/487 385/753/503 384/452/504
f 425/531/489 424/528/488 384/751/504 383/451/505
f 426/533/490 425/530/489 383/749/505 382/450/506
f 427/535/491 426/532/490 382/747/506 381/449/507
f 428/537/492 427/534/491 381/745/507 380/448/508
f 429/539/493 428/536/492 380/743/508 379/447/509
f 430/541/494 429/538/493 379/741/509 378/446/510
f 431/543/495 430/540/494 378/739/510 377/445/511
f 432/545/496 431/542/495 377/737/511 376/444/512
f 433/547/497 432/544/496 376/735/512 375/443/513
f 434/549/498 433/546/497 375/733/513 374/442/514
f 435/551/499 434/548/498 374/731/514 373/441/515
f 420/521/484 435/550/499 373/729/515 372/440/500
s 3
f 436/794/516 437/552/517 453/568/518 452/569/519
f 437/796/517 438/553/520 454/570/521 453/571/518
f 438/798/520 439/554/522 455/572/523 454/573/521
f 439/800/522 440/555/524 456/574/525 455/575/523
f 440/802/524 441/556/526 457/576/527 456/577/525
f 441/804/526 442/557/528 458/578/529 457/579/527
f 442/806/528 443/558/530 459/580/531 458/581/529
f 443/808/530 444/559/532 460/582/533 459/583/531
f 444/810/532 445/560/534 461/584/535 460/585/533
f 445/812/534 446/561/536 462/586/537 461/587/535
f 446/814/536 447/562/538 463/588/539 462/589/537
f 447/816/538 448/563/540 464/590/541 463/591/539
f 448/818/540 449/564/542 465/592/543 464/593/541
f 449/820/542 450/565/544 466/594/545 465/595/543
f 450/822/544 451/566/546 467/596/547 466/597/545
f 451/824/546 436/567/516 452/598/519 467/599/547
s off
f 452/569/548 453/568/549 469/600/550 468/601/551
f 453/571/552 454/570/553 470/602/554 469/603/555
f 454/573/556 455/572/557 471/604/558 470/605/559
f 455/575/560 456/574/561 472/606/562 471/607/563
f 456/577/564 457/576/565 473/608/566 472/609/567
f 457/579/568 458/578/569 474/610/570 473/611/571
f 458/581/572 459/580/573 475/612/574 474/613/575
f 459/583/576 460/582/577 476/614/578 475/615/579
f 460/585/580 461/584/581 477/616/582 476/617/583
f 461/587/584 462/586/585 478/618/586 477/619/587
f 462/589/588 463/588/589 479/620/590 478/621/591
f 463/591/592 464/590/593 480/622/594 479/623/595
f 464/593/596 465/592/597 481/624/598 480/625/599
f 465/595/600 466/594/601 482/626/602 481/627/603
f 466/597/604 467/596/605 483/628/606 482/629/607
f 467/599/608 452/598/609 468/630/610 483/631/611
s 4
f 452/569/612 453/568/613 485/632/614 484/633/615
f 453/571/613 454/570/616 486/634/617 485/635/614
f 454/573/616 455/572/618 487/636/619 486/637/617
f 455/575/618 456/574/620 488/638/621 487/639/619
f 456/577/620 457/576/622 489/640/623 488/641/621
f 457/579/622 458/578/624 490/642/625 489/643/623
f 458/581/624 459/580/626 491/644/627 490/645/625
f 459/583/626 460/582/628 492/646/629 491/647/627
f 460/585/628 461/584/630 493/648/631 492/649/629
f 461/587/630 462/586/632 494/650/633 493/651/631
f 462/589/632 463/588/634 495/652/635 494/653/633
f 463/591/634 464/590/636 496/654/637 495/655/635
f 464/593/636 465/592/638 497/656/639 496/657/637
f 465/595/638 466/594/640 498/658/641 497/659/639
f 466/597/640 467/596/642 499/660/643 498/661/641
f 467/599/642 452/598/612 484/662/615 499/663/643
s 5
f 494/653/644 500/664/645 493/651/646
f 485/635/647 486/637/648 500/664/645
f 500/664/645 486/637/648 487/639/649
f 500/664/645 487/639/649 488/641/650
f 500/664/645 488/641/650 489/643/651
f 500/664/645 489/643/651 490/645/652
f 500/664/645 490/645/652 491/647/653
f 500/664/645 491/647/653 492/649/654
f 500/664/645 492/649/654 493/651/646
f 495/655/655 500/664/645 494/653/644
f 496/657/656 500/664/645 495/655/655
f 497/659/657 500/664/645 496/657/656
f 498/661/658 500/664/645 497/659/657
f 499/663/659 500/664/645 498/661/658
f 484/633/660 500/664/645 499/663/659
f 485/635/647 500/664/645 484/633/660
s 7
f 501/665/661 502/791/662 532/666/663 531/760/664
f 502/667/662 501/730/661 503/668/665 504/761/666
f 504/669/666 503/732/665 505/670/667 506/763/668
f 506/671/668 505/734/667 507/672/669 508/765/670
f 508/673/670 507/736/669 509/674/671 510/767/672
f 510/675/672 509/738/671 511/676/673 512/769/674
f 512/677/674 511/740/673 513/678/675 514/771/676
f 514/679/676 513/742/675 515/680/677 516/773/678
f 516/681/678 515/744/677 517/682/679 518/775/680
f 518/683/680 517/746/679 519/684/681 520/777/682
f 520/685/682 519/748/681 521/686/683 522/779/684
f 522/687/684 521/750/683 523/688/685 524/781/686
f 524/689/686 523/752/685 525/690/687 526/783/688
f 526/691/688 525/754/687 527/692/689 528/785/690
f 528/693/690 527/756/689 529/694/691 530/787/692
f 530/695/692 529/758/691 531/696/664 532/789/663
s 8
f 533/697/693 534/823/694 564/698/695 563/792/696
f 534/699/694 533/762/693 535/700/697 536/793/698
f 536/701/698 535/764/697 537/702/699 538/795/700
f 538/703/700 537/766/699 539/704/701 540/797/702
f 540/705/702 539/768/701 541/706/703 542/799/704
f 542/707/704 541/770/703 543/708/705 544/801/706
f 544/709/706 543/772/705 545/710/707 546/803/708
f 546/711/708 545/774/707 547/712/709 548/805/710
f 548/713/710 547/776/709 549/714/711 550/807/712
f 550/715/712 549/778/711 551/716/713 552/809/714
f 552/717/714 551/780/713 553/718/715 554/811/716
f 554/719/716 553/782/715 555/720/717 556/813/718
f 556/721/718 555/784/717 557/722/719 558/815/720
f 558/723/720 557/786/719 559/724/721 560/817/722
f 560/725/722 559/788/721 561/726/723 562/819/724
f 562/727/724 561/790/723 563/728/696 564/821/695
s 7
f 372/440/725 373/729/726 503/668/665 501/730/661
f 373/441/726 374/731/727 505/670/667 503/732/665
f 374/442/727 375/733/728 507/672/669 505/734/667
f 375/443/728 376/735/729 509/674/671 507/736/669
f 376/444/729 377/737/730 511/676/673 509/738/671
f 377/445/730 378/739/731 513/678/675 511/740/673
f 378/446/731 379/741/732 515/680/677 513/742/675
f 379/447/732 380/743/733 517/682/679 515/744/677
f 380/448/733 381/745/734 519/684/681 517/746/679
f 381/449/734 382/747/735 521/686/683 519/748/681
f 382/450/735 383/749/736 523/688/685 521/750/683
f 383/451/736 384/751/737 525/690/687 523/752/685
f 384/452/737 385/753/738 527/692/689 525/754/687
f 385/453/738 386/755/739 529/694/691 527/756/689
f 386/454/739 387/757/740 531/696/664 529/758/691
f 387/455/740 372/759/725 501/665/661 531/760/664
f 502/667/662 504/761/666 535/700/741 533/762/742
f 504/669/666 506/763/668 537/702/743 535/764/741
f 506/671/668 508/765/670 539/704/744 537/766/743
f 508/673/670 510/767/672 541/706/745 539/768/744
f 510/675/672 512/769/674 543/708/746 541/770/745
f 512/677/674 514/771/676 545/710/747 543/772/746
f 514/679/676 516/773/678 547/712/748 545/774/747
f 516/681/678 518/775/680 549/714/749 547/776/748
f 518/683/680 520/777/682 551/716/750 549/778/749
f 520/685/682 522/779/684 553/718/751 551/780/750
f 522/687/684 524/781/686 555/720/752 553/782/751
f 524/689/686 526/783/688 557/722/753 555/784/752
f 526/691/688 528/785/690 559/724/754 557/786/753
f 528/693/690 530/787/692 561/726/755 559/788/754
f 530/695/692 532/789/663 563/728/756 561/790/755
f 532/666/663 502/791/662 533/697/742 563/792/756
s 9
f 534/699/757 536/793/758 437/552/759 436/794/760
f 536/701/758 538/795/761 438/553/762 437/796/759
f 538/703/761 540/797/763 439/554/764 438/798/762
f 540/705/763 542/799/765 440/555/766 439/800/764
f 542/707/765 544/801/767 441/556/768 440/802/766
f 544/709/767 546/803/769 442/557/770 441/804/768
f 546/711/769 548/805/771 443/558/772 442/806/770
f 548/713/771 550/807/773 444/559/774 443/808/772
f 550/715/773 552/809/775 445/560/776 444/810/774
f 552/717/775 554/811/777 446/561/778 445/812/776
f 554/719/777 556/813/779 447/562/780 446/814/778
f 556/721/779 558/815/781 448/563/782 447/816/780
f 558/723/781 560/817/783 449/564/784 448/818/782
f 560/725/783 562/819/785 450/565/786 449/820/784
f 562/727/785 564/821/787 451/566/788 450/822/786
f 564/698/787 534/823/757 436/567/760 451/824/788
g default
v -3624.396960 168.016052 26.462013
v -3626.503162 168.016052 23.310208
v -3629.654495 168.016052 21.204242
v -3633.372796 168.016052 20.464718
v -3637.090337 168.016052 21.204237
v -3640.242429 168.016052 23.310200
v -3642.347872 168.016052 26.462001
v -3643.087889 168.016052 30.179809
v -3642.347872 168.016052 33.897617
v -3640.242429 168.016052 37.049422
v -3637.090337 168.016052 39.155387
v -3633.372796 168.016052 39.894908
v -3629.654495 168.016052 39.155387
v -3626.503162 168.016052 37.049422
v -3624.396960 168.016052 33.897620
v -3623.657702 168.016052 30.179815
v -3633.372796 168.016052 30.179815
v -3633.372796 179.252086 30.179815
v -3623.252401 178.715439 25.987987
v -3623.704001 179.252086 26.174945
v -3625.626906 178.715439 22.434315
v -3625.972627 179.252086 22.779790
v -3629.180885 178.715439 20.059829
v -3629.367597 179.252086 20.511207
v -3633.372796 178.715439 19.226019
v -3633.372796 179.252086 19.714587
v -3637.564707 178.715439 20.059824
v -3637.377615 179.252086 20.511202
v -3641.118306 178.715439 22.434308
v -3640.772965 179.252086 22.779784
v -3643.492811 178.715439 25.987975
v -3643.041211 179.252086 26.174933
v -3644.326564 178.715439 30.179809
v -3643.837773 179.252086 30.179809
v -3643.492811 178.715439 34.371646
v -3643.041211 179.252086 34.184688
v -3641.118306 178.715439 37.925310
v -3640.772965 179.252086 37.579842
v -3637.564707 178.715439 40.299795
v -3637.377615 179.252086 39.848417
v -3633.372796 178.715439 41.133610
v -3633.372796 179.252086 40.645041
v -3629.180885 178.715439 40.299795
v -3629.367597 179.252086 39.848426
v -3625.626906 178.715439 37.925319
v -3625.972627 179.252086 37.579844
v -3623.252401 178.715439 34.371649
v -3623.704001 179.252086 34.184691
v -3622.418648 178.715439 30.179815
v -3622.907439 179.252086 30.179815
vt 0.644356 0.096456
vt 0.610485 0.045765
vt 0.559794 0.011894
vt 0.500000 0.000000
vt 0.440206 0.011894
vt 0.389515 0.045765
vt 0.355644 0.096456
vt 0.343750 0.156250
vt 0.355644 0.216044
vt 0.389515 0.266735
vt 0.440206 0.300606
vt 0.500000 0.312500
vt 0.559794 0.300606
vt 0.610485 0.266735
vt 0.644356 0.216044
vt 0.656250 0.156250
vt 0.500000 0.156250
vt 0.625000 0.669589
vt 0.624611 0.686680
vt 0.609767 0.686680
vt 0.375392 0.686680
vt 0.390236 0.686680
vt 0.391017 0.686680
vt 0.405860 0.686680
vt 0.406641 0.686680
vt 0.421486 0.686680
vt 0.422268 0.686680
vt 0.437111 0.686680
vt 0.437892 0.686680
vt 0.452737 0.686680
vt 0.453518 0.686680
vt 0.468361 0.686680
vt 0.469142 0.686680
vt 0.483986 0.686680
vt 0.484768 0.686680
vt 0.499612 0.686680
vt 0.500393 0.686680
vt 0.515236 0.686680
vt 0.516017 0.686680
vt 0.530862 0.686680
vt 0.531643 0.686680
vt 0.546486 0.686680
vt 0.547268 0.686680
vt 0.562113 0.686680
vt 0.562894 0.686680
vt 0.577737 0.686680
vt 0.578518 0.686680
vt 0.593362 0.686680
vt 0.594143 0.686680
vt 0.608987 0.686680
vt 0.375000 0.312500
vt 0.390625 0.312500
vt 0.375000 0.669568
vt 0.406250 0.312500
vt 0.390624 0.669589
vt 0.421875 0.312500
vt 0.406250 0.669589
vt 0.437499 0.312501
vt 0.421875 0.669589
vt 0.453125 0.312500
vt 0.437500 0.669589
vt 0.468750 0.312500
vt 0.453125 0.669589
vt 0.484375 0.312500
vt 0.468750 0.669589
vt 0.500000 0.312500
vt 0.484375 0.669589
vt 0.515625 0.312500
vt 0.500000 0.669589
vt 0.531250 0.312500
vt 0.515625 0.669589
vt 0.546875 0.312500
vt 0.531250 0.669589
vt 0.562500 0.312500
vt 0.546875 0.669589
vt 0.578125 0.312500
vt 0.562500 0.669589
vt 0.593750 0.312500
vt 0.578126 0.669589
vt 0.609375 0.312500
vt 0.593750 0.669589
vt 0.625000 0.312501
vt 0.609375 0.669589
vt 0.604964 0.948712
vt 0.556810 0.980890
vt 0.500000 0.992189
vt 0.443195 0.980889
vt 0.395036 0.948712
vt 0.362863 0.900555
vt 0.351565 0.843750
vt 0.362863 0.786945
vt 0.395036 0.738788
vt 0.443195 0.706611
vt 0.500000 0.695311
vt 0.556810 0.706610
vt 0.604964 0.738788
vt 0.637142 0.786944
vt 0.648441 0.843750
vt 0.637142 0.900556
vt 0.500000 0.843750
vn 0.000000 -1.000000 0.000000
vn 0.000000 -1.000000 0.000000
vn 0.000000 -1.000000 0.000000
vn 0.000000 -1.000000 0.000000
vn 0.000000 -1.000000 0.000000
vn 0.000000 -1.000000 0.000000
vn 0.000000 -1.000000 0.000000
vn 0.000000 -1.000000 0.000000
vn 0.000000 -1.000000 0.000000
vn 0.000000 -1.000000 0.000000
vn 0.000000 -1.000000 0.000000
vn 0.000000 -1.000000 0.000000
vn 0.000000 -1.000000 0.000000
vn 0.000000 -1.000000 0.000000
vn 0.000000 -1.000000 0.000000
vn 0.000000 -1.000000 0.000000
vn 0.000000 -1.000000 0.000000
vn 0.683037 0.673365 -0.282912
vn 0.683031 0.673365 -0.282928
vn 0.739304 0.673372 -0.000000
vn 0.739304 0.673372 0.000000
vn 0.522834 0.673282 -0.522816
vn 0.522810 0.673282 -0.522840
vn 0.282952 0.673197 -0.683187
vn 0.282992 0.673197 -0.683170
vn 0.000000 0.673201 -0.739460
vn 0.000000 0.673201 -0.739460
vn -0.282984 0.673211 -0.683160
vn -0.282963 0.673211 -0.683168
vn -0.522860 0.673222 -0.522866
vn -0.522874 0.673222 -0.522852
vn -0.683095 0.673304 -0.282919
vn -0.683089 0.673304 -0.282933
vn -0.739304 0.673372 -0.000000
vn -0.739304 0.673372 -0.000000
vn -0.683096 0.673303 0.282919
vn -0.683090 0.673303 0.282933
vn -0.522862 0.673221 0.522867
vn -0.522875 0.673221 0.522854
vn -0.282985 0.673210 0.683161
vn -0.282964 0.673210 0.683169
vn -0.000000 0.673199 0.739461
vn -0.000001 0.673199 0.739461
vn 0.282953 0.673194 0.683190
vn 0.282992 0.673194 0.683173
vn 0.522835 0.673280 0.522817
vn 0.522811 0.673280 0.522841
vn 0.683038 0.673365 0.282912
vn 0.683031 0.673365 0.282928
vn 0.917748 -0.115027 -0.380141
vn 0.702410 -0.115014 -0.702419
vn 0.702413 -0.115014 -0.702416
vn 0.917749 -0.115027 -0.380140
vn 0.380138 -0.115003 -0.917752
vn 0.380133 -0.115003 -0.917754
vn 0.000001 -0.115005 -0.993365
vn 0.000001 -0.115005 -0.993365
vn -0.380141 -0.115010 -0.917750
vn -0.380145 -0.115010 -0.917749
vn -0.702423 -0.115020 -0.702405
vn -0.702422 -0.115020 -0.702405
vn -0.917748 -0.115025 -0.380142
vn -0.917749 -0.115025 -0.380139
vn -0.993362 -0.115029 -0.000000
vn -0.993362 -0.115029 0.000000
vn -0.917748 -0.115025 0.380142
vn -0.917749 -0.115025 0.380139
vn -0.702423 -0.115020 0.702405
vn -0.702423 -0.115020 0.702405
vn -0.380142 -0.115010 0.917750
vn -0.380146 -0.115010 0.917748
vn -0.000000 -0.115004 0.993365
vn -0.000000 -0.115004 0.993365
vn 0.380138 -0.115002 0.917752
vn 0.380133 -0.115002 0.917755
vn 0.702410 -0.115014 0.702419
vn 0.702412 -0.115014 0.702416
vn 0.917748 -0.115027 0.380140
vn 0.917749 -0.115027 0.380140
vn 0.993362 -0.115027 0.000000
vn 0.993362 -0.115027 0.000000
vn 0.000000 1.000000 0.000000
vn 0.000000 1.000000 0.000000
vn 0.000000 1.000000 0.000000
vn 0.000000 1.000000 0.000000
vn 0.000000 1.000000 0.000000
vn 0.000000 1.000000 0.000000
vn 0.000000 1.000000 0.000000
vn 0.000000 1.000000 0.000000
vn 0.000000 1.000000 0.000000
vn 0.000000 1.000000 0.000000
vn 0.000000 1.000000 0.000000
vn 0.000000 1.000000 0.000000
vn 0.000000 1.000000 0.000000
vn 0.000000 1.000000 0.000000
vn 0.000000 1.000000 0.000000
vn 0.000000 1.000000 -0.000000
vn 0.000000 1.000000 -0.000000
s 1
g group9 pCylinder86
usemtl pasted__lambert3SG
f 566/826/789 565/825/790 581/841/791
f 567/827/792 566/826/789 581/841/791
f 568/828/793 567/827/792 581/841/791
f 569/829/794 568/828/793 581/841/791
f 570/830/795 569/829/794 581/841/791
f 571/831/796 570/830/795 581/841/791
f 572/832/797 571/831/796 581/841/791
f 573/833/798 572/832/797 581/841/791
f 574/834/799 573/833/798 581/841/791
f 575/835/800 574/834/799 581/841/791
f 576/836/801 575/835/800 581/841/791
f 577/837/802 576/836/801 581/841/791
f 578/838/803 577/837/802 581/841/791
f 579/839/804 578/838/803 581/841/791
f 580/840/805 579/839/804 581/841/791
f 565/825/790 580/840/805 581/841/791
s 2
f 583/842/806 584/843/807 614/844/808 613/907/809
f 584/845/807 583/877/806 585/879/810 586/846/811
f 586/847/811 585/879/810 587/881/812 588/848/813
f 588/849/813 587/881/812 589/883/814 590/850/815
f 590/851/815 589/883/814 591/885/816 592/852/817
f 592/853/817 591/885/816 593/887/818 594/854/819
f 594/855/819 593/887/818 595/889/820 596/856/821
f 596/857/821 595/889/820 597/891/822 598/858/823
f 598/859/823 597/891/822 599/893/824 600/860/825
f 600/861/825 599/893/824 601/895/826 602/862/827
f 602/863/827 601/895/826 603/897/828 604/864/829
f 604/865/829 603/897/828 605/899/830 606/866/831
f 606/867/831 605/899/830 607/901/832 608/868/833
f 608/869/833 607/901/832 609/903/834 610/870/835
f 610/871/835 609/903/834 611/905/836 612/872/837
f 612/873/837 611/905/836 613/907/809 614/874/808
s 3
f 565/875/838 566/876/839 585/879/840 583/877/841
f 566/876/839 567/878/842 587/881/843 585/879/840
f 567/878/842 568/880/844 589/883/845 587/881/843
f 568/880/844 569/882/846 591/885/847 589/883/845
f 569/882/846 570/884/848 593/887/849 591/885/847
f 570/884/848 571/886/850 595/889/851 593/887/849
f 571/886/850 572/888/852 597/891/853 595/889/851
f 572/888/852 573/890/854 599/893/855 597/891/853
f 573/890/854 574/892/856 601/895/857 599/893/855
f 574/892/856 575/894/858 603/897/859 601/895/857
f 575/894/858 576/896/860 605/899/861 603/897/859
f 576/896/860 577/898/862 607/901/863 605/899/861
f 577/898/862 578/900/864 609/903/865 607/901/863
f 578/900/864 579/902/866 611/905/867 609/903/865
f 579/902/866 580/904/868 613/907/869 611/905/867
f 580/904/868 565/906/838 583/842/841 613/907/869
s 4
f 584/923/870 586/908/871 582/924/872
f 586/908/871 588/909/873 582/924/872
f 588/909/873 590/910/874 582/924/872
f 590/910/874 592/911/875 582/924/872
f 592/911/875 594/912/876 582/924/872
f 594/912/876 596/913/877 582/924/872
f 596/913/877 598/914/878 582/924/872
f 598/914/878 600/915/879 582/924/872
f 600/915/879 602/916/880 582/924/872
f 602/916/880 604/917/881 582/924/872
f 604/917/881 606/918/882 582/924/872
f 606/918/882 608/919/883 582/924/872
f 608/919/883 610/920/884 582/924/872
f 610/920/884 612/921/885 582/924/872
f 612/921/885 614/922/886 582/924/872
f 614/922/886 584/923/870 582/924/872
