# This file uses meters as units for non-parametric coordinates.

mtllib shelf.mtl
g default
v -3905.742277 17.725881 270.169874
v -3901.856129 17.725881 274.056376
v -3905.742277 586.329704 270.169874
v -3901.856129 586.329704 274.056376
v -3879.830070 17.725881 270.169874
v -3883.716218 17.725881 274.056376
v -3879.830070 586.329704 270.169874
v -3883.716218 586.329704 274.056376
v -3905.742277 586.329704 252.030169
v -3901.856129 586.329704 248.143667
v -3905.742277 17.725881 252.030169
v -3901.856129 17.725881 248.143667
v -3883.716218 586.329704 248.143667
v -3879.830070 586.329704 252.030169
v -3879.830070 17.725881 252.030169
v -3883.716218 17.725881 248.143667
vt 0.200902 0.150801
vt 0.313621 0.150801
vt 0.200902 0.229708
vt 0.313621 0.376242
vt 0.313621 0.455149
vt 0.296716 0.472056
vt 0.217808 0.472056
vt 0.200902 0.455149
vt 0.217808 0.133894
vt 0.296716 0.021174
vt 0.105087 0.133894
vt 0.105087 0.021174
vt 0.183995 0.021174
vt 0.217808 0.359335
vt 0.296716 0.246615
vt 0.330528 0.133894
vt 0.409436 0.021174
vt 0.409436 0.133894
vt 0.217808 0.021174
vt 0.183995 0.133894
vt 0.330528 0.021174
vt 0.296716 0.133894
vt 0.217808 0.246615
vt 0.200902 0.376242
vt 0.313621 0.229708
vt 0.296716 0.359335
vn 0.000000 0.000000 1.000000
vn 0.000000 0.000000 1.000000
vn 0.000000 0.000000 1.000000
vn 0.000000 0.000000 1.000000
vn 0.000000 0.000000 -1.000000
vn 0.000000 0.000000 -1.000000
vn 0.000000 0.000000 -1.000000
vn 0.000000 0.000000 -1.000000
vn 1.000000 0.000000 0.000000
vn 1.000000 0.000000 0.000000
vn 1.000000 0.000000 0.000000
vn 1.000000 0.000000 0.000000
vn -1.000000 0.000000 0.000000
vn -1.000000 0.000000 0.000000
vn -1.000000 0.000000 0.000000
vn -1.000000 0.000000 0.000000
vn 0.000000 1.000000 -0.000000
vn 0.000000 1.000000 -0.000000
vn 0.000000 1.000000 -0.000000
vn 0.000000 1.000000 -0.000000
vn 0.000000 1.000000 -0.000000
vn 0.000000 1.000000 -0.000000
vn 0.000000 1.000000 -0.000000
vn 0.000000 1.000000 -0.000000
vn 0.000000 -1.000000 0.000000
vn 0.000000 -1.000000 0.000000
vn 0.000000 -1.000000 0.000000
vn 0.000000 -1.000000 0.000000
vn 0.000000 -1.000000 0.000000
vn 0.000000 -1.000000 0.000000
vn 0.000000 -1.000000 0.000000
vn 0.000000 -1.000000 0.000000
vn -0.707139 0.000000 0.707075
vn -0.707139 0.000000 0.707075
vn -0.707139 0.000000 0.707075
vn -0.707139 0.000000 0.707075
vn 0.707139 0.000000 0.707075
vn 0.707139 0.000000 0.707075
vn 0.707139 0.000000 0.707075
vn 0.707139 0.000000 0.707075
vn -0.707139 0.000000 -0.707075
vn -0.707139 0.000000 -0.707075
vn -0.707139 0.000000 -0.707075
vn -0.707139 0.000000 -0.707075
vn 0.707139 0.000000 -0.707075
vn 0.707139 0.000000 -0.707075
vn 0.707139 0.000000 -0.707075
vn 0.707139 0.000000 -0.707075
s off
g pCube94 group13
usemtl StingrayPBS4SG
f 4/9/1 2/19/2 6/10/3 8/22/4
f 12/14/5 10/23/6 13/15/7 16/26/8
f 7/16/9 5/21/10 15/17/11 14/18/12
f 9/11/13 11/12/14 1/13/15 3/20/16
f 3/1/17 4/9/18 8/22/19 7/2/20 14/25/21 13/15/22 10/23/23 9/3/24
f 11/24/25 12/14/26 16/26/27 15/4/28 5/5/29 6/6/30 2/7/31 1/8/32
f 1/13/33 2/19/34 4/9/35 3/20/36
f 6/10/37 5/21/38 7/16/39 8/22/40
f 9/3/41 10/23/42 12/14/43 11/24/44
f 13/15/45 14/25/46 15/4/47 16/26/48
g default
v -3759.653618 17.725881 270.169874
v -3755.767470 17.725881 274.056376
v -3759.653618 586.329704 270.169874
v -3755.767470 586.329704 274.056376
v -3733.741411 17.725881 270.169874
v -3737.627559 17.725881 274.056376
v -3733.741411 586.329704 270.169874
v -3737.627559 586.329704 274.056376
v -3759.653618 586.329704 252.030169
v -3755.767470 586.329704 248.143667
v -3759.653618 17.725881 252.030169
v -3755.767470 17.725881 248.143667
v -3737.627559 586.329704 248.143667
v -3733.741411 586.329704 252.030169
v -3733.741411 17.725881 252.030169
v -3737.627559 17.725881 248.143667
vt 0.200902 0.150801
vt 0.313621 0.150801
vt 0.200902 0.229708
vt 0.313621 0.376242
vt 0.313621 0.455149
vt 0.296716 0.472056
vt 0.217808 0.472056
vt 0.200902 0.455149
vt 0.217808 0.133894
vt 0.296716 0.021174
vt 0.105087 0.133894
vt 0.105087 0.021174
vt 0.183995 0.021174
vt 0.217808 0.359335
vt 0.296716 0.246615
vt 0.330528 0.133894
vt 0.409436 0.021174
vt 0.409436 0.133894
vt 0.217808 0.021174
vt 0.183995 0.133894
vt 0.330528 0.021174
vt 0.296716 0.133894
vt 0.217808 0.246615
vt 0.200902 0.376242
vt 0.313621 0.229708
vt 0.296716 0.359335
vn 0.000000 0.000000 1.000000
vn 0.000000 0.000000 1.000000
vn 0.000000 0.000000 1.000000
vn 0.000000 0.000000 1.000000
vn 0.000000 0.000000 -1.000000
vn 0.000000 0.000000 -1.000000
vn 0.000000 0.000000 -1.000000
vn 0.000000 0.000000 -1.000000
vn 1.000000 0.000000 0.000000
vn 1.000000 0.000000 0.000000
vn 1.000000 0.000000 0.000000
vn 1.000000 0.000000 0.000000
vn -1.000000 0.000000 0.000000
vn -1.000000 0.000000 0.000000
vn -1.000000 0.000000 0.000000
vn -1.000000 0.000000 0.000000
vn 0.000000 1.000000 -0.000000
vn 0.000000 1.000000 -0.000000
vn 0.000000 1.000000 -0.000000
vn 0.000000 1.000000 -0.000000
vn 0.000000 1.000000 -0.000000
vn 0.000000 1.000000 -0.000000
vn 0.000000 1.000000 -0.000000
vn 0.000000 1.000000 -0.000000
vn 0.000000 -1.000000 0.000000
vn 0.000000 -1.000000 0.000000
vn 0.000000 -1.000000 0.000000
vn 0.000000 -1.000000 0.000000
vn 0.000000 -1.000000 0.000000
vn 0.000000 -1.000000 0.000000
vn 0.000000 -1.000000 0.000000
vn 0.000000 -1.000000 0.000000
vn -0.707139 0.000000 0.707075
vn -0.707139 0.000000 0.707075
vn -0.707139 0.000000 0.707075
vn -0.707139 0.000000 0.707075
vn 0.707139 0.000000 0.707075
vn 0.707139 0.000000 0.707075
vn 0.707139 0.000000 0.707075
vn 0.707139 0.000000 0.707075
vn -0.707139 0.000000 -0.707075
vn -0.707139 0.000000 -0.707075
vn -0.707139 0.000000 -0.707075
vn -0.707139 0.000000 -0.707075
vn 0.707139 0.000000 -0.707075
vn 0.707139 0.000000 -0.707075
vn 0.707139 0.000000 -0.707075
vn 0.707139 0.000000 -0.707075
s off
g group13 pCube95
usemtl StingrayPBS4SG
f 20/35/49 18/45/50 22/36/51 24/48/52
f 28/40/53 26/49/54 29/41/55 32/52/56
f 23/42/57 21/47/58 31/43/59 30/44/60
f 25/37/61 27/38/62 17/39/63 19/46/64
f 19/27/65 20/35/66 24/48/67 23/28/68 30/51/69 29/41/70 26/49/71 25/29/72
f 27/50/73 28/40/74 32/52/75 31/30/76 21/31/77 22/32/78 18/33/79 17/34/80
f 17/39/81 18/45/82 20/35/83 19/46/84
f 22/36/85 21/47/86 23/42/87 24/48/88
f 25/29/89 26/49/90 28/40/91 27/50/92
f 29/41/93 30/51/94 31/30/95 32/52/96
g default
v -3879.580572 105.323450 522.204489
v -3876.217595 108.686391 522.204489
v -3879.580572 105.323450 -4.113550
v -3876.217595 108.686391 -4.113550
v -3761.515874 108.686391 522.204489
v -3758.152896 105.323450 522.204489
v -3758.152896 105.323450 -4.113550
v -3761.515874 108.686391 -4.113550
v -3876.217595 95.233299 522.204489
v -3879.580572 98.596231 522.204489
v -3879.580572 98.596231 -4.113550
v -3876.217595 95.233299 -4.113550
v -3758.152896 98.596231 522.204489
v -3761.515874 95.233299 522.204489
v -3761.515874 95.233299 -4.113550
v -3758.152896 98.596231 -4.113550
vt 0.089591 0.657951
vt 0.419077 0.657951
vt 0.419077 0.822710
vt 0.089591 0.822710
vt 0.089591 0.575587
vt 0.419077 0.575587
vt 0.089591 0.905073
vt 0.419077 0.905073
vt 0.089591 0.657951
vt 0.419077 0.657951
vt 0.419077 0.822710
vt 0.089591 0.822710
vt 0.419077 0.575587
vt 0.089591 0.575587
vt 0.419077 0.905073
vt 0.089591 0.905073
vt 0.098717 0.905073
vt 0.098717 0.575588
vt 0.409952 0.575588
vt 0.409952 0.905073
vt 0.098717 0.905073
vt 0.098717 0.575588
vt 0.409952 0.575588
vt 0.409952 0.905073
vt 0.089591 0.657951
vt 0.098717 0.575587
vt 0.409952 0.575587
vt 0.419077 0.657951
vt 0.419077 0.822710
vt 0.409952 0.905073
vt 0.098717 0.905073
vt 0.089591 0.822710
vt 0.089591 0.657950
vt 0.098717 0.575587
vt 0.409952 0.575587
vt 0.419077 0.657950
vt 0.419077 0.822710
vt 0.409952 0.905073
vt 0.098717 0.905073
vt 0.089591 0.822710
vn 0.000000 1.000000 0.000000
vn 0.000000 1.000000 0.000000
vn 0.000000 1.000000 0.000000
vn 0.000000 1.000000 0.000000
vn 0.000000 -1.000000 0.000000
vn 0.000000 -1.000000 0.000000
vn 0.000000 -1.000000 0.000000
vn 0.000000 -1.000000 0.000000
vn 1.000000 0.000000 0.000000
vn 1.000000 0.000000 0.000000
vn 1.000000 0.000000 0.000000
vn 1.000000 0.000000 0.000000
vn -1.000000 0.000000 0.000000
vn -1.000000 0.000000 0.000000
vn -1.000000 0.000000 0.000000
vn -1.000000 0.000000 0.000000
vn 0.000000 0.000000 -1.000000
vn 0.000000 0.000000 -1.000000
vn 0.000000 0.000000 -1.000000
vn 0.000000 0.000000 -1.000000
vn 0.000000 0.000000 -1.000000
vn 0.000000 0.000000 -1.000000
vn 0.000000 0.000000 -1.000000
vn 0.000000 0.000000 -1.000000
vn 0.000000 0.000000 1.000000
vn 0.000000 0.000000 1.000000
vn 0.000000 0.000000 1.000000
vn 0.000000 0.000000 1.000000
vn 0.000000 0.000000 1.000000
vn 0.000000 0.000000 1.000000
vn 0.000000 0.000000 1.000000
vn 0.000000 0.000000 1.000000
vn -0.707103 0.707111 0.000000
vn -0.707103 0.707111 0.000000
vn -0.707103 0.707111 0.000000
vn -0.707103 0.707111 0.000000
vn 0.707103 0.707111 0.000000
vn 0.707103 0.707111 0.000000
vn 0.707103 0.707111 0.000000
vn 0.707103 0.707111 0.000000
vn -0.707102 -0.707112 0.000000
vn -0.707102 -0.707112 0.000000
vn -0.707102 -0.707112 0.000000
vn -0.707102 -0.707112 0.000000
vn 0.707102 -0.707112 0.000000
vn 0.707102 -0.707112 0.000000
vn 0.707102 -0.707112 0.000000
vn 0.707102 -0.707112 0.000000
s off
g group13 pCube92
usemtl StingrayPBS4SG
f 36/69/97 34/70/98 37/71/99 40/72/100
f 41/73/101 44/74/102 47/75/103 46/76/104
f 45/53/105 48/54/106 39/55/107 38/56/108
f 43/61/109 42/62/110 33/63/111 35/64/112
f 35/77/113 36/78/114 40/79/115 39/80/116 48/81/117 47/82/118 44/83/119 43/84/120
f 42/85/121 41/86/122 46/87/123 45/88/124 38/89/125 37/90/126 34/91/127 33/92/128
f 33/63/129 34/67/130 36/68/131 35/64/132
f 37/59/133 38/56/134 39/55/135 40/60/136
f 41/65/137 42/62/138 43/61/139 44/66/140
f 45/53/141 46/57/142 47/58/143 48/54/144
g default
v -3905.742277 17.725881 9.069853
v -3901.856129 17.725881 12.956354
v -3905.742277 586.329704 9.069853
v -3901.856129 586.329704 12.956354
v -3879.830070 17.725881 9.069853
v -3883.716218 17.725881 12.956354
v -3879.830070 586.329704 9.069853
v -3883.716218 586.329704 12.956354
v -3905.742277 586.329704 -9.069853
v -3901.856129 586.329704 -12.956354
v -3905.742277 17.725881 -9.069853
v -3901.856129 17.725881 -12.956354
v -3883.716218 586.329704 -12.956354
v -3879.830070 586.329704 -9.069853
v -3879.830070 17.725881 -9.069853
v -3883.716218 17.725881 -12.956354
vt 0.202632 0.136707
vt 0.311892 0.136707
vt 0.202632 0.213193
vt 0.311892 0.355229
vt 0.311892 0.431714
vt 0.295505 0.448102
vt 0.219019 0.448102
vt 0.202632 0.431714
vt 0.219019 0.120320
vt 0.295505 0.011059
vt 0.109758 0.120320
vt 0.109758 0.011059
vt 0.186244 0.011059
vt 0.219019 0.338841
vt 0.295505 0.229580
vt 0.328279 0.120320
vt 0.404765 0.011059
vt 0.404765 0.120320
vt 0.219019 0.011059
vt 0.186243 0.120320
vt 0.328279 0.011059
vt 0.295505 0.120320
vt 0.219019 0.229580
vt 0.202632 0.355229
vt 0.311892 0.213193
vt 0.295505 0.338841
vn 0.000000 0.000000 1.000000
vn 0.000000 0.000000 1.000000
vn 0.000000 0.000000 1.000000
vn 0.000000 0.000000 1.000000
vn 0.000000 0.000000 -1.000000
vn 0.000000 0.000000 -1.000000
vn 0.000000 0.000000 -1.000000
vn 0.000000 0.000000 -1.000000
vn 1.000000 0.000000 0.000000
vn 1.000000 0.000000 0.000000
vn 1.000000 0.000000 0.000000
vn 1.000000 0.000000 0.000000
vn -1.000000 0.000000 0.000000
vn -1.000000 0.000000 0.000000
vn -1.000000 0.000000 0.000000
vn -1.000000 0.000000 0.000000
vn 0.000000 1.000000 -0.000000
vn 0.000000 1.000000 -0.000000
vn 0.000000 1.000000 -0.000000
vn 0.000000 1.000000 -0.000000
vn 0.000000 1.000000 -0.000000
vn 0.000000 1.000000 -0.000000
vn 0.000000 1.000000 -0.000000
vn 0.000000 1.000000 -0.000000
vn 0.000000 -1.000000 0.000000
vn 0.000000 -1.000000 0.000000
vn 0.000000 -1.000000 0.000000
vn 0.000000 -1.000000 0.000000
vn 0.000000 -1.000000 0.000000
vn 0.000000 -1.000000 0.000000
vn 0.000000 -1.000000 0.000000
vn 0.000000 -1.000000 0.000000
vn -0.707139 0.000000 0.707075
vn -0.707139 0.000000 0.707075
vn -0.707139 0.000000 0.707075
vn -0.707139 0.000000 0.707075
vn 0.707139 0.000000 0.707075
vn 0.707139 0.000000 0.707075
vn 0.707139 0.000000 0.707075
vn 0.707139 0.000000 0.707075
vn -0.707139 0.000000 -0.707075
vn -0.707139 0.000000 -0.707075
vn -0.707139 0.000000 -0.707075
vn -0.707139 0.000000 -0.707075
vn 0.707139 0.000000 -0.707075
vn 0.707139 0.000000 -0.707075
vn 0.707139 0.000000 -0.707075
vn 0.707139 0.000000 -0.707075
s off
g group13 pCube93
usemtl StingrayPBS4SG
f 52/101/145 50/111/146 54/102/147 56/114/148
f 60/106/149 58/115/150 61/107/151 64/118/152
f 55/108/153 53/113/154 63/109/155 62/110/156
f 57/103/157 59/104/158 49/105/159 51/112/160
f 51/93/161 52/101/162 56/114/163 55/94/164 62/117/165 61/107/166 58/115/167 57/95/168
f 59/116/169 60/106/170 64/118/171 63/96/172 53/97/173 54/98/174 50/99/175 49/100/176
f 49/105/177 50/111/178 52/101/179 51/112/180
f 54/102/181 53/113/182 55/108/183 56/114/184
f 57/95/185 58/115/186 60/106/187 59/116/188
f 61/107/189 62/117/190 63/96/191 64/118/192
g default
v -3879.580572 175.472362 524.510985
v -3876.217595 178.835303 524.510985
v -3879.580572 175.472362 261.204233
v -3876.217595 178.835303 261.204233
v -3761.515874 178.835303 524.510985
v -3758.152896 175.472362 524.510985
v -3758.152896 175.472362 261.204233
v -3761.515874 178.835303 261.204233
v -3876.217595 165.382244 524.510985
v -3879.580572 168.745168 524.510985
v -3879.580572 168.745168 261.204233
v -3876.217595 165.382244 261.204233
v -3758.152896 168.745168 524.510985
v -3761.515874 165.382244 524.510985
v -3761.515874 165.382244 261.204233
v -3758.152896 168.745168 261.204233
vt 0.171700 0.903223
vt 0.171700 0.573737
vt 0.336459 0.573737
vt 0.336459 0.903223
vt 0.089337 0.903223
vt 0.089337 0.573737
vt 0.418823 0.903223
vt 0.418823 0.573737
vt 0.171700 0.903223
vt 0.171700 0.573737
vt 0.336459 0.573737
vt 0.336459 0.903223
vt 0.089337 0.573737
vt 0.089337 0.903223
vt 0.418823 0.573737
vt 0.418823 0.903223
vt 0.098462 0.903223
vt 0.098462 0.573737
vt 0.409698 0.573737
vt 0.409698 0.903223
vt 0.098462 0.903223
vt 0.098462 0.573737
vt 0.409698 0.573737
vt 0.409698 0.903223
vt 0.171700 0.903223
vt 0.089337 0.894098
vt 0.089337 0.582863
vt 0.171700 0.573737
vt 0.336460 0.573737
vt 0.418823 0.582863
vt 0.418823 0.894098
vt 0.336460 0.903223
vt 0.171700 0.903223
vt 0.089337 0.894098
vt 0.089337 0.582863
vt 0.171700 0.573737
vt 0.336459 0.573737
vt 0.418823 0.582863
vt 0.418823 0.894098
vt 0.336459 0.903223
vn 0.000000 1.000000 0.000000
vn 0.000000 1.000000 0.000000
vn 0.000000 1.000000 0.000000
vn 0.000000 1.000000 0.000000
vn 0.000000 -1.000000 0.000000
vn 0.000000 -1.000000 0.000000
vn 0.000000 -1.000000 0.000000
vn 0.000000 -1.000000 0.000000
vn 1.000000 0.000000 0.000000
vn 1.000000 0.000000 0.000000
vn 1.000000 0.000000 0.000000
vn 1.000000 0.000000 0.000000
vn -1.000000 0.000000 0.000000
vn -1.000000 0.000000 0.000000
vn -1.000000 0.000000 0.000000
vn -1.000000 0.000000 0.000000
vn 0.000000 0.000000 -1.000000
vn 0.000000 0.000000 -1.000000
vn 0.000000 0.000000 -1.000000
vn 0.000000 0.000000 -1.000000
vn 0.000000 0.000000 -1.000000
vn 0.000000 0.000000 -1.000000
vn 0.000000 0.000000 -1.000000
vn 0.000000 0.000000 -1.000000
vn 0.000000 0.000000 1.000000
vn 0.000000 0.000000 1.000000
vn 0.000000 0.000000 1.000000
vn 0.000000 0.000000 1.000000
vn 0.000000 0.000000 1.000000
vn 0.000000 0.000000 1.000000
vn 0.000000 0.000000 1.000000
vn 0.000000 0.000000 1.000000
vn -0.707103 0.707111 0.000000
vn -0.707103 0.707111 0.000000
vn -0.707103 0.707111 0.000000
vn -0.707103 0.707111 0.000000
vn 0.707103 0.707111 0.000000
vn 0.707103 0.707111 0.000000
vn 0.707103 0.707111 0.000000
vn 0.707103 0.707111 0.000000
vn -0.707101 -0.707112 0.000000
vn -0.707101 -0.707112 0.000000
vn -0.707101 -0.707112 0.000000
vn -0.707101 -0.707112 0.000000
vn 0.707101 -0.707112 0.000000
vn 0.707101 -0.707112 0.000000
vn 0.707101 -0.707112 0.000000
vn 0.707101 -0.707112 0.000000
s off
g group13 pCube96
usemtl StingrayPBS4SG
f 68/135/193 66/136/194 69/137/195 72/138/196
f 73/139/197 76/140/198 79/141/199 78/142/200
f 77/119/201 80/120/202 71/121/203 70/122/204
f 75/127/205 74/128/206 65/129/207 67/130/208
f 67/143/209 68/144/210 72/145/211 71/146/212 80/147/213 79/148/214 76/149/215 75/150/216
f 74/151/217 73/152/218 78/153/219 77/154/220 70/155/221 69/156/222 66/157/223 65/158/224
f 65/129/225 66/133/226 68/134/227 67/130/228
f 69/125/229 70/122/230 71/121/231 72/126/232
f 73/131/233 74/128/234 75/127/235 76/132/236
f 77/119/237 78/123/238 79/124/239 80/120/240
g default
v -3905.742277 17.725881 537.172138
v -3901.856129 17.725881 541.058640
v -3905.742277 586.329704 537.172138
v -3901.856129 586.329704 541.058640
v -3879.830070 17.725881 537.172138
v -3883.716218 17.725881 541.058640
v -3879.830070 586.329704 537.172138
v -3883.716218 586.329704 541.058640
v -3905.742277 586.329704 519.032433
v -3901.856129 586.329704 515.145931
v -3905.742277 17.725881 519.032433
v -3901.856129 17.725881 515.145931
v -3883.716218 586.329704 515.145931
v -3879.830070 586.329704 519.032433
v -3879.830070 17.725881 519.032433
v -3883.716218 17.725881 515.145931
vt 0.200902 0.150801
vt 0.313621 0.150801
vt 0.200902 0.229708
vt 0.313621 0.376242
vt 0.313621 0.455149
vt 0.296716 0.472056
vt 0.217808 0.472056
vt 0.200902 0.455149
vt 0.217808 0.133894
vt 0.296716 0.021174
vt 0.105087 0.133894
vt 0.105087 0.021174
vt 0.183995 0.021174
vt 0.217808 0.359335
vt 0.296716 0.246615
vt 0.330528 0.133894
vt 0.409436 0.021174
vt 0.409436 0.133894
vt 0.217808 0.021174
vt 0.183995 0.133894
vt 0.330528 0.021174
vt 0.296716 0.133894
vt 0.217808 0.246615
vt 0.200902 0.376242
vt 0.313621 0.229708
vt 0.296716 0.359335
vn 0.000000 0.000000 1.000000
vn 0.000000 0.000000 1.000000
vn 0.000000 0.000000 1.000000
vn 0.000000 0.000000 1.000000
vn 0.000000 0.000000 -1.000000
vn 0.000000 0.000000 -1.000000
vn 0.000000 0.000000 -1.000000
vn 0.000000 0.000000 -1.000000
vn 1.000000 0.000000 0.000000
vn 1.000000 0.000000 0.000000
vn 1.000000 0.000000 0.000000
vn 1.000000 0.000000 0.000000
vn -1.000000 0.000000 0.000000
vn -1.000000 0.000000 0.000000
vn -1.000000 0.000000 0.000000
vn -1.000000 0.000000 0.000000
vn 0.000000 1.000000 -0.000000
vn 0.000000 1.000000 -0.000000
vn 0.000000 1.000000 -0.000000
vn 0.000000 1.000000 -0.000000
vn 0.000000 1.000000 -0.000000
vn 0.000000 1.000000 -0.000000
vn 0.000000 1.000000 -0.000000
vn 0.000000 1.000000 -0.000000
vn 0.000000 -1.000000 0.000000
vn 0.000000 -1.000000 0.000000
vn 0.000000 -1.000000 0.000000
vn 0.000000 -1.000000 0.000000
vn 0.000000 -1.000000 0.000000
vn 0.000000 -1.000000 0.000000
vn 0.000000 -1.000000 0.000000
vn 0.000000 -1.000000 0.000000
vn -0.707139 0.000000 0.707075
vn -0.707139 0.000000 0.707075
vn -0.707139 0.000000 0.707075
vn -0.707139 0.000000 0.707075
vn 0.707139 0.000000 0.707075
vn 0.707139 0.000000 0.707075
vn 0.707139 0.000000 0.707075
vn 0.707139 0.000000 0.707075
vn -0.707139 0.000000 -0.707075
vn -0.707139 0.000000 -0.707075
vn -0.707139 0.000000 -0.707075
vn -0.707139 0.000000 -0.707075
vn 0.707139 0.000000 -0.707075
vn 0.707139 0.000000 -0.707075
vn 0.707139 0.000000 -0.707075
vn 0.707139 0.000000 -0.707075
s off
g group13 pCube97
usemtl StingrayPBS4SG
f 84/167/241 82/177/242 86/168/243 88/180/244
f 92/172/245 90/181/246 93/173/247 96/184/248
f 87/174/249 85/179/250 95/175/251 94/176/252
f 89/169/253 91/170/254 81/171/255 83/178/256
f 83/159/257 84/167/258 88/180/259 87/160/260 94/183/261 93/173/262 90/181/263 89/161/264
f 91/182/265 92/172/266 96/184/267 95/162/268 85/163/269 86/164/270 82/165/271 81/166/272
f 81/171/273 82/177/274 84/167/275 83/178/276
f 86/168/277 85/179/278 87/174/279 88/180/280
f 89/161/281 90/181/282 92/172/283 91/182/284
f 93/173/285 94/183/286 95/162/287 96/184/288
g default
v -3879.580572 425.709432 522.204489
v -3876.217595 429.072372 522.204489
v -3879.580572 425.709432 -4.113550
v -3876.217595 429.072372 -4.113550
v -3761.515874 429.072372 522.204489
v -3758.152896 425.709432 522.204489
v -3758.152896 425.709432 -4.113550
v -3761.515874 429.072372 -4.113550
v -3876.217595 415.619281 522.204489
v -3879.580572 418.982213 522.204489
v -3879.580572 418.982213 -4.113550
v -3876.217595 415.619281 -4.113550
v -3758.152896 418.982213 522.204489
v -3761.515874 415.619281 522.204489
v -3761.515874 415.619281 -4.113550
v -3758.152896 418.982213 -4.113550
vt 0.098099 0.647316
vt 0.427584 0.647316
vt 0.427584 0.812076
vt 0.098099 0.812076
vt 0.098099 0.564953
vt 0.427584 0.564953
vt 0.098099 0.894439
vt 0.427584 0.894439
vt 0.098099 0.647316
vt 0.427584 0.647316
vt 0.427584 0.812076
vt 0.098099 0.812076
vt 0.427584 0.564953
vt 0.098099 0.564953
vt 0.427584 0.894439
vt 0.098099 0.894439
vt 0.107224 0.894439
vt 0.107224 0.564953
vt 0.418459 0.564953
vt 0.418459 0.894439
vt 0.107224 0.894439
vt 0.107224 0.564954
vt 0.418459 0.564954
vt 0.418459 0.894439
vt 0.098099 0.647317
vt 0.107224 0.564953
vt 0.418459 0.564953
vt 0.427584 0.647317
vt 0.427584 0.812076
vt 0.418459 0.894439
vt 0.107224 0.894439
vt 0.098099 0.812076
vt 0.098099 0.647316
vt 0.107224 0.564953
vt 0.418459 0.564953
vt 0.427584 0.647316
vt 0.427584 0.812076
vt 0.418459 0.894439
vt 0.107224 0.894439
vt 0.098099 0.812076
vn 0.000000 1.000000 0.000000
vn 0.000000 1.000000 0.000000
vn 0.000000 1.000000 0.000000
vn 0.000000 1.000000 0.000000
vn 0.000000 -1.000000 0.000000
vn 0.000000 -1.000000 0.000000
vn 0.000000 -1.000000 0.000000
vn 0.000000 -1.000000 0.000000
vn 1.000000 0.000000 0.000000
vn 1.000000 0.000000 0.000000
vn 1.000000 0.000000 0.000000
vn 1.000000 0.000000 0.000000
vn -1.000000 0.000000 0.000000
vn -1.000000 0.000000 0.000000
vn -1.000000 0.000000 0.000000
vn -1.000000 0.000000 0.000000
vn 0.000000 0.000000 -1.000000
vn 0.000000 0.000000 -1.000000
vn 0.000000 0.000000 -1.000000
vn 0.000000 0.000000 -1.000000
vn 0.000000 0.000000 -1.000000
vn 0.000000 0.000000 -1.000000
vn 0.000000 0.000000 -1.000000
vn 0.000000 0.000000 -1.000000
vn 0.000000 0.000000 1.000000
vn 0.000000 0.000000 1.000000
vn 0.000000 0.000000 1.000000
vn 0.000000 0.000000 1.000000
vn 0.000000 0.000000 1.000000
vn 0.000000 0.000000 1.000000
vn 0.000000 0.000000 1.000000
vn 0.000000 0.000000 1.000000
vn -0.707103 0.707111 0.000000
vn -0.707103 0.707111 0.000000
vn -0.707103 0.707111 0.000000
vn -0.707103 0.707111 0.000000
vn 0.707103 0.707111 0.000000
vn 0.707103 0.707111 0.000000
vn 0.707103 0.707111 0.000000
vn 0.707103 0.707111 0.000000
vn -0.707102 -0.707112 0.000000
vn -0.707102 -0.707112 0.000000
vn -0.707102 -0.707112 0.000000
vn -0.707102 -0.707112 0.000000
vn 0.707102 -0.707112 0.000000
vn 0.707102 -0.707112 0.000000
vn 0.707102 -0.707112 0.000000
vn 0.707102 -0.707112 0.000000
s off
g group13 pCube100
usemtl StingrayPBS4SG
f 100/201/289 98/202/290 101/203/291 104/204/292
f 105/205/293 108/206/294 111/207/295 110/208/296
f 109/185/297 112/186/298 103/187/299 102/188/300
f 107/193/301 106/194/302 97/195/303 99/196/304
f 99/209/305 100/210/306 104/211/307 103/212/308 112/213/309 111/214/310 108/215/311 107/216/312
f 106/217/313 105/218/314 110/219/315 109/220/316 102/221/317 101/222/318 98/223/319 97/224/320
f 97/195/321 98/199/322 100/200/323 99/196/324
f 101/191/325 102/188/326 103/187/327 104/192/328
f 105/197/329 106/194/330 107/193/331 108/198/332
f 109/185/333 110/189/334 111/190/335 112/186/336
g default
v -3879.580572 261.471640 522.204489
v -3876.217595 264.834581 522.204489
v -3879.580572 261.471640 -4.113550
v -3876.217595 264.834581 -4.113550
v -3761.515874 264.834581 522.204489
v -3758.152896 261.471640 522.204489
v -3758.152896 261.471640 -4.113550
v -3761.515874 264.834581 -4.113550
v -3876.217595 251.381489 522.204489
v -3879.580572 254.744421 522.204489
v -3879.580572 254.744421 -4.113550
v -3876.217595 251.381489 -4.113550
v -3758.152896 254.744421 522.204489
v -3761.515874 251.381489 522.204489
v -3761.515874 251.381489 -4.113550
v -3758.152896 254.744421 -4.113550
vt 0.083211 0.649443
vt 0.412697 0.649443
vt 0.412697 0.814203
vt 0.083211 0.814203
vt 0.083211 0.567080
vt 0.412697 0.567080
vt 0.083211 0.896566
vt 0.412697 0.896566
vt 0.083211 0.649443
vt 0.412697 0.649443
vt 0.412697 0.814203
vt 0.083211 0.814203
vt 0.412697 0.567080
vt 0.083211 0.567080
vt 0.412697 0.896566
vt 0.083211 0.896566
vt 0.092336 0.896566
vt 0.092336 0.567080
vt 0.403571 0.567080
vt 0.403571 0.896566
vt 0.092336 0.896566
vt 0.092336 0.567080
vt 0.403571 0.567080
vt 0.403571 0.896566
vt 0.083211 0.649443
vt 0.092336 0.567080
vt 0.403571 0.567080
vt 0.412697 0.649443
vt 0.412697 0.814203
vt 0.403571 0.896566
vt 0.092336 0.896566
vt 0.083211 0.814203
vt 0.083211 0.649443
vt 0.092336 0.567080
vt 0.403571 0.567080
vt 0.412697 0.649443
vt 0.412697 0.814203
vt 0.403571 0.896566
vt 0.092336 0.896566
vt 0.083211 0.814203
vn 0.000000 1.000000 0.000000
vn 0.000000 1.000000 0.000000
vn 0.000000 1.000000 0.000000
vn 0.000000 1.000000 0.000000
vn 0.000000 -1.000000 0.000000
vn 0.000000 -1.000000 0.000000
vn 0.000000 -1.000000 0.000000
vn 0.000000 -1.000000 0.000000
vn 1.000000 0.000000 0.000000
vn 1.000000 0.000000 0.000000
vn 1.000000 0.000000 0.000000
vn 1.000000 0.000000 0.000000
vn -1.000000 0.000000 0.000000
vn -1.000000 0.000000 0.000000
vn -1.000000 0.000000 0.000000
vn -1.000000 0.000000 0.000000
vn 0.000000 0.000000 -1.000000
vn 0.000000 0.000000 -1.000000
vn 0.000000 0.000000 -1.000000
vn 0.000000 0.000000 -1.000000
vn 0.000000 0.000000 -1.000000
vn 0.000000 0.000000 -1.000000
vn 0.000000 0.000000 -1.000000
vn 0.000000 0.000000 -1.000000
vn 0.000000 0.000000 1.000000
vn 0.000000 0.000000 1.000000
vn 0.000000 0.000000 1.000000
vn 0.000000 0.000000 1.000000
vn 0.000000 0.000000 1.000000
vn 0.000000 0.000000 1.000000
vn 0.000000 0.000000 1.000000
vn 0.000000 0.000000 1.000000
vn -0.707103 0.707111 0.000000
vn -0.707103 0.707111 0.000000
vn -0.707103 0.707111 0.000000
vn -0.707103 0.707111 0.000000
vn 0.707103 0.707111 0.000000
vn 0.707103 0.707111 0.000000
vn 0.707103 0.707111 0.000000
vn 0.707103 0.707111 0.000000
vn -0.707102 -0.707112 0.000000
vn -0.707102 -0.707112 0.000000
vn -0.707102 -0.707112 0.000000
vn -0.707102 -0.707112 0.000000
vn 0.707102 -0.707112 0.000000
vn 0.707102 -0.707112 0.000000
vn 0.707102 -0.707112 0.000000
vn 0.707102 -0.707112 0.000000
s off
g group13 pCube99
usemtl StingrayPBS4SG
f 116/241/337 114/242/338 117/243/339 120/244/340
f 121/245/341 124/246/342 127/247/343 126/248/344
f 125/225/345 128/226/346 119/227/347 118/228/348
f 123/233/349 122/234/350 113/235/351 115/236/352
f 115/249/353 116/250/354 120/251/355 119/252/356 128/253/357 127/254/358 124/255/359 123/256/360
f 122/257/361 121/258/362 126/259/363 125/260/364 118/261/365 117/262/366 114/263/367 113/264/368
f 113/235/369 114/239/370 116/240/371 115/236/372
f 117/231/373 118/228/374 119/227/375 120/232/376
f 121/237/377 122/234/378 123/233/379 124/238/380
f 125/225/381 126/229/382 127/230/383 128/226/384
g default
v -3879.580572 581.611528 522.204489
v -3876.217595 584.974469 522.204489
v -3879.580572 581.611528 -4.113550
v -3876.217595 584.974469 -4.113550
v -3761.515874 584.974469 522.204489
v -3758.152896 581.611528 522.204489
v -3758.152896 581.611528 -4.113550
v -3761.515874 584.974469 -4.113550
v -3876.217595 571.521377 522.204489
v -3879.580572 574.884309 522.204489
v -3879.580572 574.884309 -4.113550
v -3876.217595 571.521377 -4.113550
v -3758.152896 574.884309 522.204489
v -3761.515874 571.521377 522.204489
v -3761.515874 571.521377 -4.113550
v -3758.152896 574.884309 -4.113550
vt 0.096464 0.653150
vt 0.425950 0.653150
vt 0.425950 0.817910
vt 0.096464 0.817910
vt 0.096464 0.570787
vt 0.425950 0.570787
vt 0.096464 0.900273
vt 0.425950 0.900273
vt 0.096464 0.653150
vt 0.425950 0.653150
vt 0.425950 0.817910
vt 0.096464 0.817910
vt 0.425950 0.570787
vt 0.096464 0.570787
vt 0.425950 0.900273
vt 0.096464 0.900273
vt 0.105589 0.900273
vt 0.105589 0.570787
vt 0.416825 0.570787
vt 0.416825 0.900273
vt 0.105589 0.900273
vt 0.105589 0.570787
vt 0.416825 0.570787
vt 0.416825 0.900273
vt 0.096464 0.653151
vt 0.105589 0.570787
vt 0.416825 0.570787
vt 0.425950 0.653151
vt 0.425950 0.817910
vt 0.416825 0.900273
vt 0.105589 0.900273
vt 0.096464 0.817910
vt 0.096464 0.653150
vt 0.105589 0.570787
vt 0.416825 0.570787
vt 0.425950 0.653150
vt 0.425950 0.817910
vt 0.416825 0.900273
vt 0.105589 0.900273
vt 0.096464 0.817910
vn 0.000000 1.000000 0.000000
vn 0.000000 1.000000 0.000000
vn 0.000000 1.000000 0.000000
vn 0.000000 1.000000 0.000000
vn 0.000000 -1.000000 0.000000
vn 0.000000 -1.000000 0.000000
vn 0.000000 -1.000000 0.000000
vn 0.000000 -1.000000 0.000000
vn 1.000000 0.000000 0.000000
vn 1.000000 0.000000 0.000000
vn 1.000000 0.000000 0.000000
vn 1.000000 0.000000 0.000000
vn -1.000000 0.000000 0.000000
vn -1.000000 0.000000 0.000000
vn -1.000000 0.000000 0.000000
vn -1.000000 0.000000 0.000000
vn 0.000000 0.000000 -1.000000
vn 0.000000 0.000000 -1.000000
vn 0.000000 0.000000 -1.000000
vn 0.000000 0.000000 -1.000000
vn 0.000000 0.000000 -1.000000
vn 0.000000 0.000000 -1.000000
vn 0.000000 0.000000 -1.000000
vn 0.000000 0.000000 -1.000000
vn 0.000000 0.000000 1.000000
vn 0.000000 0.000000 1.000000
vn 0.000000 0.000000 1.000000
vn 0.000000 0.000000 1.000000
vn 0.000000 0.000000 1.000000
vn 0.000000 0.000000 1.000000
vn 0.000000 0.000000 1.000000
vn 0.000000 0.000000 1.000000
vn -0.707103 0.707111 0.000000
vn -0.707103 0.707111 0.000000
vn -0.707103 0.707111 0.000000
vn -0.707103 0.707111 0.000000
vn 0.707103 0.707111 0.000000
vn 0.707103 0.707111 0.000000
vn 0.707103 0.707111 0.000000
vn 0.707103 0.707111 0.000000
vn -0.707102 -0.707112 0.000000
vn -0.707102 -0.707112 0.000000
vn -0.707102 -0.707112 0.000000
vn -0.707102 -0.707112 0.000000
vn 0.707102 -0.707112 0.000000
vn 0.707102 -0.707112 0.000000
vn 0.707102 -0.707112 0.000000
vn 0.707102 -0.707112 0.000000
s off
g group13 pCube101
usemtl StingrayPBS4SG
f 132/281/385 130/282/386 133/283/387 136/284/388
f 137/285/389 140/286/390 143/287/391 142/288/392
f 141/265/393 144/266/394 135/267/395 134/268/396
f 139/273/397 138/274/398 129/275/399 131/276/400
f 131/289/401 132/290/402 136/291/403 135/292/404 144/293/405 143/294/406 140/295/407 139/296/408
f 138/297/409 137/298/410 142/299/411 141/300/412 134/301/413 133/302/414 130/303/415 129/304/416
f 129/275/417 130/279/418 132/280/419 131/276/420
f 133/271/421 134/268/422 135/267/423 136/272/424
f 137/277/425 138/274/426 139/273/427 140/278/428
f 141/265/429 142/269/430 143/270/431 144/266/432
g default
v -3759.653618 17.725881 537.172138
v -3755.767470 17.725881 541.058640
v -3759.653618 586.329704 537.172138
v -3755.767470 586.329704 541.058640
v -3733.741411 17.725881 537.172138
v -3737.627559 17.725881 541.058640
v -3733.741411 586.329704 537.172138
v -3737.627559 586.329704 541.058640
v -3759.653618 586.329704 519.032433
v -3755.767470 586.329704 515.145931
v -3759.653618 17.725881 519.032433
v -3755.767470 17.725881 515.145931
v -3737.627559 586.329704 515.145931
v -3733.741411 586.329704 519.032433
v -3733.741411 17.725881 519.032433
v -3737.627559 17.725881 515.145931
vt 0.200902 0.150801
vt 0.313621 0.150801
vt 0.200902 0.229708
vt 0.313621 0.376242
vt 0.313621 0.455149
vt 0.296716 0.472056
vt 0.217808 0.472056
vt 0.200902 0.455149
vt 0.217808 0.133894
vt 0.296716 0.021174
vt 0.105087 0.133894
vt 0.105087 0.021174
vt 0.183995 0.021174
vt 0.217808 0.359335
vt 0.296716 0.246615
vt 0.330528 0.133894
vt 0.409436 0.021174
vt 0.409436 0.133894
vt 0.217808 0.021174
vt 0.183995 0.133894
vt 0.330528 0.021174
vt 0.296716 0.133894
vt 0.217808 0.246615
vt 0.200902 0.376242
vt 0.313621 0.229708
vt 0.296716 0.359335
vn 0.000000 0.000000 1.000000
vn 0.000000 0.000000 1.000000
vn 0.000000 0.000000 1.000000
vn 0.000000 0.000000 1.000000
vn 0.000000 0.000000 -1.000000
vn 0.000000 0.000000 -1.000000
vn 0.000000 0.000000 -1.000000
vn 0.000000 0.000000 -1.000000
vn 1.000000 0.000000 0.000000
vn 1.000000 0.000000 0.000000
vn 1.000000 0.000000 0.000000
vn 1.000000 0.000000 0.000000
vn -1.000000 0.000000 0.000000
vn -1.000000 0.000000 0.000000
vn -1.000000 0.000000 0.000000
vn -1.000000 0.000000 0.000000
vn 0.000000 1.000000 -0.000000
vn 0.000000 1.000000 -0.000000
vn 0.000000 1.000000 -0.000000
vn 0.000000 1.000000 -0.000000
vn 0.000000 1.000000 -0.000000
vn 0.000000 1.000000 -0.000000
vn 0.000000 1.000000 -0.000000
vn 0.000000 1.000000 -0.000000
vn 0.000000 -1.000000 0.000000
vn 0.000000 -1.000000 0.000000
vn 0.000000 -1.000000 0.000000
vn 0.000000 -1.000000 0.000000
vn 0.000000 -1.000000 0.000000
vn 0.000000 -1.000000 0.000000
vn 0.000000 -1.000000 0.000000
vn 0.000000 -1.000000 0.000000
vn -0.707139 0.000000 0.707075
vn -0.707139 0.000000 0.707075
vn -0.707139 0.000000 0.707075
vn -0.707139 0.000000 0.707075
vn 0.707139 0.000000 0.707075
vn 0.707139 0.000000 0.707075
vn 0.707139 0.000000 0.707075
vn 0.707139 0.000000 0.707075
vn -0.707139 0.000000 -0.707075
vn -0.707139 0.000000 -0.707075
vn -0.707139 0.000000 -0.707075
vn -0.707139 0.000000 -0.707075
vn 0.707139 0.000000 -0.707075
vn 0.707139 0.000000 -0.707075
vn 0.707139 0.000000 -0.707075
vn 0.707139 0.000000 -0.707075
s off
g group13 pCube98
usemtl StingrayPBS4SG
f 148/313/433 146/323/434 150/314/435 152/326/436
f 156/318/437 154/327/438 157/319/439 160/330/440
f 151/320/441 149/325/442 159/321/443 158/322/444
f 153/315/445 155/316/446 145/317/447 147/324/448
f 147/305/449 148/313/450 152/326/451 151/306/452 158/329/453 157/319/454 154/327/455 153/307/456
f 155/328/457 156/318/458 160/330/459 159/308/460 149/309/461 150/310/462 146/311/463 145/312/464
f 145/317/465 146/323/466 148/313/467 147/324/468
f 150/314/469 149/325/470 151/320/471 152/326/472
f 153/307/473 154/327/474 156/318/475 155/328/476
f 157/319/477 158/329/478 159/308/479 160/330/480
g default
v -3747.363593 266.537365 251.234705
v -3745.926990 267.308728 251.728744
v -3747.394462 423.446694 6.335423
v -3745.957859 424.218057 6.829461
v -3737.774513 266.551226 251.242377
v -3739.214128 267.318432 251.734115
v -3737.805382 423.460556 6.343095
v -3739.244997 424.227761 6.834833
v -3747.387431 419.856167 4.034936
v -3745.947815 419.088962 3.543199
v -3747.356562 262.946838 248.934219
v -3745.916947 262.179632 248.442481
v -3739.234954 419.098665 3.548570
v -3737.798351 419.870028 4.042609
v -3737.767482 262.960699 248.941891
v -3739.204085 262.189336 248.447852
vt 0.207896 0.156362
vt 0.316287 0.156362
vt 0.207896 0.232239
vt 0.316287 0.373146
vt 0.316287 0.449024
vt 0.300031 0.465281
vt 0.224153 0.465281
vt 0.207896 0.449024
vt 0.224153 0.140105
vt 0.300031 0.031712
vt 0.115760 0.140105
vt 0.115760 0.031712
vt 0.191638 0.031712
vt 0.224153 0.356889
vt 0.300031 0.248497
vt 0.332545 0.140105
vt 0.408422 0.031712
vt 0.408422 0.140105
vt 0.224153 0.031712
vt 0.191638 0.140105
vt 0.332545 0.031712
vt 0.300031 0.140105
vt 0.224153 0.248497
vt 0.207896 0.373146
vt 0.316287 0.232239
vt 0.300031 0.356889
vn -0.001649 0.841999 0.539477
vn -0.001649 0.841999 0.539477
vn -0.001649 0.841999 0.539477
vn -0.001649 0.841999 0.539477
vn 0.001649 -0.841999 -0.539477
vn 0.001649 -0.841999 -0.539477
vn 0.001649 -0.841999 -0.539477
vn 0.001649 -0.841999 -0.539477
vn 0.999999 0.001446 0.000800
vn 0.999999 0.001446 0.000800
vn 0.999999 0.001446 0.000800
vn 0.999999 0.001446 0.000800
vn -0.999999 -0.001446 -0.000800
vn -0.999999 -0.001446 -0.000800
vn -0.999999 -0.001446 -0.000800
vn -0.999999 -0.001446 -0.000800
vn -0.000106 0.539477 -0.842000
vn -0.000106 0.539477 -0.842000
vn -0.000106 0.539477 -0.842000
vn -0.000106 0.539477 -0.842000
vn -0.000106 0.539477 -0.842000
vn -0.000106 0.539477 -0.842000
vn -0.000106 0.539477 -0.842000
vn -0.000106 0.539477 -0.842000
vn 0.000106 -0.539478 0.842000
vn 0.000106 -0.539478 0.842000
vn 0.000106 -0.539478 0.842000
vn 0.000106 -0.539478 0.842000
vn 0.000106 -0.539478 0.842000
vn 0.000106 -0.539478 0.842000
vn 0.000106 -0.539478 0.842000
vn 0.000106 -0.539478 0.842000
vn -0.537631 0.709927 0.454925
vn -0.537631 0.709927 0.454925
vn -0.537631 0.709927 0.454925
vn -0.537631 0.709927 0.454925
vn 0.534847 0.711477 0.455783
vn 0.534847 0.711477 0.455783
vn 0.534847 0.711477 0.455783
vn 0.534847 0.711477 0.455783
vn -0.534847 -0.711477 -0.455783
vn -0.534847 -0.711477 -0.455783
vn -0.534847 -0.711477 -0.455783
vn -0.534847 -0.711477 -0.455783
vn 0.537631 -0.709927 -0.454925
vn 0.537631 -0.709927 -0.454925
vn 0.537631 -0.709927 -0.454925
vn 0.537631 -0.709927 -0.454925
s off
g group13 pCube103
usemtl StingrayPBS4SG
f 164/339/481 162/349/482 166/340/483 168/352/484
f 172/344/485 170/353/486 173/345/487 176/356/488
f 167/346/489 165/351/490 175/347/491 174/348/492
f 169/341/493 171/342/494 161/343/495 163/350/496
f 163/331/497 164/339/498 168/352/499 167/332/500 174/355/501 173/345/502 170/353/503 169/333/504
f 171/354/505 172/344/506 176/356/507 175/334/508 165/335/509 166/336/510 162/337/511 161/338/512
f 161/343/513 162/349/514 164/339/515 163/350/516
f 166/340/517 165/351/518 167/346/519 168/352/520
f 169/333/521 170/353/522 172/344/523 171/354/524
f 173/345/525 174/355/526 175/334/527 176/356/528
g default
v -3879.580572 341.490394 524.510985
v -3876.217595 344.853334 524.510985
v -3879.580572 341.490394 261.204233
v -3876.217595 344.853334 261.204233
v -3761.515874 344.853334 524.510985
v -3758.152896 341.490394 524.510985
v -3758.152896 341.490394 261.204233
v -3761.515874 344.853334 261.204233
v -3876.217595 331.400276 524.510985
v -3879.580572 334.763200 524.510985
v -3879.580572 334.763200 261.204233
v -3876.217595 331.400276 261.204233
v -3758.152896 334.763200 524.510985
v -3761.515874 331.400276 524.510985
v -3761.515874 331.400276 261.204233
v -3758.152896 334.763200 261.204233
vt 0.163447 0.898693
vt 0.163447 0.569207
vt 0.328206 0.569207
vt 0.328206 0.898693
vt 0.081084 0.898693
vt 0.081084 0.569207
vt 0.410570 0.898693
vt 0.410570 0.569207
vt 0.163447 0.898693
vt 0.163447 0.569207
vt 0.328206 0.569207
vt 0.328206 0.898693
vt 0.081084 0.569207
vt 0.081084 0.898693
vt 0.410570 0.569207
vt 0.410570 0.898693
vt 0.090209 0.898693
vt 0.090209 0.569207
vt 0.401445 0.569207
vt 0.401445 0.898693
vt 0.090209 0.898693
vt 0.090209 0.569207
vt 0.401445 0.569207
vt 0.401445 0.898693
vt 0.163448 0.898693
vt 0.081084 0.889568
vt 0.081084 0.578332
vt 0.163448 0.569207
vt 0.328207 0.569207
vt 0.410570 0.578332
vt 0.410570 0.889568
vt 0.328207 0.898693
vt 0.163447 0.898693
vt 0.081084 0.889568
vt 0.081084 0.578332
vt 0.163447 0.569207
vt 0.328206 0.569207
vt 0.410570 0.578332
vt 0.410570 0.889568
vt 0.328206 0.898693
vn 0.000000 1.000000 0.000000
vn 0.000000 1.000000 0.000000
vn 0.000000 1.000000 0.000000
vn 0.000000 1.000000 0.000000
vn 0.000000 -1.000000 0.000000
vn 0.000000 -1.000000 0.000000
vn 0.000000 -1.000000 0.000000
vn 0.000000 -1.000000 0.000000
vn 1.000000 0.000000 0.000000
vn 1.000000 0.000000 0.000000
vn 1.000000 0.000000 0.000000
vn 1.000000 0.000000 0.000000
vn -1.000000 0.000000 0.000000
vn -1.000000 0.000000 0.000000
vn -1.000000 0.000000 0.000000
vn -1.000000 0.000000 0.000000
vn 0.000000 0.000000 -1.000000
vn 0.000000 0.000000 -1.000000
vn 0.000000 0.000000 -1.000000
vn 0.000000 0.000000 -1.000000
vn 0.000000 0.000000 -1.000000
vn 0.000000 0.000000 -1.000000
vn 0.000000 0.000000 -1.000000
vn 0.000000 0.000000 -1.000000
vn 0.000000 0.000000 1.000000
vn 0.000000 0.000000 1.000000
vn 0.000000 0.000000 1.000000
vn 0.000000 0.000000 1.000000
vn 0.000000 0.000000 1.000000
vn 0.000000 0.000000 1.000000
vn 0.000000 0.000000 1.000000
vn 0.000000 0.000000 1.000000
vn -0.707103 0.707111 0.000000
vn -0.707103 0.707111 0.000000
vn -0.707103 0.707111 0.000000
vn -0.707103 0.707111 0.000000
vn 0.707103 0.707111 0.000000
vn 0.707103 0.707111 0.000000
vn 0.707103 0.707111 0.000000
vn 0.707103 0.707111 0.000000
vn -0.707101 -0.707112 0.000000
vn -0.707101 -0.707112 0.000000
vn -0.707101 -0.707112 0.000000
vn -0.707101 -0.707112 0.000000
vn 0.707101 -0.707112 0.000000
vn 0.707101 -0.707112 0.000000
vn 0.707101 -0.707112 0.000000
vn 0.707101 -0.707112 0.000000
s off
g group13 pCube102
usemtl StingrayPBS4SG
f 180/373/529 178/374/530 181/375/531 184/376/532
f 185/377/533 188/378/534 191/379/535 190/380/536
f 189/357/537 192/358/538 183/359/539 182/360/540
f 187/365/541 186/366/542 177/367/543 179/368/544
f 179/381/545 180/382/546 184/383/547 183/384/548 192/385/549 191/386/550 188/387/551 187/388/552
f 186/389/553 185/390/554 190/391/555 189/392/556 182/393/557 181/394/558 178/395/559 177/396/560
f 177/367/561 178/371/562 180/372/563 179/368/564
f 181/363/565 182/360/566 183/359/567 184/364/568
f 185/369/569 186/366/570 187/365/571 188/370/572
f 189/357/573 190/361/574 191/362/575 192/358/576
g default
v -3749.680637 418.872527 249.177355
v -3748.327928 419.757178 248.638397
v -3746.671923 264.213247 2.869312
v -3745.319214 265.097898 2.330355
v -3740.128729 419.634641 248.815495
v -3741.641089 420.290698 248.385076
v -3737.120015 264.975361 2.507452
v -3738.632375 265.631418 2.077034
v -3746.299348 260.617729 5.131525
v -3744.786989 259.961672 5.561944
v -3749.308062 415.277009 251.439568
v -3747.795702 414.620952 251.869986
v -3738.100149 260.495192 5.308623
v -3736.747440 261.379842 4.769665
v -3739.756154 416.039122 251.077708
v -3741.108863 415.154472 251.616665
vt 0.207896 0.156362
vt 0.316287 0.156362
vt 0.207896 0.232239
vt 0.316287 0.373146
vt 0.316287 0.449024
vt 0.300031 0.465281
vt 0.224153 0.465281
vt 0.207896 0.449024
vt 0.224153 0.140105
vt 0.300031 0.031712
vt 0.115760 0.140105
vt 0.115760 0.031712
vt 0.191638 0.031712
vt 0.224153 0.356889
vt 0.300031 0.248497
vt 0.332545 0.140105
vt 0.408422 0.031712
vt 0.408422 0.140105
vt 0.224153 0.031712
vt 0.191638 0.140105
vt 0.332545 0.031712
vt 0.300031 0.140105
vt 0.224153 0.248497
vt 0.207896 0.373146
vt 0.316287 0.232239
vt 0.300031 0.356889
vn -0.087371 0.843169 -0.530502
vn -0.087371 0.843169 -0.530502
vn -0.087371 0.843169 -0.530502
vn -0.087371 0.843169 -0.530502
vn 0.087371 -0.843169 0.530502
vn 0.087371 -0.843169 0.530502
vn 0.087371 -0.843169 0.530502
vn 0.087371 -0.843169 0.530502
vn 0.996122 0.079477 -0.037737
vn 0.996122 0.079477 -0.037737
vn 0.996122 0.079477 -0.037737
vn 0.996122 0.079477 -0.037737
vn -0.996122 -0.079477 0.037737
vn -0.996122 -0.079477 0.037737
vn -0.996122 -0.079477 0.037737
vn -0.996122 -0.079477 0.037737
vn 0.010344 -0.531742 -0.846843
vn 0.010344 -0.531742 -0.846843
vn 0.010344 -0.531742 -0.846843
vn 0.010344 -0.531742 -0.846843
vn 0.010344 -0.531742 -0.846843
vn 0.010344 -0.531742 -0.846843
vn 0.010344 -0.531742 -0.846843
vn 0.010344 -0.531742 -0.846843
vn -0.010344 0.531741 0.846844
vn -0.010344 0.531741 0.846844
vn -0.010344 0.531741 0.846844
vn -0.010344 0.531741 0.846844
vn -0.010344 0.531741 0.846844
vn -0.010344 0.531741 0.846844
vn -0.010344 0.531741 0.846844
vn -0.010344 0.531741 0.846844
vn -0.607907 0.669071 -0.427542
vn -0.607907 0.669071 -0.427542
vn -0.607907 0.669071 -0.427542
vn -0.607907 0.669071 -0.427542
vn 0.460414 0.754309 -0.468014
vn 0.460414 0.754309 -0.468014
vn 0.460414 0.754309 -0.468014
vn 0.460414 0.754309 -0.468014
vn -0.460414 -0.754309 0.468014
vn -0.460414 -0.754309 0.468014
vn -0.460414 -0.754309 0.468014
vn -0.460414 -0.754309 0.468014
vn 0.607907 -0.669071 0.427542
vn 0.607907 -0.669071 0.427542
vn 0.607907 -0.669071 0.427542
vn 0.607907 -0.669071 0.427542
s off
g group13 pCube104
usemtl StingrayPBS4SG
f 196/405/577 194/415/578 198/406/579 200/418/580
f 204/410/581 202/419/582 205/411/583 208/422/584
f 199/412/585 197/417/586 207/413/587 206/414/588
f 201/407/589 203/408/590 193/409/591 195/416/592
f 195/397/593 196/405/594 200/418/595 199/398/596 206/421/597 205/411/598 202/419/599 201/399/600
f 203/420/601 204/410/602 208/422/603 207/400/604 197/401/605 198/402/606 194/403/607 193/404/608
f 193/409/609 194/415/610 196/405/611 195/416/612
f 198/406/613 197/417/614 199/412/615 200/418/616
f 201/399/617 202/419/618 204/410/619 203/420/620
f 205/411/621 206/421/622 207/400/623 208/422/624
g default
v -3759.653618 17.725881 9.069853
v -3755.767470 17.725881 12.956354
v -3759.653618 586.329704 9.069853
v -3755.767470 586.329704 12.956354
v -3733.741411 17.725881 9.069853
v -3737.627559 17.725881 12.956354
v -3733.741411 586.329704 9.069853
v -3737.627559 586.329704 12.956354
v -3759.653618 586.329704 -9.069853
v -3755.767470 586.329704 -12.956354
v -3759.653618 17.725881 -9.069853
v -3755.767470 17.725881 -12.956354
v -3737.627559 586.329704 -12.956354
v -3733.741411 586.329704 -9.069853
v -3733.741411 17.725881 -9.069853
v -3737.627559 17.725881 -12.956354
vt 0.189475 0.132652
vt 0.290980 0.132652
vt 0.189475 0.203710
vt 0.290980 0.335665
vt 0.290980 0.406723
vt 0.275756 0.421947
vt 0.204699 0.421947
vt 0.189475 0.406723
vt 0.204699 0.117427
vt 0.275756 0.015921
vt 0.103192 0.117427
vt 0.103192 0.015921
vt 0.174249 0.015921
vt 0.204699 0.320441
vt 0.275756 0.218934
vt 0.306205 0.117427
vt 0.377262 0.015921
vt 0.377262 0.117427
vt 0.204699 0.015921
vt 0.174249 0.117427
vt 0.306205 0.015921
vt 0.275756 0.117427
vt 0.204699 0.218934
vt 0.189475 0.335665
vt 0.290980 0.203710
vt 0.275756 0.320441
vn 0.000000 0.000000 1.000000
vn 0.000000 0.000000 1.000000
vn 0.000000 0.000000 1.000000
vn 0.000000 0.000000 1.000000
vn 0.000000 0.000000 -1.000000
vn 0.000000 0.000000 -1.000000
vn 0.000000 0.000000 -1.000000
vn 0.000000 0.000000 -1.000000
vn 1.000000 0.000000 0.000000
vn 1.000000 0.000000 0.000000
vn 1.000000 0.000000 0.000000
vn 1.000000 0.000000 0.000000
vn -1.000000 0.000000 0.000000
vn -1.000000 0.000000 0.000000
vn -1.000000 0.000000 0.000000
vn -1.000000 0.000000 0.000000
vn 0.000000 1.000000 -0.000000
vn 0.000000 1.000000 -0.000000
vn 0.000000 1.000000 -0.000000
vn 0.000000 1.000000 -0.000000
vn 0.000000 1.000000 -0.000000
vn 0.000000 1.000000 -0.000000
vn 0.000000 1.000000 -0.000000
vn 0.000000 1.000000 -0.000000
vn 0.000000 -1.000000 0.000000
vn 0.000000 -1.000000 0.000000
vn 0.000000 -1.000000 0.000000
vn 0.000000 -1.000000 0.000000
vn 0.000000 -1.000000 0.000000
vn 0.000000 -1.000000 0.000000
vn 0.000000 -1.000000 0.000000
vn 0.000000 -1.000000 0.000000
vn -0.707139 0.000000 0.707075
vn -0.707139 0.000000 0.707075
vn -0.707139 0.000000 0.707075
vn -0.707139 0.000000 0.707075
vn 0.707139 0.000000 0.707075
vn 0.707139 0.000000 0.707075
vn 0.707139 0.000000 0.707075
vn 0.707139 0.000000 0.707075
vn -0.707139 0.000000 -0.707075
vn -0.707139 0.000000 -0.707075
vn -0.707139 0.000000 -0.707075
vn -0.707139 0.000000 -0.707075
vn 0.707139 0.000000 -0.707075
vn 0.707139 0.000000 -0.707075
vn 0.707139 0.000000 -0.707075
vn 0.707139 0.000000 -0.707075
s off
g group13 pCube91
usemtl StingrayPBS4SG
f 212/431/625 210/441/626 214/432/627 216/444/628
f 220/436/629 218/445/630 221/437/631 224/448/632
f 215/438/633 213/443/634 223/439/635 222/440/636
f 217/433/637 219/434/638 209/435/639 211/442/640
f 211/423/641 212/431/642 216/444/643 215/424/644 222/447/645 221/437/646 218/445/647 217/425/648
f 219/446/649 220/436/650 224/448/651 223/426/652 213/427/653 214/428/654 210/429/655 209/430/656
f 209/435/657 210/441/658 212/431/659 211/442/660
f 214/432/661 213/443/662 215/438/663 216/444/664
f 217/425/665 218/445/666 220/436/667 219/446/668
f 221/437/669 222/447/670 223/426/671 224/448/672
