# This file uses meters as units for non-parametric coordinates.

mtllib chainpiece.mtl
g default
v -4386.490764 727.275863 861.795624
v -4386.141419 727.430279 862.658055
v -4386.109507 727.419267 863.601191
v -4386.399851 727.244433 864.480904
v -4386.969365 726.932466 865.162392
v -4387.730513 726.530510 865.544293
v -4388.567704 726.100380 865.565514
v -4389.352967 725.707226 865.225493
v -4389.967657 725.410572 864.574148
v -4390.317645 725.256196 863.711557
v -4390.349798 725.267169 862.768743
v -4390.058892 725.442122 861.888547
v -4389.490020 725.754049 861.206577
v -4388.728551 726.155885 860.825641
v -4387.891039 726.586095 860.803616
v -4387.106097 726.979330 861.144360
v -4386.731351 727.934241 861.842247
v -4386.365447 727.934241 862.711671
v -4386.359338 727.934241 863.655530
v -4386.713988 727.934241 864.528973
v -4387.375059 727.934241 865.199208
v -4388.242554 727.934241 865.564951
v -4389.184002 727.934241 865.569613
v -4390.055355 727.934241 865.213034
v -4390.725750 727.934241 864.549230
v -4391.091654 727.934241 863.679162
v -4391.097764 727.934241 862.735786
v -4390.743113 727.934241 861.862021
v -4390.082042 727.934241 861.191786
v -4389.214869 727.934241 860.826204
v -4388.273421 727.934241 860.821541
v -4387.401746 727.934241 861.177960
v -4386.731351 739.848792 861.842247
v -4386.365447 739.848792 862.711671
v -4386.359338 739.848792 863.655530
v -4386.713988 739.848792 864.528973
v -4387.375059 739.848792 865.199208
v -4388.242554 739.848792 865.564951
v -4389.184002 739.848792 865.569613
v -4390.055355 739.848792 865.213034
v -4390.725750 739.848792 864.549230
v -4391.091654 739.848792 863.679162
v -4391.097764 739.848792 862.735786
v -4390.743113 739.848792 861.862021
v -4390.082042 739.848792 861.191786
v -4389.214869 739.848792 860.826204
v -4388.273421 739.848792 860.821541
v -4387.401746 739.848792 861.177960
v -4386.517532 740.562595 861.837102
v -4386.193748 740.397005 862.707973
v -4386.186032 740.403838 863.651832
v -4386.495024 740.581726 864.524311
v -4387.074748 740.903580 865.192777
v -4387.836458 741.320849 865.556109
v -4388.663762 741.769467 865.558520
v -4389.430939 742.181431 865.199851
v -4390.021915 742.493961 864.534117
v -4390.345699 742.659469 863.663246
v -4390.353416 742.653039 862.720191
v -4390.044423 742.475151 861.847070
v -4389.465021 742.153136 861.178603
v -4388.703632 741.736108 860.815593
v -4387.876007 741.287409 860.813021
v -4387.108509 740.875285 861.171530
v -4385.709842 741.146417 861.820061
v -4385.495058 740.860414 862.693022
v -4385.482840 740.871909 863.636881
v -4385.675116 741.179214 864.506787
v -4386.042950 741.736108 865.170591
v -4386.530393 742.457949 865.528779
v -4387.063173 743.233807 865.524438
v -4387.559619 743.946323 865.159820
v -4387.944815 744.487141 864.489907
v -4388.160242 744.773707 863.616463
v -4388.172782 744.762051 862.673569
v -4387.979862 744.454506 861.803180
v -4387.611707 743.897611 861.138894
v -4387.124585 743.176172 860.781511
v -4386.591806 742.399993 860.785851
v -4386.095359 741.687074 861.150308
v -4383.090316 741.725256 861.764436
v -4383.062664 741.378242 862.641094
v -4383.043051 741.392229 863.584632
v -4383.034369 741.764725 864.450358
v -4383.038228 742.439622 865.107089
v -4383.054304 743.314753 865.454505
v -4383.079705 744.255396 865.439393
v -4383.110894 745.119194 865.065450
v -4383.142726 745.774718 864.388463
v -4383.170377 746.122134 863.510679
v -4383.190312 746.108228 862.567303
v -4383.198672 745.735652 861.701576
v -4383.194492 745.060514 861.045167
v -4383.178737 744.185704 860.697912
v -4383.153336 743.244900 860.712542
v -4383.122469 742.380781 861.086806
v -4384.624669 724.845519 863.101207
v -4385.635648 726.664509 862.848161
v -4385.626324 726.656551 863.414219
v -4385.690309 726.445626 863.935102
v -4385.817957 726.063806 864.331713
v -4385.989656 725.569289 864.543924
v -4386.179681 725.037313 864.538619
v -4386.358132 724.548905 864.317405
v -4386.498963 724.178017 863.913238
v -4386.580311 723.981802 863.388336
v -4386.589314 723.989599 862.822278
v -4386.525329 724.200524 862.301395
v -4386.397680 724.582344 861.904945
v -4386.226304 725.076861 861.693377
v -4386.036599 725.608837 861.698522
v -4385.857184 726.097486 861.919575
v -4385.716674 726.468213 862.323259
v -4384.468726 725.739781 862.927258
v -4384.462617 725.734396 863.305220
v -4384.505381 725.593805 863.651993
v -4384.590265 725.339393 863.916453
v -4384.705053 725.009581 864.058088
v -4384.831415 724.654930 864.054712
v -4384.950703 724.329379 863.907129
v -4385.044591 724.082120 863.637685
v -4385.098608 723.951256 863.287857
v -4385.105039 723.956481 862.910539
v -4385.061954 724.097232 862.563123
v -4384.977069 724.351645 862.298823
v -4384.862603 724.681296 862.157670
v -4384.736241 725.035946 862.161046
v -4384.616631 725.361739 862.308630
v -4384.523065 725.608917 862.577913
v -4384.467440 725.292690 863.011178
v -4384.464225 725.289877 863.199757
v -4384.485446 725.219783 863.373063
v -4384.527888 725.092456 863.505535
v -4384.585121 724.927670 863.576433
v -4384.648463 724.750184 863.574503
v -4384.708268 724.587328 863.500872
v -4384.754890 724.463779 863.366150
v -4384.781899 724.398347 863.191076
v -4384.785114 724.400920 863.002336
v -4384.763571 724.471255 862.828869
v -4384.721129 724.598421 862.696719
v -4384.664218 724.763367 862.626143
v -4384.600876 724.940853 862.627590
v -4384.541071 725.103549 862.701703
v -4384.494127 725.227098 862.836104
v -4379.831503 725.980690 861.640646
v -4379.813175 726.308814 862.517304
v -4379.794205 726.295470 863.460359
v -4379.776521 726.011918 864.326568
v -4379.763016 725.373716 864.982334
v -4379.755621 724.546775 865.329268
v -4379.756264 723.657255 865.313995
v -4379.763659 722.742253 864.939409
v -4379.777807 722.122620 864.261136
v -4379.795812 721.794335 863.384156
v -4379.814783 721.807478 862.440619
v -4379.833110 722.159998 861.574892
v -4379.846293 722.896629 860.918966
v -4379.853367 723.723410 860.572032
v -4379.852724 724.612850 860.587305
v -4379.845007 725.429784 860.962533
v -4376.530729 726.301820 861.631482
v -4376.629761 726.629060 862.510391
v -4376.605646 726.615797 863.454090
v -4376.462886 726.264442 864.316601
v -4376.222701 725.628209 864.968186
v -4375.921747 724.803800 865.309493
v -4375.606002 723.917174 865.287790
v -4375.323696 723.103053 864.906935
v -4375.117594 722.485148 864.224160
v -4375.018883 722.157989 863.344608
v -4375.042998 722.170930 862.401392
v -4375.186080 722.522767 861.538238
v -4375.425943 723.158759 860.886973
v -4375.726576 723.983088 860.546309
v -4376.042321 724.869714 860.568013
v -4376.325270 725.683995 860.948868
v -4375.473289 726.899831 861.609457
v -4375.764919 727.058628 862.492466
v -4375.740965 727.038733 863.435441
v -4375.405446 726.843161 864.294897
v -4374.809565 726.501974 864.938686
v -4374.043032 726.066458 865.270909
v -4373.224008 725.603813 865.238435
v -4372.476123 725.183892 864.848496
v -4371.914084 724.870598 864.158728
v -4371.622454 724.711962 863.275719
v -4371.646167 724.731817 862.332745
v -4371.981606 724.927389 861.473127
v -4372.577727 725.268696 860.828856
v -4373.343698 725.703930 860.497919
v -4374.163365 726.166736 860.529590
v -4374.910929 726.586698 860.920172
v -4375.246528 727.934241 861.605116
v -4375.575456 727.934241 862.489492
v -4375.542017 727.934241 863.432386
v -4375.151355 727.934241 864.290235
v -4374.462953 727.934241 864.932657
v -4373.580989 727.934241 865.261424
v -4372.640185 727.934241 865.226699
v -4371.784587 727.934241 864.834268
v -4371.142486 727.934241 864.142973
v -4370.813558 727.934241 863.258276
v -4370.846676 727.934241 862.315382
v -4371.237338 727.934241 861.457211
v -4371.925740 727.934241 860.815432
v -4372.807703 727.934241 860.486344
v -4373.748508 727.934241 860.520908
v -4374.604749 727.934241 860.913500
v -4375.246528 739.848792 861.605116
v -4375.575456 739.848792 862.489492
v -4375.542017 739.848792 863.432386
v -4375.151355 739.848792 864.290235
v -4374.462953 739.848792 864.932657
v -4373.580989 739.848792 865.261424
v -4372.640185 739.848792 865.226699
v -4371.784587 739.848792 864.834268
v -4371.142486 739.848792 864.142973
v -4370.813558 739.848792 863.258276
v -4370.846676 739.848792 862.315382
v -4371.237338 739.848792 861.457211
v -4371.925740 739.848792 860.815432
v -4372.807703 739.848792 860.486344
v -4373.748508 739.848792 860.520908
v -4374.604749 739.848792 860.913500
v -4375.460347 740.562595 861.609296
v -4375.747476 740.397005 862.492868
v -4375.715644 740.403838 863.436244
v -4375.369997 740.581726 864.295058
v -4374.763265 740.903580 864.938605
v -4373.986763 741.320849 865.269945
v -4373.160103 741.769467 865.237952
v -4372.409003 742.181431 864.847129
v -4371.846321 742.493961 864.157121
v -4371.559192 742.659469 863.273388
v -4371.590381 742.653039 862.330976
v -4371.936029 742.475151 861.471841
v -4372.543082 742.153136 860.827651
v -4373.319262 741.736108 860.497115
v -4374.145922 741.287409 860.528947
v -4374.897987 740.875285 860.919448
v -4376.268037 741.146417 861.626016
v -4376.446166 740.860414 862.507015
v -4376.419158 740.871909 863.450713
v -4376.190548 741.179214 864.311778
v -4375.795063 741.736108 864.959987
v -4375.293150 742.457949 865.297114
v -4374.761335 743.233807 865.270427
v -4374.280323 743.946323 864.885392
v -4373.923422 744.487141 864.199724
v -4373.744971 744.773707 863.318403
v -4373.771658 744.762132 862.375669
v -4374.000911 744.454425 861.514123
v -4374.396396 743.897531 860.865913
v -4374.897987 743.176092 860.529268
v -4375.430123 742.399993 860.555634
v -4375.911136 741.687074 860.940669
v -4378.887885 741.725256 861.679712
v -4378.878560 741.378242 862.557014
v -4378.858947 741.392229 863.500390
v -4378.830974 741.764725 864.365634
v -4378.799785 742.439622 865.021882
v -4378.769239 743.314753 865.368173
v -4378.744803 744.255396 865.352096
v -4378.729369 745.119194 864.977189
v -4378.725511 745.774718 864.299238
v -4378.734514 746.122134 863.421293
v -4378.754449 746.108067 862.477917
v -4378.781779 745.735652 861.612833
v -4378.813611 745.060514 860.957067
v -4378.843835 744.185704 860.610294
v -4378.868593 743.244900 860.626210
v -4378.883705 742.380781 861.001600
v -4383.597373 725.092617 862.058960
v -4383.597373 725.345422 862.627912
v -4383.597373 725.323879 863.259241
v -4383.597373 725.034741 863.803113
v -4383.597373 724.561847 864.141526
v -4383.597051 724.032925 864.225607
v -4383.597373 723.564372 864.086062
v -4383.597373 723.220654 863.801988
v -4383.597051 723.007156 863.451678
v -4383.597373 722.898157 863.076771
v -4383.597051 722.881437 862.686430
v -4383.597373 722.977254 862.290142
v -4383.597051 723.214786 861.923112
v -4383.597373 723.599660 861.649327
v -4383.597373 724.100045 861.546437
v -4383.597373 724.637487 861.678104
v -4383.597051 724.110656 862.880315
v -4383.023437 725.713335 861.499975
v -4383.077133 726.123128 862.457982
v -4383.073918 726.089689 863.512287
v -4383.014113 725.765423 864.432995
v -4382.910579 724.987877 865.034422
v -4382.783895 724.090962 865.227181
v -4382.657211 723.258112 865.038281
v -4382.549498 722.608697 864.572541
v -4382.472330 722.180335 863.948767
v -4382.432782 721.958558 863.247826
v -4382.433103 721.937899 862.510391
v -4382.474902 722.148262 861.780995
v -4382.556572 722.617378 861.140019
v -4382.669108 723.327724 860.697751
v -4382.798364 724.204061 860.568656
v -4382.924405 725.108934 860.834724
v -4383.597051 722.889716 862.881601
v -4382.432782 721.948269 862.879028
v -4379.805137 721.800766 862.912468
v -4375.030780 722.164500 862.873080
v -4371.634109 724.721930 862.804111
v -4370.829956 727.934241 862.786749
v -4370.829956 739.848792 862.786749
v -4371.574626 742.656334 862.802182
v -4373.758475 744.767839 862.847197
v -4378.744160 746.115061 862.949605
v -4383.180345 746.115141 863.038991
v -4388.166672 744.767839 863.145097
v -4390.349557 742.656334 863.191880
v -4391.094870 739.848792 863.207474
v -4391.094870 727.934241 863.207474
v -4390.333400 725.261823 863.240110
v -4386.584812 723.985660 863.105387
v -4385.101502 723.953909 863.099278
v -4384.783506 724.399714 863.096706
vt 0.613054 0.617329
vt 0.615722 0.618042
vt 0.612587 0.616932
vt 0.604095 0.614156
vt 0.591507 0.610138
vt 0.576758 0.605483
vt 0.562135 0.600924
vt 0.549898 0.597158
vt 0.541913 0.594760
vt 0.539389 0.594097
vt 0.541035 0.594679
vt 0.542674 0.595255
vt 0.551247 0.598051
vt 0.563765 0.602052
vt 0.578362 0.606655
vt 0.592834 0.611167
vt 0.605001 0.614914
vt 0.606260 0.633624
vt 0.609199 0.632650
vt 0.606036 0.631640
vt 0.597219 0.630751
vt 0.584083 0.630120
vt 0.568623 0.629843
vt 0.553236 0.629966
vt 0.540313 0.630469
vt 0.531807 0.631274
vt 0.529025 0.632255
vt 0.530688 0.632758
vt 0.532351 0.633261
vt 0.541242 0.634141
vt 0.554325 0.634762
vt 0.569625 0.635032
vt 0.584847 0.634911
vt 0.597704 0.634418
vt 0.604160 0.831011
vt 0.607105 0.830454
vt 0.603926 0.829876
vt 0.595073 0.829367
vt 0.581889 0.829006
vt 0.566372 0.828848
vt 0.550932 0.828918
vt 0.537964 0.829206
vt 0.529433 0.829666
vt 0.526646 0.830227
vt 0.528318 0.830516
vt 0.529989 0.830803
vt 0.538916 0.831307
vt 0.552048 0.831662
vt 0.567403 0.831816
vt 0.582678 0.831747
vt 0.595577 0.831465
vt 0.607531 0.842867
vt 0.609820 0.839578
vt 0.606673 0.839134
vt 0.598542 0.841617
vt 0.586638 0.846663
vt 0.572782 0.853509
vt 0.559122 0.861092
vt 0.547771 0.868245
vt 0.540457 0.873864
vt 0.538303 0.877094
vt 0.539951 0.877278
vt 0.541597 0.877460
vt 0.549804 0.874918
vt 0.561665 0.869869
vt 0.575377 0.863086
vt 0.588892 0.855585
vt 0.600177 0.848489
vt 0.620636 0.852533
vt 0.621190 0.847260
vt 0.618138 0.846911
vt 0.611925 0.851572
vt 0.603483 0.860564
vt 0.594095 0.872523
vt 0.585228 0.885591
vt 0.578243 0.897760
vt 0.574213 0.907154
vt 0.573745 0.912340
vt 0.575317 0.912440
vt 0.576885 0.912541
vt 0.583155 0.907771
vt 0.591572 0.898771
vt 0.600860 0.886915
vt 0.609633 0.873984
vt 0.616570 0.861917
vt 0.663405 0.862020
vt 0.660988 0.855755
vt 0.658141 0.855466
vt 0.655307 0.861228
vt 0.652913 0.872205
vt 0.651332 0.886741
vt 0.650810 0.902573
vt 0.651422 0.917267
vt 0.653085 0.928558
vt 0.655535 0.934721
vt 0.656964 0.934779
vt 0.658381 0.934837
vt 0.661205 0.928935
vt 0.663570 0.917932
vt 0.665123 0.903511
vt 0.665637 0.887852
vt 0.665035 0.873290
vt 0.636534 0.602570
vt 0.638299 0.603346
vt 0.633758 0.598488
vt 0.630390 0.591715
vt 0.626950 0.583287
vt 0.623961 0.574496
vt 0.621890 0.566695
vt 0.621050 0.561072
vt 0.621555 0.558487
vt 0.622451 0.558902
vt 0.623342 0.559317
vt 0.626123 0.563428
vt 0.629472 0.570186
vt 0.632887 0.578563
vt 0.635855 0.587296
vt 0.637932 0.595072
vt 0.638789 0.600709
vt 0.638484 0.595320
vt 0.639662 0.595846
vt 0.636636 0.592596
vt 0.634397 0.588085
vt 0.632101 0.582468
vt 0.630116 0.576615
vt 0.628730 0.571418
vt 0.628165 0.567666
vt 0.628498 0.565936
vt 0.629092 0.566211
vt 0.629678 0.566484
vt 0.631532 0.569224
vt 0.633765 0.573729
vt 0.636045 0.579320
vt 0.638022 0.585148
vt 0.639411 0.590336
vt 0.639983 0.594093
vt 0.638891 0.588085
vt 0.639476 0.588353
vt 0.637970 0.586726
vt 0.636851 0.584468
vt 0.635704 0.581665
vt 0.634711 0.578738
vt 0.634015 0.576140
vt 0.633735 0.574265
vt 0.633900 0.573398
vt 0.634196 0.573534
vt 0.634488 0.573668
vt 0.635413 0.575035
vt 0.636529 0.577288
vt 0.637668 0.580088
vt 0.638661 0.583008
vt 0.639355 0.585601
vt 0.639642 0.587478
vt 0.636690 0.580876
vt 0.733673 0.609174
vt 0.736196 0.604419
vt 0.730994 0.607875
vt 0.728569 0.601905
vt 0.726790 0.589908
vt 0.725923 0.574925
vt 0.726098 0.559276
vt 0.727309 0.543651
vt 0.729336 0.533643
vt 0.731876 0.529037
vt 0.733215 0.529768
vt 0.736930 0.537778
vt 0.734550 0.530502
vt 0.738671 0.551452
vt 0.739525 0.566284
vt 0.739361 0.581762
vt 0.738188 0.595571
vt 0.768585 0.609915
vt 0.772944 0.605473
vt 0.766063 0.608631
vt 0.765768 0.601791
vt 0.767767 0.590410
vt 0.771753 0.576223
vt 0.777122 0.561432
vt 0.783029 0.548316
vt 0.788575 0.538888
vt 0.792904 0.534585
vt 0.794137 0.535305
vt 0.795593 0.542964
vt 0.795363 0.536024
vt 0.793576 0.554309
vt 0.789620 0.568357
vt 0.784317 0.582988
vt 0.778457 0.596017
vt 0.779401 0.616875
vt 0.787221 0.616086
vt 0.777044 0.615757
vt 0.780539 0.612888
vt 0.789392 0.608703
vt 0.802266 0.603833
vt 0.817168 0.599041
vt 0.831802 0.595061
vt 0.843905 0.592501
vt 0.851636 0.591759
vt 0.852738 0.592347
vt 0.850197 0.595831
vt 0.853835 0.592931
vt 0.841313 0.600007
vt 0.828536 0.604829
vt 0.813791 0.609569
vt 0.799297 0.613520
vt 0.785701 0.631430
vt 0.793753 0.632332
vt 0.783367 0.630413
vt 0.787146 0.629434
vt 0.796495 0.628644
vt 0.810010 0.628165
vt 0.825603 0.628074
vt 0.840854 0.628383
vt 0.853434 0.629045
vt 0.861401 0.629956
vt 0.862486 0.630467
vt 0.859642 0.631949
vt 0.863568 0.630976
vt 0.850251 0.632727
vt 0.836832 0.633196
vt 0.821406 0.633286
vt 0.806295 0.632983
vt 0.784226 0.829756
vt 0.792310 0.830271
vt 0.781881 0.829173
vt 0.785670 0.828613
vt 0.795049 0.828161
vt 0.808612 0.827888
vt 0.824259 0.827835
vt 0.839565 0.828012
vt 0.852192 0.828391
vt 0.860189 0.828912
vt 0.861280 0.829204
vt 0.858430 0.830052
vt 0.862367 0.829496
vt 0.849008 0.830497
vt 0.835543 0.830766
vt 0.820062 0.830817
vt 0.804897 0.830644
vt 0.781325 0.838926
vt 0.788709 0.842187
vt 0.778947 0.838478
vt 0.781961 0.840925
vt 0.789947 0.845912
vt 0.801703 0.852686
vt 0.815410 0.860200
vt 0.828951 0.867297
vt 0.840257 0.872878
vt 0.847570 0.876093
vt 0.848690 0.876279
vt 0.846654 0.873947
vt 0.849809 0.876463
vt 0.838623 0.868942
vt 0.826941 0.862219
vt 0.813379 0.854785
vt 0.799964 0.847757
vt 0.769767 0.846712
vt 0.775369 0.851974
vt 0.767282 0.846359
vt 0.768325 0.851005
vt 0.772750 0.859973
vt 0.779902 0.871908
vt 0.788672 0.884958
vt 0.797711 0.897117
vt 0.805624 0.906508
vt 0.811194 0.911696
vt 0.812392 0.911798
vt 0.812446 0.907132
vt 0.813587 0.911902
vt 0.807975 0.898139
vt 0.800867 0.886295
vt 0.792183 0.873384
vt 0.783240 0.861339
vt 0.729689 0.855509
vt 0.732285 0.861780
vt 0.726997 0.855220
vt 0.724626 0.860986
vt 0.722931 0.871972
vt 0.722191 0.886520
vt 0.722514 0.902368
vt 0.723850 0.917076
vt 0.726003 0.928377
vt 0.728626 0.934547
vt 0.729976 0.934603
vt 0.733672 0.928756
vt 0.731314 0.934661
vt 0.735327 0.917743
vt 0.736051 0.903309
vt 0.735724 0.887635
vt 0.734409 0.873060
vt 0.652524 0.549888
vt 0.654258 0.568837
vt 0.653793 0.548558
vt 0.654898 0.589544
vt 0.656839 0.586034
vt 0.658180 0.578977
vt 0.658704 0.570277
vt 0.658442 0.561908
vt 0.657596 0.555228
vt 0.656408 0.550853
vt 0.655104 0.548774
vt 0.654451 0.548665
vt 0.651309 0.552980
vt 0.650298 0.558317
vt 0.649756 0.565909
vt 0.649948 0.574779
vt 0.651010 0.583022
vt 0.652788 0.588451
vt 0.667908 0.596839
vt 0.663797 0.602519
vt 0.660347 0.600764
vt 0.658292 0.594317
vt 0.658092 0.580677
vt 0.659662 0.565518
vt 0.662500 0.551898
vt 0.665920 0.541697
vt 0.669320 0.535392
vt 0.672320 0.532626
vt 0.673539 0.532936
vt 0.674748 0.533242
vt 0.676437 0.537656
vt 0.677142 0.546207
vt 0.676660 0.558458
vt 0.674858 0.573043
vt 0.671803 0.587635
vn 0.733841 0.331618 -0.592880
vn 0.826013 0.018650 -0.563342
vn 0.979112 0.020183 -0.202318
vn 0.855093 0.465576 -0.228153
vn 0.981557 0.020706 0.190045
vn 0.866944 0.462269 0.186319
vn 0.832750 0.019733 0.553298
vn 0.764934 0.324036 0.556666
vn 0.555792 0.014939 0.831187
vn 0.555625 0.122355 0.822381
vn 0.193817 0.004550 0.981027
vn 0.269952 -0.097555 0.957919
vn -0.196794 -0.010673 0.980387
vn -0.044531 -0.309242 0.949940
vn -0.555635 -0.027507 0.830971
vn -0.337821 -0.492062 0.802341
vn -0.829217 -0.041665 0.557371
vn -0.564469 -0.626182 0.537838
vn -0.962872 -0.048227 0.265615
vn -0.680465 -0.684613 0.261291
vn -0.998607 -0.052051 0.008699
vn -0.700552 -0.713560 0.007680
vn -0.687438 -0.684756 -0.241948
vn -0.967158 -0.047504 -0.249699
vn -0.837931 -0.040330 -0.544284
vn -0.585739 -0.620691 -0.521203
vn -0.567016 -0.025819 -0.823302
vn -0.370880 -0.484280 -0.792415
vn -0.208581 -0.009368 -0.977960
vn -0.086049 -0.300701 -0.949829
vn 0.182667 0.004885 -0.983163
vn 0.224927 -0.089127 -0.970291
vn 0.546381 0.014241 -0.837416
vn 0.513500 0.130347 -0.848132
vn 0.826622 -0.014977 -0.562558
vn 0.979267 -0.014851 -0.202028
vn 0.981750 -0.014871 0.189594
vn 0.833326 -0.014900 0.552581
vn 0.556389 -0.012100 0.830834
vn 0.193781 -0.003810 0.981037
vn -0.197805 0.009917 0.980191
vn -0.557166 0.026034 0.829993
vn -0.830476 0.040061 0.555612
vn -0.963484 0.046789 0.263647
vn -0.998700 0.050552 0.006471
vn -0.966847 0.046274 -0.251130
vn -0.837407 0.039153 -0.545176
vn -0.566389 0.024750 -0.823766
vn -0.207793 0.008643 -0.978135
vn 0.183684 -0.004733 -0.982974
vn 0.547385 -0.012534 -0.836787
vn 0.626035 -0.499420 -0.598883
vn 0.743166 -0.633515 -0.215320
vn 0.748172 -0.627493 0.215618
vn 0.638150 -0.485249 0.597744
vn 0.416655 -0.280997 0.864546
vn 0.119677 -0.064774 0.990698
vn -0.201901 0.139511 0.969419
vn -0.496657 0.313001 0.809544
vn -0.720708 0.438649 0.536811
vn -0.829468 0.496394 0.256077
vn -0.859253 0.511539 0.003501
vn -0.833967 0.492858 -0.248175
vn -0.730031 0.430947 -0.530413
vn -0.509887 0.300528 -0.806038
vn -0.217257 0.123543 -0.968265
vn 0.103591 -0.082275 -0.991211
vn 0.401414 -0.298105 -0.866025
vn 0.255720 -0.786424 -0.562267
vn 0.292641 -0.937045 -0.190544
vn 0.300125 -0.930995 0.207779
vn 0.275824 -0.768789 0.576961
vn 0.200438 -0.479238 0.854492
vn 0.072172 -0.121303 0.989988
vn -0.084936 0.239022 0.967292
vn -0.237836 0.548966 0.801293
vn -0.357873 0.772364 0.524768
vn -0.418677 0.874610 0.244472
vn -0.434600 0.900608 -0.005345
vn -0.426193 0.868313 -0.253756
vn -0.373350 0.758760 -0.533753
vn -0.261085 0.526937 -0.808809
vn -0.113151 0.210635 -0.970994
vn 0.042299 -0.151667 -0.987526
vn 0.172913 -0.505647 -0.845235
vn 0.060909 -0.834762 -0.547231
vn 0.075559 -0.980251 -0.182751
vn 0.083369 -0.974488 0.208382
vn 0.082897 -0.817874 0.569395
vn 0.068266 -0.531624 0.844225
vn 0.035703 -0.160448 0.986398
vn -0.011131 0.233021 0.972408
vn -0.062121 0.584361 0.809113
vn -0.105796 0.842306 0.528514
vn -0.129433 0.961953 0.240609
vn -0.141745 0.989835 -0.011572
vn -0.138673 0.954856 -0.262716
vn -0.125730 0.826557 -0.548630
vn -0.092321 0.559218 -0.823864
vn -0.047467 0.201490 -0.978340
vn -0.001488 -0.192746 -0.981248
vn 0.036001 -0.558140 -0.828965
vn -0.083187 -0.834845 -0.544164
vn -0.082973 -0.980286 -0.179317
vn -0.074769 -0.974446 0.211813
vn -0.059605 -0.817794 0.572416
vn -0.033699 -0.531555 0.846353
vn 0.004727 -0.160391 0.987042
vn 0.050997 0.233025 0.971133
vn 0.095289 0.584367 0.805876
vn 0.127433 0.842289 0.523746
vn 0.139185 0.961958 0.235082
vn 0.141233 0.989821 -0.017521
vn 0.127728 0.954861 -0.268190
vn 0.103127 0.826571 -0.553304
vn 0.058448 0.559269 -0.826923
vn 0.007321 0.201553 -0.979450
vn -0.038711 -0.192793 -0.980475
vn -0.069886 -0.558233 -0.826736
vn 0.750149 0.637521 0.175620
vn 0.742540 0.641671 -0.192075
vn 0.702520 0.486634 0.519281
vn 0.583906 0.218725 0.781801
vn 0.397127 -0.109289 0.911233
vn 0.178377 -0.431839 0.884136
vn -0.022871 -0.694934 0.718710
vn -0.170886 -0.871247 0.460138
vn -0.241626 -0.947464 0.209591
vn -0.267206 -0.963627 -0.004971
vn -0.191111 -0.859144 -0.474708
vn -0.250925 -0.941941 -0.223122
vn -0.054097 -0.675968 -0.734942
vn 0.140141 -0.408360 -0.901999
vn 0.357761 -0.085469 -0.929893
vn 0.550290 0.238308 -0.800244
vn 0.680403 0.499015 -0.536689
vn 0.704032 0.688127 0.175556
vn 0.700656 0.691349 -0.176403
vn 0.663274 0.556707 0.500145
vn 0.584608 0.317199 0.746738
vn 0.479610 0.006615 0.877457
vn 0.365111 -0.326276 0.871916
vn 0.258876 -0.629661 0.732469
vn 0.177052 -0.858033 0.482111
vn 0.134807 -0.966858 0.216825
vn 0.139573 -0.990082 -0.016064
vn 0.131765 -0.960398 -0.245507
vn 0.170076 -0.844384 -0.508025
vn 0.247955 -0.609290 -0.753183
vn 0.351503 -0.303202 -0.885728
vn 0.464746 0.027458 -0.885018
vn 0.571169 0.332862 -0.750312
vn 0.653915 0.566390 -0.501594
vn 0.995895 -0.084763 0.031766
vn 0.994285 -0.082526 -0.067731
vn 0.984635 -0.124829 0.122116
vn 0.962764 -0.195210 0.187025
vn 0.934407 -0.282263 0.217281
vn 0.904740 -0.370766 0.209709
vn 0.878044 -0.447484 0.169694
vn 0.857887 -0.503190 0.104066
vn 0.853911 -0.519353 0.033295
vn 0.868361 -0.495468 -0.021453
vn 0.851704 -0.518489 -0.075957
vn 0.853144 -0.500629 -0.146681
vn 0.871294 -0.442052 -0.213158
vn 0.896736 -0.363267 -0.252787
vn 0.926178 -0.274409 -0.258639
vn 0.955742 -0.187827 -0.226446
vn 0.980032 -0.119117 -0.159212
vn 0.941822 -0.335506 -0.020185
vn -0.077593 0.981873 -0.172929
vn -0.064983 0.857455 -0.510438
vn -0.220060 0.828084 -0.515606
vn -0.212387 0.960957 -0.177353
vn -0.075404 0.981118 0.178106
vn -0.224601 0.958274 0.176820
vn -0.060540 0.835861 0.545593
vn -0.226430 0.799609 0.556197
vn -0.041869 0.528553 0.847867
vn -0.232035 0.456889 0.858727
vn -0.024676 0.146004 0.988976
vn -0.228664 0.056256 0.971879
vn -0.006481 -0.252610 0.967546
vn -0.221341 -0.335072 0.915825
vn 0.009889 -0.600481 0.799578
vn -0.222114 -0.646820 0.729581
vn 0.023139 -0.860787 0.508440
vn -0.223426 -0.863062 0.452995
vn 0.028538 -0.972924 0.229355
vn -0.219466 -0.952721 0.210138
vn -0.222790 -0.974802 0.011245
vn 0.032523 -0.999433 -0.008763
vn 0.027796 -0.834401 -0.550456
vn 0.033172 -0.967916 -0.249073
vn -0.206788 -0.957064 -0.203144
vn -0.197154 -0.851510 -0.485861
vn 0.016984 -0.569324 -0.821938
vn -0.189395 -0.623214 -0.758771
vn 0.001454 -0.217420 -0.976077
vn -0.196620 -0.292813 -0.935736
vn -0.017633 0.191210 -0.981391
vn -0.207399 0.114183 -0.971570
vn -0.041747 0.584639 -0.810219
vn -0.213689 0.533429 -0.818407
vn -0.185180 0.967032 -0.174808
vn -0.177833 0.827044 -0.533266
vn -0.176360 0.963530 0.201263
vn -0.154724 0.806022 0.571305
vn -0.107024 0.505320 0.856269
vn -0.022039 0.131126 0.991121
vn 0.089096 -0.245534 0.965285
vn 0.202115 -0.570887 0.795762
vn 0.289855 -0.810827 0.508472
vn 0.327281 -0.917368 0.226547
vn 0.336266 -0.941490 -0.022829
vn 0.267882 -0.788062 -0.554253
vn 0.319473 -0.908767 -0.268476
vn 0.170835 -0.543241 -0.822013
vn 0.057292 -0.217217 -0.974441
vn -0.053113 0.165717 -0.984742
vn -0.135780 0.540441 -0.830354
vn -0.763392 0.617525 -0.189461
vn -0.642649 0.498227 -0.582042
vn -0.747973 0.612520 0.255647
vn -0.601309 0.485727 0.634426
vn -0.361853 0.289716 0.886074
vn -0.068511 0.062959 0.995662
vn 0.235232 -0.163574 0.958076
vn 0.505105 -0.360845 0.784002
vn 0.702381 -0.504391 0.502245
vn 0.792762 -0.568470 0.219933
vn 0.807812 -0.588568 -0.032059
vn 0.668464 -0.494127 -0.555873
vn 0.775365 -0.565514 -0.281074
vn 0.452907 -0.345206 -0.822015
vn 0.171904 -0.144934 -0.974394
vn -0.134137 0.081845 -0.987577
vn -0.420015 0.306494 -0.854195
vn -0.986899 0.015770 -0.160564
vn -0.849882 0.015415 -0.526748
vn -0.973023 0.016343 0.230129
vn -0.809941 0.016622 0.586275
vn -0.521444 0.013529 0.853178
vn -0.152180 0.004333 0.988343
vn 0.239081 -0.010651 0.970941
vn 0.591809 -0.027929 0.805594
vn 0.853108 -0.042653 0.519989
vn 0.973512 -0.049574 0.223196
vn 0.997992 -0.053083 -0.034548
vn 0.814486 -0.040775 -0.578749
vn 0.955699 -0.048474 -0.290327
vn 0.532156 -0.025542 -0.846261
vn 0.167239 -0.008776 -0.985877
vn -0.224753 0.004920 -0.974403
vn -0.582386 0.012804 -0.812812
vn -0.986887 -0.014866 -0.160726
vn -0.849584 -0.014969 -0.527241
vn -0.972974 -0.014892 0.230436
vn -0.809668 -0.014902 0.586699
vn -0.521215 -0.012099 0.853339
vn -0.152401 -0.003835 0.988311
vn 0.238525 0.009888 0.971086
vn 0.591345 0.026033 0.805998
vn 0.853046 0.040065 0.520296
vn 0.973689 0.046777 0.223028
vn 0.998109 0.050504 -0.035046
vn 0.813890 0.039150 -0.579699
vn 0.955557 0.046247 -0.291158
vn 0.531354 0.024757 -0.846788
vn 0.166803 0.008645 -0.985952
vn -0.224556 -0.004730 -0.974450
vn -0.581878 -0.012527 -0.813179
vn -0.751434 -0.633630 -0.184012
vn -0.650646 -0.499396 -0.572070
vn -0.738260 -0.627723 0.246851
vn -0.612495 -0.485371 0.623911
vn -0.380086 -0.281079 0.881209
vn -0.078150 -0.064862 0.994829
vn 0.242322 0.139517 0.960112
vn 0.530145 0.313095 0.787983
vn 0.742563 0.438655 0.506145
vn 0.839454 0.496378 0.221193
vn 0.858668 0.511526 -0.032100
vn 0.707141 0.430938 -0.560574
vn 0.822861 0.492830 -0.282877
vn 0.475697 0.300576 -0.826660
vn 0.176515 0.123572 -0.976510
vn -0.144906 -0.082203 -0.986025
vn -0.437350 -0.298066 -0.848459
vn -0.300351 -0.937039 -0.178179
vn -0.279013 -0.786430 -0.551071
vn -0.291171 -0.930988 0.220185
vn -0.251464 -0.768824 0.587942
vn -0.164541 -0.479235 0.862125
vn -0.030729 -0.121264 0.992145
vn 0.125297 0.239098 0.962877
vn 0.271170 0.549051 0.790576
vn 0.379536 0.772336 0.509362
vn 0.428573 0.874582 0.226785
vn 0.433937 0.900639 -0.023425
vn 0.350660 0.758749 -0.548942
vn 0.415209 0.868309 -0.271370
vn 0.227037 0.527006 -0.818975
vn 0.072473 0.210744 -0.974851
vn -0.083549 -0.151657 -0.984896
vn -0.208135 -0.505701 -0.837225
vn -1.000000 -0.000016 -0.000028
vn -1.000000 -0.000096 0.000027
vn -1.000000 0.000192 -0.000112
vn -1.000000 -0.000250 -0.000019
vn -1.000000 -0.000200 0.000145
vn -1.000000 -0.000110 0.000264
vn -1.000000 -0.000006 0.000202
vn -1.000000 -0.000211 0.000247
vn -1.000000 -0.000021 0.000014
vn -1.000000 0.000249 0.000167
vn -1.000000 -0.000066 0.000036
vn -1.000000 -0.000001 -0.000888
vn -1.000000 -0.000069 -0.000431
vn -1.000000 0.000445 -0.000033
vn -1.000000 -0.000004 0.000157
vn -1.000000 -0.000380 -0.000065
vn -1.000000 -0.000185 -0.000180
vn -1.000000 -0.000244 -0.000054
vn -0.826323 0.443507 -0.347119
vn -0.833062 0.540854 -0.116121
vn -0.841242 0.525321 0.127869
vn -0.846950 0.384909 0.366771
vn -0.817848 0.166922 0.550692
vn -0.770416 -0.099372 0.629749
vn -0.719427 -0.368308 0.588875
vn -0.675994 -0.577571 0.457651
vn -0.647327 -0.704844 0.290109
vn -0.635314 -0.758469 0.145264
vn -0.628544 -0.777347 0.025772
vn -0.636218 -0.763582 -0.110316
vn -0.651538 -0.702786 -0.285639
vn -0.681685 -0.551397 -0.480903
vn -0.723656 -0.320783 -0.611081
vn -0.771668 -0.046318 -0.634337
vn -0.812418 0.222943 -0.538770
s 1
g chain_piece13
usemtl StingrayPBS9SG
f 1/1/1 17/18/2 18/19/3 2/2/4
f 2/2/4 18/19/3 19/20/5 3/3/6
f 3/3/6 19/20/5 20/21/7 4/4/8
f 4/4/8 20/21/7 21/22/9 5/5/10
f 5/5/10 21/22/9 22/23/11 6/6/12
f 6/6/12 22/23/11 23/24/13 7/7/14
f 7/7/14 23/24/13 24/25/15 8/8/16
f 8/8/16 24/25/15 25/26/17 9/9/18
f 9/9/18 25/26/17 26/27/19 10/10/20
f 10/10/20 26/27/19 321/28/21 322/11/22
f 11/12/23 27/29/24 28/30/25 12/13/26
f 12/13/26 28/30/25 29/31/27 13/14/28
f 13/14/28 29/31/27 30/32/29 14/15/30
f 14/15/30 30/32/29 31/33/31 15/16/32
f 15/16/32 31/33/31 32/34/33 16/17/34
f 16/17/34 32/34/33 17/18/2 1/1/1
f 17/18/2 33/35/35 34/36/36 18/19/3
f 18/19/3 34/36/36 35/37/37 19/20/5
f 19/20/5 35/37/37 36/38/38 20/21/7
f 20/21/7 36/38/38 37/39/39 21/22/9
f 21/22/9 37/39/39 38/40/40 22/23/11
f 22/23/11 38/40/40 39/41/41 23/24/13
f 23/24/13 39/41/41 40/42/42 24/25/15
f 24/25/15 40/42/42 41/43/43 25/26/17
f 25/26/17 41/43/43 42/44/44 26/27/19
f 26/27/19 42/44/44 320/45/45 321/28/21
f 27/29/24 43/46/46 44/47/47 28/30/25
f 28/30/25 44/47/47 45/48/48 29/31/27
f 29/31/27 45/48/48 46/49/49 30/32/29
f 30/32/29 46/49/49 47/50/50 31/33/31
f 31/33/31 47/50/50 48/51/51 32/34/33
f 32/34/33 48/51/51 33/35/35 17/18/2
f 33/35/35 49/52/52 50/53/53 34/36/36
f 34/36/36 50/53/53 51/54/54 35/37/37
f 35/37/37 51/54/54 52/55/55 36/38/38
f 36/38/38 52/55/55 53/56/56 37/39/39
f 37/39/39 53/56/56 54/57/57 38/40/40
f 38/40/40 54/57/57 55/58/58 39/41/41
f 39/41/41 55/58/58 56/59/59 40/42/42
f 40/42/42 56/59/59 57/60/60 41/43/43
f 41/43/43 57/60/60 58/61/61 42/44/44
f 42/44/44 58/61/61 319/62/62 320/45/45
f 43/46/46 59/63/63 60/64/64 44/47/47
f 44/47/47 60/64/64 61/65/65 45/48/48
f 45/48/48 61/65/65 62/66/66 46/49/49
f 46/49/49 62/66/66 63/67/67 47/50/50
f 47/50/50 63/67/67 64/68/68 48/51/51
f 48/51/51 64/68/68 49/52/52 33/35/35
f 49/52/52 65/69/69 66/70/70 50/53/53
f 50/53/53 66/70/70 67/71/71 51/54/54
f 51/54/54 67/71/71 68/72/72 52/55/55
f 52/55/55 68/72/72 69/73/73 53/56/56
f 53/56/56 69/73/73 70/74/74 54/57/57
f 54/57/57 70/74/74 71/75/75 55/58/58
f 55/58/58 71/75/75 72/76/76 56/59/59
f 56/59/59 72/76/76 73/77/77 57/60/60
f 57/60/60 73/77/77 74/78/78 58/61/61
f 58/61/61 74/78/78 318/79/79 319/62/62
f 59/63/63 75/80/80 76/81/81 60/64/64
f 60/64/64 76/81/81 77/82/82 61/65/65
f 61/65/65 77/82/82 78/83/83 62/66/66
f 62/66/66 78/83/83 79/84/84 63/67/67
f 63/67/67 79/84/84 80/85/85 64/68/68
f 64/68/68 80/85/85 65/69/69 49/52/52
f 66/70/70 65/69/69 81/86/86 82/87/87
f 67/71/71 66/70/70 82/87/87 83/88/88
f 68/72/72 67/71/71 83/88/88 84/89/89
f 69/73/73 68/72/72 84/89/89 85/90/90
f 70/74/74 69/73/73 85/90/90 86/91/91
f 71/75/75 70/74/74 86/91/91 87/92/92
f 72/76/76 71/75/75 87/92/92 88/93/93
f 73/77/77 72/76/76 88/93/93 89/94/94
f 74/78/78 73/77/77 89/94/94 90/95/95
f 317/96/96 318/79/79 74/78/78 90/95/95
f 76/81/81 75/80/80 91/97/97 92/98/98
f 77/82/82 76/81/81 92/98/98 93/99/99
f 78/83/83 77/82/82 93/99/99 94/100/100
f 79/84/84 78/83/83 94/100/100 95/101/101
f 80/85/85 79/84/84 95/101/101 96/102/102
f 65/69/69 80/85/85 96/102/102 81/86/86
f 82/87/87 81/86/86 258/275/103 259/274/104
f 83/88/88 82/87/87 259/274/104 260/276/105
f 84/89/89 83/88/88 260/276/105 261/277/106
f 85/90/90 84/89/89 261/277/106 262/278/107
f 86/91/91 85/90/90 262/278/107 263/279/108
f 87/92/92 86/91/91 263/279/108 264/280/109
f 88/93/93 87/92/92 264/280/109 265/281/110
f 89/94/94 88/93/93 265/281/110 266/282/111
f 90/95/95 89/94/94 266/282/111 267/283/112
f 316/284/113 317/96/96 90/95/95 267/283/112
f 92/98/98 91/97/97 268/286/114 269/285/115
f 93/99/99 92/98/98 269/285/115 270/287/116
f 94/100/100 93/99/99 270/287/116 271/288/117
f 95/101/101 94/100/100 271/288/117 272/289/118
f 96/102/102 95/101/101 272/289/118 273/290/119
f 81/86/86 96/102/102 273/290/119 258/275/103
f 3/3/6 99/103/120 98/104/121 2/2/4
f 4/4/8 100/105/122 99/103/120 3/3/6
f 5/5/10 101/106/123 100/105/122 4/4/8
f 6/6/12 102/107/124 101/106/123 5/5/10
f 7/7/14 103/108/125 102/107/124 6/6/12
f 8/8/16 104/109/126 103/108/125 7/7/14
f 9/9/18 105/110/127 104/109/126 8/8/16
f 10/10/20 106/111/128 105/110/127 9/9/18
f 322/11/22 323/112/129 106/111/128 10/10/20
f 12/13/26 108/114/130 107/113/131 11/12/23
f 13/14/28 109/115/132 108/114/130 12/13/26
f 14/15/30 110/116/133 109/115/132 13/14/28
f 15/16/32 111/117/134 110/116/133 14/15/30
f 16/17/34 112/118/135 111/117/134 15/16/32
f 1/1/1 113/119/136 112/118/135 16/17/34
f 2/2/4 98/104/121 113/119/136 1/1/1
f 99/103/120 115/120/137 114/121/138 98/104/121
f 100/105/122 116/122/139 115/120/137 99/103/120
f 101/106/123 117/123/140 116/122/139 100/105/122
f 102/107/124 118/124/141 117/123/140 101/106/123
f 103/108/125 119/125/142 118/124/141 102/107/124
f 104/109/126 120/126/143 119/125/142 103/108/125
f 105/110/127 121/127/144 120/126/143 104/109/126
f 106/111/128 122/128/145 121/127/144 105/110/127
f 122/128/145 106/111/128 323/112/129 324/129/146
f 123/130/147 107/113/131 108/114/130 124/131/148
f 124/131/148 108/114/130 109/115/132 125/132/149
f 125/132/149 109/115/132 110/116/133 126/133/150
f 126/133/150 110/116/133 111/117/134 127/134/151
f 127/134/151 111/117/134 112/118/135 128/135/152
f 128/135/152 112/118/135 113/119/136 129/136/153
f 98/104/121 114/121/138 129/136/153 113/119/136
f 115/120/137 131/137/154 130/138/155 114/121/138
f 116/122/139 132/139/156 131/137/154 115/120/137
f 117/123/140 133/140/157 132/139/156 116/122/139
f 118/124/141 134/141/158 133/140/157 117/123/140
f 119/125/142 135/142/159 134/141/158 118/124/141
f 120/126/143 136/143/160 135/142/159 119/125/142
f 121/127/144 137/144/161 136/143/160 120/126/143
f 122/128/145 138/145/162 137/144/161 121/127/144
f 138/145/162 122/128/145 324/129/146 325/146/163
f 139/147/164 123/130/147 124/131/148 140/148/165
f 140/148/165 124/131/148 125/132/149 141/149/166
f 141/149/166 125/132/149 126/133/150 142/150/167
f 142/150/167 126/133/150 127/134/151 143/151/168
f 143/151/168 127/134/151 128/135/152 144/152/169
f 144/152/169 128/135/152 129/136/153 145/153/170
f 114/121/138 130/138/155 145/153/170 129/136/153
f 131/137/154 97/154/171 130/138/155
f 132/139/156 97/154/171 131/137/154
f 133/140/157 97/154/171 132/139/156
f 134/141/158 97/154/171 133/140/157
f 135/142/159 97/154/171 134/141/158
f 136/143/160 97/154/171 135/142/159
f 137/144/161 97/154/171 136/143/160
f 138/145/162 97/154/171 137/144/161
f 97/154/171 138/145/162 325/146/163 139/147/164
f 97/154/171 139/147/164 140/148/165
f 97/154/171 140/148/165 141/149/166
f 97/154/171 141/149/166 142/150/167
f 97/154/171 142/150/167 143/151/168
f 97/154/171 143/151/168 144/152/169
f 97/154/171 144/152/169 145/153/170
f 130/138/155 97/154/171 145/153/170
f 147/155/172 146/156/173 291/309/174 292/310/175
f 148/157/176 147/155/172 292/310/175 293/311/177
f 149/158/178 148/157/176 293/311/177 294/312/179
f 150/159/180 149/158/178 294/312/179 295/313/181
f 151/160/182 150/159/180 295/313/181 296/314/183
f 152/161/184 151/160/182 296/314/183 297/315/185
f 153/162/186 152/161/184 297/315/185 298/316/187
f 154/163/188 153/162/186 298/316/187 299/317/189
f 155/164/190 154/163/188 299/317/189 300/318/191
f 308/319/192 309/165/193 155/164/190 300/318/191
f 157/166/194 156/167/195 301/320/196 302/321/197
f 158/168/198 157/166/194 302/321/197 303/322/199
f 159/169/200 158/168/198 303/322/199 304/323/201
f 160/170/202 159/169/200 304/323/201 305/324/203
f 161/171/204 160/170/202 305/324/203 306/325/205
f 291/309/174 146/156/173 161/171/204 306/325/205
f 147/155/172 163/172/206 162/173/207 146/156/173
f 148/157/176 164/174/208 163/172/206 147/155/172
f 149/158/178 165/175/209 164/174/208 148/157/176
f 150/159/180 166/176/210 165/175/209 149/158/178
f 151/160/182 167/177/211 166/176/210 150/159/180
f 152/161/184 168/178/212 167/177/211 151/160/182
f 153/162/186 169/179/213 168/178/212 152/161/184
f 154/163/188 170/180/214 169/179/213 153/162/186
f 155/164/190 171/181/215 170/180/214 154/163/188
f 309/165/193 310/182/216 171/181/215 155/164/190
f 157/166/194 173/183/217 172/184/218 156/167/195
f 158/168/198 174/185/219 173/183/217 157/166/194
f 159/169/200 175/186/220 174/185/219 158/168/198
f 160/170/202 176/187/221 175/186/220 159/169/200
f 161/171/204 177/188/222 176/187/221 160/170/202
f 146/156/173 162/173/207 177/188/222 161/171/204
f 163/172/206 179/189/223 178/190/224 162/173/207
f 164/174/208 180/191/225 179/189/223 163/172/206
f 165/175/209 181/192/226 180/191/225 164/174/208
f 166/176/210 182/193/227 181/192/226 165/175/209
f 167/177/211 183/194/228 182/193/227 166/176/210
f 168/178/212 184/195/229 183/194/228 167/177/211
f 169/179/213 185/196/230 184/195/229 168/178/212
f 170/180/214 186/197/231 185/196/230 169/179/213
f 171/181/215 187/198/232 186/197/231 170/180/214
f 310/182/216 311/199/233 187/198/232 171/181/215
f 173/183/217 189/200/234 188/201/235 172/184/218
f 174/185/219 190/202/236 189/200/234 173/183/217
f 175/186/220 191/203/237 190/202/236 174/185/219
f 176/187/221 192/204/238 191/203/237 175/186/220
f 177/188/222 193/205/239 192/204/238 176/187/221
f 162/173/207 178/190/224 193/205/239 177/188/222
f 178/190/224 179/189/223 195/206/240 194/207/241
f 179/189/223 180/191/225 196/208/242 195/206/240
f 180/191/225 181/192/226 197/209/243 196/208/242
f 181/192/226 182/193/227 198/210/244 197/209/243
f 182/193/227 183/194/228 199/211/245 198/210/244
f 183/194/228 184/195/229 200/212/246 199/211/245
f 184/195/229 185/196/230 201/213/247 200/212/246
f 185/196/230 186/197/231 202/214/248 201/213/247
f 186/197/231 187/198/232 203/215/249 202/214/248
f 187/198/232 311/199/233 312/216/250 203/215/249
f 188/201/235 189/200/234 205/217/251 204/218/252
f 189/200/234 190/202/236 206/219/253 205/217/251
f 190/202/236 191/203/237 207/220/254 206/219/253
f 191/203/237 192/204/238 208/221/255 207/220/254
f 192/204/238 193/205/239 209/222/256 208/221/255
f 193/205/239 178/190/224 194/207/241 209/222/256
f 194/207/241 195/206/240 211/223/257 210/224/258
f 195/206/240 196/208/242 212/225/259 211/223/257
f 196/208/242 197/209/243 213/226/260 212/225/259
f 197/209/243 198/210/244 214/227/261 213/226/260
f 198/210/244 199/211/245 215/228/262 214/227/261
f 199/211/245 200/212/246 216/229/263 215/228/262
f 200/212/246 201/213/247 217/230/264 216/229/263
f 201/213/247 202/214/248 218/231/265 217/230/264
f 202/214/248 203/215/249 219/232/266 218/231/265
f 203/215/249 312/216/250 313/233/267 219/232/266
f 204/218/252 205/217/251 221/234/268 220/235/269
f 205/217/251 206/219/253 222/236/270 221/234/268
f 206/219/253 207/220/254 223/237/271 222/236/270
f 207/220/254 208/221/255 224/238/272 223/237/271
f 208/221/255 209/222/256 225/239/273 224/238/272
f 209/222/256 194/207/241 210/224/258 225/239/273
f 210/224/258 211/223/257 227/240/274 226/241/275
f 211/223/257 212/225/259 228/242/276 227/240/274
f 212/225/259 213/226/260 229/243/277 228/242/276
f 213/226/260 214/227/261 230/244/278 229/243/277
f 214/227/261 215/228/262 231/245/279 230/244/278
f 215/228/262 216/229/263 232/246/280 231/245/279
f 216/229/263 217/230/264 233/247/281 232/246/280
f 217/230/264 218/231/265 234/248/282 233/247/281
f 218/231/265 219/232/266 235/249/283 234/248/282
f 219/232/266 313/233/267 314/250/284 235/249/283
f 220/235/269 221/234/268 237/251/285 236/252/286
f 221/234/268 222/236/270 238/253/287 237/251/285
f 222/236/270 223/237/271 239/254/288 238/253/287
f 223/237/271 224/238/272 240/255/289 239/254/288
f 224/238/272 225/239/273 241/256/290 240/255/289
f 225/239/273 210/224/258 226/241/275 241/256/290
f 226/241/275 227/240/274 243/257/291 242/258/292
f 227/240/274 228/242/276 244/259/293 243/257/291
f 228/242/276 229/243/277 245/260/294 244/259/293
f 229/243/277 230/244/278 246/261/295 245/260/294
f 230/244/278 231/245/279 247/262/296 246/261/295
f 231/245/279 232/246/280 248/263/297 247/262/296
f 232/246/280 233/247/281 249/264/298 248/263/297
f 233/247/281 234/248/282 250/265/299 249/264/298
f 234/248/282 235/249/283 251/266/300 250/265/299
f 235/249/283 314/250/284 315/267/301 251/266/300
f 236/252/286 237/251/285 253/268/302 252/269/303
f 237/251/285 238/253/287 254/270/304 253/268/302
f 238/253/287 239/254/288 255/271/305 254/270/304
f 239/254/288 240/255/289 256/272/306 255/271/305
f 240/255/289 241/256/290 257/273/307 256/272/306
f 241/256/290 226/241/275 242/258/292 257/273/307
f 243/257/291 259/274/104 258/275/103 242/258/292
f 244/259/293 260/276/105 259/274/104 243/257/291
f 245/260/294 261/277/106 260/276/105 244/259/293
f 246/261/295 262/278/107 261/277/106 245/260/294
f 247/262/296 263/279/108 262/278/107 246/261/295
f 248/263/297 264/280/109 263/279/108 247/262/296
f 249/264/298 265/281/110 264/280/109 248/263/297
f 250/265/299 266/282/111 265/281/110 249/264/298
f 251/266/300 267/283/112 266/282/111 250/265/299
f 315/267/301 316/284/113 267/283/112 251/266/300
f 253/268/302 269/285/115 268/286/114 252/269/303
f 254/270/304 270/287/116 269/285/115 253/268/302
f 255/271/305 271/288/117 270/287/116 254/270/304
f 256/272/306 272/289/118 271/288/117 255/271/305
f 257/273/307 273/290/119 272/289/118 256/272/306
f 242/258/292 258/275/103 273/290/119 257/273/307
s 4
f 282/291/308 290/292/309 283/293/310
f 275/294/311 274/295/312 290/292/309
f 290/292/309 274/295/312 289/296/313
f 290/292/309 289/296/313 288/297/314
f 290/292/309 288/297/314 287/298/315
f 290/292/309 287/298/315 286/299/316
f 290/292/309 286/299/316 285/300/317
f 290/292/309 285/300/317 284/301/318
f 290/292/309 284/301/318 307/302/319 283/293/310
f 281/303/320 290/292/309 282/291/308
f 280/304/321 290/292/309 281/303/320
f 279/305/322 290/292/309 280/304/321
f 278/306/323 290/292/309 279/305/322
f 277/307/324 290/292/309 278/306/323
f 276/308/325 290/292/309 277/307/324
f 275/294/311 290/292/309 276/308/325
s 1
f 292/310/175 291/309/174 274/295/326 275/294/327
f 293/311/177 292/310/175 275/294/327 276/308/328
f 294/312/179 293/311/177 276/308/328 277/307/329
f 295/313/181 294/312/179 277/307/329 278/306/330
f 296/314/183 295/313/181 278/306/330 279/305/331
f 297/315/185 296/314/183 279/305/331 280/304/332
f 298/316/187 297/315/185 280/304/332 281/303/333
f 299/317/189 298/316/187 281/303/333 282/291/334
f 300/318/191 299/317/189 282/291/334 283/293/335
f 307/302/336 308/319/192 300/318/191 283/293/335
f 302/321/197 301/320/196 284/301/337 285/300/338
f 303/322/199 302/321/197 285/300/338 286/299/339
f 304/323/201 303/322/199 286/299/339 287/298/340
f 305/324/203 304/323/201 287/298/340 288/297/341
f 306/325/205 305/324/203 288/297/341 289/296/342
f 274/295/326 291/309/174 306/325/205 289/296/342
f 284/301/337 301/320/196 308/319/192 307/302/336
f 301/320/196 156/167/195 309/165/193 308/319/192
f 156/167/195 172/184/218 310/182/216 309/165/193
f 172/184/218 188/201/235 311/199/233 310/182/216
f 312/216/250 311/199/233 188/201/235 204/218/252
f 313/233/267 312/216/250 204/218/252 220/235/269
f 314/250/284 313/233/267 220/235/269 236/252/286
f 315/267/301 314/250/284 236/252/286 252/269/303
f 252/269/303 268/286/114 316/284/113 315/267/301
f 268/286/114 91/97/97 317/96/96 316/284/113
f 91/97/97 75/80/80 318/79/79 317/96/96
f 319/62/62 318/79/79 75/80/80 59/63/63
f 320/45/45 319/62/62 59/63/63 43/46/46
f 321/28/21 320/45/45 43/46/46 27/29/24
f 322/11/22 321/28/21 27/29/24 11/12/23
f 11/12/23 107/113/131 323/112/129 322/11/22
f 324/129/146 323/112/129 107/113/131 123/130/147
f 325/146/163 324/129/146 123/130/147 139/147/164
