# This file uses meters as units for non-parametric coordinates.

mtllib anvil.mtl
g default
v -3224.501681 158.096561 102.008304
v -3229.791600 152.569098 102.292529
v -3237.708526 148.875763 102.482443
v -3247.047178 147.578834 102.549132
v -3256.385833 148.875755 102.482443
v -3264.302764 152.569085 102.292530
v -3269.592690 158.096545 102.008305
v -3271.450267 164.616631 101.673038
v -3269.592696 171.136718 101.337771
v -3264.302775 176.664181 101.053545
v -3256.385848 180.357515 100.863632
v -3247.047194 181.654441 100.796943
v -3237.708541 180.357516 100.863632
v -3229.791611 176.664185 101.053545
v -3224.501689 171.136723 101.337771
v -3222.644114 164.616637 101.673037
v -3247.047190 182.919947 18.770229
v -3227.319871 158.266002 86.468656
v -3225.694498 163.971069 86.175298
v -3227.319876 169.676144 85.881939
v -3231.948558 174.512674 85.633242
v -3238.875872 177.744339 85.467068
v -3247.047194 178.879149 85.408715
v -3255.218515 177.744338 85.467068
v -3262.145827 174.512670 85.633242
v -3266.774508 169.676140 85.881939
v -3268.399882 163.971064 86.175298
v -3266.774503 158.265989 86.468656
v -3262.145818 153.429461 86.717354
v -3255.218502 150.197798 86.883528
v -3247.047180 149.062992 86.941880
v -3238.875859 150.197806 86.883527
v -3231.948549 153.429472 86.717353
v -3230.138056 158.533344 70.923988
v -3228.744881 164.079248 70.638814
v -3230.138062 169.625160 70.353639
v -3234.105504 174.326759 70.111880
v -3240.043202 177.468266 69.950342
v -3247.047193 178.571416 69.893617
v -3254.051184 177.468265 69.950342
v -3259.988881 174.326756 70.111880
v -3263.956323 169.625156 70.353640
v -3265.349500 164.079243 70.638814
v -3263.956317 158.533330 70.923988
v -3259.988873 153.831732 71.165747
v -3254.051173 150.690228 71.327285
v -3247.047181 149.587081 71.384010
v -3240.043191 150.690234 71.327285
v -3234.105496 153.831744 71.165747
v -3232.956250 159.206046 59.715379
v -3231.795272 164.526992 59.441773
v -3232.956255 169.847946 59.168166
v -3236.262456 174.358833 58.936214
v -3241.210536 177.372908 58.781228
v -3247.047193 178.431314 58.726804
v -3252.883850 177.372907 58.781228
v -3257.831928 174.358828 58.936214
v -3261.138129 169.847942 59.168167
v -3262.299109 164.526989 59.441773
v -3261.138124 159.206035 59.715380
v -3257.831922 154.695147 59.947333
v -3252.883840 151.681072 60.102318
v -3247.047183 150.622673 60.156742
v -3241.210526 151.681079 60.102318
v -3236.262449 154.695160 59.947332
v -3237.356668 162.591231 47.825654
v -3236.558249 166.964335 47.600787
v -3237.356671 171.337445 47.375919
v -3239.630389 175.044788 47.185285
v -3243.033248 177.521950 47.057908
v -3247.047192 178.391816 47.013178
v -3251.061136 177.521950 47.057908
v -3254.463994 175.044785 47.185285
v -3256.737711 171.337441 47.375919
v -3257.536132 166.964332 47.600787
v -3256.737708 162.591221 47.825655
v -3254.463990 158.883877 48.016289
v -3251.061130 156.406711 48.143666
v -3247.047185 155.536850 48.188395
v -3243.033241 156.406718 48.143666
v -3239.630384 158.883888 48.016288
v -3240.331572 167.173290 36.391951
v -3239.778260 170.499398 36.220920
v -3240.331574 173.825515 36.049889
v -3241.907280 176.645260 35.904896
v -3244.265492 178.529345 35.808016
v -3247.047192 179.190953 35.773995
v -3249.828891 178.529345 35.808016
v -3252.187102 176.645260 35.904896
v -3253.762808 173.825513 36.049889
v -3254.316121 170.499395 36.220921
v -3253.762806 167.173282 36.391951
v -3252.187100 164.353540 36.536944
v -3249.828887 162.469452 36.633825
v -3247.047187 161.807849 36.667845
v -3244.265487 162.469456 36.633825
v -3241.907277 164.353549 36.536944
v -3242.570109 172.095069 29.777732
v -3242.201235 174.312478 29.663712
v -3242.570111 176.529888 29.549691
v -3243.620582 178.409717 29.453029
v -3245.192724 179.665779 29.388442
v -3247.047191 180.106855 29.365761
v -3248.901658 179.665779 29.388442
v -3250.473800 178.409717 29.453029
v -3251.524271 176.529887 29.549691
v -3251.893146 174.312476 29.663712
v -3251.524270 172.095066 29.777733
v -3250.473798 170.215236 29.874395
v -3248.901655 168.959177 29.938982
v -3247.047188 168.518109 29.961662
v -3245.192721 168.959178 29.938982
v -3243.620580 170.215239 29.874394
v -3244.808650 177.414506 23.839047
v -3244.624213 178.523208 23.782037
v -3244.808651 179.631912 23.725027
v -3245.333886 180.571831 23.676696
v -3246.119957 181.199859 23.644402
v -3247.047191 181.420391 23.633062
v -3247.974424 181.199859 23.644402
v -3248.760495 180.571829 23.676696
v -3249.285731 179.631911 23.725027
v -3249.470168 178.523207 23.782037
v -3249.285730 177.414504 23.839047
v -3248.760494 176.474589 23.887378
v -3247.974423 175.846554 23.919672
v -3247.047189 175.626020 23.931012
v -3246.119956 175.846555 23.919672
v -3245.333885 176.474589 23.887378
vt 0.359590 0.102903
vt 0.335156 0.066335
vt 0.298587 0.041901
vt 0.255452 0.033321
vt 0.212317 0.041901
vt 0.175748 0.066335
vt 0.151314 0.102903
vt 0.142734 0.146039
vt 0.151314 0.189174
vt 0.175748 0.225742
vt 0.212317 0.250177
vt 0.255452 0.258757
vt 0.298587 0.250177
vt 0.335156 0.225742
vt 0.359590 0.189174
vt 0.368170 0.146039
vt 0.142734 0.258757
vt 0.156824 0.258757
vt 0.170913 0.258757
vt 0.185003 0.258757
vt 0.199093 0.258757
vt 0.213183 0.258757
vt 0.227272 0.258757
vt 0.241362 0.258757
vt 0.255452 0.258757
vt 0.269542 0.258757
vt 0.283632 0.258757
vt 0.297721 0.258757
vt 0.311811 0.258757
vt 0.325901 0.258757
vt 0.339991 0.258757
vt 0.354080 0.258757
vt 0.368170 0.258757
vt 0.255452 0.484193
vt 0.354080 0.286936
vt 0.156824 0.286936
vt 0.341752 0.286936
vt 0.329423 0.286936
vt 0.317095 0.286936
vt 0.304766 0.286936
vt 0.292438 0.286936
vt 0.280109 0.286936
vt 0.267781 0.286936
vt 0.255452 0.286936
vt 0.243123 0.286936
vt 0.230795 0.286936
vt 0.218466 0.286936
vt 0.206138 0.286936
vt 0.193809 0.286936
vt 0.181481 0.286936
vt 0.169152 0.286936
vt 0.339991 0.315116
vt 0.170913 0.315116
vt 0.329423 0.315116
vt 0.318856 0.315116
vt 0.308289 0.315116
vt 0.297721 0.315116
vt 0.287154 0.315116
vt 0.276587 0.315116
vt 0.266019 0.315116
vt 0.255452 0.315116
vt 0.244885 0.315116
vt 0.234317 0.315116
vt 0.223750 0.315116
vt 0.213183 0.315116
vt 0.202615 0.315116
vt 0.192048 0.315116
vt 0.181481 0.315116
vt 0.325901 0.343295
vt 0.185003 0.343295
vt 0.317095 0.343295
vt 0.308289 0.343295
vt 0.299482 0.343295
vt 0.290676 0.343295
vt 0.281870 0.343295
vt 0.273064 0.343295
vt 0.264258 0.343295
vt 0.255452 0.343295
vt 0.246646 0.343295
vt 0.237840 0.343295
vt 0.229034 0.343295
vt 0.220228 0.343295
vt 0.211422 0.343295
vt 0.202615 0.343295
vt 0.193809 0.343295
vt 0.311811 0.371475
vt 0.199093 0.371475
vt 0.304766 0.371475
vt 0.297721 0.371475
vt 0.290676 0.371475
vt 0.283632 0.371475
vt 0.276587 0.371475
vt 0.269542 0.371475
vt 0.262497 0.371475
vt 0.255452 0.371475
vt 0.248407 0.371475
vt 0.241362 0.371475
vt 0.234317 0.371475
vt 0.227273 0.371475
vt 0.220228 0.371475
vt 0.213183 0.371475
vt 0.206138 0.371475
vt 0.297721 0.399654
vt 0.213183 0.399654
vt 0.292438 0.399654
vt 0.287154 0.399654
vt 0.281870 0.399654
vt 0.276587 0.399654
vt 0.271303 0.399654
vt 0.266019 0.399654
vt 0.260736 0.399654
vt 0.255452 0.399654
vt 0.250168 0.399654
vt 0.244885 0.399654
vt 0.239601 0.399654
vt 0.234317 0.399654
vt 0.229034 0.399654
vt 0.223750 0.399654
vt 0.218466 0.399654
vt 0.283632 0.427834
vt 0.227272 0.427834
vt 0.280109 0.427834
vt 0.276587 0.427834
vt 0.273064 0.427834
vt 0.269542 0.427834
vt 0.266019 0.427834
vt 0.262497 0.427834
vt 0.258974 0.427834
vt 0.255452 0.427834
vt 0.251930 0.427834
vt 0.248407 0.427834
vt 0.244885 0.427834
vt 0.241362 0.427834
vt 0.237840 0.427834
vt 0.234317 0.427834
vt 0.230795 0.427834
vt 0.269542 0.456013
vt 0.241362 0.456013
vt 0.267781 0.456013
vt 0.266019 0.456013
vt 0.264258 0.456013
vt 0.262497 0.456013
vt 0.260736 0.456013
vt 0.258974 0.456013
vt 0.257213 0.456013
vt 0.255452 0.456013
vt 0.253691 0.456013
vt 0.251930 0.456013
vt 0.250168 0.456013
vt 0.248407 0.456013
vt 0.246646 0.456013
vt 0.244885 0.456013
vt 0.243123 0.456013
vn 0.000000 0.051353 0.998681
vn 0.000000 0.051353 0.998681
vn 0.000000 0.051353 0.998681
vn 0.000000 0.051353 0.998681
vn 0.000000 0.051353 0.998681
vn 0.000000 0.051353 0.998681
vn 0.000000 0.051353 0.998681
vn 0.000000 0.051353 0.998681
vn 0.000000 0.051353 0.998681
vn 0.000000 0.051353 0.998681
vn 0.000000 0.051353 0.998681
vn 0.000000 0.051353 0.998681
vn 0.000000 0.051353 0.998681
vn 0.000000 0.051353 0.998681
vn 0.000000 0.051353 0.998681
vn 0.000000 0.051353 0.998681
vn 0.842306 -0.515207 -0.158374
vn 0.562137 -0.817843 -0.123026
vn 0.580110 -0.806373 -0.115042
vn 0.850513 -0.501305 -0.159126
vn 0.273458 -0.956510 -0.101530
vn 0.286690 -0.954492 -0.082185
vn 0.000000 -0.995509 -0.094667
vn 0.000001 -0.997524 -0.070329
vn -0.273458 -0.956511 -0.101530
vn -0.286689 -0.954492 -0.082185
vn -0.562136 -0.817843 -0.123026
vn -0.580109 -0.806374 -0.115042
vn -0.842306 -0.515207 -0.158374
vn -0.850513 -0.501306 -0.159126
vn -0.981159 -0.017842 -0.192376
vn -0.981378 -0.025434 -0.190394
vn -0.850204 0.486569 -0.201005
vn -0.867532 0.461998 -0.184243
vn -0.569585 0.799383 -0.191206
vn -0.598572 0.786492 -0.152128
vn -0.277288 0.943552 -0.181167
vn -0.297087 0.947139 -0.121103
vn -0.000000 0.984123 -0.177488
vn -0.000000 0.994063 -0.108806
vn 0.277287 0.943552 -0.181167
vn 0.297087 0.947140 -0.121103
vn 0.569585 0.799383 -0.191205
vn 0.598571 0.786492 -0.152128
vn 0.850204 0.486569 -0.201006
vn 0.867532 0.461998 -0.184243
vn 0.981159 -0.017841 -0.192376
vn 0.981378 -0.025433 -0.190394
vn 0.862040 -0.470145 -0.189344
vn 0.976835 -0.006639 -0.213892
vn 0.869202 0.462123 -0.175872
vn 0.609678 0.785715 -0.104617
vn 0.306520 0.950799 -0.045024
vn -0.000000 0.999749 -0.022401
vn -0.306520 0.950799 -0.045024
vn -0.609678 0.785715 -0.104617
vn -0.869202 0.462123 -0.175872
vn -0.976835 -0.006640 -0.213892
vn -0.862040 -0.470145 -0.189344
vn -0.602659 -0.787412 -0.129555
vn -0.302115 -0.950054 -0.078255
vn 0.000001 -0.998253 -0.059079
vn 0.302116 -0.950054 -0.078255
vn 0.602659 -0.787412 -0.129556
vn 0.846569 -0.425345 -0.320004
vn 0.948544 -0.030502 -0.315172
vn 0.889087 0.383877 -0.249326
vn 0.673520 0.724818 -0.144947
vn 0.358968 0.931878 -0.052402
vn -0.000000 0.999883 -0.015270
vn -0.358968 0.931878 -0.052402
vn -0.673520 0.724818 -0.144948
vn -0.889087 0.383877 -0.249327
vn -0.948544 -0.030503 -0.315172
vn -0.846569 -0.425345 -0.320003
vn -0.621067 -0.731577 -0.281196
vn -0.323665 -0.916243 -0.236091
vn 0.000001 -0.976146 -0.217115
vn 0.323666 -0.916243 -0.236091
vn 0.621068 -0.731576 -0.281196
vn 0.845983 -0.356525 -0.396489
vn 0.941542 -0.014537 -0.336582
vn 0.905061 0.353453 -0.236506
vn 0.713788 0.691089 -0.113588
vn 0.388300 0.921441 -0.012998
vn -0.000000 0.999723 0.023544
vn -0.388300 0.921441 -0.012998
vn -0.713788 0.691089 -0.113588
vn -0.905061 0.353453 -0.236507
vn -0.941542 -0.014537 -0.336582
vn -0.845982 -0.356525 -0.396489
vn -0.642119 -0.641180 -0.420203
vn -0.348675 -0.837525 -0.420686
vn 0.000001 -0.909041 -0.416707
vn 0.348677 -0.837525 -0.420686
vn 0.642120 -0.641179 -0.420203
vn 0.867202 -0.297207 -0.399536
vn 0.955540 0.021814 -0.294054
vn 0.916010 0.363714 -0.169229
vn 0.727868 0.684416 -0.042216
vn 0.401509 0.914155 0.055781
vn 0.000000 0.995691 0.092737
vn -0.401509 0.914155 0.055781
vn -0.727868 0.684416 -0.042216
vn -0.916010 0.363713 -0.169229
vn -0.955540 0.021813 -0.294054
vn -0.867202 -0.297207 -0.399536
vn -0.669000 -0.568803 -0.478437
vn -0.371046 -0.765517 -0.525650
vn 0.000001 -0.841655 -0.540016
vn 0.371047 -0.765517 -0.525650
vn 0.669000 -0.568803 -0.478437
vn 0.812707 -0.279326 -0.511356
vn 0.934075 0.012639 -0.356852
vn 0.920654 0.347037 -0.178779
vn 0.742381 0.669966 -0.003957
vn 0.410833 0.902712 0.127780
vn 0.000000 0.984250 0.176781
vn -0.410833 0.902712 0.127780
vn -0.742381 0.669966 -0.003957
vn -0.920654 0.347036 -0.178779
vn -0.934075 0.012638 -0.356852
vn -0.812706 -0.279326 -0.511356
vn -0.595375 -0.501505 -0.627711
vn -0.315014 -0.641716 -0.699262
vn 0.000000 -0.690608 -0.723229
vn 0.315015 -0.641715 -0.699262
vn 0.595376 -0.501504 -0.627711
vn 0.796679 -0.251545 -0.549570
vn 0.927870 0.041594 -0.370576
vn 0.910164 0.384461 -0.154244
vn 0.710100 0.701985 0.054544
vn 0.373838 0.906294 0.197171
vn -0.000000 0.969686 0.244354
vn -0.373839 0.906294 0.197171
vn -0.710100 0.701985 0.054544
vn -0.910164 0.384461 -0.154245
vn -0.927870 0.041593 -0.370576
vn -0.796679 -0.251545 -0.549571
vn -0.573386 -0.463918 -0.675285
vn -0.299256 -0.591890 -0.748406
vn 0.000000 -0.635279 -0.772283
vn 0.299256 -0.591890 -0.748406
vn 0.573386 -0.463918 -0.675284
vn 0.000001 0.554721 -0.832037
s off
g pCone2
usemtl StingrayPBS8SG
f 1/1/1 16/16/2 15/15/3 14/14/4 13/13/5 12/12/6 11/11/7 10/10/8 9/9/9 8/8/10 7/7/11 6/6/12 5/5/13 4/4/14 3/3/15 2/2/16
s 1
f 1/17/17 2/18/18 33/51/19 18/36/20
f 2/18/18 3/19/21 32/50/22 33/51/19
f 3/19/21 4/20/23 31/49/24 32/50/22
f 4/20/23 5/21/25 30/48/26 31/49/24
f 5/21/25 6/22/27 29/47/28 30/48/26
f 6/22/27 7/23/29 28/46/30 29/47/28
f 7/23/29 8/24/31 27/45/32 28/46/30
f 8/24/31 9/25/33 26/44/34 27/45/32
f 9/25/33 10/26/35 25/43/36 26/44/34
f 10/26/35 11/27/37 24/42/38 25/43/36
f 11/27/37 12/28/39 23/41/40 24/42/38
f 12/28/39 13/29/41 22/40/42 23/41/40
f 13/29/41 14/30/43 21/39/44 22/40/42
f 14/30/43 15/31/45 20/38/46 21/39/44
f 15/31/45 16/32/47 19/37/48 20/38/46
f 16/32/47 1/33/17 18/35/20 19/37/48
f 19/37/48 18/35/20 34/52/49 35/54/50
f 20/38/46 19/37/48 35/54/50 36/55/51
f 21/39/44 20/38/46 36/55/51 37/56/52
f 22/40/42 21/39/44 37/56/52 38/57/53
f 23/41/40 22/40/42 38/57/53 39/58/54
f 24/42/38 23/41/40 39/58/54 40/59/55
f 25/43/36 24/42/38 40/59/55 41/60/56
f 26/44/34 25/43/36 41/60/56 42/61/57
f 27/45/32 26/44/34 42/61/57 43/62/58
f 28/46/30 27/45/32 43/62/58 44/63/59
f 29/47/28 28/46/30 44/63/59 45/64/60
f 30/48/26 29/47/28 45/64/60 46/65/61
f 31/49/24 30/48/26 46/65/61 47/66/62
f 32/50/22 31/49/24 47/66/62 48/67/63
f 33/51/19 32/50/22 48/67/63 49/68/64
f 18/36/20 33/51/19 49/68/64 34/53/49
f 35/54/50 34/52/49 50/69/65 51/71/66
f 36/55/51 35/54/50 51/71/66 52/72/67
f 37/56/52 36/55/51 52/72/67 53/73/68
f 38/57/53 37/56/52 53/73/68 54/74/69
f 39/58/54 38/57/53 54/74/69 55/75/70
f 40/59/55 39/58/54 55/75/70 56/76/71
f 41/60/56 40/59/55 56/76/71 57/77/72
f 42/61/57 41/60/56 57/77/72 58/78/73
f 43/62/58 42/61/57 58/78/73 59/79/74
f 44/63/59 43/62/58 59/79/74 60/80/75
f 45/64/60 44/63/59 60/80/75 61/81/76
f 46/65/61 45/64/60 61/81/76 62/82/77
f 47/66/62 46/65/61 62/82/77 63/83/78
f 48/67/63 47/66/62 63/83/78 64/84/79
f 49/68/64 48/67/63 64/84/79 65/85/80
f 34/53/49 49/68/64 65/85/80 50/70/65
f 51/71/66 50/69/65 66/86/81 67/88/82
f 52/72/67 51/71/66 67/88/82 68/89/83
f 53/73/68 52/72/67 68/89/83 69/90/84
f 54/74/69 53/73/68 69/90/84 70/91/85
f 55/75/70 54/74/69 70/91/85 71/92/86
f 56/76/71 55/75/70 71/92/86 72/93/87
f 57/77/72 56/76/71 72/93/87 73/94/88
f 58/78/73 57/77/72 73/94/88 74/95/89
f 59/79/74 58/78/73 74/95/89 75/96/90
f 60/80/75 59/79/74 75/96/90 76/97/91
f 61/81/76 60/80/75 76/97/91 77/98/92
f 62/82/77 61/81/76 77/98/92 78/99/93
f 63/83/78 62/82/77 78/99/93 79/100/94
f 64/84/79 63/83/78 79/100/94 80/101/95
f 65/85/80 64/84/79 80/101/95 81/102/96
f 50/70/65 65/85/80 81/102/96 66/87/81
f 67/88/82 66/86/81 82/103/97 83/105/98
f 68/89/83 67/88/82 83/105/98 84/106/99
f 69/90/84 68/89/83 84/106/99 85/107/100
f 70/91/85 69/90/84 85/107/100 86/108/101
f 71/92/86 70/91/85 86/108/101 87/109/102
f 72/93/87 71/92/86 87/109/102 88/110/103
f 73/94/88 72/93/87 88/110/103 89/111/104
f 74/95/89 73/94/88 89/111/104 90/112/105
f 75/96/90 74/95/89 90/112/105 91/113/106
f 76/97/91 75/96/90 91/113/106 92/114/107
f 77/98/92 76/97/91 92/114/107 93/115/108
f 78/99/93 77/98/92 93/115/108 94/116/109
f 79/100/94 78/99/93 94/116/109 95/117/110
f 80/101/95 79/100/94 95/117/110 96/118/111
f 81/102/96 80/101/95 96/118/111 97/119/112
f 66/87/81 81/102/96 97/119/112 82/104/97
f 83/105/98 82/103/97 98/120/113 99/122/114
f 84/106/99 83/105/98 99/122/114 100/123/115
f 85/107/100 84/106/99 100/123/115 101/124/116
f 86/108/101 85/107/100 101/124/116 102/125/117
f 87/109/102 86/108/101 102/125/117 103/126/118
f 88/110/103 87/109/102 103/126/118 104/127/119
f 89/111/104 88/110/103 104/127/119 105/128/120
f 90/112/105 89/111/104 105/128/120 106/129/121
f 91/113/106 90/112/105 106/129/121 107/130/122
f 92/114/107 91/113/106 107/130/122 108/131/123
f 93/115/108 92/114/107 108/131/123 109/132/124
f 94/116/109 93/115/108 109/132/124 110/133/125
f 95/117/110 94/116/109 110/133/125 111/134/126
f 96/118/111 95/117/110 111/134/126 112/135/127
f 97/119/112 96/118/111 112/135/127 113/136/128
f 82/104/97 97/119/112 113/136/128 98/121/113
f 99/122/114 98/120/113 114/137/129 115/139/130
f 100/123/115 99/122/114 115/139/130 116/140/131
f 101/124/116 100/123/115 116/140/131 117/141/132
f 102/125/117 101/124/116 117/141/132 118/142/133
f 103/126/118 102/125/117 118/142/133 119/143/134
f 104/127/119 103/126/118 119/143/134 120/144/135
f 105/128/120 104/127/119 120/144/135 121/145/136
f 106/129/121 105/128/120 121/145/136 122/146/137
f 107/130/122 106/129/121 122/146/137 123/147/138
f 108/131/123 107/130/122 123/147/138 124/148/139
f 109/132/124 108/131/123 124/148/139 125/149/140
f 110/133/125 109/132/124 125/149/140 126/150/141
f 111/134/126 110/133/125 126/150/141 127/151/142
f 112/135/127 111/134/126 127/151/142 128/152/143
f 113/136/128 112/135/127 128/152/143 129/153/144
f 98/121/113 113/136/128 129/153/144 114/138/129
f 115/139/130 114/137/129 17/34/145
f 116/140/131 115/139/130 17/34/145
f 117/141/132 116/140/131 17/34/145
f 118/142/133 117/141/132 17/34/145
f 119/143/134 118/142/133 17/34/145
f 120/144/135 119/143/134 17/34/145
f 121/145/136 120/144/135 17/34/145
f 122/146/137 121/145/136 17/34/145
f 123/147/138 122/146/137 17/34/145
f 124/148/139 123/147/138 17/34/145
f 125/149/140 124/148/139 17/34/145
f 126/150/141 125/149/140 17/34/145
f 127/151/142 126/150/141 17/34/145
f 128/152/143 127/151/142 17/34/145
f 129/153/144 128/152/143 17/34/145
f 114/138/129 129/153/144 17/34/145
g default
v -3273.858286 180.088037 123.392772
v -3272.227276 181.925521 123.392772
v -3221.934270 181.925521 123.392772
v -3220.301953 180.088037 123.392772
v -3272.227276 145.172245 123.392772
v -3273.858286 147.009723 123.392772
v -3220.301953 147.009723 123.392772
v -3221.934270 145.172245 123.392772
v -3271.908763 179.178986 97.638085
v -3273.858286 180.088037 99.412186
v -3271.908763 147.918786 97.638085
v -3273.858286 147.009723 99.412186
v -3271.418963 179.730251 97.638085
v -3272.227276 181.925521 99.412186
v -3222.741538 179.730251 97.638085
v -3221.934270 181.925521 99.412186
v -3222.252261 179.178761 97.638085
v -3220.301953 180.088037 99.412186
v -3222.252261 147.918999 97.638085
v -3220.301953 147.009723 99.412186
v -3271.418963 147.367520 97.638085
v -3272.227276 145.172245 99.412186
v -3222.741538 147.367520 97.638085
v -3221.934270 145.172245 99.412186
vt 0.175393 0.170934
vt 0.171509 0.181752
vt 0.037946 0.181752
vt 0.034062 0.170934
vt 0.183244 0.170934
vt 0.173865 0.181752
vt 0.035591 0.181752
vt 0.026211 0.170934
vt 0.034062 0.024719
vt 0.175393 0.024719
vt 0.183244 0.024719
vt 0.026211 0.024719
vt 0.461996 0.183545
vt 0.465881 0.194362
vt 0.324550 0.194362
vt 0.328435 0.183545
vt 0.464352 0.183545
vt 0.473732 0.194362
vt 0.324550 0.340578
vt 0.465881 0.340578
vt 0.316699 0.194362
vt 0.326079 0.183545
vt 0.473732 0.340578
vt 0.316699 0.340578
vt 0.186549 0.170934
vt 0.186549 0.024719
vt 0.334014 0.024719
vt 0.334014 0.170934
vt 0.188919 0.181752
vt 0.331647 0.181752
vt 0.166478 0.340578
vt 0.166478 0.194362
vt 0.313942 0.194362
vt 0.313942 0.340578
vt 0.168848 0.183545
vt 0.311575 0.183545
vt 0.026211 0.350222
vt 0.030994 0.342371
vt 0.178458 0.342371
vt 0.183244 0.350222
vt 0.183244 0.491553
vt 0.178458 0.499404
vt 0.030994 0.499404
vt 0.026211 0.491553
vt 0.188905 0.487969
vt 0.186549 0.486533
vt 0.186549 0.343806
vt 0.188906 0.342371
vt 0.322467 0.342371
vt 0.324823 0.343806
vt 0.324823 0.486533
vt 0.322468 0.487969
vn 0.000000 0.000000 1.000000
vn 0.000000 0.000000 1.000000
vn 0.000000 0.000000 1.000000
vn 0.000000 0.000000 1.000000
vn 0.000000 0.000000 1.000000
vn 0.000000 0.000000 1.000000
vn 0.000000 0.000000 1.000000
vn 0.000000 0.000000 1.000000
vn -0.487764 0.433052 -0.757992
vn -0.487764 0.433052 -0.757992
vn -0.487764 0.433052 -0.757992
vn -0.487764 0.433052 -0.757992
vn -0.673048 0.000000 -0.739599
vn -0.673048 0.000000 -0.739599
vn -0.673048 0.000000 -0.739599
vn -0.673048 0.000000 -0.739599
vn -0.487762 -0.433053 -0.757993
vn -0.487762 -0.433053 -0.757993
vn -0.487762 -0.433053 -0.757993
vn -0.487762 -0.433053 -0.757993
vn 0.000000 0.628551 -0.777768
vn 0.000000 0.628551 -0.777768
vn 0.000000 0.628551 -0.777768
vn 0.000000 0.628551 -0.777768
vn 0.487703 0.433118 -0.757994
vn 0.487703 0.433118 -0.757994
vn 0.487703 0.433118 -0.757994
vn 0.487703 0.433119 -0.757994
vn 0.672900 0.000000 -0.739734
vn 0.672900 0.000000 -0.739734
vn 0.672900 0.000000 -0.739734
vn 0.672900 0.000000 -0.739734
vn 0.487701 -0.433120 -0.757994
vn 0.487701 -0.433120 -0.757994
vn 0.487701 -0.433120 -0.757994
vn 0.487701 -0.433120 -0.757994
vn 0.000000 -0.628550 -0.777769
vn 0.000000 -0.628550 -0.777769
vn 0.000000 -0.628550 -0.777769
vn 0.000000 -0.628550 -0.777769
vn 0.000000 1.000000 0.000000
vn 0.000000 1.000000 0.000000
vn 0.000000 1.000000 0.000000
vn 0.000000 1.000000 0.000000
vn 0.000000 -1.000000 0.000000
vn 0.000000 -1.000000 0.000000
vn 0.000000 -1.000000 0.000000
vn 0.000000 -1.000000 0.000000
vn 1.000000 0.000000 0.000000
vn 1.000000 0.000000 0.000000
vn 1.000000 0.000000 0.000000
vn 1.000000 0.000000 0.000000
vn -1.000000 0.000000 0.000000
vn -1.000000 0.000000 0.000000
vn -1.000000 0.000000 0.000000
vn -1.000000 0.000000 0.000000
vn 0.000000 0.000000 -1.000000
vn 0.000000 0.000000 -1.000000
vn 0.000000 0.000000 -1.000000
vn 0.000000 0.000000 -1.000000
vn 0.000000 0.000000 -1.000000
vn 0.000000 0.000000 -1.000000
vn 0.000000 0.000000 -1.000000
vn 0.000000 0.000000 -1.000000
vn -0.747876 0.663839 0.000000
vn -0.747876 0.663839 0.000000
vn -0.747876 0.663839 0.000000
vn -0.747876 0.663839 0.000000
vn 0.747612 0.664136 0.000000
vn 0.747612 0.664136 0.000000
vn 0.747612 0.664136 0.000000
vn 0.747612 0.664136 0.000000
vn -0.747875 -0.663840 0.000000
vn -0.747875 -0.663840 0.000000
vn -0.747875 -0.663840 0.000000
vn -0.747875 -0.663840 0.000000
vn 0.747611 -0.664137 0.000000
vn 0.747611 -0.664137 0.000000
vn 0.747611 -0.664137 0.000000
vn 0.747611 -0.664137 0.000000
s off
g pCube89
usemtl StingrayPBS8SG
f 135/190/146 134/191/147 137/192/148 136/193/149 133/194/150 132/195/151 131/196/152 130/197/153
f 138/155/154 139/154/155 143/158/156 142/159/157
f 139/154/158 138/155/159 140/156/160 141/157/161
f 141/157/162 140/156/163 150/160/164 151/161/165
f 142/182/166 143/178/167 145/181/168 144/183/169
f 144/170/170 145/171/171 147/167/172 146/166/173
f 146/166/174 147/167/175 149/168/176 148/169/177
f 148/169/178 149/168/179 153/174/180 152/175/181
f 151/185/182 150/188/183 152/189/184 153/186/185
f 143/178/186 131/179/187 132/180/188 145/181/189
f 134/184/190 151/185/191 153/186/192 137/187/193
f 136/172/194 149/168/195 147/167/196 133/173/197
f 141/157/198 135/162/199 130/163/200 139/154/201
f 138/198/202 142/199/203 144/200/204 146/201/205 148/202/206 152/203/207 150/204/208 140/205/209
f 130/163/210 131/164/211 143/158/212 139/154/213
f 132/176/214 133/173/215 147/167/216 145/171/217
f 134/165/218 135/162/219 141/157/220 151/161/221
f 136/172/222 137/177/223 153/174/224 149/168/225
g default
v -3287.355870 79.780967 195.847963
v -3284.402863 79.972602 199.321382
v -3207.550330 79.780967 195.847963
v -3210.503337 79.972602 199.321382
v -3279.102552 186.035492 259.270394
v -3282.055559 180.755810 255.799259
v -3282.055559 180.755810 123.676394
v -3279.102552 186.035492 120.205259
v -3212.850641 180.755810 255.799259
v -3215.803648 186.035492 259.270394
v -3215.803648 186.035492 120.205259
v -3212.850641 180.755810 123.676394
v -3282.055559 168.358338 123.676394
v -3279.102552 168.358338 120.205259
v -3215.803648 168.358338 120.205259
v -3212.850641 168.358338 123.676394
v -3283.740755 98.328414 196.030925
v -3280.787747 97.649794 199.495753
v -3284.402863 79.972602 148.170246
v -3287.355870 79.923812 151.652726
v -3207.550330 79.923812 151.652726
v -3210.503337 79.972602 148.170246
v -3211.165446 98.328414 196.030925
v -3214.118453 97.649794 199.495753
v -3282.055559 122.635033 199.960697
v -3279.102552 120.345429 203.165043
v -3280.787747 97.649804 147.330889
v -3283.740755 98.757933 150.758440
v -3211.165446 98.757933 150.758440
v -3214.118453 97.649804 147.330889
v -3212.850641 122.635033 199.960697
v -3215.803648 120.345429 203.165043
v -3282.055559 141.953769 209.362062
v -3279.102552 138.097306 211.803927
v -3279.102552 117.112943 142.706735
v -3282.055559 119.864524 145.743823
v -3212.850641 119.864524 145.743823
v -3215.803648 117.112943 142.706735
v -3212.850641 141.953769 209.362062
v -3215.803648 138.097306 211.803927
v -3282.055559 159.261720 227.903737
v -3279.102552 154.638443 229.608098
v -3279.102552 134.314763 132.633768
v -3282.055559 138.842803 134.630588
v -3212.850641 138.842803 134.630588
v -3215.803648 134.314763 132.633768
v -3212.850641 159.261720 227.903737
v -3215.803648 154.638443 229.608098
v -3282.055559 171.773556 255.799259
v -3279.102552 168.358338 259.270394
v -3279.102552 140.970415 120.205259
v -3282.055559 144.708956 123.676394
v -3212.850641 144.708956 123.676394
v -3215.803648 140.970415 120.205259
v -3212.850641 171.773556 255.799259
v -3215.803648 168.358338 259.270394
v -3297.855301 43.374774 228.146270
v -3301.336801 39.788001 225.714386
v -3302.405277 39.811509 220.533826
v -3304.731120 43.510511 219.601580
v -3301.831841 39.788020 127.061777
v -3304.775049 43.486797 127.860343
v -3301.341194 39.788001 121.741889
v -3297.855976 43.374076 119.312810
v -3193.044628 39.789229 220.424389
v -3190.175080 43.510511 219.601580
v -3193.570751 39.788001 225.714237
v -3197.051238 43.374916 228.146146
v -3192.517486 39.810829 126.950155
v -3190.131151 43.486797 127.860343
v -3197.050224 43.373943 119.312698
v -3193.563317 39.788001 121.741752
vt 0.215137 0.198013
vt 0.215001 0.134273
vt 0.232588 0.134010
vt 0.232995 0.199303
vt 0.180587 0.232327
vt 0.180610 0.100015
vt 0.215183 0.129264
vt 0.231944 0.129012
vt 0.255635 0.128342
vt 0.253008 0.206535
vt 0.215183 0.203036
vt 0.231944 0.204246
vt 0.177103 0.098671
vt 0.177080 0.233479
vt 0.253464 0.123720
vt 0.273953 0.114783
vt 0.271003 0.222563
vt 0.250399 0.210916
vt 0.177080 0.091199
vt 0.180481 0.087692
vt 0.180481 0.244655
vt 0.177080 0.241152
vt 0.270296 0.111261
vt 0.290364 0.088041
vt 0.276565 0.238362
vt 0.266710 0.225443
vt 0.285980 0.085583
vt 0.302228 0.047810
vt 0.298990 0.238362
vt 0.273021 0.243368
vt 0.298990 0.042803
vt 0.310745 0.047810
vt 0.310745 0.238362
vt 0.298990 0.243368
vt 0.315751 0.042803
vt 0.315751 0.243368
vt 0.073438 0.153185
vt 0.073573 0.089445
vt 0.091432 0.088156
vt 0.091025 0.153449
vt 0.039047 0.187443
vt 0.039024 0.055131
vt 0.073620 0.084423
vt 0.090381 0.083212
vt 0.111445 0.080923
vt 0.114072 0.159117
vt 0.073620 0.158195
vt 0.090381 0.158446
vt 0.035518 0.188630
vt 0.035539 0.053818
vt 0.108836 0.076543
vt 0.129440 0.064895
vt 0.132390 0.172676
vt 0.111901 0.163738
vt 0.038918 0.199767
vt 0.035517 0.196259
vt 0.035517 0.046307
vt 0.038917 0.042803
vt 0.125147 0.062016
vt 0.135002 0.049097
vt 0.148801 0.199417
vt 0.128733 0.176197
vt 0.131457 0.044091
vt 0.157426 0.049097
vt 0.160665 0.239649
vt 0.144417 0.201875
vt 0.157426 0.044091
vt 0.169182 0.049097
vt 0.169182 0.239649
vt 0.157426 0.244655
vt 0.174188 0.044091
vt 0.174188 0.244655
vt 0.318556 0.042803
vt 0.425873 0.042803
vt 0.425873 0.243368
vt 0.318556 0.243368
vt 0.164033 0.353772
vt 0.164033 0.246455
vt 0.181958 0.246455
vt 0.181958 0.353772
vt 0.196486 0.246455
vt 0.196486 0.353772
vt 0.118487 0.353772
vt 0.118487 0.246455
vt 0.161267 0.246455
vt 0.161267 0.353772
vt 0.092809 0.353772
vt 0.092809 0.246455
vt 0.080350 0.353772
vt 0.080350 0.246455
vt 0.431738 0.430948
vt 0.424266 0.432759
vt 0.289458 0.431787
vt 0.281785 0.430955
vt 0.281785 0.248228
vt 0.431738 0.248240
vt 0.278282 0.425046
vt 0.278282 0.254139
vt 0.424108 0.247348
vt 0.289297 0.246455
vt 0.435245 0.425045
vt 0.435245 0.254141
vt 0.450335 0.433190
vt 0.438011 0.421533
vt 0.479584 0.398725
vt 0.484593 0.403732
vt 0.438012 0.250629
vt 0.479584 0.273436
vt 0.450335 0.238971
vt 0.484593 0.268429
vt 0.475917 0.225441
vt 0.463590 0.237171
vt 0.429275 0.207639
vt 0.434298 0.202632
vt 0.434298 0.077343
vt 0.475917 0.054534
vt 0.463590 0.042803
vt 0.429275 0.072336
vt 0.258754 0.365615
vt 0.258754 0.252584
vt 0.275515 0.246455
vt 0.275515 0.371744
vt 0.240299 0.362758
vt 0.240299 0.255441
vt 0.199252 0.371744
vt 0.199252 0.246455
vt 0.216013 0.252584
vt 0.216013 0.365615
vt 0.237533 0.255441
vt 0.237533 0.362758
vt 0.052278 0.353772
vt 0.052278 0.246455
vt 0.078247 0.246455
vt 0.078247 0.353772
vt 0.035517 0.353772
vt 0.035517 0.246455
vt 0.081299 0.462889
vt 0.081299 0.355572
vt 0.098060 0.355572
vt 0.098060 0.462889
vn -0.748670 0.143045 0.647327
vn -0.748670 0.143045 0.647327
vn -0.758291 0.022977 0.651511
vn -0.757452 0.043023 0.651471
vn 0.748670 0.143045 0.647327
vn 0.748670 0.143045 0.647327
vn 0.757452 0.043022 0.651471
vn 0.758291 0.022977 0.651511
vn -0.761665 0.000000 0.647971
vn -0.761665 0.000000 0.647971
vn -0.761665 0.000000 0.647971
vn -0.761665 0.000000 0.647971
vn -0.872761 0.488149 0.000000
vn -0.872761 0.488149 0.000000
vn -0.872761 0.488149 0.000000
vn -0.872761 0.488149 0.000000
vn -0.761664 0.000000 -0.647972
vn -0.761664 0.000000 -0.647972
vn -0.761664 0.000000 -0.647972
vn -0.761664 0.000000 -0.647972
vn 0.761665 0.000000 0.647971
vn 0.761665 0.000000 0.647971
vn 0.761665 0.000000 0.647971
vn 0.761665 0.000000 0.647971
vn 0.872760 0.488149 0.000000
vn 0.872760 0.488149 0.000000
vn 0.872760 0.488149 0.000000
vn 0.872760 0.488149 0.000000
vn 0.761664 0.000000 -0.647972
vn 0.761664 0.000000 -0.647972
vn 0.761664 0.000000 -0.647972
vn 0.761664 0.000000 -0.647972
vn -0.761664 0.000000 -0.647972
vn -0.761664 0.000000 -0.647972
vn 0.761664 0.000000 -0.647972
vn 0.761664 0.000000 -0.647972
vn -0.782711 -0.156654 0.602348
vn -0.781627 -0.150592 0.605295
vn -0.746086 0.116618 -0.655558
vn -0.746086 0.116618 -0.655558
vn -0.757500 0.017292 -0.652607
vn -0.759014 -0.004909 -0.651056
vn 0.746085 0.116618 -0.655558
vn 0.746085 0.116618 -0.655558
vn 0.759014 -0.004909 -0.651056
vn 0.757500 0.017292 -0.652607
vn 0.781627 -0.150592 0.605295
vn 0.782711 -0.156655 0.602348
vn -0.824575 -0.345155 0.448269
vn -0.824149 -0.343652 0.450201
vn -0.789530 -0.195796 -0.581641
vn -0.790903 -0.202463 -0.577479
vn 0.790903 -0.202463 -0.577479
vn 0.789530 -0.195796 -0.581641
vn 0.824149 -0.343652 0.450202
vn 0.824575 -0.345155 0.448269
vn -0.846705 -0.449904 0.284038
vn -0.846315 -0.446652 0.290263
vn -0.837725 -0.368673 -0.402860
vn -0.837725 -0.368673 -0.402861
vn 0.837725 -0.368672 -0.402861
vn 0.837726 -0.368672 -0.402861
vn 0.846315 -0.446652 0.290263
vn 0.846705 -0.449904 0.284038
vn -0.848284 -0.481858 0.219605
vn -0.848284 -0.481858 0.219605
vn -0.858077 -0.452696 -0.242426
vn -0.858077 -0.452696 -0.242426
vn 0.858078 -0.452695 -0.242426
vn 0.858078 -0.452695 -0.242426
vn 0.848285 -0.481858 0.219605
vn 0.848284 -0.481858 0.219605
vn 0.000000 1.000000 0.000000
vn 0.000000 1.000000 0.000000
vn 0.000000 1.000000 0.000000
vn 0.000000 1.000000 0.000000
vn -0.981799 0.189920 0.001215
vn -0.981799 0.189920 0.001215
vn -0.992788 0.119878 -0.000576
vn -0.993134 0.116978 -0.000650
vn 0.000000 -0.128257 -0.991741
vn 0.000000 -0.128257 -0.991741
vn 0.000000 -0.047429 -0.998875
vn 0.000000 -0.047429 -0.998875
vn 0.981799 0.189920 0.001215
vn 0.981799 0.189920 0.001215
vn 0.993134 0.116978 -0.000650
vn 0.992788 0.119878 -0.000576
vn 0.000000 -0.009864 0.999951
vn 0.000000 -0.009864 0.999951
vn 0.000000 -0.081137 0.996703
vn 0.000000 -0.081137 0.996703
vn -0.999671 0.025656 -0.000604
vn -0.999687 0.024994 -0.000588
vn 0.000000 -0.364143 -0.931343
vn 0.000000 -0.364143 -0.931343
vn 0.999687 0.024993 -0.000588
vn 0.999671 0.025656 -0.000604
vn 0.000000 -0.283808 0.958881
vn 0.000000 -0.283808 0.958881
vn -1.000000 0.000000 0.000000
vn -1.000000 0.000000 0.000000
vn 0.000000 -0.686131 -0.727478
vn 0.000000 -0.686131 -0.727478
vn 1.000000 -0.000000 0.000000
vn 1.000000 -0.000000 0.000000
vn 0.000000 -0.610636 0.791911
vn 0.000000 -0.610636 0.791911
vn -1.000000 -0.000000 0.000000
vn -1.000000 -0.000000 0.000000
vn 0.000000 -0.881553 -0.472085
vn 0.000000 -0.881553 -0.472085
vn 1.000000 -0.000000 0.000000
vn 1.000000 -0.000000 0.000000
vn 0.000000 -0.843218 0.537572
vn 0.000000 -0.843218 0.537572
vn -1.000000 -0.000000 0.000000
vn -1.000000 -0.000000 0.000000
vn 0.000000 0.000000 -1.000000
vn 0.000000 0.000000 -1.000000
vn 0.000000 0.000000 -1.000000
vn 0.000000 0.000000 -1.000000
vn 1.000000 -0.000000 0.000000
vn 1.000000 -0.000000 0.000000
vn 0.000000 -0.907614 0.419805
vn 0.000000 -0.907614 0.419805
vn -1.000000 0.000000 0.000000
vn -1.000000 0.000000 0.000000
vn 0.000000 0.000000 -1.000000
vn 0.000000 0.000000 -1.000000
vn 1.000000 0.000000 0.000000
vn 1.000000 0.000000 0.000000
vn 0.000000 0.000000 1.000000
vn 0.000000 0.000000 1.000000
vn 0.000000 0.000000 1.000000
vn 0.000000 0.000000 1.000000
vn 0.000001 -0.561181 0.827693
vn 0.000001 -0.561181 0.827693
vn 0.000001 -0.561181 0.827693
vn 0.000001 -0.561181 0.827693
vn -0.864805 0.034064 0.500951
vn -0.864805 0.034064 0.500951
vn -0.864805 0.034064 0.500951
vn -0.864805 0.034064 0.500951
vn -0.814497 -0.580163 -0.002181
vn -0.814497 -0.580163 -0.002181
vn -0.814497 -0.580163 -0.002181
vn -0.814497 -0.580163 -0.002181
vn -0.881426 -0.039761 -0.470646
vn -0.881426 -0.039761 -0.470646
vn -0.881426 -0.039761 -0.470646
vn -0.881426 -0.039761 -0.470646
vn -0.000001 -0.560822 -0.827936
vn -0.000001 -0.560822 -0.827936
vn -0.000001 -0.560822 -0.827936
vn -0.000001 -0.560822 -0.827936
vn 0.881444 -0.030090 0.471329
vn 0.881444 -0.030090 0.471329
vn 0.881444 -0.030090 0.471329
vn 0.881444 -0.030090 0.471329
vn 0.815167 -0.579221 0.002520
vn 0.815167 -0.579221 0.002520
vn 0.815167 -0.579221 0.002520
vn 0.815167 -0.579221 0.002520
vn 0.864991 0.026286 -0.501098
vn 0.864991 0.026286 -0.501098
vn 0.864991 0.026286 -0.501098
vn 0.864991 0.026286 -0.501098
vn -0.000016 -1.000000 0.000000
vn -0.015081 -0.999886 0.000076
vn -0.015081 -0.999886 0.000076
vn -0.000007 -1.000000 0.000000
vn -0.871392 0.480692 0.098038
vn -0.610749 0.616726 0.496624
vn -0.610749 0.616726 0.496624
vn -0.890342 0.453320 0.042324
vn 0.015297 -0.999883 -0.000068
vn 0.000008 -1.000000 0.000000
vn 0.000016 -1.000000 -0.000000
vn 0.015297 -0.999883 -0.000068
vn 0.610741 0.616726 0.496633
vn 0.871391 0.480693 0.098040
vn 0.890342 0.453321 0.042325
vn 0.610741 0.616726 0.496633
vn -0.606450 0.617471 -0.500947
vn -0.871120 0.481209 -0.097919
vn -0.890311 0.453473 -0.041338
vn -0.606450 0.617471 -0.500947
vn 0.871119 0.481210 -0.097921
vn 0.606449 0.617471 -0.500949
vn 0.606449 0.617471 -0.500949
vn 0.890311 0.453474 -0.041339
vn 0.000000 0.618743 0.785594
vn 0.000000 0.618743 0.785594
vn 0.000000 0.618743 0.785594
vn 0.000000 0.618743 0.785594
vn -0.000000 0.619166 -0.785260
vn -0.000000 0.619166 -0.785260
vn -0.000000 0.619166 -0.785260
vn -0.000000 0.619166 -0.785260
s 1
g pCube88
usemtl StingrayPBS8SG
f 154/207/226 155/212/227 171/213/228 170/208/229
s 2
f 157/252/230 156/242/231 176/245/232 177/253/233
s off
f 158/240/234 159/237/235 202/233/236 203/236/237
f 159/237/238 158/240/239 161/241/240 160/238/241
s 3
f 160/238/242 161/241/243 167/239/244 166/234/245
s off
f 162/274/246 163/277/247 209/275/248 208/270/249
f 163/277/250 162/274/251 165/273/252 164/276/253
s 4
f 164/276/254 165/273/255 169/269/256 168/272/257
s 3
f 166/234/245 167/239/244 204/235/258 205/230/259
s 4
f 168/272/257 169/269/256 206/265/260 207/268/261
s 1
f 170/208/229 171/213/228 179/220/262 178/214/263
s 5
f 172/216/264 173/206/265 181/209/266 180/217/267
s 6
f 174/243/268 175/248/269 183/249/270 182/244/271
s 2
f 177/253/233 176/245/232 184/251/272 185/259/273
s 1
f 178/214/263 179/220/262 187/228/274 186/221/275
s 5
f 180/217/267 181/209/266 189/215/276 188/223/277
s 6
f 182/244/271 183/249/270 191/256/278 190/250/279
s 2
f 185/259/273 184/251/272 192/258/280 193/267/281
s 1
f 186/221/275 187/228/274 195/232/282 194/229/283
s 5
f 188/223/277 189/215/276 197/222/284 196/231/285
s 6
f 190/250/279 191/256/278 199/264/286 198/257/287
s 2
f 193/267/281 192/258/280 200/266/288 201/271/289
s 1
f 194/229/283 195/232/282 203/236/290 202/233/291
s 5
f 196/231/285 197/222/284 205/230/292 204/235/293
s 6
f 198/257/287 199/264/286 207/268/294 206/265/295
s 2
f 201/271/289 200/266/288 208/270/296 209/275/297
s off
f 158/278/298 163/279/299 164/280/300 161/281/301
s 7
f 173/206/302 154/207/303 170/208/304 181/209/305
s 8
f 180/324/306 183/325/307 175/326/308 172/327/309
s 9
f 156/242/310 174/243/311 182/244/312 176/245/313
s 10
f 155/330/314 157/331/315 177/332/316 171/333/317
s 7
f 181/209/305 170/208/304 178/214/318 189/215/319
s 8
f 188/328/320 191/329/321 183/325/307 180/324/306
s 9
f 176/245/313 182/244/312 190/250/322 184/251/323
s 10
f 171/333/317 177/332/316 185/334/324 179/335/325
s 7
f 189/215/319 178/214/318 186/221/326 197/222/327
s 8
f 196/285/328 199/284/329 191/286/321 188/287/320
s 9
f 184/251/323 190/250/322 198/257/330 192/258/331
s 10
f 179/294/325 185/295/324 193/293/332 187/292/333
s 7
f 197/222/327 186/221/326 194/229/334 205/230/335
s 8
f 204/282/336 207/283/337 199/284/329 196/285/328
s 9
f 192/258/331 198/257/330 206/265/338 200/266/339
s 10
f 187/292/333 193/293/332 201/289/340 195/288/341
s 7
f 205/230/335 194/229/334 202/233/342 166/234/343
s 11
f 167/336/344 168/337/345 207/338/346 204/339/347
s 9
f 200/266/339 206/265/338 169/269/348 208/270/349
s 10
f 195/288/341 201/289/340 209/290/350 203/291/351
s 7
f 166/234/343 202/233/342 159/237/352 160/238/353
s 11
f 161/340/354 164/341/355 168/337/345 167/336/344
s 9
f 208/270/349 169/269/348 165/273/356 162/274/357
s off
f 203/342/358 209/343/359 163/344/360 158/345/361
f 210/306/362 211/296/363 220/301/364 221/307/365
f 211/224/366 210/225/367 213/211/368 212/218/369
f 212/218/370 213/211/371 215/210/372 214/219/373
f 214/219/374 215/210/375 217/226/376 216/227/377
f 216/299/378 217/302/379 224/303/380 225/300/381
f 218/254/382 219/246/383 221/260/384 220/261/385
f 219/246/386 218/254/387 222/255/388 223/247/389
f 223/247/390 222/255/391 225/262/392 224/263/393
s 12
f 211/296/394 212/297/395 214/298/396 216/299/397
s 13
f 213/308/398 210/309/399 155/310/400 154/311/401
s 12
f 218/304/402 220/301/403 225/300/404 222/305/405
s 14
f 221/312/406 219/314/407 156/315/408 157/313/409
s 13
f 217/316/410 215/317/411 173/318/412 172/319/413
s 14
f 223/322/414 224/321/415 175/320/416 174/323/417
s off
f 210/309/418 221/312/419 157/313/420 155/310/421
f 172/319/422 175/320/423 224/321/424 217/316/425
s 12
f 216/299/397 225/300/404 220/301/403 211/296/394
s 14
f 219/246/407 223/247/414 174/243/417 156/242/408
s 13
f 215/210/411 213/211/398 154/207/401 173/206/412
